<svg width="135" height="43" viewBox="0 0 135 43" fill="none" xmlns="http://www.w3.org/2000/svg">
<g filter="url(#filter0_d_0_50)">
<path d="M56.125 22.6286C56.125 28.8151 51.2659 33.3739 45.3028 33.3739C39.3396 33.3739 34.4805 28.8151 34.4805 22.6286C34.4805 16.3985 39.3396 11.8834 45.3028 11.8834C51.2659 11.8834 56.125 16.3985 56.125 22.6286ZM51.3875 22.6286C51.3875 18.7626 48.5713 16.1175 45.3028 16.1175C42.0342 16.1175 39.218 18.7626 39.218 22.6286C39.218 26.4558 42.0342 29.1397 45.3028 29.1397C48.5713 29.1397 51.3875 26.451 51.3875 22.6286Z" fill="#EA4335"/>
<path d="M80.1161 22.6286C80.1161 28.8151 75.257 33.3739 69.2938 33.3739C63.3306 33.3739 58.4715 28.8151 58.4715 22.6286C58.4715 16.4033 63.3306 11.8834 69.2938 11.8834C75.257 11.8834 80.1161 16.3985 80.1161 22.6286ZM75.3786 22.6286C75.3786 18.7626 72.5624 16.1175 69.2938 16.1175C66.0252 16.1175 63.209 18.7626 63.209 22.6286C63.209 26.4558 66.0252 29.1397 69.2938 29.1397C72.5624 29.1397 75.3786 26.451 75.3786 22.6286Z" fill="#FBBC05"/>
<path d="M102.651 12.5325V31.8236C102.651 39.759 97.9521 43 92.3975 43C87.1688 43 84.0218 39.5168 82.835 36.6682L86.9596 34.958C87.6941 36.7069 89.4937 38.7707 92.3926 38.7707C95.9482 38.7707 98.1515 36.5858 98.1515 32.4728V30.9274H97.9862C96.9258 32.2305 94.883 33.369 92.3051 33.369C86.911 33.369 81.9692 28.6892 81.9692 22.6674C81.9692 16.602 86.911 11.8834 92.3051 11.8834C94.8781 11.8834 96.921 13.0218 97.9862 14.2863H98.1515V12.5374H102.651V12.5325ZM98.4872 22.6674C98.4872 18.8838 95.9531 16.1175 92.7283 16.1175C89.4597 16.1175 86.7213 18.8838 86.7213 22.6674C86.7213 26.4122 89.4597 29.1397 92.7283 29.1397C95.9531 29.1397 98.4872 26.4122 98.4872 22.6674Z" fill="#4285F4"/>
<path d="M111.443 1.22515V32.7148H106.823V1.22515H111.443Z" fill="#34A853"/>
<path d="M130.774 26.1657L134.451 28.6074C133.264 30.3563 130.404 33.3696 125.463 33.3696C119.334 33.3696 114.757 28.651 114.757 22.6243C114.757 16.2344 119.373 11.8791 124.933 11.8791C130.531 11.8791 133.269 16.3167 134.164 18.7148L134.656 19.9356L120.234 25.8847C121.338 28.0406 123.055 29.1403 125.463 29.1403C127.875 29.1403 129.548 27.9582 130.774 26.1657ZM119.456 22.2998L129.096 18.3127C128.566 16.9707 126.971 16.0357 125.093 16.0357C122.685 16.0357 119.334 18.1528 119.456 22.2998Z" fill="#EA4335"/>
<path d="M16.9897 19.8337V15.2749H32.4133C32.5641 16.0694 32.6419 17.0093 32.6419 18.0266C32.6419 21.4469 31.7032 25.6762 28.6778 28.6895C25.7351 31.7416 21.9753 33.3694 16.9946 33.3694C7.76285 33.3694 0 25.8797 0 16.6847C0 7.4897 7.76285 0 16.9946 0C22.1017 0 25.74 1.99596 28.4735 4.5975L25.2438 7.81429C23.2837 5.98304 20.628 4.55874 16.9897 4.55874C10.2483 4.55874 4.97581 9.97012 4.97581 16.6847C4.97581 23.3993 10.2483 28.8107 16.9897 28.8107C21.3624 28.8107 23.8528 27.0618 25.4481 25.4727C26.7419 24.1841 27.5931 22.3432 27.9287 19.8288L16.9897 19.8337Z" fill="#4285F4"/>
</g>
<defs>
<filter id="filter0_d_0_50" x="-6.55756" y="-6.55756" width="147.771" height="56.1152" filterUnits="userSpaceOnUse" color-interpolation-filters="sRGB">
<feFlood flood-opacity="0" result="BackgroundImageFix"/>
<feColorMatrix in="SourceAlpha" type="matrix" values="0 0 0 0 0 0 0 0 0 0 0 0 0 0 0 0 0 0 127 0" result="hardAlpha"/>
<feOffset/>
<feGaussianBlur stdDeviation="3.2775"/>
<feColorMatrix type="matrix" values="0 0 0 0 1 0 0 0 0 1 0 0 0 0 1 0 0 0 1 0"/>
<feBlend mode="normal" in2="BackgroundImageFix" result="effect1_dropShadow_0_50"/>
<feBlend mode="normal" in="SourceGraphic" in2="effect1_dropShadow_0_50" result="shape"/>
</filter>
</defs>
</svg>
