<svg width="21" height="26" viewBox="0 0 21 26" fill="none" xmlns="http://www.w3.org/2000/svg">
<path d="M10.9136 17.0886C10.9652 17.0354 11.0352 17.0038 11.1093 17.0003C11.1834 16.9968 11.256 17.0217 11.3124 17.0698C11.3688 17.118 11.4047 17.1858 11.4129 17.2595C11.4211 17.3332 11.4009 17.4073 11.3564 17.4666L11.3325 17.4943L8.56629 20.3468C8.47822 20.4382 8.35869 20.4927 8.23195 20.4991C8.10521 20.5056 7.98074 20.4637 7.88379 20.3818L7.84704 20.3474L5.08029 17.4943C5.02949 17.4409 5.00081 17.3702 5.00002 17.2965C4.99922 17.2228 5.02637 17.1515 5.076 17.097C5.12564 17.0425 5.19407 17.0088 5.26754 17.0027C5.341 16.9966 5.41406 17.0185 5.472 17.0641L5.49912 17.0889L8.20637 19.8802L10.9136 17.0886Z" fill="#C2C2C2"/>
</svg>
