<svg width="26" height="25" viewBox="0 0 26 25" fill="none" xmlns="http://www.w3.org/2000/svg">
<rect x="1.15425" y="4.61527" width="23.0771" height="19.2309" rx="1.53333" stroke="#F69561" stroke-width="2.3"/>
<path d="M1.15425 7.69221C1.15425 6.24173 1.15425 5.51648 1.60485 5.06588C2.05546 4.61527 2.7807 4.61527 4.23119 4.61527H21.1544C22.6049 4.61527 23.3301 4.61527 23.7807 5.06588C24.2313 5.51648 24.2313 6.24173 24.2313 7.69221V9.74351H1.15425V7.69221Z" fill="#F69561"/>
<path d="M6.2827 0.76917L6.2827 4.61535" stroke="#F69561" stroke-width="1.53333" stroke-linecap="round"/>
<path d="M19.1029 0.76917L19.1029 4.61535" stroke="#F69561" stroke-width="1.53333" stroke-linecap="round"/>
<rect x="6.2827" y="12.3077" width="5.12824" height="2.56412" rx="0.383333" fill="#F69561"/>
<rect x="6.2827" y="17.4354" width="5.12824" height="2.56412" rx="0.383333" fill="#F69561"/>
<rect x="13.9764" y="12.3077" width="5.12824" height="2.56412" rx="0.383333" fill="#F69561"/>
<rect x="13.9764" y="17.4354" width="5.12824" height="2.56412" rx="0.383333" fill="#F69561"/>
</svg>
