<svg width="25" height="25" viewBox="0 0 25 25" fill="none" xmlns="http://www.w3.org/2000/svg">
<path d="M0.99999 7.18196C0.99999 6.40065 0.99999 6.00999 1.14013 5.65561C1.28027 5.30122 1.54746 5.01622 2.08183 4.44623L4.12724 2.26446C4.71135 1.6414 5.00341 1.32987 5.38385 1.16505C5.76429 1.00023 6.19132 1.00023 7.04536 1.00023H17.9544C18.8084 1.00023 19.2355 1.00023 19.6159 1.16505C19.9963 1.32987 20.2884 1.6414 20.8725 2.26446L22.9179 4.44623C23.4523 5.01623 23.7195 5.30122 23.8596 5.65561C23.9998 6.00999 23.9998 6.40065 23.9998 7.18196V20.0001C23.9998 21.8856 23.9998 22.8284 23.414 23.4142C22.8282 24 21.8854 24 19.9998 24H4.99995C3.11435 24 2.17155 24 1.58577 23.4142C0.99999 22.8284 0.99999 21.8856 0.99999 20V7.18196Z" stroke="#ADADAD" stroke-width="2"/>
<path d="M0.99999 8.66691H23.9998" stroke="#ADADAD" stroke-width="2" stroke-linecap="round"/>
<path d="M16.5715 7.13348L8.4257 7.13348C8.08688 7.13348 7.91747 7.13348 7.81221 7.24575C7.70696 7.35802 7.70696 7.53873 7.70696 7.90013L7.70696 14.289C7.70696 15.4617 7.70696 16.048 7.84914 16.3632C8.16652 17.0667 8.92881 17.4035 9.6196 17.1454C9.92905 17.0298 10.3177 16.6152 11.0951 15.786C11.4552 15.4019 11.6352 15.2099 11.8266 15.1019C12.247 14.8648 12.7501 14.8648 13.1705 15.1019C13.3619 15.2099 13.542 15.4019 13.902 15.786C14.6794 16.6152 15.0681 17.0298 15.3776 17.1454C16.0683 17.4035 16.8306 17.0667 17.148 16.3632C17.2902 16.048 17.2902 15.4617 17.2902 14.289V7.90013C17.2902 7.53873 17.2902 7.35802 17.1849 7.24575C17.0797 7.13348 16.9103 7.13348 16.5715 7.13348Z" fill="#ADADAD"/>
</svg>
