<svg width="30" height="31" viewBox="0 0 30 31" fill="none" xmlns="http://www.w3.org/2000/svg">
<path fill-rule="evenodd" clip-rule="evenodd" d="M20.442 1.22435C19.3513 0.590724 18.1182 0.179061 16.8062 0.0461469C16.3503 -4.60746e-05 15.8358 -2.83858e-05 14.9669 1.49656e-06H14.9668L14.8971 4.85674e-06L14.8275 1.49656e-06H14.8274C13.9584 -2.83858e-05 13.444 -4.60746e-05 12.9881 0.0461469C9.08844 0.441224 5.88506 3.29911 5.04942 7.12859C4.95172 7.57634 4.89328 8.08745 4.79456 8.95084L4.78665 9.02006L4.40762 12.334C4.28214 13.4312 4.22761 13.8902 4.11738 14.3287C4.01736 14.7264 3.88282 15.1147 3.71526 15.4891C3.53059 15.9017 3.2894 16.2961 2.70911 17.2357L1.21218 19.6594L1.17344 19.7221C0.787068 20.3476 0.439155 20.9108 0.235542 21.3843C0.0228866 21.8788 -0.158262 22.5585 0.218376 23.2338C0.595014 23.909 1.26843 24.112 1.80095 24.191C2.31083 24.2666 2.9728 24.2665 3.70796 24.2664L3.78168 24.2664H26.0126L26.0863 24.2664C26.8215 24.2665 27.4835 24.2666 27.9933 24.191C28.5259 24.112 29.1993 23.909 29.5759 23.2338C29.9525 22.5585 29.7714 21.8788 29.5587 21.3843C29.3551 20.9108 29.0072 20.3476 28.6208 19.7221L28.5821 19.6594L27.0852 17.2357C26.5049 16.2961 26.2637 15.9017 26.079 15.4891C25.9115 15.1147 25.7769 14.7264 25.6769 14.3287C25.5667 13.8902 25.5121 13.4312 25.3867 12.334L25.342 11.9433C25.135 11.9638 24.9256 11.9743 24.7143 11.9743C24.2308 11.9743 23.7574 11.9195 23.3009 11.8156L23.3863 12.5628L23.3948 12.6369L23.3948 12.637C23.5093 13.6385 23.5777 14.2363 23.7243 14.8196C23.8529 15.331 24.0259 15.8303 24.2413 16.3116C24.487 16.8605 24.8032 17.3725 25.333 18.2302L25.3722 18.2936L26.8691 20.7174C27.3067 21.426 27.5718 21.8603 27.7091 22.1796L27.7163 22.1966L27.6981 22.1994C27.3542 22.2504 26.8454 22.253 26.0126 22.253H3.78168C2.94885 22.253 2.44005 22.2504 2.0962 22.1994L2.07794 22.1966L2.08517 22.1796C2.22248 21.8603 2.48756 21.426 2.92519 20.7174L4.42211 18.2936L4.46127 18.2302C4.99106 17.3725 5.30728 16.8606 5.55297 16.3116C5.7684 15.8303 5.94139 15.331 6.06997 14.8196C6.21663 14.2363 6.28497 13.6385 6.39948 12.6369L6.39949 12.6369L6.40795 12.5628L6.78698 9.24884C6.89594 8.29613 6.94329 7.89335 7.0165 7.55783C7.66644 4.57935 10.158 2.35655 13.191 2.04926C13.5327 2.01465 13.9382 2.01337 14.8971 2.01337C15.8561 2.01337 16.2616 2.01465 16.6033 2.04926C17.5226 2.1424 18.3921 2.41151 19.1757 2.8243C19.5075 2.22175 19.9374 1.68236 20.442 1.22435ZM22.8001 3.19654C22.2164 3.6062 21.7773 4.19832 21.5714 4.88683C22.1444 5.66593 22.5623 6.57034 22.7778 7.55783C22.8253 7.77572 22.862 8.02198 22.9117 8.42879C23.4286 8.76086 24.0482 8.9542 24.7143 8.9542C24.8101 8.9542 24.905 8.9502 24.9988 8.94236C24.9006 8.0841 24.8422 7.57487 24.7449 7.12859C24.4206 5.64255 23.7398 4.30283 22.8001 3.19654ZM27.7807 22.3937C27.7806 22.3936 27.7801 22.391 27.78 22.3861C27.7808 22.3914 27.7809 22.3938 27.7807 22.3937ZM27.9179 22.1478C27.9177 22.1477 27.9152 22.1488 27.911 22.1511C27.9146 22.1497 27.9167 22.1486 27.9175 22.1481C27.9178 22.1479 27.9179 22.1478 27.9179 22.1478ZM1.87639 22.1478C1.87658 22.1477 1.87905 22.1488 1.88326 22.1511C1.87831 22.1491 1.87621 22.1479 1.87639 22.1478ZM2.01355 22.3937C2.01372 22.3936 2.01415 22.391 2.01433 22.3861C2.01387 22.389 2.01363 22.391 2.01354 22.3922C2.01345 22.3933 2.01348 22.3938 2.01355 22.3937Z" fill="#ADADAD"/>
<path d="M10.1567 24.3162C10.4364 25.8372 11.0526 27.1811 11.9098 28.1396C12.767 29.0982 13.8174 29.6177 14.8979 29.6177C15.9784 29.6177 17.0287 29.0982 17.886 28.1396C18.7432 27.1811 19.3594 25.8372 19.6391 24.3162" stroke="#ADADAD" stroke-width="2" stroke-linecap="round"/>
<path d="M24.7145 9.96089C27.0501 9.96089 28.9935 8.11414 28.9935 5.77519C28.9935 3.43625 27.0501 1.5895 24.7145 1.5895C22.3789 1.5895 20.4355 3.43625 20.4355 5.77519C20.4355 8.11414 22.3789 9.96089 24.7145 9.96089Z" fill="#ADADAD" stroke="#ADADAD" stroke-width="2"/>
</svg>
