<svg width="23" height="23" viewBox="0 0 23 23" fill="none" xmlns="http://www.w3.org/2000/svg">
<path d="M20.4444 7.03753e-07C21.8558 7.59278e-07 23 1.02975 23 2.3V4.6C23 5.87026 21.8558 6.9 20.4444 6.9L2.55556 6.9C1.14416 6.9 -6.1694e-08 5.87025 0 4.6L1.11707e-07 2.3C1.73401e-07 1.02974 1.14416 -5.55246e-08 2.55556 0L20.4444 7.03753e-07ZM20.4444 4.6V2.3L2.55556 2.3V4.6L20.4444 4.6Z" fill="#F69561"/>
<path d="M20.4444 16.1C21.8558 16.1 23 17.1297 23 18.4V20.7C23 21.9703 21.8558 23 20.4444 23H2.55556C1.14416 23 -6.1694e-08 21.9703 0 20.7L1.11707e-07 18.4C1.73401e-07 17.1297 1.14416 16.1 2.55556 16.1H20.4444ZM20.4444 20.7V18.4H2.55556V20.7H20.4444Z" fill="#F69561"/>
<path d="M20.4444 8.05C21.8558 8.05 23 9.07975 23 10.35V12.65C23 13.9203 21.8558 14.95 20.4444 14.95L2.55556 14.95C1.14416 14.95 -6.1694e-08 13.9203 0 12.65L1.11707e-07 10.35C1.73401e-07 9.07975 1.14416 8.05 2.55556 8.05H20.4444ZM20.4444 12.65V10.35L2.55556 10.35V12.65L20.4444 12.65Z" fill="#F69561"/>
</svg>
