<svg width="30" height="30" viewBox="0 0 30 30" fill="none" xmlns="http://www.w3.org/2000/svg">
<path d="M2.59643 1.48967C2.78539 0.773624 2.87986 0.4156 3.14961 0.2078C3.41936 0 3.78964 0 4.5302 0H24.7818C25.5224 0 25.8927 0 26.1624 0.2078C26.4322 0.4156 26.5266 0.773624 26.7156 1.48967L28.9933 10.1212C29.2978 11.2751 29.4501 11.8521 29.1499 12.2418C28.8496 12.6315 28.2529 12.6315 27.0596 12.6315H26.3469C24.7422 12.6315 23.9399 12.6315 23.3822 12.1634C22.8245 11.6952 22.6855 10.905 22.4074 9.32462L22.3529 9.01434C22.2775 8.58601 22.2398 8.37184 22.1559 8.37184C22.0719 8.37184 22.0343 8.58601 21.9589 9.01433L21.8279 9.759C21.6241 10.9174 21.5222 11.4966 21.1875 11.9031C21.0315 12.0924 20.842 12.2514 20.6286 12.3722C20.1703 12.6315 19.5822 12.6315 18.406 12.6315C17.2297 12.6315 16.6416 12.6315 16.1833 12.3722C15.9699 12.2514 15.7804 12.0924 15.6244 11.9031C15.2897 11.4966 15.1878 10.9174 14.984 9.759L14.853 9.01434C14.7776 8.58601 14.74 8.37184 14.656 8.37184C14.5721 8.37184 14.5344 8.58601 14.459 9.01433L14.328 9.759C14.1242 10.9174 14.0223 11.4966 13.6876 11.9031C13.5316 12.0924 13.3422 12.2514 13.1287 12.3722C12.6704 12.6315 12.0823 12.6315 10.9061 12.6315C9.72986 12.6315 9.14175 12.6315 8.68347 12.3722C8.46997 12.2514 8.28052 12.0924 8.12456 11.9031C7.7898 11.4966 7.68791 10.9174 7.48411 9.759L7.35311 9.01434C7.27775 8.58601 7.24008 8.37184 7.15613 8.37184C7.07219 8.37184 7.03451 8.58601 6.95916 9.01433L6.90458 9.32462C6.62655 10.905 6.48753 11.6952 5.92983 12.1634C5.37213 12.6315 4.5698 12.6315 2.96514 12.6315H2.25245C1.05908 12.6315 0.462394 12.6315 0.162169 12.2418C-0.138057 11.8521 0.0141884 11.2751 0.318679 10.1212L2.59643 1.48967Z" fill="#ADADAD"/>
<path fill-rule="evenodd" clip-rule="evenodd" d="M2.99154 14.1317C2.98823 14.411 2.98823 14.7169 2.98823 15.0527V28.0001C2.98823 28.9429 2.98823 29.4143 3.28112 29.7072C3.57401 30.0001 4.04541 30.0001 4.9882 30.0001H11.3221V23.1054C11.3221 22.5531 11.7698 22.1054 12.3221 22.1054H16.9887C17.5409 22.1054 17.9886 22.5531 17.9886 23.1054V30.0001H24.3212C25.264 30.0001 25.7354 30.0001 26.0283 29.7072C26.3212 29.4143 26.3212 28.9429 26.3212 28.0001V15.0527C26.3212 14.7169 26.3212 14.411 26.3179 14.1317L26.2676 14.1317C25.5337 14.1318 24.8514 14.1319 24.2869 14.0617C23.6608 13.9839 23.0018 13.8027 22.4178 13.3124C22.3239 13.2336 22.2375 13.1515 22.1579 13.0666C21.9253 13.3069 21.6591 13.5128 21.3672 13.678C20.8816 13.9527 20.3856 14.0504 19.9243 14.093C19.5031 14.1318 19.0021 14.1318 18.4636 14.1317H18.4636L18.406 14.1317L18.3483 14.1317H18.3483C17.8098 14.1318 17.3088 14.1318 16.8876 14.093C16.4263 14.0504 15.9303 13.9527 15.4447 13.678C15.1537 13.5133 14.8882 13.308 14.656 13.0687C14.4239 13.308 14.1583 13.5133 13.8673 13.678C13.3817 13.9527 12.8857 14.0504 12.4244 14.093C12.0032 14.1318 11.5022 14.1318 10.9637 14.1317H10.9637L10.9061 14.1317L10.8484 14.1317H10.8484C10.3099 14.1318 9.8089 14.1318 9.38776 14.093C8.92644 14.0504 8.43047 13.9527 7.94486 13.678C7.65297 13.5128 7.38677 13.3069 7.15413 13.0666C7.07452 13.1515 6.98814 13.2336 6.89422 13.3124C6.31021 13.8027 5.65124 13.9839 5.02508 14.0617C4.46061 14.1319 3.77835 14.1318 3.04443 14.1317L2.99154 14.1317ZM9.39861 11.0528C9.40537 11.0571 9.41223 11.0613 9.4192 11.0653C9.43754 11.0719 9.50345 11.0909 9.66333 11.1057C9.92987 11.1303 10.2902 11.1318 10.9061 11.1318C11.5219 11.1318 11.8823 11.1303 12.1488 11.1057C12.3087 11.0909 12.3746 11.0719 12.3929 11.0653C12.3999 11.0613 12.4068 11.0571 12.4135 11.0528H9.39861ZM16.8985 11.0528H19.9134C19.9067 11.0571 19.8998 11.0613 19.8928 11.0653C19.8745 11.0719 19.8086 11.0909 19.6487 11.1057C19.3822 11.1303 19.0218 11.1318 18.406 11.1318C17.7901 11.1318 17.4297 11.1303 17.1632 11.1057C17.0033 11.0909 16.9374 11.0719 16.9191 11.0653C16.9121 11.0613 16.9052 11.0571 16.8985 11.0528ZM19.8985 11.0629C19.8987 11.0629 19.8971 11.0637 19.8933 11.0651C19.8965 11.0635 19.8983 11.0628 19.8985 11.0629ZM16.9134 11.0629C16.9136 11.0628 16.9154 11.0635 16.9186 11.0651C16.9148 11.0637 16.9132 11.0629 16.9134 11.0629ZM12.3986 11.0629C12.3988 11.0629 12.3972 11.0637 12.3935 11.0651C12.3966 11.0635 12.3985 11.0628 12.3986 11.0629ZM9.41351 11.0629C9.41366 11.0628 9.41554 11.0635 9.41869 11.0651C9.41494 11.0637 9.41337 11.0629 9.41351 11.0629ZM13.322 30.0001H15.9887V24.1054H13.322V30.0001Z" fill="#ADADAD"/>
</svg>
