<svg width="17" height="18" viewBox="0 0 17 18" fill="none" xmlns="http://www.w3.org/2000/svg">
<path d="M8.5 0C3.825 0 0 3.24 0 7.2C0 12.06 7.4375 17.55 7.75625 17.82C7.96875 17.91 8.2875 18 8.5 18C8.7125 18 9.03125 17.91 9.24375 17.82C9.5625 17.55 17 12.06 17 7.2C17 3.24 13.175 0 8.5 0ZM8.5 15.93C6.26875 14.13 2.125 10.26 2.125 7.2C2.125 4.23 4.99375 1.8 8.5 1.8C12.0063 1.8 14.875 4.23 14.875 7.2C14.875 10.17 10.7312 14.13 8.5 15.93ZM8.5 3.6C6.1625 3.6 4.25 5.22 4.25 7.2C4.25 9.18 6.1625 10.8 8.5 10.8C10.8375 10.8 12.75 9.18 12.75 7.2C12.75 5.22 10.8375 3.6 8.5 3.6ZM8.5 9C7.33125 9 6.375 8.19 6.375 7.2C6.375 6.21 7.33125 5.4 8.5 5.4C9.66875 5.4 10.625 6.21 10.625 7.2C10.625 8.19 9.66875 9 8.5 9Z" fill="black" fill-opacity="0.39"/>
</svg>
