<svg width="24" height="17" viewBox="0 0 24 17" fill="none" xmlns="http://www.w3.org/2000/svg">
<path fill-rule="evenodd" clip-rule="evenodd" d="M0.87868 15.788C0 14.9093 0 13.4951 0 10.6667V0H24V10.6667C24 13.4951 24 14.9093 23.1213 15.788C22.2426 16.6667 20.8284 16.6667 18 16.6667H6C3.17157 16.6667 1.75736 16.6667 0.87868 15.788ZM9 7.33268C8.44771 7.33268 8 7.7804 8 8.33268C8 8.88497 8.44771 9.33268 9 9.33268H15C15.5523 9.33268 16 8.88497 16 8.33268C16 7.7804 15.5523 7.33268 15 7.33268H9Z" fill="#ADADAD"/>
</svg>
