<svg width="25" height="25" viewBox="0 0 25 25" fill="none" xmlns="http://www.w3.org/2000/svg">
<path d="M6.75 7.38892L6.75 6.75003C6.75 3.57439 9.32436 1.00003 12.5 1.00003V1.00003C15.6756 1.00003 18.25 3.57439 18.25 6.75003L18.25 7.38892" stroke="#F36A21" stroke-width="2" stroke-linecap="round"/>
<path d="M16.8125 15.0556V12.5" stroke="#F36A21" stroke-width="2" stroke-linecap="round"/>
<path d="M8.1875 15.0556V12.5" stroke="#F36A21" stroke-width="2" stroke-linecap="round"/>
<path d="M1 11.3889C1 9.5033 1 8.56049 1.58579 7.9747C2.17157 7.38892 3.11438 7.38892 5 7.38892H20C21.8856 7.38892 22.8284 7.38892 23.4142 7.9747C24 8.56049 24 9.5033 24 11.3889V16C24 19.7713 24 21.6569 22.8284 22.8285C21.6569 24 19.7712 24 16 24H9C5.22876 24 3.34315 24 2.17157 22.8285C1 21.6569 1 19.7713 1 16V11.3889Z" stroke="#F36A21" stroke-width="2"/>
</svg>
