<svg width="89" height="87" viewBox="0 0 89 87" fill="none" xmlns="http://www.w3.org/2000/svg">
<mask id="mask0_203_12921" style="mask-type:alpha" maskUnits="userSpaceOnUse" x="-15" y="-33" width="120" height="120">
<path d="M103.17 26.8611C103.17 58.9244 77.1775 84.9168 45.1143 84.9168C13.051 84.9168 -12.9414 58.9244 -12.9414 26.8611C-12.9414 -5.20212 13.051 -31.1945 45.1143 -31.1945C77.1775 -31.1945 103.17 -5.20212 103.17 26.8611Z" fill="#383734"/>
<path d="M103.17 26.8611C103.17 58.9244 77.1775 84.9168 45.1143 84.9168C13.051 84.9168 -12.9414 58.9244 -12.9414 26.8611C-12.9414 -5.20212 13.051 -31.1945 45.1143 -31.1945C77.1775 -31.1945 103.17 -5.20212 103.17 26.8611Z" fill="black" fill-opacity="0.2"/>
<path d="M103.17 26.8611C103.17 58.9244 77.1775 84.9168 45.1143 84.9168C13.051 84.9168 -12.9414 58.9244 -12.9414 26.8611C-12.9414 -5.20212 13.051 -31.1945 45.1143 -31.1945C77.1775 -31.1945 103.17 -5.20212 103.17 26.8611Z" stroke="#868181" stroke-width="3.44928"/>
</mask>
<g mask="url(#mask0_203_12921)">
<path d="M84.6981 93.5822H4.30639C3.16427 93.5822 2.06892 93.1285 1.26131 92.3209C0.453708 91.5133 0 90.418 0 89.2759V83.445C0.0079788 76.284 2.8562 69.4186 7.91977 64.3551C12.9833 59.2915 19.8487 56.4433 27.0097 56.4353H61.9948C69.1543 56.4444 76.0179 59.2925 81.0805 64.3551C86.143 69.4176 88.9911 76.2812 89.0002 83.4407V89.2759C89.0002 90.418 88.5465 91.5133 87.7389 92.3209C86.9313 93.1285 85.836 93.5822 84.6938 93.5822H84.6981ZM44.5023 51.6767C39.3919 51.6767 34.3963 50.1613 30.1472 47.3222C25.8981 44.483 22.5864 40.4476 20.6307 35.7263C18.6751 31.0049 18.1634 25.8097 19.1604 20.7976C20.1574 15.7854 22.6182 11.1815 26.2318 7.56789C29.8453 3.95433 34.4493 1.49347 39.4614 0.496488C44.4736 -0.50049 49.6688 0.0111954 54.3902 1.96684C59.1115 3.92248 63.1469 7.23425 65.9861 11.4833C68.8252 15.7324 70.3406 20.728 70.3406 25.8384C70.3326 32.6887 67.6078 39.2561 62.7639 44.1C57.92 48.9439 51.3526 51.6688 44.5023 51.6767Z" fill="black" fill-opacity="0.13"/>
</g>
</svg>
