<svg width="25" height="25" viewBox="0 0 25 25" fill="none" xmlns="http://www.w3.org/2000/svg">
<rect x="2.4375" y="1" width="11.5" height="11.5" rx="1.8" stroke="#ADADAD" stroke-width="2"/>
<path d="M1 14.3C1 13.3059 1.80589 12.5 2.8 12.5H10.7C11.6941 12.5 12.5 13.3059 12.5 14.3V24H2.8C1.80589 24 1 23.1941 1 22.2V14.3Z" stroke="#ADADAD" stroke-width="2"/>
<path d="M12.5 14.3C12.5 13.3059 13.3059 12.5 14.3 12.5H22.2C23.1941 12.5 24 13.3059 24 14.3V22.2C24 23.1941 23.1941 24 22.2 24H12.5V14.3Z" stroke="#ADADAD" stroke-width="2"/>
<path d="M18.25 12.5V16.8125" stroke="#ADADAD" stroke-width="2" stroke-linecap="round"/>
<path d="M6.75 12.5V16.8125" stroke="#ADADAD" stroke-width="2" stroke-linecap="round"/>
<path d="M8.1875 1V5.3125" stroke="#ADADAD" stroke-width="2" stroke-linecap="round"/>
</svg>
