<svg width="435" height="250" viewBox="0 0 435 250" fill="none" xmlns="http://www.w3.org/2000/svg">
<path d="M434.266 77.4566C425.189 26.3927 396.307 -15.9245 321.536 8.2073C246.765 32.3234 290.687 146.391 201.679 146.218C119.483 146.045 261.222 -11.9131 95.5081 0.719192C-19.3305 9.48154 -17.6945 97.4353 32.8817 122.181C34.9111 123.172 36.9719 123.99 39.0484 124.698C33.6683 153.171 34.4863 193.978 74.0506 223.207C139.666 271.66 222.397 249.164 239.041 185.609C255.684 122.055 274.877 138.714 321.363 152.652C367.849 166.59 443.328 128.536 434.251 77.488L434.266 77.4566Z" fill="white"/>
</svg>
