<svg width="69" height="78" viewBox="0 0 69 78" fill="none" xmlns="http://www.w3.org/2000/svg">
<path d="M46.9837 58.4279L33.474 61.3965L24.3618 63.2856C24.3618 63.2856 21.8219 60.9361 20.2503 60.6186C18.6628 60.3011 14.4876 60.7932 12.1064 59.047C9.72515 57.3166 9.86801 61.968 13.7733 63.2856C13.7733 63.2856 5.20074 66.1431 2.23212 67.0956C1.70824 67.2544 0.184232 67.7306 0.628731 68.9689C1.07323 70.1912 2.45443 69.9214 2.99418 69.7467C5.16905 69.0482 11.6936 67.2544 11.6936 67.2544C11.6936 67.2544 3.69266 69.6674 1.08917 70.6357C0.597043 70.8104 -0.307823 71.239 0.104927 72.4614C0.501801 73.6837 1.97816 73.2551 1.97816 73.2551L12.5667 70.4929C12.5667 70.4929 6.20086 72.5884 4.12124 73.4774C3.72437 73.6361 2.85123 74.0965 3.21636 75.2236C3.56561 76.3507 4.72452 75.9856 5.13726 75.8586C7.04226 75.2395 13.805 73.2551 13.805 73.2551L6.96293 75.9697C6.96293 75.9697 5.53409 76.4301 5.97859 77.4461C6.37546 78.351 7.77247 77.8747 7.77247 77.8747L15.2814 75.5411C15.2814 75.5411 22.9648 73.8425 25.362 72.7947C25.5842 72.6995 25.9494 72.4296 25.9811 72.0804C34.0138 72.6677 46.6027 71.5724 46.6027 71.5724L46.9837 58.4596V58.4279Z" fill="#BA5D56"/>
<path d="M4.45486 69.4611L10.8207 67.4926" stroke="#222222" stroke-width="0.692178" stroke-linecap="round" stroke-linejoin="round"/>
<path d="M11.7891 70.7945L4.81998 72.8265" stroke="#222222" stroke-width="0.692178" stroke-linecap="round" stroke-linejoin="round"/>
<path d="M13.1703 73.4774L9.32855 75.0014" stroke="#222222" stroke-width="0.692178" stroke-linecap="round" stroke-linejoin="round"/>
<path d="M53.1274 0.404859C47.6823 -0.388889 44.0946 7.34221 45.444 21.6297C46.8092 35.9172 50.4128 55.0465 50.4128 55.0465L26.267 59.7137C26.267 59.7137 26.4893 67.4607 28.3943 74.2393C28.3943 74.2393 58.7631 75.3665 65.7639 67.9211C72.7648 60.4757 65.5576 37.8698 64.1923 30.0593C60.5728 9.21547 53.1115 0.404859 53.1115 0.404859H53.1274Z" fill="#F36A21"/>
<path d="M53.1274 0.404859C47.6823 -0.388889 44.0946 7.34221 45.444 21.6297C46.8092 35.9172 50.4128 55.0465 50.4128 55.0465L26.267 59.7137C26.267 59.7137 26.4893 67.4607 28.3943 74.2393" stroke="#222222" stroke-width="0.692178" stroke-linecap="round" stroke-linejoin="round"/>
</svg>
