<svg width="19" height="14" viewBox="0 0 19 14" fill="none" xmlns="http://www.w3.org/2000/svg">
<path fill-rule="evenodd" clip-rule="evenodd" d="M0.87868 0.87868C0 1.75736 0 3.17157 0 6V8C0 10.8284 0 12.2426 0.87868 13.1213C1.75736 14 3.17157 14 6 14H13C15.8284 14 17.2426 14 18.1213 13.1213C19 12.2426 19 10.8284 19 8V6C19 3.17157 19 1.75736 18.1213 0.87868C17.2426 0 15.8284 0 13 0H6C3.17157 0 1.75736 0 0.87868 0.87868ZM3.70066 3.15451C3.23371 2.85959 2.61609 2.99906 2.32118 3.46601C2.02626 3.93296 2.16572 4.55057 2.63267 4.84549L8.43201 8.50823C9.08439 8.92026 9.91561 8.92026 10.568 8.50823L16.3673 4.84549C16.8343 4.55057 16.9737 3.93296 16.6788 3.46601C16.3839 2.99906 15.7663 2.85959 15.2993 3.15451L9.5 6.81725L3.70066 3.15451Z" fill="#868181" fill-opacity="0.49"/>
</svg>
