<svg width="37" height="52" viewBox="0 0 37 52" fill="none" xmlns="http://www.w3.org/2000/svg">
<path d="M30.8407 14.8113C30.7771 22.0932 28.2015 29.4068 25.4191 32.3799C24.9103 32.9364 24.3698 33.3975 23.8292 33.8426C17.7875 38.7078 10.3626 37.0066 10.3626 37.0066C10.3626 37.0066 10.0605 36.9271 9.55168 36.7204C6.81702 35.6392 -1.72083 31.1716 0.314262 18.023C1.5226 10.3278 5.08404 4.93795 8.39107 1.44013C10.6964 -0.992444 14.6553 -0.229281 15.9432 2.87106C17.5172 6.63916 21.174 11.2658 29.5688 14.4775L30.8248 14.7954L30.8407 14.8113Z" fill="#BA5D56"/>
<path opacity="0.2" d="M9.55174 36.7203C10.0605 36.927 10.3626 37.0065 10.3626 37.0065C10.3626 37.0065 17.7876 38.6918 23.8293 33.8426C24.3698 33.3974 24.9104 32.9363 25.4192 32.3799C28.2015 29.4067 30.7772 22.0931 30.8408 14.8113C30.8408 14.8113 27.6292 22.5701 23.8293 24.2395C20.0453 25.893 15.8002 20.4078 10.3309 23.1901C8.16859 24.2872 7.89823 26.529 5.97443 26.4336C4.05063 26.3382 -0.369315 20.8371 0.934417 15.0339C0.695929 15.9878 0.489217 16.9895 0.314326 18.0388C-1.73667 31.1715 6.81708 35.6551 9.55174 36.7362V36.7203Z" fill="#020B31"/>
<path d="M24.783 47.4364L23.845 33.8267C17.8033 38.6919 10.3783 36.9907 10.3783 36.9907C10.3783 36.9907 10.0762 36.9112 9.56744 36.7045L8.40683 43.5411L6.54665 50.7434C6.54665 50.7434 19.7111 55.0998 24.783 47.4205V47.4364Z" fill="#BA5D56"/>
<g style="mix-blend-mode:multiply">
<path d="M10.3789 37.0066C10.3789 37.0066 17.8038 38.6919 23.8455 33.8426V34.0016C23.448 34.5899 23.0505 35.1146 22.6531 35.5439C22.1443 36.1003 21.6037 36.5614 21.0631 37.0066C16.5955 40.5998 11.3647 40.6157 8.94798 40.3772L9.56798 36.7363C10.0768 36.943 10.3789 37.0225 10.3789 37.0225V37.0066Z" fill="#A6645D"/>
</g>
<path d="M12 13.4122C12 13.4122 11.7456 15.972 9.18585 17.7527C6.06961 19.9468 6.86459 21.1233 9.10638 22.4748" stroke="#222222" stroke-width="0.692178" stroke-linecap="round" stroke-linejoin="round"/>
<g style="mix-blend-mode:multiply" opacity="0.5">
<path d="M19.6158 21.2347C18.9162 20.0899 17.7715 21.3142 17.7715 21.3142C17.7715 21.3142 17.1992 19.5653 16.1021 20.3125C15.1641 20.9644 16.1816 23.6037 16.9925 23.8262C17.7874 24.0488 20.22 22.2045 19.6158 21.2188V21.2347Z" fill="#F43D4F"/>
</g>
<g style="mix-blend-mode:multiply" opacity="0.5">
<path d="M1.68181 21.4095C2.36547 20.2489 3.52607 21.4572 3.52607 21.4572C3.52607 21.4572 4.06661 19.6924 5.17955 20.4237C6.1335 21.0597 5.16372 23.7149 4.35286 23.9534C3.5579 24.1918 1.09354 22.3952 1.68181 21.4095Z" fill="#F43D4F"/>
</g>
<path d="M8.69334 26.1156C8.69334 26.1156 12.2548 27.5307 14.6555 24.2236" stroke="#222222" stroke-width="0.692178" stroke-linecap="round" stroke-linejoin="round"/>
<path d="M8.91553 8.67425C7.85028 8.51525 6.43523 8.56295 4.81351 9.29431" stroke="#222222" stroke-width="0.692178" stroke-linecap="round" stroke-linejoin="round"/>
<path d="M17.8509 16.6875C17.9621 17.387 17.4693 18.0389 16.7697 18.1502C16.0702 18.2615 15.4183 17.7686 15.307 17.0691C15.1957 16.3695 15.6886 15.7176 16.3882 15.6063C17.0877 15.495 17.7396 15.9879 17.8509 16.6875Z" fill="#222222"/>
<path d="M17.2633 10.3914C18.3127 10.6617 19.5686 11.2818 20.777 12.5855" stroke="#222222" stroke-width="0.692178" stroke-linecap="round" stroke-linejoin="round"/>
<path d="M6.14981 13.5076C5.60924 13.9687 5.56151 14.7796 6.02259 15.3201C6.48367 15.8607 7.29455 15.9084 7.83512 15.4473C8.37569 14.9863 8.42332 14.1754 7.96224 13.6348C7.50117 13.0943 6.69038 13.0466 6.14981 13.5076Z" fill="#222222"/>
<path d="M29.2196 25.448C29.2196 25.448 34.7525 26.8471 36.6286 21.2506C38.5047 15.6223 32.6538 15.0817 32.6538 15.0817C32.6538 15.0817 32.3676 19.4222 29.2354 25.4321L29.2196 25.448Z" fill="#BA5D56"/>
<path d="M33.4962 17.4983C33.4962 17.4983 35.738 17.8799 35.6903 20.4397" stroke="#222222" stroke-width="0.692178" stroke-linecap="round" stroke-linejoin="round"/>
<path d="M34.6567 18.341C34.6567 18.341 34.4818 20.8212 32.2082 22.2204" stroke="#222222" stroke-width="0.692178" stroke-linecap="round" stroke-linejoin="round"/>
</svg>
