<svg width="25" height="25" viewBox="0 0 25 25" fill="none" xmlns="http://www.w3.org/2000/svg">
<path d="M1 4.38238V4.38238C1 4.02729 1 3.84975 1.01502 3.70023C1.15761 2.28049 2.28046 1.15764 3.7002 1.01505C3.84972 1.00003 4.02726 1.00003 4.38235 1.00003L21.7558 1.00003C22.1946 1.00003 22.414 1.00003 22.5566 1.12831C22.5697 1.14008 22.5821 1.15254 22.5939 1.16563C22.7222 1.30822 22.7222 1.52762 22.7222 1.96641V1.96641C22.7222 4.59918 22.7222 5.91557 21.9525 6.77114C21.8819 6.84966 21.8071 6.9244 21.7286 6.99504C20.873 7.76473 19.5566 7.76473 16.9239 7.76473H16.3333M1 4.38238V4.38238C1 4.73746 1 4.91501 1.01502 5.06453C1.15761 6.48427 2.28046 7.60712 3.7002 7.74971C3.84972 7.76473 4.02726 7.76473 4.38235 7.76473L22 7.76473C22.9428 7.76473 23.4142 7.76473 23.7071 8.05762C24 8.35051 24 8.82192 24 9.76472L24 13.1765M1 4.38238L1 20C1 21.8856 1 22.8284 1.58579 23.4142C2.17157 24 3.11438 24 4.99999 24L22 24C22.9428 24 23.4142 24 23.7071 23.7071C24 23.4142 24 22.9428 24 22L24 18.5882M24 18.5882H18.3333C17.3905 18.5882 16.9191 18.5882 16.6262 18.2954C16.3333 18.0025 16.3333 17.5311 16.3333 16.5882L16.3333 15.1765C16.3333 14.2337 16.3333 13.7623 16.6262 13.4694C16.9191 13.1765 17.3905 13.1765 18.3333 13.1765L24 13.1765M24 18.5882L24 13.1765" stroke="#ADADAD" stroke-width="2"/>
</svg>
