<svg width="279" height="50" viewBox="0 0 279 50" fill="none" xmlns="http://www.w3.org/2000/svg">
<g clip-path="url(#clip0_241_5073)">
<path d="M122.564 0.439941C126.44 0.439941 129.582 3.58226 129.582 7.45851V42.4238C129.582 46.3 126.44 49.4423 122.564 49.4423H7.02958C3.15372 49.4423 0.0117188 46.3 0.0117188 42.4238V7.45851C0.0117188 3.58226 3.15372 0.439941 7.02958 0.439941H122.564ZM122.564 1.00143H7.02958C3.46379 1.00143 0.573147 3.89236 0.573147 7.45851V42.4238C0.573147 45.9899 3.46379 48.8808 7.02958 48.8808H122.564C126.129 48.8808 129.02 45.9899 129.02 42.4238V7.45851C129.02 3.89236 126.129 1.00143 122.564 1.00143ZM69.1148 27.7159C70.1254 27.7159 70.9438 28.0764 71.5702 28.7976C72.1965 29.5188 72.5097 30.49 72.5097 31.7112C72.5097 32.9324 72.1965 33.9062 71.5702 34.6327C70.9438 35.3591 70.1254 35.7223 69.1148 35.7223C68.0411 35.7223 67.1831 35.2749 66.541 34.38V38.4385H65.3567V27.9054H66.541V29.0424C66.8252 28.6423 67.1937 28.3212 67.6463 28.0791C68.099 27.8369 68.5885 27.7159 69.1148 27.7159ZM60.0828 27.7159C61.0934 27.7159 61.9118 28.0764 62.5382 28.7976C63.1645 29.5188 63.4777 30.49 63.4777 31.7112C63.4777 32.9324 63.1645 33.9062 62.5382 34.6327C61.9118 35.3591 61.0934 35.7223 60.0828 35.7223C59.0091 35.7223 58.1512 35.2749 57.509 34.38V38.4385H56.3248V27.9054H57.509V29.0424C57.7932 28.6423 58.1617 28.3212 58.6143 28.0791C59.067 27.8369 59.5565 27.7159 60.0828 27.7159ZM29.1977 17.6516C30.1283 17.724 32.1745 18.1135 33.5225 20.0742L33.3654 20.1741C32.7839 20.5603 30.8275 22.0417 30.8546 24.7513C30.8872 28.4672 34.1335 29.7033 34.1709 29.7203L34.0424 30.1056C33.8382 30.6809 33.3818 31.8202 32.5937 33.0143L32.1891 33.6031C31.2382 34.9587 30.2151 36.2031 28.6775 36.2315C27.0215 36.2624 26.4896 35.2558 24.5976 35.2558C22.7057 35.2558 22.1139 36.2003 20.549 36.2624C18.9239 36.3222 17.6862 34.6462 16.6482 33.1538C14.524 30.1051 12.9027 24.5363 15.0821 20.7772C16.1622 18.9098 18.0964 17.7284 20.1941 17.6974C21.7902 17.6686 23.2974 18.7662 24.2716 18.7662C25.1969 18.7662 26.8887 17.5815 28.7006 17.6215L29.1977 17.6516ZM105.843 27.7159C106.969 27.7159 107.861 28.1028 108.519 28.8766C109.177 29.6504 109.506 30.6268 109.506 31.8059V32.106H103.332C103.385 32.8535 103.658 33.4799 104.153 33.9852C104.648 34.4905 105.29 34.7432 106.08 34.7432C107.027 34.7432 107.811 34.4221 108.432 33.7799L109.001 34.5537C108.222 35.3328 107.211 35.7223 105.969 35.7223C104.832 35.7223 103.901 35.3512 103.174 34.609C102.448 33.8668 102.085 32.9008 102.085 31.7112C102.085 30.5952 102.443 29.6504 103.158 28.8766C103.874 28.1028 104.769 27.7159 105.843 27.7159ZM91.6158 27.7159C92.7527 27.7159 93.6659 28.0975 94.3554 28.8608C95.0449 29.624 95.3897 30.5742 95.3897 31.7112C95.3897 32.8482 95.0423 33.801 94.3475 34.5695C93.6633 35.338 92.7527 35.7223 91.6158 35.7223C90.4789 35.7223 89.5657 35.338 88.8762 34.5695C88.1867 33.801 87.842 32.8482 87.842 31.7112C87.842 30.5742 88.1867 29.624 88.8762 28.8608C89.5657 28.0975 90.4789 27.7159 91.6158 27.7159ZM85.0629 25.8209V27.9054H86.6103V28.9476H85.0629V33.6852C85.0629 33.9799 85.1287 34.2168 85.2603 34.3958C85.3918 34.5748 85.584 34.6642 85.8366 34.6642C86.184 34.6642 86.4524 34.559 86.6419 34.3484L86.9893 35.2328C86.6419 35.5591 86.1682 35.7223 85.5682 35.7223C85.0102 35.7223 84.5892 35.5696 84.305 35.2643C84.0207 34.959 83.8786 34.5169 83.8786 33.9378V28.9476H82.6154V27.9054H83.8786V25.8209H85.0629ZM77.752 24.8418C79.3205 24.8418 80.5679 25.3313 81.4943 26.3104L80.7048 27.2737C79.9363 26.4315 78.9205 26.0104 77.6573 26.0104C77.0257 26.0104 76.5072 26.1656 76.102 26.4762C75.6967 26.7868 75.494 27.1895 75.494 27.6843C75.494 28.0528 75.6493 28.3581 75.9598 28.6002C76.2704 28.8423 76.6546 29.0213 77.1125 29.1371C77.5704 29.2529 78.0705 29.3977 78.6126 29.5714C79.1547 29.7451 79.6547 29.9293 80.1127 30.1241C80.5706 30.3189 80.9548 30.6321 81.2654 31.0637C81.5759 31.4954 81.7312 32.0165 81.7312 32.6271C81.7312 33.4904 81.4127 34.2221 80.7759 34.8222C80.139 35.4223 79.1626 35.7223 77.8468 35.7223C76.1414 35.7223 74.794 35.1643 73.8045 34.0484L74.5782 33.0535C75.473 34.0536 76.5783 34.5537 77.8941 34.5537C78.7468 34.5537 79.3732 34.3721 79.7732 34.0089C80.1732 33.6457 80.3732 33.2219 80.3732 32.7377C80.3732 32.3692 80.2574 32.0586 80.0258 31.8059C79.7942 31.5533 79.4968 31.3559 79.1337 31.2137C78.8613 31.1072 78.5652 31.008 78.2455 30.9162L77.9178 30.8268C77.4704 30.711 77.0257 30.5821 76.5836 30.4399C76.1414 30.2978 75.7388 30.1267 75.3756 29.9267C75.0124 29.7267 74.7151 29.4424 74.4835 29.074C74.2519 28.7055 74.1361 28.2686 74.1361 27.7632C74.1361 26.9 74.4782 26.1972 75.1624 25.655C75.8467 25.1129 76.7099 24.8418 77.752 24.8418ZM101.043 27.7474V28.9634C100.895 28.9318 100.737 28.916 100.569 28.916C100.211 28.916 99.8214 29.0424 99.4004 29.295C98.9793 29.5477 98.6793 29.8267 98.5003 30.132V35.5328H97.3161V27.9054H98.5003V29.1371C99.2056 28.2107 100.053 27.7474 101.043 27.7474ZM50.7508 24.9997L54.9984 35.5328H53.4983L52.5667 33.1956H47.3244L46.3927 35.5328H44.8927L49.1244 24.9997H50.7508ZM91.6158 28.7739C90.8368 28.7739 90.2184 29.0608 89.7605 29.6346C89.3025 30.2083 89.0736 30.9005 89.0736 31.7112C89.0736 32.5324 89.2999 33.2325 89.7526 33.8115C90.2158 34.38 90.8368 34.6642 91.6158 34.6642C92.3948 34.6642 93.0106 34.3774 93.4633 33.8036C93.9159 33.2298 94.1422 32.5324 94.1422 31.7112C94.1422 30.89 93.9159 30.1952 93.4633 29.6267C93.0106 29.0582 92.3948 28.7739 91.6158 28.7739ZM68.8148 28.7739C68.3621 28.7739 67.9226 28.8924 67.4963 29.1292C67.07 29.3661 66.7515 29.653 66.541 29.9899V33.4325C66.7515 33.7799 67.07 34.0721 67.4963 34.3089C67.9226 34.5458 68.3621 34.6642 68.8148 34.6642C69.5622 34.6642 70.157 34.3879 70.5991 33.8352C71.0412 33.2825 71.2623 32.5745 71.2623 31.7112C71.2623 30.8479 71.0412 30.1425 70.5991 29.5951C70.157 29.0476 69.5622 28.7739 68.8148 28.7739ZM59.7828 28.7739C59.3302 28.7739 58.8907 28.8924 58.4643 29.1292C58.038 29.3661 57.7196 29.653 57.509 29.9899V33.4325C57.7196 33.7799 58.038 34.0721 58.4643 34.3089C58.8907 34.5458 59.3302 34.6642 59.7828 34.6642C60.5302 34.6642 61.125 34.3879 61.5671 33.8352C62.0092 33.2825 62.2303 32.5745 62.2303 31.7112C62.2303 30.8479 62.0092 30.1425 61.5671 29.5951C61.125 29.0476 60.5302 28.7739 59.7828 28.7739ZM49.9455 26.3578L47.7033 32.027H52.1719L49.9455 26.3578ZM105.827 28.695C105.069 28.695 104.472 28.9529 104.035 29.4688C103.598 29.9846 103.364 30.5742 103.332 31.2374H108.338C108.327 30.5847 108.106 29.9978 107.674 29.4766C107.243 28.9555 106.627 28.695 105.827 28.695ZM78.0849 13.7189C78.5946 13.7189 79.0091 13.8418 79.3284 14.0874C79.6477 14.3331 79.8074 14.7107 79.8074 15.2205V18.2788H79.1166V17.7722C78.742 18.1836 78.2507 18.3894 77.6428 18.3894C77.2314 18.3894 76.8691 18.2573 76.5559 17.9932C76.2428 17.7292 76.0862 17.3699 76.0862 16.9155C76.0862 16.4487 76.2412 16.0879 76.5513 15.8331C76.8614 15.5782 77.2253 15.4508 77.6428 15.4508C78.2753 15.4508 78.7666 15.6534 79.1166 16.0587V15.2573C79.1166 14.9625 79.0122 14.7322 78.8034 14.5664C78.5946 14.4006 78.3244 14.3177 77.9928 14.3177C77.4709 14.3177 77.0165 14.5234 76.6296 14.9349L76.3072 14.4559C76.7801 13.9646 77.3726 13.7189 78.0849 13.7189ZM53.8325 13.7189C54.4957 13.7189 55.0284 13.9416 55.4306 14.3868C55.8329 14.832 56.034 15.3863 56.034 16.0495C56.034 16.7128 55.8313 17.2686 55.426 17.7169C55.0269 18.1652 54.4957 18.3894 53.8325 18.3894C53.1694 18.3894 52.6367 18.1652 52.2344 17.7169C51.8322 17.2686 51.6311 16.7128 51.6311 16.0495C51.6311 15.3863 51.8322 14.832 52.2344 14.3868C52.6367 13.9416 53.1694 13.7189 53.8325 13.7189ZM96.4516 13.7189C97.1147 13.7189 97.6474 13.9416 98.0496 14.3868C98.4519 14.832 98.653 15.3863 98.653 16.0495C98.653 16.7128 98.4503 17.2686 98.045 17.7169C97.6459 18.1652 97.1147 18.3894 96.4516 18.3894C95.7884 18.3894 95.2557 18.1652 94.8535 17.7169C94.4512 17.2686 94.2501 16.7128 94.2501 16.0495C94.2501 15.3863 94.4512 14.832 94.8535 14.3868C95.2557 13.9416 95.7884 13.7189 96.4516 13.7189ZM85.1037 12.1345V18.2788H84.4129V17.6156C84.0321 18.1314 83.5317 18.3894 82.9115 18.3894C82.322 18.3894 81.8445 18.179 81.4792 17.7583C81.1138 17.3377 80.9311 16.7711 80.9311 16.0587C80.9311 15.3525 81.1138 14.786 81.4792 14.3592C81.8445 13.9323 82.322 13.7189 82.9115 13.7189C83.5255 13.7189 84.026 13.9799 84.4129 14.5019V12.1345H85.1037ZM73.0097 13.7189C73.6729 13.7189 74.2056 13.9416 74.6078 14.3868C75.01 14.832 75.2111 15.3863 75.2111 16.0495C75.2111 16.7128 75.0085 17.2686 74.6032 17.7169C74.2041 18.1652 73.6729 18.3894 73.0097 18.3894C72.3465 18.3894 71.8138 18.1652 71.4116 17.7169C71.0094 17.2686 70.8083 16.7128 70.8083 16.0495C70.8083 15.3863 71.0094 14.832 71.4116 14.3868C71.8138 13.9416 72.3465 13.7189 73.0097 13.7189ZM66.1936 13.7189C67.1393 13.7189 67.6121 14.1979 67.6121 15.156V18.2788H66.9213V15.3679C66.9213 14.9932 66.8353 14.7276 66.6634 14.571C66.4914 14.4144 66.2458 14.3361 65.9265 14.3361C65.6686 14.3361 65.4184 14.4037 65.1758 14.5388C64.9333 14.6739 64.7444 14.8366 64.6093 15.027V18.2788H63.9185V13.8295H64.6093V14.4743C64.7813 14.2716 65.0116 14.0951 65.3002 13.9446C65.5888 13.7942 65.8866 13.7189 66.1936 13.7189ZM104.594 13.7189C105.423 13.7189 105.837 14.1672 105.837 15.0639V18.2788H105.147V15.2573C105.147 14.6432 104.873 14.3361 104.327 14.3361C104.106 14.3361 103.885 14.4037 103.664 14.5388C103.443 14.6739 103.271 14.8336 103.148 15.0178V18.2788H102.457V15.2573C102.457 14.6432 102.184 14.3361 101.637 14.3361C101.422 14.3361 101.206 14.4037 100.988 14.5388C100.77 14.6739 100.596 14.8366 100.468 15.027V18.2788H99.7767V13.8295H100.468V14.4743C100.578 14.3024 100.771 14.1335 101.048 13.9677C101.324 13.8018 101.61 13.7189 101.904 13.7189C102.23 13.7189 102.494 13.7957 102.697 13.9492C102.899 14.1028 103.034 14.3024 103.102 14.548C103.237 14.3269 103.443 14.1335 103.719 13.9677C103.995 13.8018 104.287 13.7189 104.594 13.7189ZM93.6422 13.7374V14.4467C93.5562 14.4282 93.4641 14.419 93.3659 14.419C93.1571 14.419 92.9299 14.4927 92.6843 14.6401C92.4387 14.7875 92.2636 14.9503 92.1593 15.1283V18.2788H91.4684V13.8295H92.1593V14.548C92.5707 14.0076 93.065 13.7374 93.6422 13.7374ZM47.5691 12.1345C48.5086 12.1345 49.2685 12.4262 49.8488 13.0096C50.4291 13.593 50.7192 14.3269 50.7192 15.2113C50.7192 16.1017 50.4291 16.8356 49.8488 17.4129C49.2685 17.9902 48.5086 18.2788 47.5691 18.2788H45.469V12.1345H47.5691ZM57.2959 13.8295L58.3827 17.376L59.5525 13.8295H60.142L61.3118 17.376L62.3987 13.8295H63.1172L61.6987 18.2788H61.0079L59.8473 14.7046L58.6867 18.2788H57.9959L56.5774 13.8295H57.2959ZM69.6846 12.1345V18.2788H68.9937V12.1345H69.6846ZM90.3447 12.0424C90.7254 12.0424 91.0386 12.156 91.2842 12.3832L90.9987 12.8346C90.8329 12.6872 90.6487 12.6135 90.446 12.6135C90.2188 12.6135 90.0453 12.6887 89.9256 12.8392C89.8059 12.9897 89.746 13.2061 89.746 13.4886V13.8295H90.6487V14.4375H89.746V18.2788H89.0552V14.4375H88.3183V13.8295H89.0552V13.4886C89.0552 13.0342 89.1703 12.6795 89.4006 12.4247C89.6309 12.1698 89.9455 12.0424 90.3447 12.0424ZM77.8915 15.9482C77.5722 15.9482 77.3097 16.0388 77.104 16.22C76.8983 16.4011 76.7954 16.636 76.7954 16.9247C76.7954 17.2072 76.8983 17.439 77.104 17.6202C77.3097 17.8013 77.5722 17.8919 77.8915 17.8919C78.4442 17.8919 78.8525 17.7077 79.1166 17.3392V16.5009C78.8525 16.1324 78.4442 15.9482 77.8915 15.9482ZM73.0097 14.3361C72.5553 14.3361 72.1945 14.5035 71.9274 14.8382C71.6603 15.1729 71.5268 15.5767 71.5268 16.0495C71.5268 16.5286 71.6588 16.9369 71.9228 17.2747C72.193 17.6063 72.5553 17.7722 73.0097 17.7722C73.4641 17.7722 73.8233 17.6048 74.0874 17.2701C74.3514 16.9354 74.4835 16.5286 74.4835 16.0495C74.4835 15.5705 74.3514 15.1652 74.0874 14.8336C73.8233 14.5019 73.4641 14.3361 73.0097 14.3361ZM53.8325 14.3361C53.3781 14.3361 53.0174 14.5035 52.7503 14.8382C52.4831 15.1729 52.3496 15.5767 52.3496 16.0495C52.3496 16.5286 52.4816 16.9369 52.7457 17.2747C53.0158 17.6063 53.3781 17.7722 53.8325 17.7722C54.287 17.7722 54.6462 17.6048 54.9102 17.2701C55.1743 16.9354 55.3063 16.5286 55.3063 16.0495C55.3063 15.5705 55.1743 15.1652 54.9102 14.8336C54.6462 14.5019 54.287 14.3361 53.8325 14.3361ZM83.0773 14.3361C82.6413 14.3361 82.2943 14.4973 82.0364 14.8198C81.7785 15.1422 81.6496 15.5552 81.6496 16.0587C81.6496 16.5623 81.7785 16.9738 82.0364 17.2931C82.2943 17.6125 82.6413 17.7722 83.0773 17.7722C83.3475 17.7722 83.6054 17.7046 83.851 17.5695C84.0966 17.4344 84.2839 17.2686 84.4129 17.0721V15.0547C84.2839 14.852 84.0951 14.6816 83.8464 14.5434C83.5977 14.4052 83.3413 14.3361 83.0773 14.3361ZM96.4516 14.3361C95.9971 14.3361 95.6364 14.5035 95.3693 14.8382C95.1021 15.1729 94.9686 15.5767 94.9686 16.0495C94.9686 16.5286 95.1006 16.9369 95.3647 17.2747C95.6348 17.6063 95.9971 17.7722 96.4516 17.7722C96.906 17.7722 97.2652 17.6048 97.5292 17.2701C97.7933 16.9354 97.9253 16.5286 97.9253 16.0495C97.9253 15.5705 97.7933 15.1652 97.5292 14.8336C97.2652 14.5019 96.906 14.3361 96.4516 14.3361ZM47.5691 12.8162H46.2335V17.5971H47.5691C48.2937 17.5971 48.8678 17.3699 49.2916 16.9155C49.7153 16.461 49.9271 15.8929 49.9271 15.2113C49.9271 14.5234 49.7183 13.9523 49.3008 13.4978C48.8832 13.0434 48.306 12.8162 47.5691 12.8162ZM29.0287 11.6989C29.1875 13.1385 28.6054 14.5815 27.7428 15.6217C26.8794 16.6594 25.4636 17.4676 24.0767 17.36C23.8891 15.9492 24.5892 14.4799 25.389 13.5593C26.2804 12.5215 27.7863 11.7492 29.0287 11.6989Z" fill="#EBEBEB"/>
</g>
<g clip-path="url(#clip1_241_5073)">
<path d="M271.745 1.00488C275.533 1.00488 278.603 4.07493 278.603 7.86203V42.0231C278.603 45.8102 275.533 48.8802 271.745 48.8802H144.857C141.07 48.8802 138 45.8102 138 42.0231V7.86203C138 4.07493 141.07 1.00488 144.857 1.00488H271.745ZM271.745 1.55345H144.857C141.373 1.55345 138.549 4.3779 138.549 7.86203V42.0231C138.549 45.5072 141.373 48.3316 144.857 48.3316H271.745C275.23 48.3316 278.054 45.5072 278.054 42.0231V7.86203C278.054 4.3779 275.23 1.55345 271.745 1.55345ZM260.464 30.2769L263.024 36.6129L265.6 30.2769H266.896L263.024 39.5729C262.56 40.6929 261.776 41.1249 260.752 41.1409C260.496 41.1409 260.096 41.0929 259.888 41.0289L260.064 39.9409C260.24 40.0209 260.528 40.0689 260.72 40.0689C261.248 40.0689 261.6 39.8929 261.872 39.2529L262.384 38.0849L259.152 30.2769H260.464ZM215.904 30.0849C216.944 30.0849 217.888 30.5969 218.512 31.4449V30.2769H219.712V37.8929C219.712 40.3409 217.904 41.1409 216.016 41.1409C214.72 41.1409 213.824 40.8849 212.896 39.9729L213.504 39.1089C214.144 39.8609 214.912 40.1489 216.016 40.1489C217.296 40.1489 218.512 39.5249 218.512 37.8929V36.7249C217.936 37.5089 216.992 38.1009 215.904 38.1009C213.888 38.1009 212.464 36.5969 212.464 34.1009C212.464 31.6209 213.872 30.0849 215.904 30.0849ZM188.304 27.1569C190.208 27.1569 191.52 27.9889 192.448 29.1409L191.392 29.8129C190.72 28.9489 189.584 28.3409 188.304 28.3409C185.968 28.3409 184.192 30.1169 184.192 32.6769C184.192 35.2049 185.968 37.0129 188.304 37.0129C189.584 37.0129 190.64 36.4049 191.184 35.8609V33.7009H187.504V32.5169H192.496V36.3569C191.504 37.4769 190.048 38.2129 188.304 38.2129C185.264 38.2129 182.816 35.9889 182.816 32.6769C182.816 29.3489 185.264 27.1569 188.304 27.1569ZM254.896 30.0849C256.544 30.0849 257.888 30.8209 257.888 32.6929V38.0049H256.688V37.1249C256.064 37.8289 255.168 38.1969 254.128 38.1969C252.832 38.1969 251.44 37.3169 251.44 35.6369C251.44 33.8929 252.816 33.0929 254.128 33.0929C255.184 33.0929 256.064 33.4289 256.688 34.1329V32.7409C256.688 31.7169 255.856 31.1249 254.736 31.1249C253.808 31.1249 253.056 31.4449 252.368 32.1969L251.808 31.3649C252.64 30.5009 253.632 30.0849 254.896 30.0849ZM229.072 30.0849C231.408 30.0849 232.784 31.9089 232.784 34.2289V34.5329H226.544C226.64 35.9889 227.648 37.2049 229.312 37.2049C230.208 37.2049 231.088 36.8529 231.712 36.2129L232.288 36.9969C231.504 37.7649 230.464 38.1969 229.216 38.1969C226.912 38.1969 225.264 36.5489 225.264 34.1329C225.264 31.8929 226.864 30.0849 229.072 30.0849ZM207.136 30.0849C209.488 30.0849 210.96 31.8929 210.96 34.1329C210.96 36.3729 209.488 38.1969 207.136 38.1969C204.784 38.1969 203.312 36.3729 203.312 34.1329C203.312 31.8929 204.784 30.0849 207.136 30.0849ZM197.984 30.0849C200.336 30.0849 201.808 31.8929 201.808 34.1329C201.808 36.3729 200.336 38.1969 197.984 38.1969C195.632 38.1969 194.16 36.3729 194.16 34.1329C194.16 31.8929 195.632 30.0849 197.984 30.0849ZM249.456 27.3329V38.0049H248.256V27.3329H249.456ZM243.2 27.3329C245.344 27.3329 246.544 28.8049 246.544 30.5489C246.544 32.2929 245.328 33.7649 243.2 33.7649H240.24V38.0049H238.912V27.3329H243.2ZM223.312 27.3329V38.0049H222.112V27.3329H223.312ZM254.576 33.9569C253.44 33.9569 252.656 34.6609 252.656 35.6369C252.656 36.6289 253.44 37.3329 254.576 37.3329C255.408 37.3329 256.224 37.0129 256.688 36.3729V34.9009C256.224 34.2769 255.408 33.9569 254.576 33.9569ZM207.136 31.1569C205.488 31.1569 204.576 32.5649 204.576 34.1329C204.576 35.7169 205.488 37.1249 207.136 37.1249C208.784 37.1249 209.696 35.7169 209.696 34.1329C209.696 32.5649 208.784 31.1569 207.136 31.1569ZM197.984 31.1569C196.336 31.1569 195.424 32.5649 195.424 34.1329C195.424 35.7169 196.336 37.1249 197.984 37.1249C199.632 37.1249 200.544 35.7169 200.544 34.1329C200.544 32.5649 199.632 31.1569 197.984 31.1569ZM216.208 31.1569C214.64 31.1569 213.712 32.3889 213.712 34.1009C213.712 35.7969 214.64 37.0289 216.208 37.0289C217.152 37.0289 218.08 36.4529 218.512 35.7809V32.3889C218.08 31.7329 217.152 31.1569 216.208 31.1569ZM165.401 26.9013L167.895 29.4651C163.216 32.3837 156.388 36.6386 156.135 36.7989C155.954 36.9105 155.762 36.9705 155.573 37.0049L165.401 26.9013ZM154.039 15.2181L164.057 25.5192L154.028 35.8288C154.017 35.7487 154 35.6715 154 35.5885V15.5615C154 15.4413 154.017 15.3297 154.039 15.2181ZM229.056 31.0769C227.408 31.0769 226.592 32.4689 226.528 33.6369H231.6C231.584 32.5009 230.816 31.0769 229.056 31.0769ZM243.04 28.5169H240.24V32.5809H243.04C244.304 32.5809 245.168 31.7489 245.168 30.5489C245.168 29.3489 244.304 28.5169 243.04 28.5169ZM169.618 22.5662C171.088 23.4819 172.106 24.1171 172.218 24.18C172.705 24.4633 172.994 24.924 173 25.4419C173.008 25.9684 172.721 26.452 172.212 26.7725C172.098 26.844 171.063 27.4878 169.568 28.4207L166.745 25.5192L169.618 22.5662ZM155.542 14.0049C155.804 14.0249 156.068 14.1079 156.316 14.2624L157.719 15.138C159.812 16.4457 164.469 19.3557 167.945 21.5218L165.401 24.1371L155.542 14.0049ZM210.183 13.9785C210.831 13.9785 211.352 14.196 211.745 14.631C212.138 15.066 212.334 15.6075 212.334 16.2555C212.334 16.9035 212.136 17.4465 211.74 17.8845C211.35 18.3225 210.831 18.5415 210.183 18.5415C209.535 18.5415 209.015 18.3225 208.622 17.8845C208.229 17.4465 208.032 16.9035 208.032 16.2555C208.032 15.6075 208.229 15.066 208.622 14.631C209.015 14.196 209.535 13.9785 210.183 13.9785ZM215.142 13.9785C215.64 13.9785 216.045 14.0985 216.357 14.3385C216.669 14.5785 216.825 14.9475 216.825 15.4455V18.4335H216.15V17.9385C215.784 18.3405 215.304 18.5415 214.71 18.5415C214.308 18.5415 213.954 18.4125 213.648 18.1545C213.342 17.8965 213.189 17.5455 213.189 17.1015C213.189 16.6455 213.341 16.293 213.644 16.044C213.947 15.795 214.302 15.6705 214.71 15.6705C215.328 15.6705 215.808 15.8685 216.15 16.2645V15.4815C216.15 15.1935 216.048 14.9685 215.844 14.8065C215.64 14.6445 215.376 14.5635 215.052 14.5635C214.542 14.5635 214.098 14.7645 213.72 15.1665L213.405 14.6985C213.867 14.2185 214.446 13.9785 215.142 13.9785ZM233.088 13.9785C233.736 13.9785 234.257 14.196 234.65 14.631C235.043 15.066 235.239 15.6075 235.239 16.2555C235.239 16.9035 235.041 17.4465 234.645 17.8845C234.255 18.3225 233.736 18.5415 233.088 18.5415C232.44 18.5415 231.92 18.3225 231.527 17.8845C231.134 17.4465 230.937 16.9035 230.937 16.2555C230.937 15.6075 231.134 15.066 231.527 14.631C231.92 14.196 232.44 13.9785 233.088 13.9785ZM191.445 13.9785C192.093 13.9785 192.614 14.196 193.007 14.631C193.4 15.066 193.596 15.6075 193.596 16.2555C193.596 16.9035 193.398 17.4465 193.002 17.8845C192.612 18.3225 192.093 18.5415 191.445 18.5415C190.797 18.5415 190.277 18.3225 189.884 17.8845C189.491 17.4465 189.294 16.9035 189.294 16.2555C189.294 15.6075 189.491 15.066 189.884 14.631C190.277 14.196 190.797 13.9785 191.445 13.9785ZM222 12.4305V18.4335H221.325V17.7855C220.953 18.2895 220.464 18.5415 219.858 18.5415C219.282 18.5415 218.816 18.336 218.459 17.925C218.102 17.514 217.923 16.9605 217.923 16.2645C217.923 15.5745 218.102 15.021 218.459 14.604C218.816 14.187 219.282 13.9785 219.858 13.9785C220.458 13.9785 220.947 14.2335 221.325 14.7435V12.4305H222ZM227.121 12.3405C227.493 12.3405 227.799 12.4515 228.039 12.6735L227.76 13.1145C227.598 12.9705 227.418 12.8985 227.22 12.8985C226.998 12.8985 226.829 12.972 226.712 13.119C226.595 13.266 226.536 13.4775 226.536 13.7535V14.0865H227.418V14.6805H226.536V18.4335H225.861V14.6805H225.141V14.0865H225.861V13.7535C225.861 13.3095 225.974 12.963 226.199 12.714C226.424 12.465 226.731 12.3405 227.121 12.3405ZM241.044 13.9785C241.854 13.9785 242.259 14.4164 242.259 15.2925V18.4335H241.584V15.4815C241.584 14.8815 241.317 14.5815 240.783 14.5815C240.567 14.5815 240.351 14.6475 240.135 14.7795C239.919 14.9115 239.751 15.0675 239.631 15.2475V18.4335H238.956V15.4815C238.956 14.8815 238.689 14.5815 238.155 14.5815C237.945 14.5815 237.734 14.6475 237.521 14.7795C237.308 14.9115 237.138 15.0705 237.012 15.2565V18.4335H236.337V14.0865H237.012V14.7165C237.12 14.5485 237.309 14.3835 237.579 14.2215C237.849 14.0595 238.128 13.9785 238.416 13.9785C238.734 13.9785 238.992 14.0535 239.19 14.2035C239.388 14.3535 239.52 14.5485 239.586 14.7885C239.718 14.5725 239.919 14.3835 240.189 14.2215C240.459 14.0595 240.744 13.9785 241.044 13.9785ZM203.523 13.9785C204.447 13.9785 204.909 14.4464 204.909 15.3825V18.4335H204.234V15.5895C204.234 15.2235 204.15 14.964 203.982 14.811C203.814 14.658 203.574 14.5815 203.262 14.5815C203.01 14.5815 202.766 14.6475 202.529 14.7795C202.292 14.9115 202.107 15.0705 201.975 15.2565V18.4335H201.3V14.0865H201.975V14.7165C202.143 14.5185 202.368 14.346 202.65 14.199C202.932 14.052 203.223 13.9785 203.523 13.9785ZM185.325 12.4305C186.243 12.4305 186.986 12.7155 187.553 13.2855C188.12 13.8555 188.403 14.5724 188.403 15.4365C188.403 16.3065 188.12 17.0235 187.553 17.5875C186.986 18.1515 186.243 18.4335 185.325 18.4335H183.273V12.4305H185.325ZM194.829 14.0865L195.891 17.5515L197.034 14.0865H197.61L198.753 17.5515L199.815 14.0865H200.517L199.131 18.4335H198.456L197.322 14.9415L196.188 18.4335H195.513L194.127 14.0865H194.829ZM230.343 13.9965V14.6895C230.259 14.6715 230.169 14.6625 230.073 14.6625C229.869 14.6625 229.647 14.7345 229.407 14.8785C229.167 15.0225 228.996 15.1815 228.894 15.3555V18.4335H228.219V14.0865H228.894V14.7885C229.296 14.2605 229.779 13.9965 230.343 13.9965ZM206.934 12.4305V18.4335H206.259V12.4305H206.934ZM214.953 16.1565C214.641 16.1565 214.385 16.245 214.184 16.422C213.983 16.599 213.882 16.8285 213.882 17.1105C213.882 17.3865 213.983 17.613 214.184 17.79C214.385 17.967 214.641 18.0555 214.953 18.0555C215.493 18.0555 215.892 17.8755 216.15 17.5155V16.6965C215.892 16.3365 215.493 16.1565 214.953 16.1565ZM191.445 14.5815C191.001 14.5815 190.649 14.745 190.388 15.072C190.127 15.399 189.996 15.7935 189.996 16.2555C189.996 16.7235 190.125 17.1225 190.383 17.4525C190.647 17.7765 191.001 17.9385 191.445 17.9385C191.889 17.9385 192.24 17.775 192.498 17.448C192.756 17.121 192.885 16.7235 192.885 16.2555C192.885 15.7875 192.756 15.3915 192.498 15.0675C192.24 14.7435 191.889 14.5815 191.445 14.5815ZM233.088 14.5815C232.644 14.5815 232.292 14.745 232.031 15.072C231.77 15.399 231.639 15.7935 231.639 16.2555C231.639 16.7235 231.768 17.1225 232.026 17.4525C232.29 17.7765 232.644 17.9385 233.088 17.9385C233.532 17.9385 233.883 17.775 234.141 17.448C234.399 17.121 234.528 16.7235 234.528 16.2555C234.528 15.7875 234.399 15.3915 234.141 15.0675C233.883 14.7435 233.532 14.5815 233.088 14.5815ZM210.183 14.5815C209.739 14.5815 209.387 14.745 209.126 15.072C208.865 15.399 208.734 15.7935 208.734 16.2555C208.734 16.7235 208.863 17.1225 209.121 17.4525C209.385 17.7765 209.739 17.9385 210.183 17.9385C210.627 17.9385 210.978 17.775 211.236 17.448C211.494 17.121 211.623 16.7235 211.623 16.2555C211.623 15.7875 211.494 15.3915 211.236 15.0675C210.978 14.7435 210.627 14.5815 210.183 14.5815ZM220.02 14.5815C219.594 14.5815 219.255 14.739 219.003 15.054C218.751 15.369 218.625 15.7725 218.625 16.2645C218.625 16.7565 218.751 17.1585 219.003 17.4705C219.255 17.7825 219.594 17.9385 220.02 17.9385C220.284 17.9385 220.536 17.8725 220.776 17.7405C221.016 17.6085 221.199 17.4465 221.325 17.2545V15.2835C221.199 15.0855 221.015 14.919 220.772 14.784C220.529 14.649 220.278 14.5815 220.02 14.5815ZM185.325 13.0965H184.02V17.7675H185.325C186.033 17.7675 186.594 17.5455 187.008 17.1015C187.422 16.6575 187.629 16.1025 187.629 15.4365C187.629 14.7645 187.425 14.2065 187.017 13.7625C186.609 13.3185 186.045 13.0965 185.325 13.0965Z" fill="#EBEBEB"/>
</g>
<defs>
<clipPath id="clip0_241_5073">
<rect width="130" height="49.13" fill="white" transform="translate(0 0.439941)"/>
</clipPath>
<clipPath id="clip1_241_5073">
<rect width="141" height="48" fill="white" transform="translate(138 1.00488)"/>
</clipPath>
</defs>
</svg>
