<svg width="45" height="34" viewBox="0 0 45 34" fill="none" xmlns="http://www.w3.org/2000/svg">
<path d="M42.8865 14.6256C42.8865 14.6256 36.9471 17.1665 20.2566 24.551C5.66224 31.0144 0.516926 29.998 0.516926 29.998C0.516926 29.998 -0.229503 32.2531 1.46973 33.9999C1.46973 33.9999 8.48896 33.8252 24.2902 28.0129C40.0914 22.2006 42.7753 21.2319 42.7753 21.2319C42.7753 21.2319 45.1256 21.0255 44.8239 18.2622C44.5063 15.499 42.8865 14.6414 42.8865 14.6414V14.6256Z" fill="#C1C1C1"/>
<path d="M28.3876 9.19432C27.4348 9.19432 26.5296 9.19432 25.672 9.14668C26.0214 12.6563 21.0508 14.7208 17.8429 16.5471C16.4771 17.3252 15.7149 17.9445 15.0956 18.548C19.288 20.0884 22.7976 23.4234 22.7976 23.4234C26.7519 21.6765 30.0392 20.2314 32.7071 19.0562C32.7071 19.0562 32.0402 18.1828 31.6273 15.6736C31.2144 13.1645 36.0262 11.37 36.0262 11.37C36.1374 9.73427 33.93 9.11491 28.3559 9.19432H28.3876Z" fill="#222222"/>
<path d="M12.2527 21.1683C12.5068 21.3907 12.6974 21.6448 12.7768 21.9624C13.285 23.8204 8.83846 25.9802 4.16955 26.6789C2.35915 26.9489 1.42215 26.8218 0.94573 26.5519C0.755162 26.7583 0.612287 26.9489 0.501123 27.1553C-0.626403 29.3151 0.501123 29.998 0.501123 29.998C0.501123 29.998 5.64644 31.0143 20.2408 24.5509C21.1301 24.1539 21.9717 23.7886 22.7975 23.4234C22.7975 23.4234 18.5097 19.3579 13.7614 18.1351C14.2061 18.2463 14.6508 18.3892 15.0795 18.548C14.222 19.3897 13.6661 20.1679 12.2368 21.1683H12.2527Z" fill="#7F8284"/>
<path d="M12.2525 21.1684C11.8079 20.7872 11.1568 20.549 10.5057 20.3902C10.2516 20.7078 10.0293 20.946 9.87045 21.1048C9.67988 21.2795 9.44173 21.4701 9.14 21.6607C7.04376 23.0423 2.56535 24.8368 0.92964 26.5678C1.40606 26.8378 2.34306 26.9648 4.15346 26.6948C8.82237 25.9961 13.2689 23.8204 12.7607 21.9783C12.6813 21.6607 12.4907 21.4066 12.2366 21.1842L12.2525 21.1684Z" fill="white"/>
<path d="M25.6718 9.14677C21.5905 8.9562 18.9066 8.25745 18.9066 8.25745C18.9066 8.25745 15.143 14.0063 12.3956 17.8652C13.3167 17.9764 14.2219 18.2305 15.0953 18.5481C15.7147 17.9446 16.4769 17.3094 17.8427 16.5472C21.0505 14.7209 26.0212 12.6564 25.6718 9.14677Z" fill="#C1C1C1"/>
<path d="M13.1738 17.9923C13.1738 17.9923 13.0785 17.9764 13.0309 17.9605C12.8244 17.9288 12.618 17.8811 12.4116 17.8653C11.6811 18.8816 11.03 19.7709 10.5218 20.3903C11.1729 20.5491 11.824 20.7873 12.2686 21.1684C13.6979 20.1679 14.2537 19.3898 15.1112 18.5481C14.6824 18.3893 14.2379 18.2464 13.7932 18.1352C13.7773 18.1352 13.7455 18.1352 13.7296 18.1352C13.5549 18.0876 13.3644 18.0558 13.1738 18.0082V17.9923Z" fill="#C1C1C1"/>
<path d="M19.415 4.50952C18.9703 6.44696 18.9068 8.25735 18.9068 8.25735C18.9068 8.25735 18.9227 8.25735 18.9386 8.25735C18.9386 8.25735 18.9703 8.25735 19.0021 8.25735C19.0021 8.25735 19.0339 8.25735 19.0498 8.25735C19.0815 8.25735 19.1292 8.27324 19.1609 8.28912H19.1926C19.2403 8.28912 19.3038 8.32088 19.3832 8.33676C20.1772 8.51144 21.8765 8.82905 24.1792 9.01961C24.4015 9.03549 24.6238 9.0514 24.862 9.06728C24.8938 9.06728 24.9096 9.06728 24.9414 9.06728C25.1637 9.06728 25.402 9.09902 25.6402 9.09902C25.6402 9.09902 25.6402 8.97198 25.6244 8.90846C25.2432 6.44696 21.6541 5.08122 19.3832 4.46188L19.415 4.50952Z" fill="#C1C1C1"/>
<path d="M35.2956 2.71508C35.2956 2.71508 30.7061 3.90612 24.9573 0.618822C21.5589 -1.3345 20.0661 1.71458 19.415 4.50958C21.6859 5.12892 25.2749 6.49466 25.6561 8.95616C25.6561 9.01968 25.6561 9.0832 25.672 9.14672C26.5136 9.19436 27.4189 9.21024 28.3876 9.19436C33.9617 9.11496 36.169 9.73432 36.0579 11.37C36.0579 11.37 31.2461 13.1645 31.659 15.6737C32.0719 18.1828 32.7389 19.0562 32.7389 19.0562C40.044 15.8484 42.9024 14.6256 42.9024 14.6256C42.9024 14.6256 41.8861 8.54328 35.3115 2.71508H35.2956Z" fill="#7F8284"/>
<path d="M0.374123 31.5226C0.374123 31.5226 5.26535 33.0471 30.3409 22.947C36.185 20.5967 40.7427 18.3734 44.3317 16.3407" stroke="#222222" stroke-width="0.692178" stroke-linecap="round" stroke-linejoin="round"/>
</svg>
