<svg width="17" height="17" viewBox="0 0 17 17" fill="none" xmlns="http://www.w3.org/2000/svg">
<path d="M1.79318 0.924339L2.41882 0.298703C2.81721 -0.0996942 3.46314 -0.0996949 3.86154 0.298702L6.49945 2.93662C6.89785 3.33501 6.89785 3.98094 6.49945 4.37934L4.67091 6.20789C4.366 6.51279 4.29041 6.9786 4.48325 7.36428C5.59804 9.59386 7.40589 11.4017 9.63547 12.5165C10.0211 12.7093 10.487 12.6338 10.7919 12.3288L12.6204 10.5003C13.0188 10.1019 13.6647 10.1019 14.0631 10.5003L16.701 13.1382C17.0994 13.5366 17.0994 14.1825 16.701 14.5809L16.0754 15.2066C13.9215 17.3605 10.5115 17.6028 8.07467 15.7752L6.8419 14.8506C5.06322 13.5166 3.48317 11.9365 2.14917 10.1579L1.22459 8.92508C-0.60307 6.4882 -0.360735 3.07825 1.79318 0.924339Z" fill="#868181" fill-opacity="0.49"/>
</svg>
