<svg width="81" height="58" viewBox="0 0 81 58" fill="none" xmlns="http://www.w3.org/2000/svg">
<rect x="23.1429" width="57.8571" height="57.8571" rx="28.8305" fill="#F36A21"/>
<path d="M67.3375 19.4777C66.4731 20.7434 65.4221 21.8225 64.1961 22.7096C64.213 22.8904 64.2187 23.1616 64.2187 23.5232C64.2187 25.2069 63.9701 26.8794 63.4785 28.5518C62.9926 30.2242 62.2468 31.8289 61.2411 33.3657C60.241 34.9025 59.0488 36.2642 57.6702 37.4451C56.2859 38.6259 54.6191 39.5695 52.6699 40.2701C50.7206 40.9764 48.6357 41.3267 46.4152 41.3267C42.9121 41.3267 39.7142 40.3944 36.8044 38.5186C37.2564 38.5694 37.7592 38.5977 38.3186 38.5977C41.2228 38.5977 43.8105 37.705 46.0875 35.9252C44.7315 35.8969 43.5167 35.4788 42.4432 34.6765C41.3697 33.8686 40.6351 32.8346 40.234 31.5859C40.6634 31.6481 41.0533 31.682 41.4149 31.682C41.9742 31.682 42.5223 31.6085 43.0647 31.4673C41.6183 31.1735 40.4204 30.4502 39.4712 29.3089C38.522 28.1676 38.0474 26.8398 38.0474 25.3256V25.2521C38.9232 25.7381 39.8667 26.0036 40.8724 26.0432C40.0193 25.4782 39.3413 24.7323 38.8384 23.817C38.3356 22.9017 38.0869 21.9073 38.0869 20.8338C38.0869 19.6981 38.3695 18.6415 38.9345 17.6754C40.4995 19.602 42.4036 21.1389 44.6411 22.2971C46.8842 23.4498 49.2798 24.0939 51.8393 24.2238C51.7376 23.7323 51.6811 23.252 51.6811 22.7887C51.6811 21.0598 52.2913 19.5851 53.5117 18.3647C54.7322 17.1443 56.2125 16.534 57.9414 16.534C59.7494 16.534 61.275 17.1895 62.5123 18.5059C63.9192 18.2347 65.2413 17.7319 66.4844 16.9973C66.0041 18.4833 65.0888 19.6303 63.7328 20.4439C64.9362 20.314 66.1341 19.9919 67.3375 19.4777Z" fill="white"/>
</svg>
