<svg width="126" height="30" viewBox="0 0 126 30" fill="none" xmlns="http://www.w3.org/2000/svg">
<rect x="12" width="30" height="30" rx="14.9762" fill="white"/>
<path d="M29.5721 15.0001C29.5721 14.2911 29.3202 13.6847 28.8192 13.1807C28.3153 12.6798 27.7088 12.4278 26.9998 12.4278C26.2909 12.4278 25.6844 12.6798 25.1805 13.1807C24.6795 13.6847 24.4276 14.2911 24.4276 15.0001C24.4276 15.7091 24.6795 16.3155 25.1805 16.8194C25.6844 17.3204 26.2909 17.5723 26.9998 17.5723C27.7088 17.5723 28.3153 17.3204 28.8192 16.8194C29.3202 16.3155 29.5721 15.7091 29.5721 15.0001ZM30.9578 15.0001C30.9578 16.0987 30.5711 17.0333 29.8035 17.8038C29.033 18.5714 28.0985 18.9581 26.9998 18.9581C25.9012 18.9581 24.9666 18.5714 24.1961 17.8038C23.4286 17.0333 23.0418 16.0987 23.0418 15.0001C23.0418 13.9015 23.4286 12.9669 24.1961 12.1964C24.9666 11.4288 25.9012 11.0421 26.9998 11.0421C28.0985 11.0421 29.033 11.4288 29.8035 12.1964C30.5711 12.9669 30.9578 13.9015 30.9578 15.0001ZM32.0418 10.8809C32.0418 11.1358 31.951 11.3526 31.7723 11.5343C31.5907 11.7159 31.3739 11.8067 31.119 11.8067C30.8641 11.8067 30.6473 11.7159 30.4657 11.5343C30.284 11.3526 30.1932 11.1358 30.1932 10.8809C30.1932 10.6261 30.284 10.4093 30.4657 10.2276C30.6473 10.0489 30.8641 9.95809 31.119 9.95809C31.3739 9.95809 31.5907 10.0489 31.7723 10.2276C31.951 10.4093 32.0418 10.6261 32.0418 10.8809ZM26.9998 8.67196C26.953 8.67196 26.6981 8.66903 26.2323 8.6661C25.7664 8.66317 25.4119 8.66317 25.1717 8.6661C24.9315 8.66903 24.6063 8.68075 24.202 8.69833C23.7977 8.71298 23.452 8.74813 23.1678 8.79794C22.8836 8.84774 22.6434 8.90927 22.45 8.98251C22.1161 9.11727 21.8202 9.31063 21.5653 9.56552C21.3104 9.8204 21.117 10.1163 20.9823 10.4503C20.909 10.6436 20.8475 10.8839 20.7977 11.1681C20.7479 11.4522 20.7127 11.7979 20.6981 12.2022C20.6805 12.6065 20.6688 12.9317 20.6659 13.172C20.6629 13.4122 20.6629 13.7667 20.6659 14.2325C20.6688 14.6983 20.6717 14.9532 20.6717 15.0001C20.6717 15.047 20.6688 15.3018 20.6659 15.7677C20.6629 16.2335 20.6629 16.588 20.6659 16.8282C20.6688 17.0684 20.6805 17.3936 20.6981 17.7979C20.7127 18.2022 20.7479 18.5479 20.7977 18.8321C20.8475 19.1163 20.909 19.3565 20.9823 19.5499C21.117 19.8839 21.3104 20.1798 21.5653 20.4347C21.8202 20.6895 22.1161 20.8829 22.45 21.0177C22.6434 21.0909 22.8836 21.1524 23.1678 21.2022C23.452 21.252 23.7977 21.2872 24.202 21.3018C24.6063 21.3194 24.9315 21.3311 25.1717 21.3341C25.4119 21.337 25.7664 21.337 26.2323 21.3341C26.6981 21.3311 26.953 21.3282 26.9998 21.3282C27.0467 21.3282 27.3016 21.3311 27.7674 21.3341C28.2332 21.337 28.5877 21.337 28.828 21.3341C29.0682 21.3311 29.3934 21.3194 29.7977 21.3018C30.202 21.2872 30.5477 21.252 30.8319 21.2022C31.116 21.1524 31.3563 21.0909 31.5496 21.0177C31.8836 20.8829 32.1795 20.6895 32.4344 20.4347C32.6893 20.1798 32.8826 19.8839 33.0174 19.5499C33.0907 19.3565 33.1522 19.1163 33.202 18.8321C33.2518 18.5479 33.2869 18.2022 33.3016 17.7979C33.3192 17.3936 33.3309 17.0684 33.3338 16.8282C33.3368 16.588 33.3368 16.2335 33.3338 15.7677C33.3309 15.3018 33.328 15.047 33.328 15.0001C33.328 14.9532 33.3309 14.6983 33.3338 14.2325C33.3368 13.7667 33.3368 13.4122 33.3338 13.172C33.3309 12.9317 33.3192 12.6065 33.3016 12.2022C33.2869 11.7979 33.2518 11.4522 33.202 11.1681C33.1522 10.8839 33.0907 10.6436 33.0174 10.4503C32.8826 10.1163 32.6893 9.8204 32.4344 9.56552C32.1795 9.31063 31.8836 9.11727 31.5496 8.98251C31.3563 8.90927 31.116 8.84774 30.8319 8.79794C30.5477 8.74813 30.202 8.71298 29.7977 8.69833C29.3934 8.68075 29.0682 8.66903 28.828 8.6661C28.5877 8.66317 28.2332 8.66317 27.7674 8.6661C27.3016 8.66903 27.0467 8.67196 26.9998 8.67196ZM34.7137 15.0001C34.7137 16.5323 34.6961 17.5958 34.6639 18.1847C34.5965 19.5763 34.1805 20.6544 33.4188 21.419C32.6541 22.1807 31.576 22.5968 30.1844 22.6641C29.5955 22.6964 28.5321 22.7139 26.9998 22.7139C25.4676 22.7139 24.4041 22.6964 23.8153 22.6641C22.4237 22.5968 21.3455 22.1807 20.5809 21.419C19.8192 20.6544 19.4032 19.5763 19.3358 18.1847C19.3036 17.5958 19.286 16.5323 19.286 15.0001C19.286 13.4679 19.3036 12.4044 19.3358 11.8155C19.4032 10.4239 19.8192 9.34579 20.5809 8.58114C21.3455 7.81942 22.4237 7.40341 23.8153 7.33603C24.4041 7.3038 25.4676 7.28622 26.9998 7.28622C28.5321 7.28622 29.5955 7.3038 30.1844 7.33603C31.576 7.40341 32.6541 7.81942 33.4188 8.58114C34.1805 9.34579 34.5965 10.4239 34.6639 11.8155C34.6961 12.4044 34.7137 13.4679 34.7137 15.0001Z" fill="#161718"/>
<rect x="53.9998" width="30" height="30" rx="14.9762" fill="white"/>
<path d="M73.4995 7.50043H71.2495C70.255 7.50043 69.3012 7.89552 68.5979 8.59878C67.8946 9.30204 67.4995 10.2559 67.4995 11.2504V13.5004H65.2495V16.5004H67.4995V22.5004H70.4995V16.5004H72.7495L73.4995 13.5004H70.4995V11.2504C70.4995 11.0515 70.5786 10.8607 70.7192 10.7201C70.8599 10.5794 71.0506 10.5004 71.2495 10.5004H73.4995V7.50043Z" fill="#161718"/>
<rect x="96" width="30" height="30" rx="14.9762" fill="white"/>
<path d="M118.916 10.0995C118.467 10.7558 117.922 11.3154 117.287 11.7753C117.295 11.8691 117.298 12.0097 117.298 12.1972C117.298 13.0702 117.169 13.9374 116.915 14.8046C116.663 15.6718 116.276 16.5038 115.754 17.3007C115.236 18.0976 114.618 18.8036 113.903 19.4159C113.185 20.0282 112.321 20.5175 111.31 20.8808C110.299 21.247 109.218 21.4286 108.067 21.4286C106.25 21.4286 104.592 20.9452 103.084 19.9726C103.318 19.999 103.579 20.0136 103.869 20.0136C105.375 20.0136 106.716 19.5507 107.897 18.6279C107.194 18.6132 106.564 18.3964 106.007 17.9804C105.451 17.5615 105.07 17.0253 104.862 16.3779C105.084 16.4101 105.287 16.4277 105.474 16.4277C105.764 16.4277 106.048 16.3896 106.33 16.3163C105.58 16.164 104.959 15.789 104.466 15.1972C103.974 14.6054 103.728 13.9169 103.728 13.1318V13.0937C104.182 13.3456 104.671 13.4833 105.193 13.5038C104.75 13.2109 104.399 12.8241 104.138 12.3495C103.877 11.8749 103.749 11.3593 103.749 10.8027C103.749 10.2138 103.895 9.66595 104.188 9.16497C105 10.164 105.987 10.9609 107.147 11.5615C108.31 12.1591 109.552 12.4931 110.879 12.5605C110.827 12.3056 110.797 12.0566 110.797 11.8163C110.797 10.9199 111.114 10.1552 111.747 9.52239C112.379 8.88958 113.147 8.57318 114.043 8.57318C114.981 8.57318 115.772 8.91302 116.414 9.59564C117.143 9.45501 117.829 9.19427 118.473 8.81341C118.224 9.58392 117.75 10.1786 117.046 10.6005C117.67 10.5331 118.292 10.3661 118.916 10.0995Z" fill="#161718"/>
</svg>
