<svg width="4" height="4" viewBox="0 0 4 4" fill="none" xmlns="http://www.w3.org/2000/svg">
<path d="M3.90161 0.110884C4.032 0.242207 4.03124 0.454365 3.89992 0.584751L2.47322 2.00126L3.88974 3.42795C4.02012 3.55928 4.01936 3.77144 3.88804 3.90182C3.75672 4.03221 3.54456 4.03145 3.41417 3.90013L1.99766 2.47343L0.57097 3.88994C0.439646 4.02033 0.227488 4.01957 0.0971022 3.88825C-0.0332839 3.75692 -0.0325246 3.54477 0.0987991 3.41438L1.52549 1.99787L0.10898 0.571177C-0.0214067 0.439853 -0.0206471 0.227696 0.110676 0.0973094C0.242 -0.0330767 0.454157 -0.032317 0.584544 0.0990064L2.00105 1.5257L3.42775 0.109187C3.55907 -0.0211995 3.77123 -0.0204397 3.90161 0.110884Z" fill="#F36A21"/>
</svg>
