<svg width="301" height="146" viewBox="0 0 301 146" fill="none" xmlns="http://www.w3.org/2000/svg">
<path d="M167.195 9.63975L172.133 0.347075L143.419 15.1144L188.305 23.3027L167.195 9.63975Z" stroke="#222222" stroke-width="0.692178" stroke-linecap="round" stroke-linejoin="round"/>
<path d="M27.3158 16.2503L28.7988 11.4541L16.6978 20.9203L38.407 20.7468L27.3158 16.2503Z" stroke="#222222" stroke-width="0.692178" stroke-linecap="round" stroke-linejoin="round"/>
<path d="M294.547 41.6199L300.511 38.5434L280.111 35.8613L300.653 56.4187L294.547 41.6199Z" stroke="#222222" stroke-width="0.692178" stroke-linecap="round" stroke-linejoin="round"/>
<path d="M7.02654 62.903C7.43675 64.7174 6.3166 66.5317 4.48646 66.9577C2.6721 67.3679 0.857732 66.2477 0.431752 64.4176C0.0215489 62.6032 1.1417 60.7889 2.97183 60.3629C4.78619 59.9369 6.60056 61.0729 7.02654 62.903Z" stroke="#222222" stroke-width="0.692178" stroke-linecap="round" stroke-linejoin="round"/>
<path d="M30.3767 140.936C30.7869 142.751 29.6667 144.565 27.8366 144.991C26.0222 145.417 24.2079 144.281 23.7819 142.451C23.3717 140.637 24.4919 138.822 26.322 138.396C28.1522 137.97 29.9508 139.106 30.3767 140.936Z" stroke="#222222" stroke-width="0.692178" stroke-linecap="round" stroke-linejoin="round"/>
<path d="M190.024 136.85C191.476 138.664 187.547 140.479 181.236 140.905C174.941 141.315 168.662 140.195 167.211 138.365C165.759 136.55 169.688 134.736 175.998 134.31C182.294 133.884 188.573 135.02 190.024 136.85Z" stroke="#222222" stroke-width="0.692178" stroke-linecap="round" stroke-linejoin="round"/>
</svg>
