<svg width="256" height="180" viewBox="0 0 256 180" fill="none" xmlns="http://www.w3.org/2000/svg">
<g opacity="0.5">
<path d="M64.6313 156.696C96.2462 156.696 115.788 148.268 115.788 129.829C115.788 58.533 196.571 143.285 236.243 116.038C251.625 105.476 255.713 85.4544 255.993 67.8836C256.373 44.073 240.358 29.4864 215.851 25.6883C208.49 24.5489 202.096 24.359 196.517 24.9468C180.908 26.5836 165.065 23.3281 151.988 14.6376C140.621 7.08657 127.997 -6.09833 97.1143 3.19802C76.2066 9.49205 63.935 30.6711 61.0683 40.6818L48.1819 40.6457C21.595 40.5733 0 62.105 0 88.6919V92.0559C0 127.749 28.9381 156.687 64.6313 156.687V156.696Z" fill="#F36A21" fill-opacity="0.19"/>
<path d="M71.8135 119.684H14.7693C14.7693 116.609 17.2562 114.122 20.3308 114.122H66.261C69.3356 114.122 71.8225 116.609 71.8225 119.684H71.8135Z" fill="#C1C1C1"/>
<path d="M14.6148 108.561L14.6148 74.2331C14.6148 71.1674 17.1017 68.6715 20.1764 68.6715V114.113C17.1107 114.113 14.6148 111.626 14.6148 108.552V108.561Z" fill="#C1C1C1"/>
<path d="M52.7133 68.6805H20.176V114.122H52.7133V68.6805Z" fill="#C1C1C1"/>
<path d="M45.3249 119.684H41.2555V170.687H45.3249V119.684Z" fill="#7C7C7C"/>
<path d="M63.1134 177.207C63.1134 178.41 62.1367 179.387 60.934 179.387C59.7312 179.387 58.7546 178.41 58.7546 177.207C58.7546 176.005 59.7312 175.028 60.934 175.028C62.1367 175.028 63.1134 176.005 63.1134 177.207Z" fill="#222222"/>
<path d="M45.4618 177.207C45.4618 178.41 44.4851 179.387 43.2824 179.387C42.0796 179.387 41.103 178.41 41.103 177.207C41.103 176.005 42.0796 175.028 43.2824 175.028C44.4851 175.028 45.4618 176.005 45.4618 177.207Z" fill="#222222"/>
<path d="M27.818 177.207C27.818 178.41 26.8413 179.387 25.6386 179.387C24.4359 179.387 23.4592 178.41 23.4592 177.207C23.4592 176.005 24.4359 175.028 25.6386 175.028C26.8413 175.028 27.818 176.005 27.818 177.207Z" fill="#222222"/>
<path d="M25.6473 177.207V172.948V170.678H60.9337V177.207" stroke="#222222" stroke-width="0.397431" stroke-linecap="round" stroke-linejoin="round"/>
<path d="M43.2911 177.207V170.678" stroke="#222222" stroke-width="0.397431" stroke-linecap="round" stroke-linejoin="round"/>
<path d="M18.8659 114.122H66.252" stroke="#222222" stroke-width="0.397431" stroke-linecap="round" stroke-linejoin="round"/>
<path d="M20.176 68.6805V114.122" stroke="#222222" stroke-width="0.397431" stroke-linecap="round" stroke-linejoin="round"/>
<path d="M85.1438 169.819C85.614 167.351 85.4964 165.596 85.4964 165.596C85.4964 165.596 88.2546 165.714 90.3707 167.531L93.3459 165.388L101.349 173.4L103.827 172.451C104.324 172.966 104.641 173.301 104.695 173.337C104.984 173.572 108.041 174.097 110.446 173.69C112.852 173.283 113.964 174.097 113.792 175.625C113.621 177.153 113.033 178.03 113.033 178.03H99.4138L93.0203 175.679L84.8634 175.562C84.8634 175.562 84.6916 172.279 85.1528 169.81L85.1438 169.819Z" fill="#7F8284"/>
<path d="M101.339 173.401L93.3362 165.389L95.588 163.77C95.588 163.77 101.538 170.073 103.817 172.451L101.339 173.401Z" fill="#333435"/>
<path d="M94.4762 167.378L97.0445 165.307" stroke="#333435" stroke-width="0.198715" stroke-miterlimit="10"/>
<path d="M96.0132 168.997L98.5815 166.926" stroke="white" stroke-width="0.397431" stroke-miterlimit="10"/>
<path d="M97.5502 170.606L100.109 168.535" stroke="white" stroke-width="0.397431" stroke-miterlimit="10"/>
<path d="M99.0773 172.216L101.646 170.145" stroke="white" stroke-width="0.397431" stroke-miterlimit="10"/>
<path d="M99.4033 178.031H113.022C113.022 178.031 113.664 178.619 113.257 179.378H99.3129L93.1273 176.032H92.8018V179.378H85.9923C85.9923 179.378 84.9976 178.112 84.8438 175.562L93.0007 175.68L99.3942 178.031H99.4033Z" fill="#222222"/>
<path d="M57.2966 169.819C57.7668 167.351 57.6493 165.596 57.6493 165.596C57.6493 165.596 60.4074 165.714 62.5235 167.531L65.4987 165.388L73.5019 173.4L75.9797 172.451C76.4771 172.966 76.7936 173.301 76.8478 173.337C77.1372 173.572 80.1938 174.097 82.5993 173.69C85.0048 173.283 86.1171 174.097 85.9453 175.625C85.7734 177.153 85.1856 178.03 85.1856 178.03H71.5667L65.1732 175.679L57.0162 175.562C57.0162 175.562 56.8444 172.279 57.3056 169.81L57.2966 169.819Z" fill="#7F8284"/>
<path d="M73.4922 173.401L65.4891 165.389L67.7408 163.77C67.7408 163.77 73.6912 170.073 75.9701 172.451L73.4922 173.401Z" fill="#333435"/>
<path d="M66.6291 167.378L69.1973 165.307" stroke="#333435" stroke-width="0.198715" stroke-miterlimit="10"/>
<path d="M68.166 168.997L70.7252 166.926" stroke="white" stroke-width="0.397431" stroke-miterlimit="10"/>
<path d="M69.6952 170.606L72.2634 168.535" stroke="white" stroke-width="0.397431" stroke-miterlimit="10"/>
<path d="M71.2321 172.216L73.8004 170.145" stroke="white" stroke-width="0.397431" stroke-miterlimit="10"/>
<path d="M71.5581 178.031H85.177C85.177 178.031 85.8191 178.619 85.4122 179.378H71.4676L65.2821 176.032H64.9566V179.378H58.1471C58.1471 179.378 57.1523 178.112 56.9986 175.562L65.1555 175.68L71.549 178.031H71.5581Z" fill="#222222"/>
<path d="M80.4114 65.8864C80.3119 62.64 80.2124 60.1621 80.131 59.8547C80.131 59.8547 79.7422 56.3369 79.7784 56.1741C80.1943 54.3203 80.33 48.596 80.33 48.596L80.9449 42.8988C80.9449 42.8988 81.0896 41.8317 80.3842 41.678C79.6065 41.5061 79.4709 42.5913 79.4709 42.5913L78.4942 47.8544C78.4942 47.8544 78.9554 42.745 79.1272 41.2981C79.1634 40.9907 79.2538 40.1135 78.4038 40.0231C77.5537 39.9326 77.3548 40.6109 77.2915 40.9183C76.9479 42.5371 76.351 47.3751 76.351 47.3751L76.8393 39.4262C76.8393 39.4262 76.9388 38.3139 76.0074 38.1963C75.0759 38.0788 74.9041 38.7841 74.8498 39.1549C74.5243 41.1534 73.9184 47.2124 73.9184 47.2124C73.9184 47.2124 74.2801 42.3019 74.47 40.647C74.5152 40.2401 74.5243 39.2182 73.5838 39.0645C72.6433 38.9108 72.5167 40.0773 72.4715 40.4662C72.2092 42.7179 71.3773 49.238 71.3773 49.238C69.8852 46.6336 66.5392 47.1852 68.1217 48.6412C69.6952 50.0971 69.9304 53.1537 70.3916 54.2389C70.8437 55.3241 72.8784 56.8071 72.8784 56.8071C72.8784 56.8071 73.8822 57.5396 74.1716 58.6881C74.253 59.0046 74.0993 61.4915 73.8822 64.4757L80.4295 65.8864H80.4114Z" fill="#A6645D"/>
<path d="M78.9546 47.9177C78.9546 47.9177 76.8294 46.6788 72.552 46.9049" stroke="#222222" stroke-width="0.397431" stroke-linecap="round" stroke-linejoin="round"/>
<path d="M71.3319 49.1566C71.3319 49.1566 72.0553 49.9615 72.3537 50.495C72.3537 50.495 73.8278 50.4136 74.9039 51.6073C75.98 52.792 76.0433 55.2065 76.0433 55.2065" stroke="#222222" stroke-width="0.397431" stroke-linecap="round" stroke-linejoin="round"/>
<path d="M74.4766 40.6383L73.9521 46.851" stroke="#222222" stroke-width="0.397431" stroke-linecap="round" stroke-linejoin="round"/>
<path d="M76.3671 47.1131L76.8373 39.535" stroke="#222222" stroke-width="0.397431" stroke-linecap="round" stroke-linejoin="round"/>
<path d="M78.5552 47.728L79.0616 41.6329" stroke="#222222" stroke-width="0.397431" stroke-linecap="round" stroke-linejoin="round"/>
<path d="M72.2448 73.8717L65.996 56.8072C63.2921 50.1696 59.3041 50.9925 59.3041 50.9925L60.7148 76.5846L63.0841 80.2923C65.3087 84.0542 67.0359 86.3693 71.9102 86.9209C72.082 86.939 72.2538 86.9571 72.4256 86.9661C77.0377 87.2103 80.8267 83.3218 80.7273 78.7007C80.5826 71.8731 80.3203 60.5511 80.1395 59.8729C80.1395 59.8729 80.0671 59.2308 79.9857 58.4802C77.6255 59.4298 75.4641 59.5021 74.18 59.4117C74.1077 62.3507 72.2448 73.8807 72.2448 73.8807V73.8717Z" fill="#F36A21"/>
<path d="M31.6521 56.4093C31.7244 53.6331 33.3251 51.1101 35.83 49.9164C38.543 48.6232 42.8294 47.3933 49.2681 47.3933C49.4038 47.3933 49.5394 47.3933 49.6751 47.3933C57.7868 47.4747 64.3702 53.9767 64.6143 62.0884L65.7086 99.3552H30.5398L31.6521 56.4003V56.4093Z" fill="#F36A21"/>
<path d="M49.2766 47.3933C49.4123 47.3933 49.5479 47.3933 49.6836 47.3933C57.7953 47.4747 64.3787 53.9767 64.6229 62.0884L65.7171 99.3552" stroke="#222222" stroke-width="0.397431" stroke-linecap="round" stroke-linejoin="round"/>
<path d="M73.1586 67.9121L71.3319 79.2431" stroke="#222222" stroke-width="0.397431" stroke-linecap="round" stroke-linejoin="round"/>
<path d="M72.247 73.8717C72.247 73.8717 70.2394 74.9931 68.8739 76.7746" stroke="#222222" stroke-width="0.397431" stroke-linecap="round" stroke-linejoin="round"/>
<path d="M45.0256 88.4939H93.2165V85.5368H47.9827C46.3549 85.5368 45.0256 86.8571 45.0256 88.4939Z" fill="#676768"/>
<path d="M93.216 88.4943H61.764L71.0422 65.0545H102.485L93.216 88.4943Z" fill="#7C7C7C"/>
<path d="M85.2244 76.6752C85.2244 77.5252 84.5281 78.2216 83.678 78.2216C82.828 78.2216 82.1317 77.5252 82.1317 76.6752C82.1317 75.8251 82.828 75.1288 83.678 75.1288C84.5281 75.1288 85.2244 75.8251 85.2244 76.6752Z" fill="white"/>
<path d="M53.8258 49.7809L53.455 44.9247C53.1656 45.0061 53.0028 45.0332 53.0028 45.0332C53.0028 45.0332 49.5936 45.7024 45.8768 43.0528L45.1624 49.4463C45.1624 49.4463 48.0382 52.6023 53.8258 49.7809Z" fill="#A6645D"/>
<g style="mix-blend-mode:multiply">
<path d="M46.1658 44.5899C46.0301 44.4452 45.8854 44.3005 45.7588 44.1558L45.8764 43.0706C49.5931 45.7203 53.0024 45.0511 53.0024 45.0511C53.0024 45.0511 53.1742 45.0239 53.4546 44.9426L53.6445 47.3842C52.6768 47.4294 48.9601 47.4204 46.1658 44.5989V44.5899Z" fill="#A6645D"/>
</g>
<path d="M59.3585 36.0626C59.3585 36.0626 62.0353 35.7913 61.9539 32.9879C61.8635 30.1664 59.1867 30.8808 59.1867 30.8808C59.1867 30.8808 59.7655 32.8613 59.3676 36.0626H59.3585Z" fill="#A6645D"/>
<path d="M59.9552 31.8125C59.9552 31.8125 61.0133 31.6226 61.4112 32.7711" stroke="#222222" stroke-width="0.397431" stroke-linecap="round" stroke-linejoin="round"/>
<path d="M60.6068 32.0024C60.6068 32.0024 60.9414 33.1419 60.1547 34.1366" stroke="#222222" stroke-width="0.397431" stroke-linecap="round" stroke-linejoin="round"/>
<path d="M42.2497 30.8445C41.5624 35.1038 42.8285 39.6163 44.2663 41.5425C44.5286 41.9042 44.8179 42.2117 45.1073 42.5101C48.3357 45.7747 52.8211 45.2773 52.8211 45.2773C52.8211 45.2773 53.011 45.2502 53.3185 45.1598C55.0005 44.7076 60.3269 42.6458 60.0014 34.7692C59.8748 31.6584 59.0338 29.0901 57.9757 27.0554C55.1904 21.6838 47.7841 20.8789 44.2573 25.7984C43.3258 27.1006 42.5843 28.7465 42.2497 30.8445Z" fill="#A6645D"/>
<path d="M49.4034 33.0147C49.4305 33.4217 49.7832 33.7382 50.1992 33.711C50.6062 33.6839 50.9227 33.3312 50.8955 32.9152C50.8684 32.5083 50.5157 32.1918 50.0997 32.2189C49.6928 32.246 49.3763 32.5987 49.4034 33.0147Z" fill="#222222"/>
<path d="M50.198 30.1482C49.6283 30.4286 48.9772 30.9169 48.4436 31.8031" stroke="#222222" stroke-width="0.397431" stroke-linecap="round" stroke-linejoin="round"/>
<path d="M53.0115 31.2787C53.0115 31.2787 52.9934 32.7708 54.3499 33.9736C56.0048 35.4385 55.4712 36.0716 54.0786 36.7046" stroke="#222222" stroke-width="0.397431" stroke-linecap="round" stroke-linejoin="round"/>
<g style="mix-blend-mode:multiply" opacity="0.5">
<path d="M48.101 35.312C48.5803 34.697 49.159 35.4838 49.159 35.4838C49.159 35.4838 49.6112 34.5071 50.19 35.0135C50.6964 35.4566 49.9277 36.9126 49.4484 36.9849C48.9691 37.0663 47.685 35.8365 48.101 35.312Z" fill="#F43D4F"/>
</g>
<g style="mix-blend-mode:multiply" opacity="0.5">
<path d="M58.4563 36.5779C58.1398 35.8635 57.3892 36.4875 57.3892 36.4875C57.3892 36.4875 57.1902 35.4295 56.503 35.7821C55.9061 36.0896 56.304 37.6812 56.7471 37.8802C57.1902 38.0701 58.7366 37.1929 58.4563 36.5779Z" fill="#F43D4F"/>
</g>
<path d="M54.0972 38.8478C54.0972 38.8478 51.945 39.4356 50.7784 37.3647" stroke="#222222" stroke-width="0.397431" stroke-linecap="round" stroke-linejoin="round"/>
<path d="M57.2077 30.5189C56.5204 29.7502 55.7879 29.3885 55.182 29.2167" stroke="#222222" stroke-width="0.397431" stroke-linecap="round" stroke-linejoin="round"/>
<path d="M56.7009 32.4721C56.7461 32.879 56.4477 33.2498 56.0317 33.286C55.6248 33.3312 55.254 33.0327 55.2178 32.6168C55.1726 32.2098 55.4711 31.839 55.887 31.8029C56.294 31.7577 56.6647 32.0561 56.7009 32.4721Z" fill="#222222"/>
<path d="M42.991 37.8169C42.991 37.8169 39.6993 37.5004 39.7806 34.073C39.862 30.6095 43.1537 31.4596 43.1537 31.4596C43.1537 31.4596 42.4574 33.8922 42.9819 37.8169H42.991Z" fill="#A6645D"/>
<path d="M42.2125 32.6079C42.2125 32.6079 40.9103 32.3818 40.4401 33.8016" stroke="#222222" stroke-width="0.397431" stroke-linecap="round" stroke-linejoin="round"/>
<path d="M41.4187 32.8523C41.4187 32.8523 41.0208 34.245 41.9884 35.4658" stroke="#222222" stroke-width="0.397431" stroke-linecap="round" stroke-linejoin="round"/>
<path d="M59.6483 31.8032C62.6958 30.5552 62.9762 26.8204 62.9762 26.8204C62.9762 26.8204 65.9061 27.6434 66.4306 25.1655C66.9551 22.6877 64.2512 23.1399 61.4207 23.1399C58.5902 23.1399 59.6031 20.6621 55.9677 19.0885C52.3233 17.515 50.2072 21.1866 50.2072 21.1866C50.2072 21.1866 45.8575 20.2822 43.1626 23.2846C40.4678 26.2869 41.345 31.4957 41.345 31.4957L43.1626 34.8417C43.1626 34.8417 43.7233 31.559 45.957 30.6457C49.9902 28.9908 51.2291 27.4263 51.9797 25.3283C51.9797 25.3283 53.4628 28.0322 58.6174 28.7014L59.6573 31.7851L59.6483 31.8032Z" fill="#222222"/>
<path d="M73.0876 74.224C73.0876 74.224 73.9467 75.3454 72.0115 76.4215L72.8887 76.0326C72.8887 76.0326 74.0733 77.2625 71.8849 78.3929C70.1034 79.3153 66.5585 81.6846 65.6542 82.4804C65.5908 82.5347 65.5275 82.598 65.4642 82.6613C64.1259 84.0087 62.5162 85.0396 60.6985 85.5551C58.3111 86.2243 54.9471 87.1376 51.4293 87.9877C43.9777 89.7963 35.8299 91.3427 34.7537 89.7963L40.0621 83.4571C40.0621 83.4571 59.4958 81.0606 59.758 79.0621C60.0203 77.0636 60.7347 73.8713 60.7347 73.8713C62.5162 70.9413 66.7032 68.8614 66.7032 68.8614C66.9564 70.3264 64.3429 72.135 63.6737 72.958C63.0045 73.7719 63.7551 75.1916 63.7551 75.1916C67.9511 72.1079 71.5593 71.8999 71.5593 71.8999C71.5593 71.8999 72.2014 72.8766 70.4561 73.6L72.2104 72.8675C72.2104 72.8675 73.9648 73.7176 72.0024 74.7123L73.0876 74.224Z" fill="#A6645D"/>
<path d="M70.8098 73.464C70.8098 73.464 68.1692 74.2146 65.4382 76.2764" stroke="#222222" stroke-width="0.397431" stroke-linecap="round" stroke-linejoin="round"/>
<path d="M72.139 74.6131C72.139 74.6131 69.8601 75.4722 66.3514 77.6063" stroke="#222222" stroke-width="0.397431" stroke-linecap="round" stroke-linejoin="round"/>
<path d="M72.0102 76.4125C72.0102 76.4125 68.2302 78.2121 66.6115 79.3877" stroke="#222222" stroke-width="0.397431" stroke-linecap="round" stroke-linejoin="round"/>
<path d="M35.8382 49.9072C35.8382 49.9072 30.5389 50.4045 28.6036 62.0069C26.6684 73.6092 28.6036 91.4966 28.6036 91.4966C28.6036 91.4966 28.8478 97.5374 38.0266 95.0053C47.2144 92.4642 59.3684 86.6947 59.3684 86.6947L58.6902 79.7767L39.4735 82.6795C39.4735 82.6795 40.4411 66.6008 40.8028 61.8893C41.1646 57.1778 42.2136 49.7715 35.8291 49.9072H35.8382Z" fill="#F36A21"/>
<path d="M58.7 79.7766L39.4834 82.6795C39.4834 82.6795 40.451 66.6008 40.8127 61.8893C41.1744 57.1778 42.2234 49.7715 35.839 49.9072" stroke="#222222" stroke-width="0.397431" stroke-linecap="round" stroke-linejoin="round"/>
<path d="M71.3328 167.061L67.5256 167.748C64.1345 168.363 60.6619 168.264 57.3159 167.45L52.9029 114.077H48.1281C28.1247 114.077 30.5392 95.2587 30.5392 95.2587H86.4349C86.4349 95.2587 96.7712 95.4395 96.7712 108.86C96.7712 122.28 98.7697 167.052 98.7697 167.052L96.9339 167.441C93.0544 168.255 89.0393 168.119 85.2231 167.052L82.1303 115.389C82.1303 115.389 81.8138 112.486 76.9215 112.486H70.0216L71.3328 167.052V167.061Z" fill="#333435"/>
<path opacity="0.3" d="M33.3518 95.2672C33.3518 95.2672 31.3081 107.683 45.0265 108C53.4367 108.19 55.3719 108.063 56.023 115.94C56.6108 123.084 60.6169 168.01 60.6169 168.01" stroke="white" stroke-width="0.397431" stroke-miterlimit="10"/>
<path opacity="0.3" d="M70.0119 108C70.0119 108 82.1207 106.454 84.8065 109.746C87.7003 113.3 87.3929 135.681 88.1706 147.899C88.9483 160.116 89.1382 168.011 89.1382 168.011" stroke="white" stroke-width="0.397431" stroke-miterlimit="10"/>
<path d="M179.27 123.03H236.315C236.315 119.955 233.828 117.468 230.753 117.468H184.823C181.748 117.468 179.261 119.955 179.261 123.03H179.27Z" fill="#C1C1C1"/>
<path d="M230.908 72.0265V117.468C233.983 117.468 236.47 114.981 236.47 111.907V77.579C236.47 74.5043 233.983 72.0175 230.908 72.0175V72.0265Z" fill="#C1C1C1"/>
<path d="M198.371 117.477H230.908V72.0353H198.371L198.371 117.477Z" fill="#C1C1C1"/>
<path d="M205.747 170.687H209.817V123.039H205.747V170.687Z" fill="#7C7C7C"/>
<path d="M187.971 177.207C187.971 178.41 188.948 179.386 190.15 179.386C191.353 179.386 192.33 178.41 192.33 177.207C192.33 176.004 191.353 175.028 190.15 175.028C188.948 175.028 187.971 176.004 187.971 177.207Z" fill="#222222"/>
<path d="M205.613 177.207C205.613 178.41 206.589 179.386 207.792 179.386C208.995 179.386 209.971 178.41 209.971 177.207C209.971 176.004 208.995 175.028 207.792 175.028C206.589 175.028 205.613 176.004 205.613 177.207Z" fill="#222222"/>
<path d="M223.256 177.207C223.256 178.41 224.233 179.386 225.436 179.386C226.639 179.386 227.615 178.41 227.615 177.207C227.615 176.004 226.639 175.028 225.436 175.028C224.233 175.028 223.256 176.004 223.256 177.207Z" fill="#222222"/>
<path d="M225.437 177.207V172.948V170.678H190.141V177.207" stroke="#222222" stroke-width="0.397431" stroke-linecap="round" stroke-linejoin="round"/>
<path d="M207.793 177.207V170.678" stroke="#222222" stroke-width="0.397431" stroke-linecap="round" stroke-linejoin="round"/>
<path d="M232.218 117.477H184.823" stroke="#222222" stroke-width="0.397431" stroke-linecap="round" stroke-linejoin="round"/>
<path d="M230.908 72.0268V117.478" stroke="#222222" stroke-width="0.397431" stroke-linecap="round" stroke-linejoin="round"/>
<path d="M219.684 42.5188C221.248 41.8496 222.288 39.2633 222.044 36.3785C221.872 34.2986 220.778 31.1426 216.121 31.1426C216.121 31.1426 217.812 26.8923 211.409 24.3692C202.438 20.8424 196.895 17.5055 194.598 21.5387C193.838 22.8771 194.345 24.2517 195.159 25.3821C193.657 25.4635 192.455 26.0784 192.798 27.9684C192.952 28.8004 193.621 29.3701 194.462 29.768C193.278 30.4372 192.256 31.3505 191.885 32.6256C190.492 37.3552 194.254 39.2543 194.254 39.2543C194.254 39.2543 188.946 40.9363 190.791 44.5083C191.288 45.4759 191.885 46.1361 192.5 46.5882C191.062 46.6877 189.778 47.4021 189.832 49.7081C189.95 54.8537 214.891 58.8508 218.644 53.868C220.1 51.9327 219.277 50.0789 219.051 49.473C219.873 49.2288 221.971 49.1746 222.586 47.3207C223.536 44.4722 221.592 42.7178 219.674 42.5188H219.684Z" fill="#222222"/>
<path d="M196.308 52.6017C196.308 52.6017 191.895 51.1548 187.066 57.9191C182.228 64.6833 174.496 71.2125 174.496 71.2125L176.187 78.7093L192.989 67.2245L196.317 52.6017H196.308Z" fill="#F36A21"/>
<path d="M196.307 52.6021C196.307 52.6021 190.872 54.049 190.691 61.4825C190.51 68.9159 190.872 70.4713 189.606 73.5912C188.34 76.7111 190.33 78.167 192.147 79.0714L192.762 99.3732C192.762 99.3732 201.028 104.266 221.881 101.372C221.881 101.372 217.893 86.1521 217.893 77.4436C217.893 68.735 217.803 58.67 213.905 54.7724L196.316 52.593L196.307 52.6021Z" fill="#F36A21"/>
<path d="M202.05 78.7094C202.05 78.7094 206.653 81.4676 210.55 78.7094" stroke="#222222" stroke-width="0.397431" stroke-linecap="round" stroke-linejoin="round"/>
<path d="M199.752 58.1272C199.707 58.3985 199.454 58.5793 199.183 58.5341C198.911 58.4889 198.73 58.2357 198.776 57.9644C198.821 57.6931 199.074 57.5122 199.345 57.5575C199.617 57.6027 199.797 57.8559 199.752 58.1272Z" fill="#222222"/>
<path d="M199.363 60.9848C199.318 61.2561 199.065 61.4369 198.793 61.3917C198.522 61.3465 198.341 61.0933 198.386 60.822C198.432 60.5507 198.685 60.3698 198.956 60.4151C199.228 60.4603 199.408 60.7135 199.363 60.9848Z" fill="#222222"/>
<path d="M196.307 52.6018C196.307 52.6018 190.872 54.0487 190.691 61.4822C190.51 68.9157 190.872 70.4711 189.606 73.591C188.34 76.7109 190.33 78.1668 192.147 79.0711L192.762 99.373" stroke="#222222" stroke-width="0.397431" stroke-linecap="round" stroke-linejoin="round"/>
<path d="M224.649 82.5708L213.897 81.1239C210.153 62.0248 212.088 56.5899 213.897 54.7722C213.897 54.7722 219.485 54.2477 221.873 65.5878C224.17 76.4758 224.649 82.5708 224.649 82.5708Z" fill="#F36A21"/>
<path d="M172.108 152.709C172.108 152.664 172.099 152.619 172.09 152.574C171.774 150.774 172.425 145.647 172.994 142.69L166.203 142.464L165.272 148.55C165.118 149.571 164.557 150.964 163.535 151.091C162.152 151.263 160.099 151.416 158.227 151.642C158.76 152.275 159.638 152.981 160.958 153.261C163.074 153.704 168.862 152.375 172.117 152.727L172.108 152.709Z" fill="#A6645D"/>
<path d="M154.257 152.212C157.025 154.708 160.588 156.137 164.313 156.245L172.009 156.472C172.009 156.472 172.344 154.283 172.118 152.71C168.862 152.357 163.074 153.695 160.958 153.243C159.638 152.963 158.77 152.257 158.227 151.624C155.876 151.905 154.384 151.552 154.266 152.203L154.257 152.212Z" fill="#222222"/>
<path d="M172.1 152.709C172.1 152.709 172.109 152.709 172.118 152.709C172.353 154.283 172.01 156.471 172.01 156.471L169.224 156.39C169.351 154.382 171.078 153.225 172.1 152.709Z" fill="#333435"/>
<path d="M157.386 151.715C158.227 152.465 159.394 153.776 159.602 155.359C157.649 154.672 155.822 153.623 154.257 152.212C154.366 151.642 155.523 151.841 157.386 151.715Z" fill="#333435"/>
<path d="M194.075 175.67C194.075 175.67 194.048 175.58 194.03 175.535C193.379 173.825 193.053 168.671 193.053 165.659L186.343 166.718L186.578 172.867C186.615 173.898 186.334 175.372 185.348 175.688C184.019 176.113 182.039 176.656 180.239 177.235C180.89 177.75 181.876 178.284 183.223 178.302C185.385 178.347 190.811 175.942 194.075 175.67Z" fill="#A6645D"/>
<path d="M176.006 179.387H194.68C194.68 179.387 194.598 177.171 194.074 175.67C190.809 175.942 185.383 178.347 183.222 178.302C181.875 178.275 180.88 177.75 180.238 177.235C177.977 177.958 176.015 178.727 176.015 179.387H176.006Z" fill="#222222"/>
<path d="M190.412 179.387C191.244 176.927 193.55 176.529 194.283 176.394C194.618 177.795 194.681 179.387 194.681 179.387H190.403H190.412Z" fill="#333435"/>
<path d="M179.477 177.479C179.929 177.85 180.363 178.438 180.454 179.378H176.013C176.013 178.79 177.56 178.121 179.477 177.479Z" fill="#333435"/>
<path d="M202.051 103.289C202.051 103.289 178.358 110.975 177.544 117.134C176.73 123.301 185.746 169.53 185.746 169.53H193.821C193.821 169.53 197.538 140.519 192.754 127.108C192.754 127.108 215.932 118.707 218.609 115.081C223.827 108 222.045 101.815 222.045 101.815L202.051 103.289Z" fill="#222222"/>
<path opacity="0.3" d="M204.707 113.39C204.707 113.39 185.798 122.035 187.155 125.291C188.511 128.555 190.88 132.181 191.776 144.688C192.617 156.444 191.776 169.521 191.776 169.521" stroke="white" stroke-width="0.397431" stroke-miterlimit="10"/>
<path d="M221.873 101.363C221.873 101.363 180.301 90.4205 176.431 93.0882C172.56 95.7469 167.008 105.658 166.275 121.61C165.552 137.562 164.828 146.506 164.828 146.506H172.804C172.804 146.506 177.733 134.723 180.419 122.695C181.676 117.071 181.784 111.491 181.866 106.861C181.866 106.861 190.927 115.597 208.968 118.192C218.093 119.503 225.264 110.451 222.044 101.815C221.99 101.67 221.936 101.516 221.873 101.363Z" fill="#333435"/>
<path d="M194.4 40.5477C194.4 40.5477 191.85 39.8061 192.429 37.1113C193.007 34.3893 195.485 35.5559 195.485 35.5559C195.485 35.5559 194.572 37.3735 194.4 40.5477Z" fill="#A6645D"/>
<path d="M194.561 36.3157C194.561 36.3157 193.566 35.9449 192.979 36.9939" stroke="#222222" stroke-width="0.397431" stroke-linecap="round" stroke-linejoin="round"/>
<path d="M193.902 36.3877C193.902 36.3877 193.377 37.4277 193.965 38.531" stroke="#222222" stroke-width="0.397431" stroke-linecap="round" stroke-linejoin="round"/>
<path d="M207.63 54.6186V47.3026C204.537 50.0156 200.558 49.2921 200.558 49.2921C200.558 49.2921 200.395 49.256 200.115 49.1565L199.066 56.0022C199.066 56.0022 205.098 58.8055 207.621 54.6186H207.63Z" fill="#A6645D"/>
<g style="mix-blend-mode:multiply">
<path d="M200.558 49.2921C200.558 49.2921 204.537 50.0156 207.629 47.3026V47.4021C207.43 47.7458 207.222 48.0532 207.005 48.2974C206.743 48.6049 206.472 48.8671 206.191 49.1113C203.885 51.1369 201.082 51.2455 199.807 51.1731L200.114 49.1655C200.386 49.256 200.558 49.3012 200.558 49.3012V49.2921Z" fill="#A6645D"/>
</g>
<path d="M210.993 37.1381C211.128 40.9995 209.926 44.9423 208.524 46.5792C208.262 46.8866 207.99 47.1489 207.71 47.393C204.617 50.106 200.638 49.3825 200.638 49.3825C200.638 49.3825 200.476 49.3464 200.195 49.2469C198.721 48.7405 194.082 46.5611 194.869 39.5436C195.131 37.2195 196.343 34.6603 197.347 32.8697C198.133 31.4681 199.698 30.6994 201.289 30.9255C202.212 31.0611 203.062 31.5133 203.668 32.2277C204.861 33.6113 207.222 35.9625 210.314 36.9934L210.984 37.1381H210.993Z" fill="#A6645D"/>
<path d="M203.978 35.421C204.475 35.7104 205.036 36.1987 205.47 37.0397" stroke="#222222" stroke-width="0.397431" stroke-linecap="round" stroke-linejoin="round"/>
<path d="M199.312 34.8148C198.742 34.8872 198.028 35.1133 197.304 35.7191" stroke="#222222" stroke-width="0.397431" stroke-linecap="round" stroke-linejoin="round"/>
<path d="M200.966 36.8316C200.966 36.8316 200.885 38.1881 199.574 39.2009C197.973 40.4308 198.416 41.0457 199.646 41.7059" stroke="#222222" stroke-width="0.397431" stroke-linecap="round" stroke-linejoin="round"/>
<g style="mix-blend-mode:multiply" opacity="0.5">
<path d="M205.18 40.8102C204.782 40.2224 204.203 40.9006 204.203 40.9006C204.203 40.9006 203.859 39.9873 203.299 40.4032C202.81 40.774 203.416 42.1486 203.85 42.248C204.285 42.3475 205.523 41.3166 205.189 40.8102H205.18Z" fill="#F43D4F"/>
</g>
<g style="mix-blend-mode:multiply" opacity="0.5">
<path d="M195.667 41.3078C196.001 40.6838 196.643 41.2897 196.643 41.2897C196.643 41.2897 196.888 40.3402 197.493 40.7019C198.018 41.0184 197.557 42.4473 197.141 42.5919C196.725 42.7366 195.377 41.8414 195.667 41.2988V41.3078Z" fill="#F43D4F"/>
</g>
<path d="M199.502 43.6498C199.502 43.6498 201.428 44.319 202.622 42.5104" stroke="#222222" stroke-width="0.397431" stroke-linecap="round" stroke-linejoin="round"/>
<path d="M204.248 38.5409C204.221 38.966 203.85 39.2915 203.416 39.2644C202.991 39.2373 202.666 38.8665 202.693 38.4324C202.72 38.0074 203.091 37.6818 203.525 37.709C203.95 37.7361 204.275 38.1069 204.248 38.5409Z" fill="#222222"/>
<path d="M205.794 38.6037C205.216 38.7393 204.456 38.7665 203.552 38.4409" stroke="#222222" stroke-width="0.397431" stroke-linecap="round" stroke-linejoin="round"/>
<path d="M205.751 37.7634C205.253 38.0799 204.539 38.3512 203.571 38.3421" stroke="#222222" stroke-width="0.397431" stroke-linecap="round" stroke-linejoin="round"/>
<path d="M195.982 36.9941C196.443 37.3649 197.122 37.7086 198.08 37.808" stroke="#222222" stroke-width="0.397431" stroke-linecap="round" stroke-linejoin="round"/>
<path d="M196.381 36.253C196.698 36.7504 197.222 37.302 198.099 37.709" stroke="#222222" stroke-width="0.397431" stroke-linecap="round" stroke-linejoin="round"/>
<path d="M198.842 37.8712C198.814 38.2962 198.444 38.6218 198.01 38.5947C197.585 38.5675 197.259 38.1968 197.286 37.7627C197.313 37.3377 197.684 37.0121 198.118 37.0392C198.543 37.0664 198.869 37.4371 198.842 37.8712Z" fill="#222222"/>
<path d="M210.967 43.0981C210.967 43.0981 213.942 43.6768 214.765 40.6293C215.588 37.5637 212.468 37.4551 212.468 37.4551C212.468 37.4551 212.45 39.7792 210.967 43.0981Z" fill="#A6645D"/>
<path d="M213 38.7215C213 38.7215 214.203 38.8572 214.248 40.2317" stroke="#222222" stroke-width="0.397431" stroke-linecap="round" stroke-linejoin="round"/>
<path d="M213.642 39.1373C213.642 39.1373 213.624 40.4666 212.466 41.2896" stroke="#222222" stroke-width="0.397431" stroke-linecap="round" stroke-linejoin="round"/>
<path d="M202.049 88.4941H153.859V85.537H199.092C200.72 85.537 202.049 86.8573 202.049 88.4941Z" fill="#676768"/>
<path d="M153.859 88.4941H185.23L176.033 65.2441H144.662L153.859 88.4941Z" fill="#7C7C7C"/>
<path d="M161.852 76.6747C161.852 77.5247 162.549 78.2211 163.399 78.2211C164.249 78.2211 164.945 77.5247 164.945 76.6747C164.945 75.8246 164.249 75.1283 163.399 75.1283C162.549 75.1283 161.852 75.8246 161.852 76.6747Z" fill="white"/>
<path d="M213.897 81.1243C210.153 62.0252 212.088 56.5903 213.897 54.7726" stroke="#222222" stroke-width="0.397431" stroke-linecap="round" stroke-linejoin="round"/>
<path d="M211.427 43.1697C211.517 43.5857 211.924 43.8389 212.34 43.7485C212.756 43.6581 213.009 43.2511 212.919 42.8352C212.829 42.4192 212.422 42.166 212.006 42.2564C211.59 42.3468 211.336 42.7538 211.427 43.1697Z" fill="#F36A21"/>
<path d="M193.079 40.4295C193.17 40.8455 193.576 41.0987 193.992 41.0082C194.408 40.9178 194.662 40.5109 194.571 40.0949C194.481 39.6789 194.074 39.4257 193.658 39.5161C193.242 39.6065 192.989 40.0135 193.079 40.4295Z" fill="#F36A21"/>
<path opacity="0.3" d="M219.649 100.793C219.649 104.817 220.408 108.624 207.63 104.998C194.861 101.372 180.266 94.5983 177.951 100.974C175.636 107.349 181.071 111.22 176.549 127.108C174.008 136.016 170.933 146.506 170.933 146.506" stroke="white" stroke-width="0.397431" stroke-miterlimit="10"/>
<path d="M224.648 82.5705L213.896 81.1236L189.136 83.6195L186.477 83.8547C186.477 83.8547 180.78 83.1131 180.093 83.1764C179.414 83.2488 175.372 85.2835 175.372 85.2835L173.591 88.4486C173.591 88.4486 174.766 88.9821 175.815 87.6437L176.729 90.2843C176.729 90.2843 178.98 89.7146 178.103 87.8608L179.433 86.5586C179.225 86.8479 179.053 87.1735 179.026 87.5171C178.953 88.5209 181.096 91.7132 181.096 91.7132C181.811 91.4419 181.775 91.0982 181.711 90.9445L182.435 92.2196C184.289 91.3424 183.023 89.7327 182.923 89.3981C182.824 89.0635 183.846 88.0145 183.846 88.0145C183.846 88.0145 184.045 88.4305 184.659 88.8465C184.913 89.0183 189.181 89.1359 189.181 89.1359H218.544C222.098 89.1359 224.892 86.1155 224.639 82.5796L224.648 82.5705Z" fill="#A6645D"/>
<path d="M181.72 90.9358C180.925 89.2628 179.812 86.7669 182.959 86.0254" stroke="#222222" stroke-width="0.397431" stroke-linecap="round" stroke-linejoin="round"/>
<path d="M175.816 87.6438C175.816 87.6438 175.852 86.9113 176.53 86.3144C177.218 85.7176 179.261 84.6686 179.261 84.6686" stroke="#222222" stroke-width="0.397431" stroke-linecap="round" stroke-linejoin="round"/>
<path d="M179.441 86.5586C179.441 86.5586 180.237 85.6362 181.078 85.4192" stroke="#222222" stroke-width="0.397431" stroke-linecap="round" stroke-linejoin="round"/>
<path d="M185.437 87.5443C185.437 87.5443 185.536 88.331 186.495 88.1954" stroke="#222222" stroke-width="0.397431" stroke-linecap="round" stroke-linejoin="round"/>
<path d="M200.902 178.879V95.2213H193.677V178.879H200.902Z" fill="#333435"/>
<path d="M64.2239 178.879V95.2213H56.9984L56.9984 178.879H64.2239Z" fill="#222222"/>
<path d="M123.718 87.9952H42.5559V95.2207H123.718V87.9952Z" fill="#222222"/>
<path d="M214.628 87.9952H123.718V95.2207H214.628V87.9952Z" fill="#333435"/>
<path d="M130.943 179.386V95.221H123.717V179.386H130.943Z" fill="#333435"/>
<path d="M175.696 38.8816C175.696 39.2162 175.696 39.5508 175.669 39.8854C175.154 46.6587 169.248 51.741 162.475 51.2255C158.948 50.9542 155.892 49.227 153.839 46.6678L163.407 38.954L175.696 38.8726V38.8816Z" fill="#C1C1C1"/>
<path d="M153.896 31.1678C156.355 28.1746 160.181 26.375 164.34 26.6915C170.779 27.1798 175.672 32.5334 175.708 38.8816L163.418 38.963L153.905 31.1678H153.896Z" fill="white"/>
<path d="M153.894 31.168L163.408 38.9632L153.84 46.677C151.941 44.3257 150.892 41.2872 151.136 38.0317C151.335 35.4182 152.348 33.058 153.894 31.168Z" fill="#D6D7D8"/>
<path d="M91.5172 41.8845C96.2106 55.9557 111.421 63.57 125.492 58.8766C139.563 54.1832 147.178 38.9727 142.484 24.9015C137.791 10.8304 122.58 3.21606 108.509 7.90945C94.4381 12.6028 86.8238 27.8134 91.5172 41.8845ZM111.213 16.0121C120.817 12.8108 131.189 18.0016 134.391 27.6054C137.592 37.2092 132.401 47.5817 122.797 50.783C113.194 53.9843 102.821 48.7935 99.6199 39.1897C96.4186 29.5859 101.609 19.2134 111.213 16.0121Z" stroke="#222222" stroke-width="0.397431" stroke-linecap="round" stroke-linejoin="round"/>
<path d="M117.001 6.52573V15.0715" stroke="#222222" stroke-width="0.397431" stroke-linecap="round" stroke-linejoin="round"/>
<path d="M91.5157 41.8847L99.6184 39.1898" stroke="#222222" stroke-width="0.397431" stroke-linecap="round" stroke-linejoin="round"/>
<path d="M109.306 59.1299L111.748 50.9458" stroke="#222222" stroke-width="0.397431" stroke-linecap="round" stroke-linejoin="round"/>
<path d="M103.219 10.3327L107.596 17.6667" stroke="#222222" stroke-width="0.397431" stroke-linecap="round" stroke-linejoin="round"/>
<path d="M129.995 56.9054L125.863 49.4267" stroke="#222222" stroke-width="0.397431" stroke-linecap="round" stroke-linejoin="round"/>
<path d="M143.362 28.2202L134.979 29.866" stroke="#222222" stroke-width="0.397431" stroke-linecap="round" stroke-linejoin="round"/>
<path d="M93.9424 47.175L101.276 42.7981" stroke="#222222" stroke-width="0.397431" stroke-linecap="round" stroke-linejoin="round"/>
<path d="M83.0357 27.3973C83.2799 28.4372 82.6288 29.4772 81.5798 29.7214C80.5398 29.9565 79.4998 29.3054 79.2557 28.2654C79.0115 27.2254 79.6626 26.1855 80.7116 25.9413C81.7516 25.6972 82.7915 26.3483 83.0357 27.3973Z" stroke="#222222" stroke-width="0.397431" stroke-linecap="round" stroke-linejoin="round"/>
<path d="M182.501 14.6284C182.746 15.6683 182.094 16.7083 181.045 16.9524C180.005 17.1876 178.965 16.5455 178.721 15.4965C178.486 14.4565 179.128 13.4166 180.177 13.1724C181.217 12.9282 182.257 13.5794 182.501 14.6284Z" stroke="#222222" stroke-width="0.397431" stroke-linecap="round" stroke-linejoin="round"/>
<path d="M130.26 69.6016C131.092 70.6416 128.84 71.6816 125.223 71.9257C121.614 72.1608 118.015 71.5188 117.183 70.4698C116.351 69.4298 118.603 68.3899 122.22 68.1457C125.829 67.9015 129.428 68.5526 130.26 69.6016Z" stroke="#222222" stroke-width="0.397431" stroke-linecap="round" stroke-linejoin="round"/>
</g>
</svg>
