<svg width="18" height="18" viewBox="0 0 18 18" fill="none" xmlns="http://www.w3.org/2000/svg">
<path fill-rule="evenodd" clip-rule="evenodd" d="M0.87868 0.87868C0 1.75736 0 3.17157 0 6V12C0 14.8284 0 16.2426 0.87868 17.1213C1.75736 18 3.17157 18 6 18H12C14.8284 18 16.2426 18 17.1213 17.1213C18 16.2426 18 14.8284 18 12V6C18 3.17157 18 1.75736 17.1213 0.87868C16.2426 0 14.8284 0 12 0H6C3.17157 0 1.75736 0 0.87868 0.87868ZM3.65079 4.3836C3.23147 4.02417 2.60017 4.07273 2.24074 4.49206C1.88132 4.91139 1.92988 5.54269 2.34921 5.90211L7.69842 10.4871C8.4474 11.1291 9.5526 11.1291 10.3016 10.4871L15.6508 5.90211C16.0701 5.54269 16.1187 4.91139 15.7593 4.49206C15.3998 4.07273 14.7685 4.02417 14.3492 4.3836L9 8.96863L3.65079 4.3836Z" fill="#C3C0C0"/>
</svg>
