<svg width="4" height="4" viewBox="0 0 4 4" fill="none" xmlns="http://www.w3.org/2000/svg">
<path d="M3.90161 0.110957C4.032 0.24228 4.03124 0.454438 3.89992 0.584824L2.47322 2.00134L3.88974 3.42803C4.02012 3.55935 4.01936 3.77151 3.88804 3.9019C3.75672 4.03228 3.54456 4.03152 3.41417 3.9002L1.99766 2.47351L0.57097 3.89002C0.439646 4.0204 0.227488 4.01964 0.0971022 3.88832C-0.0332839 3.757 -0.0325246 3.54484 0.0987991 3.41445L1.52549 1.99794L0.10898 0.57125C-0.0214067 0.439927 -0.0206471 0.227769 0.110676 0.0973829C0.242 -0.0330032 0.454157 -0.0322435 0.584544 0.0990799L2.00105 1.52577L3.42775 0.10926C3.55907 -0.021126 3.77123 -0.0203662 3.90161 0.110957Z" fill="#ADADAD"/>
</svg>
