<svg width="16" height="16" viewBox="0 0 16 16" fill="none" xmlns="http://www.w3.org/2000/svg">
<path fill-rule="evenodd" clip-rule="evenodd" d="M8 16C12.4183 16 16 12.4183 16 8C16 3.58172 12.4183 0 8 0C3.58172 0 0 3.58172 0 8C0 12.4183 3.58172 16 8 16ZM10.7809 6.12469C11.1259 5.69343 11.056 5.06414 10.6247 4.71913C10.1934 4.37412 9.56414 4.44404 9.21913 4.87531L7.79186 6.65939L5.5547 5.16795C5.09517 4.8616 4.4743 4.98577 4.16795 5.4453C3.8616 5.90483 3.98577 6.5257 4.4453 6.83205L7.25459 8.70491C7.79408 9.06457 8.51901 8.95202 8.92405 8.44572L10.7809 6.12469Z" fill="#C3C0C0"/>
</svg>
