<svg width="32" height="32" viewBox="0 0 32 32" fill="none" xmlns="http://www.w3.org/2000/svg">
<path d="M0.999998 1.50006V18.1429H12.9256C13.206 18.1429 13.3462 18.1429 13.4618 18.2093C13.5775 18.2757 13.6481 18.3968 13.7894 18.639L15.7106 21.9325L15.7106 21.9325C15.8518 22.1746 15.9225 22.2957 16.0381 22.3622C16.1538 22.4286 16.294 22.4286 16.5743 22.4286H30.4999C30.7356 22.4286 30.8535 22.4286 30.9267 22.3554C30.9999 22.2821 30.9999 22.1643 30.9999 21.9286V5.78576C30.9999 5.55006 30.9999 5.43221 30.9267 5.35899C30.8535 5.28577 30.7356 5.28577 30.4999 5.28577H16.5743C16.294 5.28577 16.1538 5.28577 16.0381 5.21934C15.9225 5.15291 15.8518 5.03182 15.7106 4.78964L13.7894 1.49619C13.6481 1.25401 13.5775 1.13292 13.4618 1.06649C13.3462 1.00006 13.206 1.00006 12.9256 1.00006H1.5C1.2643 1.00006 1.14644 1.00006 1.07322 1.07328C0.999998 1.14651 0.999998 1.26436 0.999998 1.50006Z" fill="white"/>
<path d="M0.999998 18.1429V1.50006C0.999998 1.26436 0.999998 1.14651 1.07322 1.07328C1.14644 1.00006 1.2643 1.00006 1.5 1.00006H12.9256C13.206 1.00006 13.3462 1.00006 13.4618 1.06649C13.5775 1.13292 13.6481 1.25401 13.7894 1.49619L15.7106 4.78964C15.8518 5.03182 15.9225 5.15291 16.0381 5.21934C16.1538 5.28577 16.294 5.28577 16.5743 5.28577H30.4999C30.7356 5.28577 30.8535 5.28577 30.9267 5.35899C30.9999 5.43221 30.9999 5.55006 30.9999 5.78576V21.9286C30.9999 22.1643 30.9999 22.2821 30.9267 22.3554C30.8535 22.4286 30.7356 22.4286 30.4999 22.4286H16.5743C16.294 22.4286 16.1538 22.4286 16.0381 22.3622C15.9225 22.2957 15.8518 22.1746 15.7106 21.9325L13.7894 18.639C13.6481 18.3968 13.5775 18.2757 13.4618 18.2093C13.3462 18.1429 13.206 18.1429 12.9256 18.1429H0.999998ZM0.999998 18.1429V31" stroke="white" stroke-width="2" stroke-linecap="round"/>
</svg>
