<svg width="130" height="139" viewBox="0 0 130 139" fill="none" xmlns="http://www.w3.org/2000/svg">
<path d="M65 13.8125C49.0451 13.8125 36.1111 26.1806 36.1111 41.4375C36.1111 56.6944 49.0451 69.0625 65 69.0625C80.9549 69.0625 93.8889 56.6944 93.8889 41.4375C93.8889 26.1806 80.9549 13.8125 65 13.8125ZM21.6667 41.4375C21.6667 18.5522 41.0677 0 65 0C88.9324 0 108.333 18.5522 108.333 41.4375C108.333 64.3228 88.9324 82.875 65 82.875C41.0677 82.875 21.6667 64.3228 21.6667 41.4375ZM36.1111 110.5C24.145 110.5 14.4445 119.776 14.4445 131.219C14.4445 135.033 11.211 138.125 7.22223 138.125C3.2335 138.125 0 135.033 0 131.219C0 112.148 16.1675 96.6875 36.1111 96.6875H93.8889C113.833 96.6875 130 112.148 130 131.219C130 135.033 126.767 138.125 122.778 138.125C118.789 138.125 115.556 135.033 115.556 131.219C115.556 119.776 105.855 110.5 93.8889 110.5H36.1111Z" fill="#ADADAD"/>
</svg>
