<svg width="47" height="47" viewBox="0 0 47 47" fill="none" xmlns="http://www.w3.org/2000/svg">
<path d="M23.5 0C10.521 0 0 10.521 0 23.5C0 36.479 10.521 47 23.5 47C36.479 47 47 36.479 47 23.5C47 10.521 36.479 0 23.5 0ZM31.2976 33.8855C30.9281 34.2531 30.5405 34.6388 30.2259 34.9544C29.9426 35.2386 29.7427 35.5892 29.6413 35.9692C29.4982 36.5055 29.3826 37.0476 29.1893 37.5678L27.5414 42.0072C26.2376 42.2915 24.8882 42.4516 23.5 42.4516V39.8571C23.6601 38.6613 22.776 36.4212 21.3556 35.0008C20.7871 34.4322 20.4677 33.6609 20.4677 32.8564V29.8232C20.4677 28.7202 19.8736 27.7063 18.908 27.1728C17.5463 26.4195 15.6095 25.3667 14.2829 24.6987C13.1951 24.151 12.1887 23.4536 11.2838 22.6377L11.208 22.5695C10.5608 21.9853 9.98628 21.3255 9.49665 20.6042C8.60782 19.2994 7.15992 17.1531 6.21897 15.7583C8.15867 11.4468 11.6543 7.98431 15.998 6.10337L18.2731 7.24141C19.2814 7.74552 20.4677 7.01304 20.4677 5.88542V4.81466C21.2249 4.69242 21.9952 4.61472 22.7789 4.58534L25.4605 7.267C26.0528 7.85923 26.0528 8.81913 25.4605 9.41137L25.0161 9.85484L24.0363 10.8346C23.7407 11.1303 23.7407 11.6107 24.0363 11.9063L24.4807 12.3508C24.7764 12.6464 24.7764 13.1268 24.4807 13.4225L23.7227 14.1805C23.5803 14.3226 23.3874 14.4024 23.1863 14.4023H22.3345C22.1374 14.4023 21.9479 14.479 21.8057 14.6174L20.8657 15.5318C20.7505 15.644 20.6739 15.7899 20.647 15.9485C20.6201 16.107 20.6443 16.2701 20.716 16.414L22.1933 19.3695C22.4453 19.8736 22.0786 20.4668 21.5158 20.4668H20.9813C20.7984 20.4668 20.6222 20.4005 20.4848 20.2811L19.6054 19.5173C19.4065 19.3447 19.166 19.2268 18.9076 19.1753C18.6492 19.1238 18.3819 19.1404 18.132 19.2236L15.1783 20.2081C14.9528 20.2833 14.7567 20.4275 14.6178 20.6204C14.4788 20.8133 14.4041 21.045 14.4042 21.2827C14.4042 21.7119 14.6468 22.1033 15.0305 22.2956L16.0804 22.8206C16.9721 23.2669 17.9557 23.4991 18.9526 23.4991C19.9494 23.4991 21.0931 26.085 21.9848 26.5313H28.3099C29.1144 26.5313 29.8848 26.8506 30.4543 27.4192L31.7515 28.7164C32.2935 29.2586 32.5979 29.9938 32.5977 30.7604C32.5975 31.3412 32.4826 31.9163 32.2595 32.4526C32.0364 32.9889 31.7095 33.4759 31.2976 33.8855ZM39.5141 25.2293C38.9655 25.0919 38.4869 24.7555 38.1733 24.2846L36.4695 21.729C36.2202 21.3556 36.0872 20.9167 36.0872 20.4677C36.0872 20.0188 36.2202 19.5799 36.4695 19.2065L38.3258 16.4225C38.5457 16.0937 38.847 15.8265 39.2014 15.6502L40.4314 15.0353C41.7125 17.5861 42.4516 20.4554 42.4516 23.5C42.4516 24.3216 42.3815 25.126 42.2792 25.9201L39.5141 25.2293Z" fill="#F36A21"/>
</svg>
