<svg width="25" height="22" viewBox="0 0 25 22" fill="none" xmlns="http://www.w3.org/2000/svg">
<path fill-rule="evenodd" clip-rule="evenodd" d="M18.4754 0.367981C17.9804 -0.124448 17.18 -0.122392 16.6876 0.372572C16.1951 0.867536 16.1972 1.66798 16.6922 2.1604L20.5608 6.00925H6.18485C4.54661 6.00925 2.97417 6.65665 1.8138 7.81108C0.653201 8.96573 0 10.5332 0 12.1689V20.7359C0 21.4341 0.565998 22.0001 1.26419 22.0001C1.96239 22.0001 2.52839 21.4341 2.52839 20.7359V12.1689C2.52839 11.2079 2.91203 10.285 3.59704 9.6035C4.28226 8.92179 5.213 8.53764 6.18485 8.53764H20.7821L16.6922 12.6066C16.1972 13.099 16.1951 13.8995 16.6876 14.3944C17.18 14.8894 17.9804 14.8915 18.4754 14.399L24.6262 8.27971C24.8647 8.04245 24.9988 7.71991 24.9988 7.3835C24.9988 7.04709 24.8647 6.72456 24.6262 6.48729L18.4754 0.367981Z" fill="black"/>
</svg>
