<svg width="25" height="25" viewBox="0 0 25 25" fill="none" xmlns="http://www.w3.org/2000/svg">
<path d="M1 4.38235V4.38235C1 4.02727 1 3.84972 1.01502 3.7002C1.15761 2.28046 2.28046 1.15761 3.7002 1.01502C3.84973 1 4.02727 1 4.38235 1L21.7558 1C22.1946 1 22.414 1 22.5566 1.12828C22.5697 1.14005 22.5822 1.15251 22.5939 1.1656C22.7222 1.30819 22.7222 1.52759 22.7222 1.96639V1.96639C22.7222 4.59916 22.7222 5.91554 21.9525 6.77112C21.8819 6.84964 21.8072 6.92438 21.7286 6.99502C20.8731 7.76471 19.5567 7.76471 16.9239 7.76471H16.3333M1 4.38235V4.38235C1 4.73744 1 4.91498 1.01502 5.0645C1.15761 6.48424 2.28046 7.6071 3.7002 7.74969C3.84973 7.76471 4.02727 7.76471 4.38236 7.76471L22 7.76471C22.9428 7.76471 23.4142 7.76471 23.7071 8.0576C24 8.35049 24 8.8219 24 9.76471L24 13.1765M1 4.38235L1 20C1 21.8856 1 22.8284 1.58579 23.4142C2.17157 24 3.11438 24 5 24L22 24C22.9428 24 23.4142 24 23.7071 23.7071C24 23.4142 24 22.9428 24 22L24 18.5882M24 18.5882H18.3333C17.3905 18.5882 16.9191 18.5882 16.6262 18.2953C16.3333 18.0024 16.3333 17.531 16.3333 16.5882V15.1765C16.3333 14.2337 16.3333 13.7623 16.6262 13.4694C16.9191 13.1765 17.3905 13.1765 18.3333 13.1765L24 13.1765M24 18.5882L24 13.1765" stroke="#F36A21" stroke-width="2"/>
</svg>
