<svg width="23" height="23" viewBox="0 0 23 23" fill="none" xmlns="http://www.w3.org/2000/svg">
<path d="M11.5 2.3C8.67721 2.3 6.38889 4.35949 6.38889 6.9C6.38889 9.44051 8.67721 11.5 11.5 11.5C14.3228 11.5 16.6111 9.44051 16.6111 6.9C16.6111 4.35949 14.3228 2.3 11.5 2.3ZM3.83333 6.9C3.83333 3.08923 7.26582 0 11.5 0C15.7342 0 19.1667 3.08923 19.1667 6.9C19.1667 10.7108 15.7342 13.8 11.5 13.8C7.26582 13.8 3.83333 10.7108 3.83333 6.9ZM6.38889 18.4C4.2718 18.4 2.55556 19.9446 2.55556 21.85C2.55556 22.4851 1.98347 23 1.27778 23C0.572081 23 0 22.4851 0 21.85C0 18.6744 2.8604 16.1 6.38889 16.1H16.6111C20.1396 16.1 23 18.6744 23 21.85C23 22.4851 22.4279 23 21.7222 23C21.0165 23 20.4444 22.4851 20.4444 21.85C20.4444 19.9446 18.7282 18.4 16.6111 18.4H6.38889Z" fill="#F36A21"/>
</svg>
