<svg width="460" height="323" viewBox="0 0 460 323" fill="none" xmlns="http://www.w3.org/2000/svg">
<path d="M116.134 281.564C172.942 281.564 208.057 266.419 208.057 233.287C208.057 105.177 353.213 257.466 424.499 208.507C452.14 189.527 459.484 153.551 459.988 121.978C460.671 79.1937 431.893 52.9835 387.857 46.1587C374.63 44.1113 363.142 43.77 353.116 44.8263C325.069 47.7674 296.6 41.9176 273.104 26.3019C252.678 12.7337 229.994 -10.9579 174.502 5.74644C136.934 17.056 114.883 55.1121 109.732 73.1002L86.5768 73.0352C38.8036 72.9052 0 111.595 0 159.368V165.413C0 229.549 51.9981 281.548 116.134 281.548V281.564Z" fill="white"/>
<path d="M129.036 215.055H26.5349C26.5349 209.53 31.0035 205.062 36.5283 205.062H119.059C124.584 205.062 129.052 209.53 129.052 215.055H129.036Z" fill="#C1C1C1"/>
<path d="M26.2589 195.068L26.2589 133.385C26.2589 127.877 30.7275 123.392 36.2523 123.392L36.2523 205.045C30.7438 205.045 26.2589 200.577 26.2589 195.052V195.068Z" fill="#C1C1C1"/>
<path d="M94.7173 123.408H36.252V205.062H94.7173V123.408Z" fill="#C1C1C1"/>
<path d="M81.4417 215.055H74.1295V306.702H81.4417V215.055Z" fill="#7C7C7C"/>
<path d="M113.404 318.417C113.404 320.579 111.649 322.334 109.488 322.334C107.327 322.334 105.572 320.579 105.572 318.417C105.572 316.256 107.327 314.501 109.488 314.501C111.649 314.501 113.404 316.256 113.404 318.417Z" fill="#222222"/>
<path d="M81.6855 318.417C81.6855 320.579 79.9305 322.334 77.7694 322.334C75.6082 322.334 73.8533 320.579 73.8533 318.417C73.8533 316.256 75.6082 314.501 77.7694 314.501C79.9305 314.501 81.6855 316.256 81.6855 318.417Z" fill="#222222"/>
<path d="M49.983 318.417C49.983 320.579 48.228 322.334 46.0669 322.334C43.9057 322.334 42.1508 320.579 42.1508 318.417C42.1508 316.256 43.9057 314.501 46.0669 314.501C48.228 314.501 49.983 316.256 49.983 318.417Z" fill="#222222"/>
<path d="M46.0829 318.417V310.764V306.685H109.488V318.417" stroke="#222222" stroke-width="0.714974" stroke-linecap="round" stroke-linejoin="round"/>
<path d="M77.7855 318.417V306.685" stroke="#222222" stroke-width="0.714974" stroke-linecap="round" stroke-linejoin="round"/>
<path d="M33.8959 205.062H119.043" stroke="#222222" stroke-width="0.714974" stroke-linecap="round" stroke-linejoin="round"/>
<path d="M36.252 123.408V205.062" stroke="#222222" stroke-width="0.714974" stroke-linecap="round" stroke-linejoin="round"/>
<path d="M152.988 305.142C153.833 300.706 153.621 297.553 153.621 297.553C153.621 297.553 158.578 297.764 162.38 301.031L167.726 297.179L182.107 311.576L186.559 309.87C187.453 310.796 188.021 311.398 188.119 311.463C188.639 311.885 194.131 312.828 198.454 312.096C202.776 311.365 204.775 312.828 204.466 315.574C204.157 318.32 203.101 319.896 203.101 319.896H178.629L167.141 315.671L152.484 315.46C152.484 315.46 152.175 309.562 153.004 305.125L152.988 305.142Z" fill="#7F8284"/>
<path d="M182.09 311.576L167.709 297.179L171.756 294.271C171.756 294.271 182.448 305.597 186.543 309.87L182.09 311.576Z" fill="#333435"/>
<path d="M169.757 300.754L174.372 297.033" stroke="#333435" stroke-width="0.357487" stroke-miterlimit="10"/>
<path d="M172.52 303.663L177.135 299.942" stroke="white" stroke-width="0.714974" stroke-miterlimit="10"/>
<path d="M175.282 306.555L179.881 302.834" stroke="white" stroke-width="0.714974" stroke-miterlimit="10"/>
<path d="M178.028 309.448L182.643 305.727" stroke="white" stroke-width="0.714974" stroke-miterlimit="10"/>
<path d="M178.613 319.896H203.085C203.085 319.896 204.238 320.952 203.507 322.317H178.45L167.336 316.305H166.751V322.317H154.515C154.515 322.317 152.728 320.042 152.451 315.46L167.108 315.671L178.597 319.896H178.613Z" fill="#222222"/>
<path d="M102.956 305.142C103.801 300.706 103.59 297.553 103.59 297.553C103.59 297.553 108.546 297.764 112.348 301.031L117.694 297.179L132.075 311.576L136.527 309.87C137.421 310.796 137.99 311.398 138.087 311.463C138.607 311.885 144.099 312.828 148.422 312.096C152.744 311.365 154.743 312.828 154.434 315.574C154.125 318.32 153.069 319.896 153.069 319.896H128.597L117.109 315.671L102.452 315.46C102.452 315.46 102.143 309.562 102.972 305.125L102.956 305.142Z" fill="#7F8284"/>
<path d="M132.058 311.576L117.678 297.179L121.724 294.271C121.724 294.271 132.416 305.597 136.511 309.87L132.058 311.576Z" fill="#333435"/>
<path d="M119.725 300.754L124.34 297.033" stroke="#333435" stroke-width="0.357487" stroke-miterlimit="10"/>
<path d="M122.488 303.663L127.086 299.942" stroke="white" stroke-width="0.714974" stroke-miterlimit="10"/>
<path d="M125.234 306.555L129.849 302.834" stroke="white" stroke-width="0.714974" stroke-miterlimit="10"/>
<path d="M127.996 309.448L132.611 305.727" stroke="white" stroke-width="0.714974" stroke-miterlimit="10"/>
<path d="M128.581 319.896H153.053C153.053 319.896 154.206 320.952 153.475 322.317H128.419L117.304 316.305H116.719V322.317H104.483C104.483 322.317 102.696 320.042 102.42 315.46L117.077 315.671L128.565 319.896H128.581Z" fill="#222222"/>
<path d="M144.489 118.387C144.31 112.554 144.132 108.102 143.985 107.549C143.985 107.549 143.287 101.228 143.352 100.936C144.099 97.6044 144.343 87.3185 144.343 87.3185L145.448 77.0814C145.448 77.0814 145.708 75.164 144.44 74.8877C143.043 74.579 142.799 76.5289 142.799 76.5289L141.044 85.9861C141.044 85.9861 141.873 76.8052 142.182 74.2053C142.247 73.6528 142.409 72.0766 140.882 71.9141C139.354 71.7516 138.997 72.9703 138.883 73.5228C138.266 76.4314 137.193 85.1249 137.193 85.1249L138.071 70.8417C138.071 70.8417 138.249 68.843 136.576 68.6317C134.902 68.4205 134.593 69.6879 134.496 70.3542C133.911 73.9453 132.822 84.8324 132.822 84.8324C132.822 84.8324 133.472 76.009 133.813 73.0353C133.895 72.3041 133.911 70.4679 132.221 70.1917C130.531 69.9154 130.303 72.0116 130.222 72.7103C129.751 76.7564 128.256 88.4722 128.256 88.4722C125.575 83.7924 119.563 84.7836 122.406 87.3998C125.234 90.0159 125.656 95.5082 126.485 97.4582C127.297 99.4081 130.953 102.073 130.953 102.073C130.953 102.073 132.757 103.389 133.277 105.453C133.423 106.022 133.147 110.49 132.757 115.852L144.522 118.387H144.489Z" fill="#A6645D"/>
<path d="M141.873 86.0998C141.873 86.0998 138.054 83.8736 130.368 84.2799" stroke="#222222" stroke-width="0.714974" stroke-linecap="round" stroke-linejoin="round"/>
<path d="M128.175 88.3259C128.175 88.3259 129.475 89.7721 130.011 90.7308C130.011 90.7308 132.66 90.5846 134.593 92.7295C136.527 94.8582 136.641 99.1968 136.641 99.1968" stroke="#222222" stroke-width="0.714974" stroke-linecap="round" stroke-linejoin="round"/>
<path d="M133.83 73.019L132.887 84.1824" stroke="#222222" stroke-width="0.714974" stroke-linecap="round" stroke-linejoin="round"/>
<path d="M137.225 84.6536L138.07 71.0366" stroke="#222222" stroke-width="0.714974" stroke-linecap="round" stroke-linejoin="round"/>
<path d="M141.158 85.7585L142.068 74.8064" stroke="#222222" stroke-width="0.714974" stroke-linecap="round" stroke-linejoin="round"/>
<path d="M129.816 132.736L118.588 102.073C113.729 90.1458 106.563 91.6245 106.563 91.6245L109.098 137.61L113.355 144.273C117.353 151.032 120.456 155.192 129.215 156.183C129.524 156.216 129.832 156.248 130.141 156.265C138.428 156.703 145.237 149.716 145.058 141.413C144.798 129.144 144.327 108.8 144.002 107.581C144.002 107.581 143.872 106.428 143.726 105.079C139.485 106.785 135.601 106.915 133.293 106.753C133.163 112.034 129.816 132.752 129.816 132.752V132.736Z" fill="#F36A21"/>
<path d="M56.8726 101.358C57.0026 96.3693 59.8787 91.8357 64.3798 89.6908C69.2546 87.3671 76.9568 85.1572 88.5264 85.1572C88.7701 85.1572 89.0139 85.1572 89.2576 85.1572C103.833 85.3035 115.663 96.9868 116.102 111.563L118.068 178.526H54.8739L56.8726 101.342V101.358Z" fill="#F36A21"/>
<path d="M88.5425 85.1572C88.7862 85.1572 89.03 85.1572 89.2737 85.1572C103.849 85.3035 115.679 96.9868 116.118 111.563L118.084 178.526" stroke="#222222" stroke-width="0.714974" stroke-linecap="round" stroke-linejoin="round"/>
<path d="M131.457 122.027L128.175 142.388" stroke="#222222" stroke-width="0.714974" stroke-linecap="round" stroke-linejoin="round"/>
<path d="M129.816 132.736C129.816 132.736 126.209 134.751 123.755 137.952" stroke="#222222" stroke-width="0.714974" stroke-linecap="round" stroke-linejoin="round"/>
<path d="M80.9054 159.011H167.498V153.697H86.2189C83.2941 153.697 80.9054 156.07 80.9054 159.011Z" fill="#676768"/>
<path d="M167.499 159.011H110.983L127.655 116.892H184.154L167.499 159.011Z" fill="#7C7C7C"/>
<path d="M153.134 137.773C153.134 139.3 151.883 140.551 150.355 140.551C148.828 140.551 147.577 139.3 147.577 137.773C147.577 136.245 148.828 134.994 150.355 134.994C151.883 134.994 153.134 136.245 153.134 137.773Z" fill="white"/>
<path d="M96.7163 89.4471L96.0501 80.7212C95.5301 80.8674 95.2376 80.9162 95.2376 80.9162C95.2376 80.9162 89.1116 82.1186 82.4331 77.3575L81.1494 88.8459C81.1494 88.8459 86.3167 94.5169 96.7163 89.4471Z" fill="#A6645D"/>
<g style="mix-blend-mode:multiply">
<path d="M82.9529 80.1199C82.7092 79.8599 82.4492 79.5999 82.2217 79.34L82.4329 77.39C89.1114 82.1511 95.2374 80.9486 95.2374 80.9486C95.2374 80.9486 95.5462 80.8999 96.0499 80.7536L96.3912 85.141C94.6525 85.2222 87.974 85.206 82.9529 80.1362V80.1199Z" fill="#A6645D"/>
</g>
<path d="M106.661 64.7968C106.661 64.7968 111.471 64.3093 111.325 59.272C111.162 54.2022 106.352 55.4859 106.352 55.4859C106.352 55.4859 107.392 59.0445 106.677 64.7968H106.661Z" fill="#A6645D"/>
<path d="M107.734 57.1596C107.734 57.1596 109.635 56.8184 110.35 58.8821" stroke="#222222" stroke-width="0.714974" stroke-linecap="round" stroke-linejoin="round"/>
<path d="M108.904 57.5009C108.904 57.5009 109.505 59.5483 108.091 61.3357" stroke="#222222" stroke-width="0.714974" stroke-linecap="round" stroke-linejoin="round"/>
<path d="M75.917 55.4208C74.682 63.0743 76.957 71.1828 79.5406 74.6439C80.0119 75.2939 80.5318 75.8464 81.0518 76.3826C86.8529 82.2486 94.9126 81.3549 94.9126 81.3549C94.9126 81.3549 95.2538 81.3062 95.8063 81.1437C98.8287 80.3312 108.4 76.6263 107.815 62.4731C107.587 56.8833 106.076 52.2685 104.175 48.6123C99.1699 38.9602 85.8616 37.514 79.5244 46.3537C77.8507 48.6936 76.5182 51.651 75.917 55.4208Z" fill="#A6645D"/>
<path d="M88.7705 59.3207C88.8192 60.0519 89.453 60.6206 90.2004 60.5719C90.9317 60.5231 91.5004 59.8894 91.4516 59.1419C91.4029 58.4107 90.7692 57.842 90.0217 57.8907C89.2905 57.9395 88.7217 58.5732 88.7705 59.3207Z" fill="#222222"/>
<path d="M90.2002 54.1697C89.1765 54.6734 88.0066 55.5509 87.0479 57.1433" stroke="#222222" stroke-width="0.714974" stroke-linecap="round" stroke-linejoin="round"/>
<path d="M95.2538 56.2008C95.2538 56.2008 95.2213 58.882 97.6587 61.0431C100.632 63.6755 99.6736 64.813 97.1712 65.9504" stroke="#222222" stroke-width="0.714974" stroke-linecap="round" stroke-linejoin="round"/>
<g style="mix-blend-mode:multiply" opacity="0.5">
<path d="M86.4304 63.4481C87.2916 62.3431 88.3315 63.7568 88.3315 63.7568C88.3315 63.7568 89.144 62.0019 90.184 62.9119C91.0939 63.7081 89.7127 66.3243 88.8515 66.4543C87.9903 66.6005 85.6829 64.3906 86.4304 63.4481Z" fill="#F43D4F"/>
</g>
<g style="mix-blend-mode:multiply" opacity="0.5">
<path d="M105.036 65.723C104.467 64.4393 103.118 65.5605 103.118 65.5605C103.118 65.5605 102.761 63.6593 101.526 64.293C100.454 64.8455 101.168 67.7054 101.965 68.0629C102.761 68.4041 105.54 66.8279 105.036 65.723Z" fill="#F43D4F"/>
</g>
<path d="M97.2039 69.8016C97.2039 69.8016 93.3365 70.8578 91.2404 67.1367" stroke="#222222" stroke-width="0.714974" stroke-linecap="round" stroke-linejoin="round"/>
<path d="M102.794 54.8359C101.559 53.4547 100.243 52.8047 99.1539 52.496" stroke="#222222" stroke-width="0.714974" stroke-linecap="round" stroke-linejoin="round"/>
<path d="M101.884 58.3457C101.965 59.0769 101.429 59.7432 100.681 59.8082C99.9499 59.8894 99.2837 59.3532 99.2187 58.6057C99.1375 57.8745 99.6737 57.2083 100.421 57.1433C101.152 57.062 101.819 57.5982 101.884 58.3457Z" fill="#222222"/>
<path d="M77.2496 67.9493C77.2496 67.9493 71.3348 67.3805 71.4811 61.222C71.6273 54.9985 77.5421 56.5259 77.5421 56.5259C77.5421 56.5259 76.2909 60.897 77.2334 67.9493H77.2496Z" fill="#A6645D"/>
<path d="M75.8522 58.5896C75.8522 58.5896 73.5123 58.1834 72.6674 60.7345" stroke="#222222" stroke-width="0.714974" stroke-linecap="round" stroke-linejoin="round"/>
<path d="M74.422 59.0283C74.422 59.0283 73.707 61.5307 75.4457 63.7244" stroke="#222222" stroke-width="0.714974" stroke-linecap="round" stroke-linejoin="round"/>
<path d="M107.181 57.1433C112.657 54.9009 113.161 48.1899 113.161 48.1899C113.161 48.1899 118.426 49.6686 119.368 45.2163C120.311 40.764 115.452 41.5764 110.366 41.5764C105.28 41.5764 107.1 37.1241 100.568 34.2967C94.0191 31.4693 90.2167 38.0665 90.2167 38.0665C90.2167 38.0665 82.4008 36.4416 77.5584 41.8364C72.7161 47.2312 74.2923 56.5909 74.2923 56.5909L77.5584 62.6031C77.5584 62.6031 78.5659 56.7046 82.5795 55.0634C89.8267 52.0898 92.0529 49.2786 93.4016 45.5088C93.4016 45.5088 96.0665 50.3673 105.329 51.5698L107.197 57.1109L107.181 57.1433Z" fill="#222222"/>
<path d="M131.328 133.369C131.328 133.369 132.871 135.384 129.394 137.318L130.97 136.619C130.97 136.619 133.099 138.829 129.166 140.86C125.965 142.518 119.595 146.775 117.971 148.205C117.857 148.302 117.743 148.416 117.629 148.53C115.224 150.951 112.332 152.804 109.066 153.73C104.776 154.932 98.7312 156.573 92.4102 158.101C79.0207 161.351 64.38 164.129 62.4463 161.351L71.9847 149.96C71.9847 149.96 106.905 145.654 107.376 142.063C107.847 138.472 109.131 132.736 109.131 132.736C112.332 127.471 119.855 123.733 119.855 123.733C120.31 126.366 115.614 129.616 114.412 131.094C113.209 132.557 114.558 135.108 114.558 135.108C122.098 129.567 128.581 129.193 128.581 129.193C128.581 129.193 129.735 130.948 126.599 132.248L129.751 130.932C129.751 130.932 132.904 132.459 129.378 134.247L131.328 133.369Z" fill="#A6645D"/>
<path d="M127.233 132.004C127.233 132.004 122.488 133.353 117.581 137.058" stroke="#222222" stroke-width="0.714974" stroke-linecap="round" stroke-linejoin="round"/>
<path d="M129.621 134.068C129.621 134.068 125.526 135.612 119.222 139.447" stroke="#222222" stroke-width="0.714974" stroke-linecap="round" stroke-linejoin="round"/>
<path d="M129.394 137.302C129.394 137.302 122.602 140.535 119.693 142.648" stroke="#222222" stroke-width="0.714974" stroke-linecap="round" stroke-linejoin="round"/>
<path d="M64.3961 89.6747C64.3961 89.6747 54.8739 90.5684 51.3966 111.416C47.9192 132.264 51.3966 164.406 51.3966 164.406C51.3966 164.406 51.8353 175.26 68.3284 170.71C84.8378 166.144 106.677 155.777 106.677 155.777L105.458 143.346L70.9284 148.563C70.9284 148.563 72.667 119.671 73.317 111.205C73.967 102.739 75.8519 89.4309 64.3798 89.6747H64.3961Z" fill="#F36A21"/>
<path d="M105.475 143.346L70.9446 148.563C70.9446 148.563 72.6833 119.671 73.3333 111.205C73.9833 102.739 75.8682 89.4309 64.3961 89.6747" stroke="#222222" stroke-width="0.714974" stroke-linecap="round" stroke-linejoin="round"/>
<path d="M128.175 300.186L121.334 301.421C115.241 302.526 109.001 302.347 102.989 300.884L95.0588 204.98H86.4791C50.5354 204.98 54.874 171.165 54.874 171.165H155.312C155.312 171.165 173.885 171.49 173.885 195.604C173.885 219.719 177.476 300.169 177.476 300.169L174.177 300.868C167.206 302.331 159.991 302.087 153.134 300.169L147.577 207.337C147.577 207.337 147.008 202.121 138.217 202.121H125.819L128.175 300.169V300.186Z" fill="#333435"/>
<path opacity="0.3" d="M59.9274 171.182C59.9274 171.182 56.255 193.492 80.9054 194.061C96.0173 194.402 99.4947 194.175 100.665 208.328C101.721 221.165 108.919 301.892 108.919 301.892" stroke="white" stroke-width="0.714974" stroke-miterlimit="10"/>
<path opacity="0.3" d="M125.803 194.061C125.803 194.061 147.561 191.282 152.387 197.197C157.586 203.583 157.034 243.8 158.431 265.753C159.829 287.706 160.17 301.892 160.17 301.892" stroke="white" stroke-width="0.714974" stroke-miterlimit="10"/>
<path d="M322.128 221.067H424.629C424.629 215.542 420.161 211.074 414.636 211.074H332.105C326.58 211.074 322.112 215.542 322.112 221.067H322.128Z" fill="#C1C1C1"/>
<path d="M414.912 129.421V211.074C420.437 211.074 424.905 206.605 424.905 201.081V139.398C424.905 133.873 420.437 129.404 414.912 129.404V129.421Z" fill="#C1C1C1"/>
<path d="M356.447 211.09H414.912V129.437H356.447V211.09Z" fill="#C1C1C1"/>
<path d="M369.706 306.702H377.019V221.084H369.706V306.702Z" fill="#7C7C7C"/>
<path d="M337.76 318.417C337.76 320.579 339.515 322.334 341.676 322.334C343.837 322.334 345.592 320.579 345.592 318.417C345.592 316.256 343.837 314.501 341.676 314.501C339.515 314.501 337.76 316.256 337.76 318.417Z" fill="#222222"/>
<path d="M369.463 318.417C369.463 320.579 371.217 322.334 373.379 322.334C375.54 322.334 377.295 320.579 377.295 318.417C377.295 316.256 375.54 314.501 373.379 314.501C371.217 314.501 369.463 316.256 369.463 318.417Z" fill="#222222"/>
<path d="M401.165 318.417C401.165 320.579 402.92 322.334 405.081 322.334C407.242 322.334 408.997 320.579 408.997 318.417C408.997 316.256 407.242 314.501 405.081 314.501C402.92 314.501 401.165 316.256 401.165 318.417Z" fill="#222222"/>
<path d="M405.081 318.417V310.764V306.685H341.66V318.417" stroke="#222222" stroke-width="0.714974" stroke-linecap="round" stroke-linejoin="round"/>
<path d="M373.379 318.417V306.685" stroke="#222222" stroke-width="0.714974" stroke-linecap="round" stroke-linejoin="round"/>
<path d="M417.268 211.09H332.105" stroke="#222222" stroke-width="0.714974" stroke-linecap="round" stroke-linejoin="round"/>
<path d="M414.912 129.421V211.09" stroke="#222222" stroke-width="0.714974" stroke-linecap="round" stroke-linejoin="round"/>
<path d="M394.747 76.3988C397.558 75.1963 399.427 70.549 398.988 65.3655C398.679 61.6281 396.713 55.9571 388.345 55.9571C388.345 55.9571 391.383 48.3198 379.879 43.7863C363.759 37.449 353.798 31.453 349.671 38.7002C348.306 41.1051 349.216 43.575 350.678 45.6062C347.981 45.7524 345.82 46.8574 346.437 50.2535C346.714 51.7485 347.916 52.7722 349.427 53.4871C347.298 54.6896 345.462 56.3308 344.796 58.622C342.294 67.1204 349.053 70.5328 349.053 70.5328C349.053 70.5328 339.515 73.5552 342.83 79.9737C343.724 81.7124 344.796 82.8986 345.901 83.711C343.317 83.8898 341.01 85.1735 341.107 89.3171C341.319 98.563 386.135 105.745 392.878 96.7918C395.494 93.3144 394.016 89.9833 393.609 88.8946C395.088 88.4559 398.858 88.3584 399.963 85.0272C401.669 79.9087 398.175 76.7563 394.731 76.3988H394.747Z" fill="#222222"/>
<path d="M352.742 94.5169C352.742 94.5169 344.812 91.9169 336.135 104.072C327.442 116.226 313.548 127.958 313.548 127.958L316.587 141.429L346.778 120.792L352.758 94.5169H352.742Z" fill="#F36A21"/>
<path d="M352.742 94.5169C352.742 94.5169 342.976 97.1168 342.651 110.474C342.326 123.831 342.976 126.626 340.701 132.232C338.426 137.838 342.001 140.454 345.267 142.079L346.372 178.559C346.372 178.559 361.224 187.35 398.695 182.15C398.695 182.15 391.529 154.802 391.529 139.154C391.529 123.506 391.367 105.42 384.363 98.4167L352.758 94.5006L352.742 94.5169Z" fill="#F36A21"/>
<path d="M363.06 141.429C363.06 141.429 371.331 146.385 378.335 141.429" stroke="#222222" stroke-width="0.714974" stroke-linecap="round" stroke-linejoin="round"/>
<path d="M358.933 104.445C358.852 104.933 358.397 105.258 357.909 105.176C357.422 105.095 357.097 104.64 357.178 104.153C357.259 103.665 357.714 103.34 358.202 103.422C358.689 103.503 359.014 103.958 358.933 104.445Z" fill="#222222"/>
<path d="M358.234 109.58C358.153 110.067 357.698 110.392 357.211 110.311C356.723 110.23 356.398 109.775 356.479 109.287C356.561 108.8 357.016 108.475 357.503 108.556C357.991 108.638 358.316 109.093 358.234 109.58Z" fill="#222222"/>
<path d="M352.742 94.5168C352.742 94.5168 342.976 97.1167 342.651 110.474C342.326 123.831 342.976 126.626 340.701 132.232C338.426 137.838 342.001 140.454 345.267 142.079L346.372 178.559" stroke="#222222" stroke-width="0.714974" stroke-linecap="round" stroke-linejoin="round"/>
<path d="M403.668 148.367L384.347 145.768C377.62 111.449 381.097 101.683 384.347 98.4168C384.347 98.4168 394.389 97.4743 398.679 117.851C402.806 137.415 403.668 148.367 403.668 148.367Z" fill="#F36A21"/>
<path d="M309.259 274.398C309.259 274.317 309.242 274.235 309.226 274.154C308.657 270.92 309.827 261.707 310.851 256.394L298.648 255.987L296.974 266.923C296.698 268.759 295.69 271.262 293.854 271.489C291.368 271.798 287.679 272.074 284.316 272.48C285.275 273.618 286.851 274.885 289.223 275.389C293.025 276.185 303.425 273.797 309.275 274.43L309.259 274.398Z" fill="#A6645D"/>
<path d="M277.182 273.504C282.155 277.989 288.557 280.556 295.252 280.751L309.08 281.158C309.08 281.158 309.681 277.225 309.275 274.398C303.425 273.764 293.026 276.169 289.223 275.357C286.851 274.853 285.291 273.585 284.316 272.448C280.091 272.952 277.41 272.318 277.199 273.488L277.182 273.504Z" fill="#222222"/>
<path d="M309.243 274.398C309.243 274.398 309.259 274.398 309.275 274.398C309.698 277.225 309.08 281.158 309.08 281.158L304.075 281.011C304.303 277.404 307.406 275.324 309.243 274.398Z" fill="#333435"/>
<path d="M282.805 272.61C284.316 273.959 286.412 276.315 286.786 279.159C283.276 277.924 279.994 276.039 277.182 273.504C277.377 272.48 279.457 272.838 282.805 272.61Z" fill="#333435"/>
<path d="M348.728 315.655C348.728 315.655 348.679 315.492 348.647 315.411C347.477 312.34 346.892 303.078 346.892 297.667L334.835 299.568L335.257 310.618C335.322 312.47 334.819 315.119 333.047 315.687C330.659 316.451 327.1 317.426 323.867 318.466C325.037 319.392 326.808 320.351 329.229 320.384C333.112 320.465 342.862 316.142 348.728 315.655Z" fill="#A6645D"/>
<path d="M316.262 322.334H349.817C349.817 322.334 349.671 318.352 348.728 315.655C342.862 316.143 333.112 320.465 329.229 320.384C326.808 320.335 325.02 319.392 323.867 318.466C319.804 319.766 316.278 321.147 316.278 322.334H316.262Z" fill="#222222"/>
<path d="M342.147 322.334C343.642 317.914 347.786 317.199 349.102 316.955C349.703 319.474 349.817 322.334 349.817 322.334H342.131H342.147Z" fill="#333435"/>
<path d="M322.502 318.905C323.314 319.571 324.094 320.627 324.257 322.317H316.278C316.278 321.261 319.057 320.058 322.502 318.905Z" fill="#333435"/>
<path d="M363.06 185.595C363.06 185.595 320.487 199.407 319.024 210.473C317.562 221.555 333.763 304.622 333.763 304.622H348.273C348.273 304.622 354.952 252.493 346.356 228.396C346.356 228.396 388.003 213.3 392.813 206.784C402.189 194.061 398.988 182.946 398.988 182.946L363.06 185.595Z" fill="#222222"/>
<path opacity="0.3" d="M367.838 203.745C367.838 203.745 333.86 219.28 336.298 225.13C338.735 230.996 342.992 237.512 344.601 259.985C346.112 281.109 344.601 304.605 344.601 304.605" stroke="white" stroke-width="0.714974" stroke-miterlimit="10"/>
<path d="M398.679 182.134C398.679 182.134 323.981 162.472 317.026 167.265C310.071 172.043 300.094 189.852 298.778 218.516C297.478 247.18 296.178 263.251 296.178 263.251H310.51C310.51 263.251 319.366 242.078 324.192 220.466C326.45 210.359 326.645 200.333 326.792 192.013C326.792 192.013 343.074 207.71 375.491 212.374C391.887 214.73 404.773 198.464 398.988 182.946C398.89 182.686 398.793 182.41 398.679 182.134Z" fill="#333435"/>
<path d="M349.314 72.8564C349.314 72.8564 344.731 71.5239 345.771 66.6816C346.811 61.7905 351.263 63.8867 351.263 63.8867C351.263 63.8867 349.622 67.1528 349.314 72.8564Z" fill="#A6645D"/>
<path d="M349.606 65.2517C349.606 65.2517 347.819 64.5855 346.762 66.4704" stroke="#222222" stroke-width="0.714974" stroke-linecap="round" stroke-linejoin="round"/>
<path d="M348.42 65.3816C348.42 65.3816 347.477 67.2503 348.534 69.2327" stroke="#222222" stroke-width="0.714974" stroke-linecap="round" stroke-linejoin="round"/>
<path d="M373.086 98.1405V84.9948C367.529 89.8696 360.379 88.5696 360.379 88.5696C360.379 88.5696 360.087 88.5046 359.583 88.3259L357.698 100.627C357.698 100.627 368.537 105.664 373.07 98.1405H373.086Z" fill="#A6645D"/>
<g style="mix-blend-mode:multiply">
<path d="M360.379 88.5696C360.379 88.5696 367.529 89.8696 373.086 84.9948V85.1735C372.729 85.791 372.355 86.3434 371.965 86.7822C371.494 87.3347 371.007 87.8059 370.503 88.2446C366.359 91.8845 361.322 92.0795 359.031 91.9495L359.583 88.3421C360.071 88.5046 360.379 88.5859 360.379 88.5859V88.5696Z" fill="#A6645D"/>
</g>
<path d="M379.131 66.7304C379.375 73.6689 377.214 80.7536 374.695 83.6948C374.224 84.2473 373.736 84.7185 373.233 85.1572C367.675 90.032 360.526 88.7321 360.526 88.7321C360.526 88.7321 360.233 88.6671 359.729 88.4883C357.081 87.5784 348.745 83.6623 350.158 71.0527C350.63 66.8766 352.807 62.2781 354.611 59.0607C356.025 56.542 358.836 55.1608 361.696 55.5671C363.353 55.8108 364.88 56.6233 365.969 57.907C368.114 60.3931 372.355 64.618 377.912 66.4704L379.115 66.7304H379.131Z" fill="#A6645D"/>
<path d="M366.522 63.6431C367.416 64.163 368.423 65.0405 369.203 66.5517" stroke="#222222" stroke-width="0.714974" stroke-linecap="round" stroke-linejoin="round"/>
<path d="M358.137 62.5543C357.113 62.6843 355.83 63.0906 354.53 64.1793" stroke="#222222" stroke-width="0.714974" stroke-linecap="round" stroke-linejoin="round"/>
<path d="M361.111 66.178C361.111 66.178 360.964 68.6154 358.608 70.4353C355.732 72.6452 356.528 73.7502 358.738 74.9364" stroke="#222222" stroke-width="0.714974" stroke-linecap="round" stroke-linejoin="round"/>
<g style="mix-blend-mode:multiply" opacity="0.5">
<path d="M368.683 73.3277C367.968 72.2715 366.928 73.4902 366.928 73.4902C366.928 73.4902 366.31 71.849 365.303 72.5965C364.426 73.2627 365.514 75.7326 366.294 75.9114C367.074 76.0901 369.3 74.2377 368.699 73.3277H368.683Z" fill="#F43D4F"/>
</g>
<g style="mix-blend-mode:multiply" opacity="0.5">
<path d="M351.589 74.2215C352.19 73.1003 353.344 74.189 353.344 74.189C353.344 74.189 353.782 72.4828 354.871 73.1328C355.813 73.7015 354.985 76.2689 354.237 76.5289C353.49 76.7889 351.069 75.1802 351.589 74.2052V74.2215Z" fill="#F43D4F"/>
</g>
<path d="M358.478 78.43C358.478 78.43 361.939 79.6324 364.084 76.3826" stroke="#222222" stroke-width="0.714974" stroke-linecap="round" stroke-linejoin="round"/>
<path d="M367.009 69.249C366.961 70.0127 366.294 70.5977 365.514 70.549C364.751 70.5002 364.166 69.834 364.215 69.054C364.263 68.2903 364.93 67.7053 365.709 67.7541C366.473 67.8028 367.058 68.469 367.009 69.249Z" fill="#222222"/>
<path d="M369.788 69.3628C368.748 69.6065 367.383 69.6553 365.758 69.0703" stroke="#222222" stroke-width="0.714974" stroke-linecap="round" stroke-linejoin="round"/>
<path d="M369.707 67.8517C368.813 68.4204 367.529 68.9079 365.791 68.8916" stroke="#222222" stroke-width="0.714974" stroke-linecap="round" stroke-linejoin="round"/>
<path d="M352.157 66.4705C352.986 67.1367 354.205 67.7542 355.927 67.9329" stroke="#222222" stroke-width="0.714974" stroke-linecap="round" stroke-linejoin="round"/>
<path d="M352.872 65.1379C353.441 66.0317 354.383 67.0229 355.959 67.7541" stroke="#222222" stroke-width="0.714974" stroke-linecap="round" stroke-linejoin="round"/>
<path d="M357.292 68.0466C357.243 68.8103 356.577 69.3953 355.797 69.3466C355.033 69.2978 354.448 68.6316 354.497 67.8516C354.546 67.0879 355.212 66.5029 355.992 66.5517C356.756 66.6004 357.341 67.2666 357.292 68.0466Z" fill="#222222"/>
<path d="M379.083 77.4387C379.083 77.4387 384.429 78.4787 385.907 73.0026C387.386 67.4941 381.78 67.2991 381.78 67.2991C381.78 67.2991 381.748 71.4752 379.083 77.4387Z" fill="#A6645D"/>
<path d="M382.739 69.574C382.739 69.574 384.9 69.8177 384.981 72.2876" stroke="#222222" stroke-width="0.714974" stroke-linecap="round" stroke-linejoin="round"/>
<path d="M383.892 70.3214C383.892 70.3214 383.86 72.7101 381.78 74.1888" stroke="#222222" stroke-width="0.714974" stroke-linecap="round" stroke-linejoin="round"/>
<path d="M363.06 159.011H276.467V153.697H357.747C360.671 153.697 363.06 156.07 363.06 159.011Z" fill="#676768"/>
<path d="M276.467 159.011H332.836L316.311 117.234H259.942L276.467 159.011Z" fill="#7C7C7C"/>
<path d="M290.832 137.773C290.832 139.3 292.083 140.551 293.61 140.551C295.138 140.551 296.389 139.3 296.389 137.773C296.389 136.245 295.138 134.994 293.61 134.994C292.083 134.994 290.832 136.245 290.832 137.773Z" fill="white"/>
<path d="M384.347 145.768C377.62 111.449 381.097 101.683 384.347 98.4167" stroke="#222222" stroke-width="0.714974" stroke-linecap="round" stroke-linejoin="round"/>
<path d="M379.911 77.5688C380.074 78.3163 380.805 78.7713 381.552 78.6088C382.3 78.4463 382.755 77.7151 382.592 76.9676C382.43 76.2201 381.698 75.7651 380.951 75.9276C380.204 76.0901 379.749 76.8213 379.911 77.5688Z" fill="#F36A21"/>
<path d="M346.941 72.6452C347.103 73.3927 347.835 73.8477 348.582 73.6852C349.329 73.5227 349.784 72.7915 349.622 72.044C349.459 71.2965 348.728 70.8416 347.981 71.004C347.233 71.1665 346.778 71.8978 346.941 72.6452Z" fill="#F36A21"/>
<path opacity="0.3" d="M394.682 181.11C394.682 188.341 396.047 195.182 373.086 188.666C350.142 182.15 323.916 169.979 319.756 181.435C315.596 192.891 325.362 199.845 317.237 228.396C312.671 244.401 307.146 263.251 307.146 263.251" stroke="white" stroke-width="0.714974" stroke-miterlimit="10"/>
<path d="M403.668 148.367L384.347 145.768L339.856 150.252L335.079 150.675C335.079 150.675 324.842 149.342 323.607 149.456C322.388 149.586 315.125 153.242 315.125 153.242L311.923 158.93C311.923 158.93 314.036 159.888 315.921 157.483L317.562 162.228C317.562 162.228 321.608 161.205 320.032 157.873L322.421 155.533C322.047 156.053 321.738 156.638 321.689 157.256C321.559 159.06 325.41 164.796 325.41 164.796C326.694 164.308 326.629 163.691 326.515 163.414L327.815 165.706C331.147 164.129 328.872 161.237 328.693 160.636C328.514 160.035 330.35 158.15 330.35 158.15C330.35 158.15 330.708 158.897 331.813 159.645C332.268 159.953 339.937 160.165 339.937 160.165H392.699C399.085 160.165 404.106 154.737 403.651 148.384L403.668 148.367Z" fill="#A6645D"/>
<path d="M326.531 163.398C325.101 160.392 323.103 155.907 328.758 154.575" stroke="#222222" stroke-width="0.714974" stroke-linecap="round" stroke-linejoin="round"/>
<path d="M315.921 157.483C315.921 157.483 315.986 156.167 317.204 155.095C318.439 154.022 322.112 152.137 322.112 152.137" stroke="#222222" stroke-width="0.714974" stroke-linecap="round" stroke-linejoin="round"/>
<path d="M322.437 155.533C322.437 155.533 323.867 153.876 325.378 153.486" stroke="#222222" stroke-width="0.714974" stroke-linecap="round" stroke-linejoin="round"/>
<path d="M333.21 157.305C333.21 157.305 333.389 158.718 335.111 158.475" stroke="#222222" stroke-width="0.714974" stroke-linecap="round" stroke-linejoin="round"/>
<path d="M360.996 321.424V171.1H348.013V321.424H360.996Z" fill="#333435"/>
<path d="M115.403 321.424L115.403 171.1H102.42L102.42 321.424H115.403Z" fill="#222222"/>
<path d="M222.308 158.117H76.4692V171.1H222.308V158.117Z" fill="#222222"/>
<path d="M385.663 158.117H222.308V171.1H385.663V158.117Z" fill="#333435"/>
<path d="M235.291 322.334V171.1H222.308V322.334H235.291Z" fill="#333435"/>
<path d="M315.709 69.8666C315.709 70.4678 315.709 71.0691 315.661 71.6703C314.735 83.8411 304.124 92.9732 291.953 92.047C285.616 91.5596 280.123 88.4559 276.435 83.8573L293.627 69.9966L315.709 69.8503V69.8666Z" fill="#C1C1C1"/>
<path d="M276.532 56.0058C280.952 50.6272 287.826 47.3936 295.3 47.9623C306.87 48.8398 315.661 58.4595 315.726 69.8665L293.643 70.0128L276.549 56.0058H276.532Z" fill="white"/>
<path d="M276.532 56.0059L293.627 70.0128L276.435 83.8736C273.023 79.6487 271.138 74.1889 271.576 68.3392C271.934 63.6431 273.754 59.402 276.532 56.0059Z" fill="#D6D7D8"/>
<path d="M164.444 75.2614C172.877 100.545 200.209 114.227 225.493 105.794C250.777 97.3606 264.459 70.0291 256.026 44.745C247.592 19.4609 220.261 5.77893 194.977 14.2124C169.693 22.6458 156.011 49.9773 164.444 75.2614ZM199.835 28.7718C217.092 23.0195 235.73 32.3467 241.482 49.6036C247.235 66.8604 237.908 85.4985 220.651 91.2508C203.394 97.0031 184.756 87.6759 179.004 70.4191C173.251 53.1622 182.578 34.5241 199.835 28.7718Z" stroke="#222222" stroke-width="0.714974" stroke-linecap="round" stroke-linejoin="round"/>
<path d="M210.235 11.7263V27.082" stroke="#222222" stroke-width="0.714974" stroke-linecap="round" stroke-linejoin="round"/>
<path d="M164.444 75.2614L179.003 70.4191" stroke="#222222" stroke-width="0.714974" stroke-linecap="round" stroke-linejoin="round"/>
<path d="M196.407 106.249L200.794 91.5432" stroke="#222222" stroke-width="0.714974" stroke-linecap="round" stroke-linejoin="round"/>
<path d="M185.471 18.5671L193.336 31.7454" stroke="#222222" stroke-width="0.714974" stroke-linecap="round" stroke-linejoin="round"/>
<path d="M233.586 102.252L226.16 88.8134" stroke="#222222" stroke-width="0.714974" stroke-linecap="round" stroke-linejoin="round"/>
<path d="M257.602 50.7085L242.539 53.6659" stroke="#222222" stroke-width="0.714974" stroke-linecap="round" stroke-linejoin="round"/>
<path d="M168.799 84.7673L181.977 76.9026" stroke="#222222" stroke-width="0.714974" stroke-linecap="round" stroke-linejoin="round"/>
<path d="M149.202 49.2298C149.641 51.0985 148.471 52.9671 146.586 53.4059C144.717 53.8284 142.848 52.6584 142.41 50.7897C141.971 48.921 143.141 47.0524 145.026 46.6136C146.894 46.1749 148.763 47.3448 149.202 49.2298Z" stroke="#222222" stroke-width="0.714974" stroke-linecap="round" stroke-linejoin="round"/>
<path d="M327.929 26.2857C328.368 28.1544 327.198 30.0231 325.313 30.4618C323.444 30.8843 321.576 29.7306 321.137 27.8456C320.714 25.977 321.868 24.1083 323.753 23.6695C325.622 23.2308 327.49 24.4008 327.929 26.2857Z" stroke="#222222" stroke-width="0.714974" stroke-linecap="round" stroke-linejoin="round"/>
<path d="M234.056 125.066C235.551 126.935 231.505 128.803 225.006 129.242C218.522 129.664 212.055 128.511 210.56 126.626C209.065 124.757 213.111 122.888 219.611 122.45C226.094 122.011 232.562 123.181 234.056 125.066Z" stroke="#222222" stroke-width="0.714974" stroke-linecap="round" stroke-linejoin="round"/>
</svg>
