<svg width="15" height="15" viewBox="0 0 15 15" fill="none" xmlns="http://www.w3.org/2000/svg">
<path d="M10.4944 0.231232C10.8027 -0.0770772 11.3026 -0.0770772 11.6109 0.231232L14.7688 3.38913C15.0771 3.69744 15.0771 4.1973 14.7688 4.50561L4.50561 14.7688C4.35756 14.9168 4.15675 15 3.94737 15H0.789474C0.353459 15 0 14.6465 0 14.2105V11.0526C0 10.8433 0.0831764 10.6424 0.231231 10.4944L8.1258 2.59982L10.4944 0.231232ZM8.68421 4.27438L1.57895 11.3796V13.4211H3.62036L10.7256 6.31579L8.68421 4.27438ZM11.8421 5.1993L13.094 3.94737L11.0526 1.90596L9.80069 3.15789L11.8421 5.1993Z" fill="#F36A21"/>
</svg>
