<svg width="32" height="32" viewBox="0 0 32 32" fill="none" xmlns="http://www.w3.org/2000/svg">
<path fill-rule="evenodd" clip-rule="evenodd" d="M5.6875 22.6667H23.5C27.0355 22.6667 28.8033 22.6667 29.9016 21.6904C31 20.714 31 19.1427 31 16V7.66667C31 4.52397 31 2.95262 29.9016 1.97631C28.8033 1 27.0355 1 23.5 1H8.5C4.96447 1 3.1967 1 2.09835 1.97631C1 2.95262 1 4.52397 1 7.66667V26.8333C1 24.5321 3.09867 22.6667 5.6875 22.6667ZM22.9537 10.8278C23.7793 10.094 23.8537 8.82985 23.1198 8.00428C22.386 7.17872 21.1218 7.10435 20.2963 7.83819L14.125 13.3238L11.7037 11.1715C10.8782 10.4377 9.61402 10.512 8.88018 11.3376C8.14635 12.1632 8.22071 13.4273 9.04627 14.1612L12.1319 16.9039C13.2686 17.9143 14.9814 17.9143 16.1181 16.9039L22.9537 10.8278Z" fill="white"/>
<path d="M29.9016 21.6904L29.2373 20.9429L29.9016 21.6904ZM29.9016 1.97631L29.2373 2.72372V2.72372L29.9016 1.97631ZM23.1198 8.00428L23.8672 7.33992V7.33992L23.1198 8.00428ZM22.9537 10.8278L23.6181 11.5752V11.5752L22.9537 10.8278ZM20.2963 7.83819L20.9606 8.5856L20.2963 7.83819ZM14.125 13.3238L13.4606 14.0712L14.125 14.6617L14.7894 14.0712L14.125 13.3238ZM11.7037 11.1715L12.3681 10.4241V10.4241L11.7037 11.1715ZM9.04627 14.1612L9.71064 13.4138V13.4137L9.04627 14.1612ZM12.1319 16.9039L11.4675 17.6514H11.4675L12.1319 16.9039ZM16.1181 16.9039L15.4537 16.1565V16.1565L16.1181 16.9039ZM23.5 21.6667H5.6875V23.6667H23.5V21.6667ZM29.2373 20.9429C28.9073 21.2362 28.4262 21.4405 27.4961 21.5517C26.5481 21.665 25.293 21.6667 23.5 21.6667V23.6667C25.2426 23.6667 26.639 23.6684 27.7334 23.5376C28.8457 23.4046 29.7976 23.1208 30.566 22.4378L29.2373 20.9429ZM30 16C30 17.603 29.9973 18.6923 29.874 19.508C29.7569 20.2817 29.5503 20.6647 29.2373 20.9429L30.566 22.4378C31.3513 21.7397 31.6939 20.8489 31.8515 19.8071C32.0027 18.8074 32 17.5397 32 16H30ZM30 7.66667V16H32V7.66667H30ZM29.2373 2.72372C29.5503 3.00197 29.7569 3.38497 29.874 4.15865C29.9973 4.97432 30 6.06363 30 7.66667H32C32 6.12701 32.0027 4.85929 31.8515 3.85954C31.6939 2.81779 31.3513 1.92696 30.566 1.2289L29.2373 2.72372ZM23.5 2C25.293 2 26.5481 2.00168 27.4961 2.11497C28.4262 2.22613 28.9073 2.43044 29.2373 2.72372L30.566 1.2289C29.7976 0.545869 28.8457 0.262028 27.7334 0.129104C26.639 -0.00168455 25.2426 0 23.5 0V2ZM8.5 2H23.5V0H8.5V2ZM2.76271 2.72372C3.09265 2.43044 3.5738 2.22613 4.50389 2.11497C5.45185 2.00168 6.70703 2 8.5 2V0C6.75743 0 5.36096 -0.00168455 4.26657 0.129104C3.15431 0.262028 2.2024 0.545869 1.43399 1.2289L2.76271 2.72372ZM2 7.66667C2 6.06363 2.00267 4.97432 2.12605 4.15865C2.24307 3.38497 2.44968 3.00197 2.76271 2.72372L1.43399 1.2289C0.648669 1.92696 0.306107 2.81779 0.14854 3.85954C-0.0026747 4.85929 0 6.12701 0 7.66667H2ZM2 26.8333V7.66667H0V26.8333H2ZM5.6875 21.6667C2.66036 21.6667 0 23.8724 0 26.8333H2C2 25.1919 3.53697 23.6667 5.6875 23.6667V21.6667ZM22.3724 8.66864C22.7393 9.08143 22.7021 9.7135 22.2894 10.0804L23.6181 11.5752C24.8564 10.4745 24.968 8.57827 23.8672 7.33992L22.3724 8.66864ZM20.9606 8.5856C21.3734 8.21868 22.0055 8.25586 22.3724 8.66865L23.8672 7.33992C22.7665 6.10157 20.8703 5.99003 19.6319 7.09078L20.9606 8.5856ZM14.7894 14.0712L20.9606 8.5856L19.6319 7.09078L13.4606 12.5764L14.7894 14.0712ZM11.0394 11.9189L13.4606 14.0712L14.7894 12.5764L12.3681 10.4241L11.0394 11.9189ZM9.62759 12.002C9.99451 11.5892 10.6266 11.552 11.0394 11.9189L12.3681 10.4241C11.1297 9.32336 9.23353 9.4349 8.13277 10.6732L9.62759 12.002ZM9.71064 13.4137C9.29785 13.0468 9.26067 12.4148 9.62759 12.002L8.13277 10.6732C7.03202 11.9116 7.14356 13.8078 8.38191 14.9086L9.71064 13.4137ZM12.7963 16.1565L9.71064 13.4138L8.38191 14.9086L11.4675 17.6514L12.7963 16.1565ZM15.4537 16.1565C14.696 16.8301 13.554 16.8301 12.7963 16.1565L11.4675 17.6514C12.9831 18.9985 15.2669 18.9985 16.7825 17.6514L15.4537 16.1565ZM22.2894 10.0804L15.4537 16.1565L16.7825 17.6514L23.6181 11.5752L22.2894 10.0804ZM14.125 30H5.6875V32H14.125V30ZM0 26.8333C0 29.7943 2.66036 32 5.6875 32V30C3.53697 30 2 28.4748 2 26.8333H0Z" fill="white"/>
<path d="M31 31H12.25" stroke="white" stroke-width="2" stroke-linecap="round"/>
</svg>
