<svg width="30" height="30" viewBox="0 0 30 30" fill="none" xmlns="http://www.w3.org/2000/svg">
<path fill-rule="evenodd" clip-rule="evenodd" d="M18.1801 1.80097V1.80099L18.2538 2.53835C18.4172 4.17189 18.4989 4.98866 19.0517 5.21764C19.6045 5.44663 20.2398 4.92684 21.5104 3.88726L22.0836 3.41823C22.7494 2.87352 23.0823 2.60116 23.4671 2.62036C23.852 2.63955 24.1561 2.94368 24.7643 3.55193L26.4473 5.23488C27.0555 5.84313 27.3597 6.14726 27.3789 6.5321C27.3981 6.91693 27.1257 7.24981 26.581 7.91557L26.1114 8.48948C25.0718 9.76008 24.5521 10.3954 24.781 10.9482C25.01 11.501 25.8268 11.5827 27.4603 11.746L28.199 11.8199C29.0549 11.9055 29.4829 11.9483 29.7415 12.234C30 12.5197 30 12.9498 30 13.81V16.19C30 17.0502 30 17.4803 29.7415 17.766C29.4829 18.0517 29.0549 18.0945 28.199 18.1801H28.199L27.4629 18.2537C25.8294 18.4171 25.0126 18.4987 24.7836 19.0516C24.5547 19.6044 25.0744 20.2397 26.114 21.5103L26.5833 22.0838C27.128 22.7495 27.4003 23.0824 27.3811 23.4672C27.3619 23.8521 27.0578 24.1562 26.4495 24.7645L24.7666 26.4474C24.1583 27.0557 23.8542 27.3598 23.4694 27.379C23.0845 27.3982 22.7517 27.1258 22.0859 26.5811L21.5106 26.1104C20.24 25.0708 19.6047 24.551 19.0519 24.78C18.4991 25.009 18.4174 25.8258 18.2541 27.4593L18.1801 28.199V28.199C18.0945 29.0549 18.0517 29.4829 17.766 29.7415C17.4803 30 17.0502 30 16.19 30H13.81C12.9498 30 12.5197 30 12.234 29.7415C11.9483 29.4829 11.9055 29.0549 11.8199 28.199L11.746 27.4605C11.5827 25.8269 11.501 25.0102 10.9482 24.7812C10.3954 24.5522 9.76009 25.072 8.4895 26.1116L7.91477 26.5818C7.24901 27.1265 6.91613 27.3989 6.5313 27.3797C6.14646 27.3605 5.84233 27.0563 5.23408 26.4481L3.55113 24.7651C2.94288 24.1569 2.63875 23.8528 2.61956 23.4679C2.60036 23.0831 2.87272 22.7502 3.41743 22.0844L3.88713 21.5104C4.9267 20.2398 5.44649 19.6045 5.21751 19.0517C4.98853 18.4989 4.17176 18.4172 2.53822 18.2538L1.80099 18.1801H1.80097C0.945055 18.0945 0.517093 18.0517 0.258547 17.766C0 17.4803 0 17.0502 0 16.19V13.81C0 12.9498 0 12.5197 0.258547 12.234C0.517095 11.9483 0.945061 11.9055 1.80099 11.8199L2.54081 11.7459C4.17435 11.5826 4.99112 11.5009 5.2201 10.9481C5.44909 10.3953 4.9293 9.75996 3.88972 8.48937L3.4197 7.91489C2.87498 7.24913 2.60263 6.91625 2.62182 6.53142C2.64102 6.14658 2.94514 5.84245 3.5534 5.2342L5.23635 3.55125C5.8446 2.943 6.14873 2.63887 6.53356 2.61968C6.9184 2.60048 7.25128 2.87284 7.91703 3.41755L7.91704 3.41755L8.48973 3.88612C9.76032 4.9257 10.3956 5.44548 10.9484 5.2165C11.5012 4.98752 11.5829 4.17075 11.7463 2.53721L11.8199 1.80099C11.9055 0.945061 11.9483 0.517095 12.234 0.258547C12.5197 0 12.9498 0 13.81 0H16.19C17.0502 0 17.4803 0 17.766 0.258548C18.0517 0.517093 18.0945 0.945055 18.1801 1.80097ZM15 21C18.3137 21 21 18.3137 21 15C21 11.6863 18.3137 9 15 9C11.6863 9 9 11.6863 9 15C9 18.3137 11.6863 21 15 21Z" fill="#ADADAD"/>
</svg>
