<svg width="32" height="32" viewBox="0 0 32 32" fill="none" xmlns="http://www.w3.org/2000/svg">
<path d="M1 1.5V18.1429H12.9256C13.206 18.1429 13.3462 18.1429 13.4618 18.2093C13.5775 18.2757 13.6481 18.3968 13.7894 18.639L15.7106 21.9324L15.7106 21.9325C15.8519 22.1746 15.9225 22.2957 16.0382 22.3621C16.1538 22.4286 16.294 22.4286 16.5744 22.4286H30.5C30.7357 22.4286 30.8536 22.4286 30.9268 22.3553C31 22.2821 31 22.1643 31 21.9286V5.78571C31 5.55001 31 5.43216 30.9268 5.35894C30.8536 5.28571 30.7357 5.28571 30.5 5.28571H16.5744C16.294 5.28571 16.1538 5.28571 16.0382 5.21929C15.9225 5.15286 15.8519 5.03177 15.7106 4.78959L13.7894 1.49613C13.6481 1.25395 13.5775 1.13286 13.4618 1.06643C13.3462 1 13.206 1 12.9256 1H1.5C1.2643 1 1.14645 1 1.07322 1.07322C1 1.14645 1 1.2643 1 1.5Z" fill="#ADADAD"/>
<path d="M1 18.1429V1.5C1 1.2643 1 1.14645 1.07322 1.07322C1.14645 1 1.2643 1 1.5 1H12.9256C13.206 1 13.3462 1 13.4618 1.06643C13.5775 1.13286 13.6481 1.25395 13.7894 1.49613L15.7106 4.78959C15.8519 5.03177 15.9225 5.15286 16.0382 5.21929C16.1538 5.28571 16.294 5.28571 16.5744 5.28571H30.5C30.7357 5.28571 30.8536 5.28571 30.9268 5.35894C31 5.43216 31 5.55001 31 5.78571V21.9286C31 22.1643 31 22.2821 30.9268 22.3553C30.8536 22.4286 30.7357 22.4286 30.5 22.4286H16.5744C16.294 22.4286 16.1538 22.4286 16.0382 22.3621C15.9225 22.2957 15.8519 22.1746 15.7106 21.9324L13.7894 18.639C13.6481 18.3968 13.5775 18.2757 13.4618 18.2093C13.3462 18.1429 13.206 18.1429 12.9256 18.1429H1ZM1 18.1429V31" stroke="#ADADAD" stroke-width="2" stroke-linecap="round"/>
</svg>
