<svg width="24" height="24" viewBox="0 0 24 24" fill="none" xmlns="http://www.w3.org/2000/svg">
<path d="M7.38705 20.1663L7.38419 20.1678C7.13054 20.3002 6.82369 20.2769 6.59297 20.1077C6.36224 19.9385 6.24776 19.6528 6.29779 19.3711L6.29817 19.3689L7.10751 14.73C7.15046 14.4838 7.068 14.2324 6.88759 14.0596L3.48018 10.7942L3.47885 10.7929C3.27052 10.5943 3.19417 10.2939 3.28232 10.0199C3.37047 9.74583 3.6076 9.54633 3.8927 9.50638L3.89473 9.50608L8.6257 8.8298C8.86904 8.79502 9.07988 8.6432 9.19004 8.42345L11.3259 4.16268L11.3259 4.16268L11.3275 4.15962C11.4541 3.90401 11.7147 3.74231 12 3.74231C12.2853 3.74231 12.5459 3.90401 12.6726 4.15962L12.6726 4.15962L12.6741 4.16268L14.81 8.42345C14.9202 8.6432 15.131 8.79502 15.3743 8.8298L20.1053 9.50609L20.1073 9.50637C20.3924 9.54633 20.6296 9.74583 20.7177 10.0199C20.8059 10.2939 20.7295 10.5943 20.5212 10.7929L20.5199 10.7942L17.1124 14.0596C16.932 14.2324 16.8496 14.4838 16.8925 14.7299L17.7019 19.3699L17.7023 19.3721C17.7523 19.6538 17.6378 19.9395 17.4071 20.1087C17.1763 20.2779 16.8695 20.3012 16.6158 20.1688L16.6131 20.1674L12.3443 17.9614C12.1284 17.8499 11.8718 17.8498 11.6558 17.9614L7.38705 20.1663Z" fill="#FFAC0E" stroke="#FFAC0E" stroke-width="1.5" stroke-linecap="round" stroke-linejoin="round"/>
</svg>
