<svg width="18" height="18" viewBox="0 0 18 18" fill="none" xmlns="http://www.w3.org/2000/svg">
<path d="M1.90681 1.7717H5.88422L7.16623 4.97672L5.10674 6.34972C4.8603 6.51401 4.71227 6.7906 4.71227 7.08679C4.71452 7.16973 4.71227 7.08768 4.71227 7.08768L4.71227 7.0886L4.71228 7.09059L4.71231 7.09505L4.71244 7.10598C4.71257 7.11415 4.71279 7.12407 4.71317 7.13568C4.71391 7.1589 4.71527 7.18893 4.71769 7.2253C4.72254 7.29803 4.73168 7.39634 4.74886 7.51658C4.78319 7.7569 4.84982 8.08612 4.97919 8.47423C5.23896 9.25352 5.74936 10.2625 6.74343 11.2566C7.73749 12.2506 8.74648 12.761 9.52577 13.0208C9.91388 13.1502 10.2431 13.2168 10.4834 13.2511C10.6037 13.2683 10.702 13.2775 10.7747 13.2823C10.8111 13.2847 10.8411 13.2861 10.8643 13.2868C10.8759 13.2872 10.8858 13.2874 10.894 13.2876L10.9049 13.2877L10.9094 13.2877L10.9114 13.2877L10.9123 13.2877C10.9123 13.2877 11.0112 13.2823 10.9132 13.2877C11.2487 13.2877 11.5555 13.0982 11.7055 12.798L12.2988 11.6115L16.2283 12.2665V16.0932C14.3582 16.3636 9.30753 16.6302 5.33866 12.6613C1.3698 8.69247 1.63636 3.64181 1.90681 1.7717ZM6.54921 7.51739L8.14899 6.45087C8.8461 5.98613 9.12237 5.09662 8.81121 4.31873L7.5292 1.11371C7.26014 0.441066 6.60868 0 5.88422 0H1.86053C1.05573 0 0.298166 0.559114 0.166047 1.43233C-0.134531 3.41893 -0.543657 9.28458 4.08588 13.9141C8.71542 18.5437 14.5811 18.1345 16.5677 17.834C17.4409 17.7018 18 16.9443 18 16.1395V12.2665C18 11.4004 17.3739 10.6612 16.5196 10.5189L12.5901 9.86395C11.8229 9.73608 11.062 10.1235 10.7141 10.8192L10.4072 11.4331C10.3107 11.4094 10.203 11.379 10.086 11.34C9.53654 11.1569 8.77384 10.7814 7.99621 10.0038C7.21858 9.22616 6.84313 8.46346 6.65997 7.91397C6.61048 7.76549 6.57485 7.63198 6.54921 7.51739Z" fill="#C3C0C0"/>
</svg>
