<svg width="192" height="196" viewBox="0 0 192 196" fill="none" xmlns="http://www.w3.org/2000/svg">
<circle cx="96" cy="96" r="96" fill="#D9D9D9"/>
<circle cx="151.5" cy="175.5" r="19" fill="#F36A21" stroke="white" stroke-width="3"/>
<path d="M155.293 166.293C155.683 165.902 156.317 165.902 156.707 166.293L160.707 170.293C161.098 170.683 161.098 171.317 160.707 171.707L147.707 184.707C147.52 184.895 147.265 185 147 185H143C142.448 185 142 184.552 142 184V180C142 179.735 142.105 179.48 142.293 179.293L152.293 169.293L155.293 166.293ZM153 171.414L144 180.414V183H146.586L155.586 174L153 171.414ZM157 172.586L158.586 171L156 168.414L154.414 170L157 172.586Z" fill="white"/>
</svg>
