<svg width="12" height="9" viewBox="0 0 12 9" fill="none" xmlns="http://www.w3.org/2000/svg">
<path d="M0 0.75C0 0.335786 0.335786 0 0.75 0H11.25C11.6642 0 12 0.335786 12 0.75C12 1.16421 11.6642 1.5 11.25 1.5H0.75C0.335786 1.5 0 1.16421 0 0.75ZM0 4.5C0 4.08579 0.335786 3.75 0.75 3.75H11.25C11.6642 3.75 12 4.08579 12 4.5C12 4.91421 11.6642 5.25 11.25 5.25H0.75C0.335786 5.25 0 4.91421 0 4.5ZM0 8.25C0 7.83579 0.335786 7.5 0.75 7.5H11.25C11.6642 7.5 12 7.83579 12 8.25C12 8.66421 11.6642 9 11.25 9H0.75C0.335786 9 0 8.66421 0 8.25Z" fill="#F36A21"/>
</svg>
