<svg width="176" height="130" viewBox="0 0 176 130" fill="none" xmlns="http://www.w3.org/2000/svg">
<path d="M37.6036 27.7046H16.92V72.092H37.6036V27.7046Z" fill="#C1C1C1"/>
<path opacity="0.63" d="M67.9647 0H47.2812V72.0762H67.9647V0Z" fill="#A6A6A6"/>
<path d="M98.3419 27.7046H77.6583V72.092H98.3419V27.7046Z" fill="#C1C1C1"/>
<path d="M128.703 36.0381H108.019V72.0762H128.703V36.0381Z" fill="#D6D7D8"/>
<path d="M159.08 51.3927H138.397V72.0762H159.08V51.3927Z" fill="#D6D7D8"/>
<path d="M0.347991 72.0762H175.652" stroke="#222222" stroke-width="0.692178" stroke-linecap="round" stroke-linejoin="round"/>
<path opacity="0.63" d="M74.7013 84.7267H42.2844V91.1152H74.7013V84.7267Z" fill="#A6A6A6"/>
<path opacity="0.63" d="M107.102 97.5038H42.2844V103.892H107.102V97.5038Z" fill="#A6A6A6"/>
<path d="M58.4928 110.296H42.2844V116.685H58.4928V110.296Z" fill="#D6D7D8"/>
<path d="M48.6729 123.089H42.2844V129.478H48.6729V123.089Z" fill="#D6D7D8"/>
<path d="M133.716 84.7267H42.2844V91.1152H133.716V84.7267Z" fill="#D6D7D8"/>
<path d="M133.716 97.5038H42.2844V103.892H133.716V97.5038Z" stroke="#222222" stroke-width="0.692178" stroke-linecap="round" stroke-linejoin="round"/>
<path d="M133.716 110.296H42.2844V116.685H133.716V110.296Z" stroke="#222222" stroke-width="0.692178" stroke-linecap="round" stroke-linejoin="round"/>
<path d="M133.716 123.089H42.2844V129.478H133.716V123.089Z" stroke="#222222" stroke-width="0.692178" stroke-linecap="round" stroke-linejoin="round"/>
</svg>
