<svg width="59" height="27" viewBox="0 0 59 27" fill="none" xmlns="http://www.w3.org/2000/svg">
<path d="M4.52255 5.11287C5.13642 2.65736 5.44336 1.42961 6.35887 0.714804C7.27437 0 8.53991 0 11.071 0H47.7804C50.3115 0 51.577 0 52.4925 0.714804C53.408 1.42961 53.715 2.65736 54.3288 5.11287L58.391 21.3616C58.7179 22.669 58.8813 23.3227 58.8452 23.8536C58.7517 25.2304 57.8295 26.4115 56.5165 26.8362C56.0102 26.9999 55.3207 26.9999 53.9419 26.9999C52.1426 26.9999 51.2429 26.9999 50.4873 26.8239C48.3704 26.3307 46.6205 24.8483 45.786 22.8413C45.4881 22.1249 45.3436 21.2576 45.0545 19.5229C44.9736 19.0375 44.9331 18.7948 44.8873 18.731C44.7526 18.5435 44.4737 18.5435 44.339 18.731C44.2932 18.7948 44.2527 19.0375 44.1718 19.5229L43.8966 21.174C43.8675 21.3491 43.8529 21.4366 43.8383 21.5133C43.2427 24.6392 40.5449 26.9245 37.3636 26.9981C37.2856 26.9999 37.1969 26.9999 37.0194 26.9999C36.842 26.9999 36.7532 26.9999 36.6752 26.9981C33.494 26.9245 30.7961 24.6392 30.2006 21.5133C30.186 21.4366 30.1714 21.3491 30.1422 21.174L29.867 19.5229C29.7861 19.0375 29.7457 18.7948 29.6998 18.731C29.5651 18.5435 29.2862 18.5435 29.1516 18.731C29.1057 18.7948 29.0653 19.0375 28.9844 19.5229L28.7092 21.174C28.68 21.3491 28.6654 21.4366 28.6508 21.5133C28.0552 24.6392 25.3574 26.9245 22.1762 26.9981C22.0982 26.9999 22.0094 26.9999 21.832 26.9999C21.6545 26.9999 21.5658 26.9999 21.4877 26.9981C18.3065 26.9245 15.6087 24.6392 15.0131 21.5133C14.9985 21.4366 14.9839 21.3491 14.9548 21.174L14.6796 19.5229C14.5987 19.0375 14.5582 18.7948 14.5124 18.731C14.3777 18.5435 14.0988 18.5435 13.9641 18.731C13.9183 18.7948 13.8778 19.0375 13.7969 19.5229C13.5078 21.2576 13.3632 22.1249 13.0654 22.8413C12.2309 24.8483 10.481 26.3307 8.36411 26.8239C7.6085 26.9999 6.70882 26.9999 4.90947 26.9999C3.53063 26.9999 2.84122 26.9999 2.33486 26.8362C1.02188 26.4115 0.0996605 25.2304 0.00615819 23.8536C-0.0299013 23.3227 0.133521 22.669 0.460365 21.3616L4.52255 5.11287Z" fill="white"/>
</svg>
