<svg width="47" height="35" viewBox="0 0 47 35" fill="none" xmlns="http://www.w3.org/2000/svg">
<path fill-rule="evenodd" clip-rule="evenodd" d="M0.058657 2.59642C3.58836e-10 4.00939 0 5.66812 0 7.63127V27.7736C0 30.9386 0 32.5212 0.983257 33.5044C1.96651 34.4877 3.54904 34.4877 6.71411 34.4877H16.7852V21.0595C16.7852 19.2054 18.2882 17.7024 20.1423 17.7024H26.8564C28.7104 17.7024 30.2134 19.2054 30.2134 21.0595V34.4877H40.2846C43.4497 34.4877 45.0322 34.4877 46.0154 33.5044C46.9987 32.5212 46.9987 30.9386 46.9987 27.7736V7.63127C46.9987 5.66812 46.9987 4.00939 46.94 2.59642C45.7152 2.59352 44.4623 2.55877 43.3058 2.28937C41.5623 1.8832 39.9618 1.09152 38.6054 0C36.6446 1.57819 34.1751 2.53102 31.5109 2.59264C31.3727 2.59583 31.2272 2.59581 31.0882 2.59578L31.052 2.59578L31.0159 2.59578C30.8769 2.59581 30.7314 2.59583 30.5932 2.59264C27.929 2.53102 25.4595 1.57819 23.4987 5.76276e-06C21.5378 1.57819 19.0684 2.53102 16.4042 2.59264C16.266 2.59583 16.1205 2.59581 15.9814 2.59578L15.9453 2.59578L15.9092 2.59578C15.7702 2.59581 15.6247 2.59583 15.4865 2.59264C12.8223 2.53102 10.3528 1.57819 8.39196 0C7.03559 1.09152 5.43508 1.8832 3.69154 2.28937C2.53554 2.55867 1.28308 2.5935 0.058657 2.59642Z" fill="white"/>
</svg>
