<svg width="17" height="18" viewBox="0 0 17 18" fill="none" xmlns="http://www.w3.org/2000/svg">
<path d="M5.3125 2C4.7257 2 4.25 2.44772 4.25 3C4.25 3.55228 4.7257 4 5.3125 4C5.8993 4 6.375 3.55228 6.375 3C6.375 2.44772 5.8993 2 5.3125 2ZM2.30638 2C2.74395 0.834808 3.92464 0 5.3125 0C6.70036 0 7.88105 0.834808 8.31863 2H15.9375C16.5243 2 17 2.44772 17 3C17 3.55228 16.5243 4 15.9375 4H8.31863C7.88105 5.16519 6.70036 6 5.3125 6C3.92464 6 2.74395 5.16519 2.30638 4H1.0625C0.475697 4 0 3.55228 0 3C0 2.44772 0.475697 2 1.0625 2H2.30638ZM11.6875 8C11.1007 8 10.625 8.44772 10.625 9C10.625 9.55229 11.1007 10 11.6875 10C12.2743 10 12.75 9.55229 12.75 9C12.75 8.44772 12.2743 8 11.6875 8ZM8.68137 8C9.11895 6.83481 10.2996 6 11.6875 6C13.0754 6 14.256 6.83481 14.6936 8H15.9375C16.5243 8 17 8.44772 17 9C17 9.55229 16.5243 10 15.9375 10H14.6936C14.256 11.1652 13.0754 12 11.6875 12C10.2996 12 9.11895 11.1652 8.68137 10H1.0625C0.475697 10 0 9.55229 0 9C0 8.44772 0.475697 8 1.0625 8H8.68137ZM5.3125 14C4.7257 14 4.25 14.4477 4.25 15C4.25 15.5523 4.7257 16 5.3125 16C5.8993 16 6.375 15.5523 6.375 15C6.375 14.4477 5.8993 14 5.3125 14ZM2.30638 14C2.74395 12.8348 3.92464 12 5.3125 12C6.70036 12 7.88105 12.8348 8.31863 14H15.9375C16.5243 14 17 14.4477 17 15C17 15.5523 16.5243 16 15.9375 16H8.31863C7.88105 17.1652 6.70036 18 5.3125 18C3.92464 18 2.74395 17.1652 2.30638 16H1.0625C0.475697 16 0 15.5523 0 15C0 14.4477 0.475697 14 1.0625 14H2.30638Z" fill="#0D0D0D"/>
</svg>
