<svg width="37" height="52" viewBox="0 0 37 52" fill="none" xmlns="http://www.w3.org/2000/svg">
<path d="M30.842 14.8118C30.7784 22.0939 28.2027 29.4078 25.4202 32.381C24.9114 32.9375 24.3708 33.3986 23.8302 33.8438C17.7884 38.7091 10.3631 37.0078 10.3631 37.0078C10.3631 37.0078 10.061 36.9283 9.55224 36.7216C6.81749 35.6404 -1.72064 31.1726 0.314519 18.0236C1.5229 10.3281 5.08446 4.93811 8.3916 1.44018C10.6971 -0.992477 14.6561 -0.229289 15.944 2.87115C17.518 6.63938 21.175 11.2662 29.57 14.4779L30.8261 14.7959L30.842 14.8118Z" fill="#BA5D56"/>
<path opacity="0.2" d="M9.55206 36.7216C10.0609 36.9283 10.363 37.0078 10.363 37.0078C10.363 37.0078 17.7882 38.6931 23.8301 33.8437C24.3706 33.3985 24.9112 32.9374 25.42 32.3809C28.2025 29.4077 30.7782 22.0938 30.8418 14.8118C30.8418 14.8118 27.6301 22.5708 23.8301 24.2403C20.0459 25.8939 15.8007 20.4085 10.3312 23.1909C8.16887 24.288 7.89849 26.5299 5.97463 26.4345C4.05076 26.3391 -0.369328 20.8378 0.934448 15.0344C0.695952 15.9883 0.489233 16.99 0.314336 18.0394C-1.73673 31.1726 6.81731 35.6563 9.55206 36.7375V36.7216Z" fill="#020B31"/>
<path d="M24.7838 47.438L23.8458 33.8279C17.8039 38.6932 10.3787 36.9919 10.3787 36.9919C10.3787 36.9919 10.0765 36.9124 9.56776 36.7057L8.40711 43.5426L6.54687 50.7451C6.54687 50.7451 19.7118 55.1017 24.7838 47.4221V47.438Z" fill="#BA5D56"/>
<g style="mix-blend-mode:multiply">
<path d="M10.3787 37.0078C10.3787 37.0078 17.8039 38.6932 23.8458 33.8438V34.0028C23.4483 34.5911 23.0508 35.1157 22.6533 35.545C22.1445 36.1015 21.6039 36.5626 21.0634 37.0078C16.5955 40.6011 11.3645 40.617 8.94779 40.3786L9.5678 36.7375C10.0766 36.9442 10.3787 37.0237 10.3787 37.0237V37.0078Z" fill="#A6645D"/>
</g>
<path d="M12.0007 13.4127C12.0007 13.4127 11.7463 15.9725 9.1864 17.7533C6.07006 19.9475 6.86507 21.124 9.10693 22.4755" stroke="#222222" stroke-width="0.692178" stroke-linecap="round" stroke-linejoin="round"/>
<g style="mix-blend-mode:multiply" opacity="0.5">
<path d="M19.6164 21.2354C18.9169 20.0906 17.7721 21.3149 17.7721 21.3149C17.7721 21.3149 17.1998 19.5659 16.1027 20.3132C15.1646 20.9651 16.1822 23.6044 16.9931 23.827C17.788 24.0496 20.2206 22.2053 19.6164 21.2195V21.2354Z" fill="#F43D4F"/>
</g>
<g style="mix-blend-mode:multiply" opacity="0.5">
<path d="M1.68162 21.4102C2.36531 20.2495 3.52594 21.4579 3.52594 21.4579C3.52594 21.4579 4.0665 19.693 5.17947 20.4244C6.13346 21.0604 5.16364 23.7157 4.35276 23.9542C3.55777 24.1927 1.09333 22.396 1.68162 21.4102Z" fill="#F43D4F"/>
</g>
<path d="M8.69338 26.1165C8.69338 26.1165 12.2549 27.5316 14.6558 24.2244" stroke="#222222" stroke-width="0.692178" stroke-linecap="round" stroke-linejoin="round"/>
<path d="M8.91582 8.67454C7.85054 8.51554 6.43544 8.56324 4.81367 9.29462" stroke="#222222" stroke-width="0.692178" stroke-linecap="round" stroke-linejoin="round"/>
<path d="M17.8514 16.688C17.9627 17.3876 17.4699 18.0395 16.7703 18.1508C16.0707 18.2621 15.4188 17.7692 15.3075 17.0696C15.1962 16.37 15.6891 15.7181 16.3887 15.6068C17.0883 15.4955 17.7401 15.9884 17.8514 16.688Z" fill="#222222"/>
<path d="M17.2631 10.3918C18.3125 10.6621 19.5685 11.2822 20.7769 12.586" stroke="#222222" stroke-width="0.692178" stroke-linecap="round" stroke-linejoin="round"/>
<path d="M6.14928 13.5081C5.60869 13.9692 5.56096 14.7801 6.02205 15.3206C6.48314 15.8612 7.29405 15.9089 7.83464 15.4478C8.37523 14.9868 8.42286 14.1759 7.96177 13.6353C7.50068 13.0947 6.68987 13.047 6.14928 13.5081Z" fill="#222222"/>
<path d="M29.2199 25.4488C29.2199 25.4488 34.7529 26.848 36.6291 21.2513C38.5052 15.6228 32.6541 15.0822 32.6541 15.0822C32.6541 15.0822 32.3679 19.4228 29.2357 25.4329L29.2199 25.4488Z" fill="#BA5D56"/>
<path d="M33.4968 17.4989C33.4968 17.4989 35.7387 17.8805 35.691 20.4404" stroke="#222222" stroke-width="0.692178" stroke-linecap="round" stroke-linejoin="round"/>
<path d="M34.6574 18.3416C34.6574 18.3416 34.4824 20.8219 32.2088 22.2211" stroke="#222222" stroke-width="0.692178" stroke-linecap="round" stroke-linejoin="round"/>
</svg>
