<svg width="57" height="59" viewBox="0 0 57 59" fill="none" xmlns="http://www.w3.org/2000/svg">
<rect width="57" height="59" rx="10" fill="#F36A21"/>
<path d="M30.5921 14H23.1429C19.7757 14 18.0921 14 17.046 15.046C16 16.0921 16 17.7757 16 21.1429V39C16 42.3672 16 44.0508 17.046 45.0968C18.0921 46.1429 19.7757 46.1429 23.1429 46.1429H33.8571C37.2243 46.1429 38.9079 46.1429 39.954 45.0968C41 44.0508 41 42.3672 41 39V24.4079C41 23.678 41 23.313 40.8641 22.9849C40.7281 22.6567 40.4701 22.3987 39.954 21.8825L33.1175 15.046C32.6013 14.5299 32.3433 14.2719 32.0151 14.1359C31.687 14 31.322 14 30.5921 14Z" fill="#F36A21" stroke="white" stroke-width="3.57143"/>
<path d="M30.2856 14V21.1429C30.2856 22.8264 30.2856 23.6682 30.8087 24.1913C31.3317 24.7143 32.1735 24.7143 33.8571 24.7143H40.9999" stroke="white" stroke-width="3.57143"/>
</svg>
