<svg width="252" height="209" viewBox="0 0 252 209" fill="none" xmlns="http://www.w3.org/2000/svg">
<path d="M171.676 10.0102C190.504 -12.8276 224.6 6.8322 214.445 34.6827C210.896 44.4174 202.895 72.7692 207.828 81.2506C223.377 107.998 231.889 170.286 163.716 176.091C94.3604 182.006 90.3904 105.622 90.3904 105.622L136.216 125.954C136.216 125.954 87.6835 237.075 21.4558 169.524C-5.92352 141.593 2.32737 93.4014 67.4022 83.3359C147.034 71.0248 60.9659 117.693 60.9659 117.693C60.9659 117.693 -27.448 74.2128 33.0953 20.3765C81.1971 -22.3918 145.089 37.6402 119.053 67.0447C93.017 96.4492 59.4721 46.5929 59.4721 46.5929C59.4721 46.5929 116.938 86.8448 170.263 11.1231C170.614 10.6218 171.295 10.4514 171.676 9.99019V10.0102Z" fill="white"/>
<path d="M150.422 89.1506H77.688V138.115H150.422V89.1506Z" fill="white"/>
<path d="M78.2695 95.3763H150.422" stroke="#222222" stroke-width="0.44" stroke-linecap="round" stroke-linejoin="round"/>
<path d="M144.487 90.6142L147.495 93.6219" stroke="#222222" stroke-width="0.44" stroke-linecap="round" stroke-linejoin="round"/>
<path d="M147.495 90.6142L144.487 93.6219" stroke="#222222" stroke-width="0.44" stroke-linecap="round" stroke-linejoin="round"/>
<path d="M158.021 63.9368H116.356V85.0904H158.021V63.9368Z" stroke="#222222" stroke-width="0.44" stroke-linecap="round" stroke-linejoin="round"/>
<path d="M123.013 79.5062L132.567 73.6012L138.482 77.8921L147.926 68.8692L151.364 71.9871" stroke="#222222" stroke-width="0.44" stroke-linecap="round" stroke-linejoin="round"/>
<path d="M133.218 73.6013C133.218 73.9522 132.928 74.2429 132.577 74.2429C132.226 74.2429 131.935 73.9522 131.935 73.6013C131.935 73.2504 132.226 72.9597 132.577 72.9597C132.928 72.9597 133.218 73.2504 133.218 73.6013Z" fill="#222222"/>
<path d="M123.654 79.5062C123.654 79.857 123.363 80.1478 123.013 80.1478C122.662 80.1478 122.371 79.857 122.371 79.5062C122.371 79.1553 122.662 78.8645 123.013 78.8645C123.363 78.8645 123.654 79.1553 123.654 79.5062Z" fill="#222222"/>
<path d="M139.124 77.8922C139.124 78.2431 138.833 78.5338 138.482 78.5338C138.131 78.5338 137.84 78.2431 137.84 77.8922C137.84 77.5413 138.131 77.2506 138.482 77.2506C138.833 77.2506 139.124 77.5413 139.124 77.8922Z" fill="#222222"/>
<path d="M151.364 72.6287C151.719 72.6287 152.006 72.3415 152.006 71.9871C152.006 71.6328 151.719 71.3455 151.364 71.3455C151.01 71.3455 150.723 71.6328 150.723 71.9871C150.723 72.3415 151.01 72.6287 151.364 72.6287Z" fill="#222222"/>
<path d="M29.5259 198.417C27.7915 194.016 25.5458 191.069 24.1823 189.535C25.5157 188.793 26.6486 187.76 27.4205 186.447L56.2335 137.644L48.2232 95.3464H60.1334C60.1334 95.3464 68.4845 134.636 69.1462 136.42C69.8179 138.205 69.7076 139.087 67.2514 142.877C65.116 146.175 40.7142 180.763 34.4884 189.575C33.5761 190.878 33.2553 192.492 33.6062 194.046L35.8519 203.871C35.8519 203.871 32.1826 205.205 29.5058 198.417H29.5259Z" fill="#A8504E"/>
<path d="M42.2181 208.874H32.313L19.9617 193.064C19.9617 193.064 21.8064 190.868 24.1924 189.525C25.5558 191.059 27.8015 193.996 29.5359 198.407C32.2027 205.195 35.882 203.861 35.882 203.861C35.882 203.861 42.2281 207.42 42.2281 208.874H42.2181Z" fill="#222222"/>
<path d="M30.7989 185.715C29.2851 187.781 26.488 189.315 27.9116 190.778" stroke="#222222" stroke-width="0.44" stroke-linecap="round" stroke-linejoin="round"/>
<path d="M36.4933 120.049C35.8216 108.921 38.0473 95.3364 38.0473 95.3364H50.0677L53.4062 150.326C53.4062 150.326 53.1856 189.505 53.4062 195.741C53.5164 198.738 58.5993 200.643 62.4591 202.408C62.1884 203.951 61.1458 206.167 57.4163 205.876C53.2157 205.545 48.0526 202.909 44.8344 202.047C45.9372 198.187 46.218 194.157 45.6465 190.187C43.3206 173.825 37.0347 129.112 36.4833 120.059L36.4933 120.049Z" fill="#BA5D56"/>
<path d="M48.3233 194.879C48.3233 197.435 46.9899 200.332 48.995 200.663" stroke="#222222" stroke-width="0.44" stroke-linecap="round" stroke-linejoin="round"/>
<path d="M46.5488 3.48367C38.0673 5.45868 35.7314 10.6117 36.7239 18.4917C37.5661 25.1285 19.7008 32.818 30.7187 42.6028C41.7366 52.3775 69.2764 41.5501 70.2288 32.5473C71.1812 23.5545 63.8326 23.0131 61.9578 14.9828C60.0931 6.95246 56.2835 1.21794 46.5388 3.48367H46.5488Z" fill="#222222"/>
<path d="M61.8881 37.6302C61.8881 37.6302 66.9609 37.2292 71.4623 42.9436C75.9637 48.6581 83.3725 55.6558 83.3725 55.6558L88.1947 38.6728L93.4681 39.0437C93.4681 39.0437 92.5357 58.0719 92.5357 61.8515C92.5357 65.6311 88.1145 71.4258 82.1594 67.8066C76.2043 64.1874 63.2515 52.0367 63.2515 52.0367C63.2515 52.0367 58.0183 40.6979 61.8881 37.6402V37.6302Z" fill="#F36A21"/>
<path d="M66.8704 87.5066C66.8704 87.5066 52.3938 93.9429 36.1426 86.0629C36.1426 86.0629 25.2551 108.64 30.1875 138.456C30.1875 138.456 49.4964 145.534 75.2316 138.456L66.8704 87.5066Z" fill="#222222"/>
<path d="M65.2663 53.4001C62.0481 47.9262 61.8877 37.6301 61.8877 37.6301C43.8721 33.2891 36.9446 41.1691 36.9446 41.1691C31.962 51.3048 39.8419 73.9922 39.8419 73.9922L36.1425 86.0628C52.3937 93.9428 66.8704 87.5064 66.8704 87.5064L65.4267 76.248L65.5871 68.2076C71.3818 63.8666 68.4844 58.874 65.2663 53.4101V53.4001Z" fill="#F36A21"/>
<path opacity="0.3" d="M38.1576 86.9651C38.1576 86.9651 33.596 97.0807 33.1649 113.111C32.7338 129.142 34.4381 139.649 34.4381 139.649" stroke="white" stroke-width="0.44" stroke-miterlimit="10"/>
<path d="M66.8703 87.5065L65.4266 76.248L65.5871 68.2076C71.3817 63.8667 68.4844 58.874 65.2662 53.4102C62.0481 47.9363 61.8877 37.6402 61.8877 37.6402" stroke="#222222" stroke-width="0.44" stroke-linecap="round" stroke-linejoin="round"/>
<path d="M41.5062 18.612C41.416 22.8829 42.7995 27.2339 44.3735 29.0284C44.6642 29.3592 44.975 29.65 45.2858 29.9106C48.7446 32.8782 53.1357 32.016 53.1357 32.016C53.1357 32.016 53.3161 31.9759 53.6169 31.8656C55.241 31.2841 60.3439 28.8079 59.3715 21.0482C58.2185 11.8549 51.2008 8.03524 51.2008 8.03524C51.2008 8.03524 52.1031 15.0029 42.2381 18.4516L41.4962 18.612H41.5062Z" fill="#BA5D56"/>
<path d="M54.4387 39.7456L53.6266 31.8656C53.3259 31.9759 53.1454 32.016 53.1454 32.016C53.1454 32.016 48.7543 32.8782 45.2955 29.9107L44.7241 37.149C44.7241 37.149 46.2079 40.9286 54.4487 39.7456H54.4387Z" fill="#BA5D56"/>
<g style="mix-blend-mode:multiply">
<path d="M53.1355 32.016C53.1355 32.016 48.7443 32.8782 45.2856 29.9107V30.0009C45.5061 30.3518 45.7267 30.6726 45.9472 30.9333C46.238 31.2641 46.5488 31.5549 46.8596 31.8155C49.4261 34.0111 52.4938 34.1013 53.9174 34.0111L53.6167 31.8556C53.3159 31.9659 53.1355 32.006 53.1355 32.006V32.016Z" fill="#F47365"/>
</g>
<path d="M41.4258 24.557C41.4258 24.557 38.4683 24.6673 38.1375 21.6095C37.8066 18.5317 40.8243 18.9026 40.8243 18.9026C40.8243 18.9026 40.4935 21.1483 41.4158 24.567L41.4258 24.557Z" fill="#BA5D56"/>
<path d="M40.1327 20.0256C40.1327 20.0256 38.9497 19.9755 38.6991 21.2888" stroke="#222222" stroke-width="0.44" stroke-linecap="round" stroke-linejoin="round"/>
<path d="M39.4507 20.3264C39.4507 20.3264 39.2603 21.6096 40.2628 22.5821" stroke="#222222" stroke-width="0.44" stroke-linecap="round" stroke-linejoin="round"/>
<path d="M39.5012 24.1159C39.5613 24.537 39.9523 24.8177 40.3734 24.7575C40.7945 24.6974 41.0752 24.3064 41.015 23.8853C40.9549 23.4642 40.5639 23.1836 40.1428 23.2437C39.7217 23.3039 39.441 23.6948 39.5012 24.1159Z" fill="#F36A21"/>
<path d="M60.1632 21.7098C60.1632 21.7098 63.0205 20.9378 62.429 17.9202C61.8275 14.8825 59.0504 16.1357 59.0504 16.1357C59.0504 16.1357 60.0329 18.1808 60.1632 21.7198V21.7098Z" fill="#BA5D56"/>
<path d="M60.053 16.9978C60.053 16.9978 61.1658 16.5967 61.7974 17.7797" stroke="#222222" stroke-width="0.44" stroke-linecap="round" stroke-linejoin="round"/>
<path d="M60.7947 17.0882C60.7947 17.0882 61.3561 18.2612 60.6844 19.4742" stroke="#222222" stroke-width="0.44" stroke-linecap="round" stroke-linejoin="round"/>
<path d="M61.8676 20.7171C61.9278 21.1382 61.6471 21.5292 61.226 21.5893C60.8049 21.6495 60.414 21.3688 60.3538 20.9477C60.2936 20.5267 60.5744 20.1357 60.9954 20.0755C61.4165 20.0154 61.8075 20.2961 61.8676 20.7171Z" fill="#F36A21"/>
<path d="M48.9349 16.8674C48.4136 17.1983 47.8321 17.7497 47.4111 18.672" stroke="#222222" stroke-width="0.44" stroke-linecap="round" stroke-linejoin="round"/>
<path d="M53.9075 16.0054C54.5291 16.0555 55.291 16.266 56.1031 16.8776" stroke="#222222" stroke-width="0.44" stroke-linecap="round" stroke-linejoin="round"/>
<path d="M52.2334 18.241C52.2334 18.241 52.3837 19.6947 53.8374 20.7173C55.6119 21.9604 55.1608 22.6422 53.8775 23.4041" stroke="#222222" stroke-width="0.44" stroke-linecap="round" stroke-linejoin="round"/>
<g style="mix-blend-mode:multiply" opacity="0.5">
<path d="M47.8921 22.4717C48.2931 21.82 48.9448 22.5218 48.9448 22.5218C48.9448 22.5218 49.2756 21.5193 49.8972 21.9503C50.4386 22.3213 49.8471 23.8251 49.3959 23.9554C48.9348 24.0858 47.5513 23.0331 47.9021 22.4717H47.8921Z" fill="#F43D4F"/>
</g>
<g style="mix-blend-mode:multiply" opacity="0.5">
<path d="M57.7872 21.7298C57.3962 21.0682 56.7345 21.7599 56.7345 21.7599C56.7345 21.7599 56.4238 20.7574 55.7922 21.1684C55.2508 21.5293 55.8022 23.0432 56.2634 23.1835C56.7145 23.3239 58.1181 22.2913 57.7872 21.7298Z" fill="#F43D4F"/>
</g>
<path d="M54.1179 25.4792C54.1179 25.4792 52.0827 26.2913 50.7193 24.4065" stroke="#222222" stroke-width="0.44" stroke-linecap="round" stroke-linejoin="round"/>
<path d="M88.2144 38.6628C88.2144 38.6628 86.3297 36.9685 85.8384 33.7904C85.3472 30.6124 83.5226 25.349 83.5226 25.349C83.5226 25.349 84.6955 24.5169 86.0489 27.9958C87.4024 31.4746 87.9237 30.462 87.9237 30.462L89.9187 17.9102C89.9187 17.9102 91.8737 17.3889 90.6406 25.9105L93.0166 17.0982C93.0166 17.0982 94.0392 16.9979 94.1495 18.1007L94.3399 17.2986C94.3399 17.2986 96.0844 17.419 95.0618 23.5244C94.38 27.5647 94.8111 27.8554 95.6733 25.1887C96.5355 22.5219 97.2874 20.7574 98.2298 21.0281L95.2322 36.367C94.7209 38.4723 93.4778 39.0437 93.4778 39.0437" fill="#BA5D56"/>
<path d="M87.9136 30.4521C87.9136 30.4521 90.6104 30.9133 91.0716 34.9735" stroke="#222222" stroke-width="0.44" stroke-linecap="round" stroke-linejoin="round"/>
<path d="M89.668 26.0309C89.668 26.0309 92.5954 25.3893 95.3023 27.8956" stroke="#222222" stroke-width="0.44" stroke-linecap="round" stroke-linejoin="round"/>
<path d="M94.1395 18.0907L92.6257 26.3015" stroke="#222222" stroke-width="0.44" stroke-linecap="round" stroke-linejoin="round"/>
<path d="M54.2785 68.298C54.2785 68.298 47.742 72.2179 42.208 68.298" stroke="#222222" stroke-width="0.44" stroke-linecap="round" stroke-linejoin="round"/>
<path d="M53.948 41.5199C53.9981 41.8207 54.2788 42.0212 54.5796 41.9711C54.8803 41.9209 55.0809 41.6402 55.0307 41.3395C54.9806 41.0387 54.6999 40.8382 54.3991 40.8883C54.0984 40.9384 53.8979 41.2191 53.948 41.5199Z" fill="#222222"/>
<path d="M54.369 44.6881C54.4191 44.9889 54.6998 45.1894 55.0006 45.1392C55.3013 45.0891 55.5018 44.8084 55.4517 44.5076C55.4016 44.2069 55.1209 44.0064 54.8201 44.0565C54.5194 44.1066 54.3189 44.3873 54.369 44.6881Z" fill="#222222"/>
<path d="M69.2066 208.874C69.1264 206.809 67.4121 205.315 65.3268 203.911C64.5749 203.4 63.5724 202.909 62.4696 202.408C62.1989 203.951 61.1562 206.167 57.4268 205.876C53.2262 205.545 48.0631 202.909 44.8449 202.047C44.8449 202.047 43.2008 204.894 44.7346 208.884H69.2066V208.874Z" fill="#222222"/>
<path d="M55.6921 18.5318C55.9327 18.8426 55.8625 19.2837 55.5517 19.5243C55.2409 19.7649 54.7998 19.6948 54.5592 19.384C54.3186 19.0732 54.3888 18.6321 54.6996 18.3915C55.0104 18.1509 55.4515 18.221 55.6921 18.5318Z" fill="#222222"/>
<path d="M57.3663 18.2209C56.875 18.5618 56.1532 18.8626 55.1808 18.8826" stroke="#222222" stroke-width="0.44" stroke-linecap="round" stroke-linejoin="round"/>
<path d="M57.0257 17.4389C56.6647 17.9202 56.0933 18.4415 55.171 18.7823" stroke="#222222" stroke-width="0.44" stroke-linecap="round" stroke-linejoin="round"/>
<path d="M49.1756 20.0757C49.0353 20.4466 49.2258 20.8476 49.5867 20.988C49.9576 21.1283 50.3586 20.9378 50.499 20.5769C50.6393 20.206 50.4489 19.805 50.0879 19.6646C49.717 19.5243 49.316 19.7147 49.1756 20.0757Z" fill="#222222"/>
<path d="M47.4816 20.2561C48.053 20.4366 48.825 20.5268 49.7674 20.2662" stroke="#222222" stroke-width="0.44" stroke-linecap="round" stroke-linejoin="round"/>
<path d="M47.5814 19.4041C48.0627 19.765 48.7644 20.0959 49.7369 20.1661" stroke="#222222" stroke-width="0.44" stroke-linecap="round" stroke-linejoin="round"/>
<path d="M92.9064 40.8983C92.8563 41.1791 92.6658 41.3294 92.4854 41.2593C92.3049 41.1791 92.2047 40.8883 92.2548 40.6176C92.3049 40.3369 92.4954 40.1866 92.6758 40.2567C92.8563 40.3369 92.9566 40.6277 92.9064 40.8983Z" fill="#222222"/>
<path d="M87.1817 42.2119L93.2872 42.8435" stroke="#222222" stroke-width="0.44" stroke-linecap="round" stroke-linejoin="round"/>
<path d="M47.702 59.8865L71.1815 79.3558L45.4964 110.244L21.7763 91.9277L47.702 59.8865Z" fill="#4756C1"/>
<path d="M47.2308 61.6209L69.3769 78.1126L47.6118 107.256L25.3053 91.8174L47.2308 61.6209Z" fill="#DBDBDB"/>
<path d="M47.2509 62.1523L69.397 78.644L45.3661 108.059L25.3254 92.3387L47.2509 62.1523Z" fill="white"/>
<path d="M62.4193 70.4132C61.6373 71.3857 60.2237 71.5361 59.2512 70.7641C58.2788 69.9822 58.1284 68.5686 58.9004 67.5961C59.6823 66.6236 61.0959 66.4733 62.0684 67.2452C63.0408 68.0272 63.1912 69.4408 62.4193 70.4132Z" fill="#222222"/>
<path d="M58.1824 67.0116L63.1785 71.0214C64.3044 71.925 64.4849 73.574 63.5813 74.6999L63.3994 74.9266L54.3219 67.6412L54.5039 67.4145C55.4075 66.2886 57.0565 66.108 58.1824 67.0116Z" fill="#222222"/>
<path d="M50.7798 98.5645C50.7798 98.5645 52.6746 98.0231 53.5569 99.0858C54.4391 100.148 60.4644 105.642 60.4644 105.642C60.4644 105.642 60.324 107.056 58.2688 105.532C56.2236 104.008 55.1409 102.735 54.6496 103.778C54.1584 104.82 57.3866 107.698 60.1436 114.024C60.1436 114.024 60.9055 115.066 60.1135 115.758L57.7976 113.111C57.7976 113.111 53.2962 113.161 51.6721 112.259C50.048 111.357 48.2935 106.204 46.7196 103.908C45.0854 101.532 44.143 100.489 44.143 100.489L48.7046 96.7198L50.7698 98.5745L50.7798 98.5645Z" fill="#BA5D56"/>
<path d="M57.8077 113.111L54.9805 108.65" stroke="#020B31" stroke-width="0.44" stroke-linecap="round" stroke-linejoin="round"/>
<path d="M55.632 113.041L53.3162 109.653" stroke="#020B31" stroke-width="0.44" stroke-linecap="round" stroke-linejoin="round"/>
<path d="M53.517 112.811L51.8829 110.465" stroke="#020B31" stroke-width="0.44" stroke-linecap="round" stroke-linejoin="round"/>
<path d="M39.7519 46.9638C40.193 52.9991 39.7819 59.0645 38.5989 64.9995C37.5964 70.0022 36.7944 76.1578 37.9673 79.5664C40.1529 85.9526 48.7246 96.7198 48.7246 96.7198L44.3535 101.031C44.3535 101.031 30.7491 86.8849 28.9144 81.5214C26.3279 73.9722 28.1224 59.4053 29.4057 53.6107C31.5611 43.886 36.6239 40.8183 39.2305 39.8759L39.7519 46.9738V46.9638Z" fill="#F36A21"/>
<path d="M41.3557 97.8227L46.4787 93.7724" stroke="#222222" stroke-width="0.44" stroke-linecap="round" stroke-linejoin="round"/>
<path d="M43.9725 99.0456C44.0527 99.3163 43.9625 99.5469 43.762 99.5569C43.5615 99.567 43.3409 99.3564 43.2607 99.0958C43.1805 98.8251 43.2707 98.5945 43.4712 98.5845C43.6717 98.5745 43.8923 98.785 43.9725 99.0456Z" fill="#222222"/>
<path d="M39.7516 46.9639C40.1928 52.9992 39.7817 59.0645 38.5987 64.9996C37.5962 70.0022 36.7942 76.1578 37.9671 79.5665C40.1527 85.9526 48.7244 96.7199 48.7244 96.7199" stroke="#222222" stroke-width="0.44" stroke-linecap="round" stroke-linejoin="round"/>
<path d="M186.483 201.204C186.483 201.204 186.453 201.104 186.433 201.054C185.722 199.159 185.371 193.445 185.371 190.096L177.932 191.249L178.172 198.066C178.212 199.209 177.892 200.843 176.799 201.194C175.325 201.665 173.13 202.257 171.135 202.889C171.846 203.46 172.939 204.052 174.443 204.082C176.839 204.132 182.864 201.485 186.483 201.194V201.204Z" fill="#E8655B"/>
<path d="M219.256 197.244C219.256 197.244 219.196 197.154 219.166 197.114C218.013 195.45 216.279 189.996 215.467 186.748L208.529 189.675L210.424 196.232C210.745 197.335 210.835 198.989 209.852 199.59C208.539 200.402 206.554 201.515 204.77 202.618C205.602 202.999 206.805 203.31 208.268 202.969C210.604 202.438 215.808 198.397 219.246 197.234L219.256 197.244Z" fill="#E8655B"/>
<path d="M166.242 203.149L178.152 196.081L180.137 197.505C180.137 197.505 180.448 200.051 182.242 200.232C184.037 200.422 185.962 197.936 185.962 197.936C188.007 199.751 188.007 202.899 187.716 205.004H160.938C162.883 203.851 166.242 203.139 166.242 203.139V203.149Z" fill="#7F8284"/>
<path d="M203.687 203.921L209.451 194.678L211.868 195.029C211.868 195.029 213.311 197.144 214.995 196.482C216.68 195.821 217.241 192.733 217.241 192.733C219.898 193.405 221.342 196.202 222.053 198.207L206.785 207.18H199.486C200.689 205.265 203.687 203.921 203.687 203.921Z" fill="#7F8284"/>
<path d="M158.613 41.7204C159.074 34.3919 163.575 38.1514 163.946 32.3066C164.317 26.4517 169.009 30.6324 169.38 24.7474C169.781 18.4114 171.295 18.5317 174.262 18.4114C177.33 18.2811 175.355 9.49882 179.937 9.78955C184.518 10.0803 181.381 3.30313 186.644 5.21798L186.764 4.86708C186.764 4.86708 187.526 1.76923 189.661 3.01238C191.697 4.19538 192.97 1.68904 196.469 2.90212C199.968 4.11519 199.166 6.13029 200.569 7.16291C201.973 8.19552 204.449 6.98244 204.519 11.7244C204.218 16.5266 209.923 12.1956 209.582 17.5793C209.341 21.3789 211.848 19.6646 213.692 22.6822C215.647 25.8903 211.868 30.7226 214.194 30.8729C216.519 31.0233 217.101 32.3166 216.86 36.1162C216.62 39.9159 220.61 37.3493 220.079 45.6303L158.603 41.7405L158.613 41.7204Z" fill="#222222"/>
<path d="M198.965 76.6791C198.965 76.6791 205.13 86.9952 205.932 95.3062C206.734 103.617 217.241 192.743 217.241 192.743L208.168 196.733L196.559 148.902L186.112 98.2537V148.631L185.962 197.946L175.315 197.766L171.646 146.486C171.646 146.486 166.282 93.1608 168.427 87.5265C170.573 81.9023 172.047 76.669 172.047 76.669H198.975L198.965 76.6791Z" fill="#222222"/>
<path d="M176.258 36.1264L151.365 55.4453L136.647 40.6679L132.808 44.9688L147.906 66.2728C147.906 66.2728 151.154 69.9922 155.004 67.4557C158.853 64.9193 170.132 57.2399 170.132 57.2399L176.268 36.1264H176.258Z" fill="#F47365"/>
<path d="M176.257 36.1264L153.981 53.4102L159.134 64.6787C163.906 61.4606 170.112 57.2399 170.112 57.2399L176.247 36.1264H176.257Z" fill="#F36A21"/>
<path d="M136.637 40.6679C136.637 40.6679 137.239 39.0036 136.336 38.1615C135.434 37.3094 130.882 31.5949 130.882 31.5949C130.882 31.5949 129.619 31.645 130.852 33.5598C132.085 35.4847 133.168 36.5173 132.206 36.8983C131.243 37.2793 128.857 34.2215 123.373 31.3743C123.373 31.3743 122.491 30.6324 121.83 31.2941L124.055 33.5197C124.055 33.5197 123.744 37.5399 124.446 39.0437C125.158 40.5475 129.659 42.4223 131.614 43.9662C133.639 45.5602 134.311 46.5928 134.311 46.5928L138.171 42.6128L136.637 40.6578V40.6679Z" fill="#F47365"/>
<path d="M124.055 33.5297L127.875 36.3268" stroke="#020B31" stroke-width="0.44" stroke-linecap="round" stroke-linejoin="round"/>
<path d="M123.995 35.4746L126.882 37.7504" stroke="#020B31" stroke-width="0.44" stroke-linecap="round" stroke-linejoin="round"/>
<path d="M124.075 37.3796L126.071 38.9836" stroke="#020B31" stroke-width="0.44" stroke-linecap="round" stroke-linejoin="round"/>
<path d="M207.577 40.6677C207.577 40.6677 204.078 35.655 186.513 34.6825C182.192 34.4419 178.844 35.0534 176.257 36.1262C176.257 36.1262 170.653 49.5702 168.698 51.7658C166.743 53.9613 167.966 56.6481 168.698 57.38C169.43 58.1119 168.417 87.5364 168.417 87.5364C168.417 87.5364 182.694 91.1656 203.195 85.3108C203.195 85.3108 197.15 70.4331 201.05 62.6233C204.649 55.415 207.577 40.6677 207.577 40.6677Z" fill="#F36A21"/>
<path d="M176.257 36.1262C176.257 36.1262 170.653 49.5702 168.698 51.7658C166.743 53.9613 167.966 56.6481 168.698 57.38C169.43 58.1118 168.417 87.5364 168.417 87.5364" stroke="#222222" stroke-width="0.44" stroke-linecap="round" stroke-linejoin="round"/>
<path d="M180.478 21.2386C180.478 21.2386 177.671 20.2361 178.503 17.2585C179.335 14.2509 182.032 15.7246 182.032 15.7246C182.032 15.7246 180.889 17.6996 180.488 21.2486L180.478 21.2386Z" fill="#F47365"/>
<path d="M180.949 16.5166C180.949 16.5166 179.867 16.0354 179.135 17.1683" stroke="#222222" stroke-width="0.44" stroke-linecap="round" stroke-linejoin="round"/>
<path d="M180.198 16.5468C180.198 16.5468 179.546 17.6797 180.118 18.9529" stroke="#222222" stroke-width="0.44" stroke-linecap="round" stroke-linejoin="round"/>
<path d="M198.354 18.3112C198.304 22.3314 196.85 26.3716 195.316 28.0058C195.025 28.3065 194.734 28.5672 194.434 28.8078C191.085 31.4745 186.985 30.5221 186.985 30.5221C186.985 30.5221 186.814 30.472 186.534 30.3617C185.03 29.7602 180.318 27.2639 181.491 20.0055C182.173 15.7547 184.168 12.7872 186.002 10.8724C187.286 9.52897 189.471 9.97008 190.173 11.6844C191.025 13.7697 193.04 16.3362 197.672 18.1408L198.364 18.3212L198.354 18.3112Z" fill="#F47365"/>
<path d="M194.905 36.3269L194.424 28.8078C191.075 31.4746 186.975 30.5222 186.975 30.5222C186.975 30.5222 186.804 30.472 186.524 30.3617L185.862 34.1413L184.809 38.1114C184.809 38.1114 192.068 40.5576 194.905 36.3269Z" fill="#F47365"/>
<g style="mix-blend-mode:multiply">
<path d="M186.975 30.5222C186.975 30.5222 191.075 31.4746 194.424 28.8078V28.898C194.203 29.2289 193.982 29.5096 193.762 29.7502C193.471 30.051 193.18 30.3116 192.88 30.5522C190.393 32.5272 187.506 32.5172 186.173 32.3769L186.524 30.3617C186.804 30.472 186.975 30.5222 186.975 30.5222Z" fill="#F47365"/>
</g>
<path d="M187.947 17.4791C187.947 17.4791 187.797 18.8926 186.383 19.8751C184.659 21.0782 185.09 21.7298 186.333 22.4817" stroke="#222222" stroke-width="0.44" stroke-linecap="round" stroke-linejoin="round"/>
<g style="mix-blend-mode:multiply" opacity="0.5">
<path d="M192.128 21.8302C191.737 21.1986 191.105 21.8703 191.105 21.8703C191.105 21.8703 190.795 20.8978 190.183 21.3088C189.662 21.6697 190.223 23.1234 190.664 23.2538C191.105 23.3841 192.459 22.3615 192.128 21.8201V21.8302Z" fill="#F43D4F"/>
</g>
<g style="mix-blend-mode:multiply" opacity="0.5">
<path d="M182.213 21.8703C182.594 21.2387 183.235 21.9004 183.235 21.9004C183.235 21.9004 183.536 20.9279 184.148 21.3389C184.679 21.6898 184.127 23.1535 183.686 23.2839C183.245 23.4142 181.892 22.4117 182.213 21.8703Z" fill="#F43D4F"/>
</g>
<path d="M186.072 24.4969C186.072 24.4969 188.037 25.2888 189.371 23.4742" stroke="#222222" stroke-width="0.44" stroke-linecap="round" stroke-linejoin="round"/>
<path d="M186.253 14.8524C185.661 14.7621 184.889 14.7822 183.987 15.1832" stroke="#222222" stroke-width="0.44" stroke-linecap="round" stroke-linejoin="round"/>
<path d="M191.165 19.3138C191.226 19.7047 190.955 20.0557 190.564 20.1158C190.173 20.176 189.822 19.9053 189.762 19.5143C189.702 19.1233 189.972 18.7724 190.363 18.7122C190.754 18.6521 191.105 18.9228 191.165 19.3138Z" fill="#222222"/>
<path d="M190.854 15.835C191.436 15.9954 192.128 16.3363 192.789 17.0581" stroke="#222222" stroke-width="0.44" stroke-linecap="round" stroke-linejoin="round"/>
<path d="M192.779 19.845C192.178 19.9051 191.416 19.8249 190.544 19.3738" stroke="#222222" stroke-width="0.44" stroke-linecap="round" stroke-linejoin="round"/>
<path d="M192.859 18.9929C192.318 19.2436 191.556 19.414 190.584 19.2736" stroke="#222222" stroke-width="0.44" stroke-linecap="round" stroke-linejoin="round"/>
<path d="M184.709 17.5191C184.408 17.7697 184.378 18.2208 184.629 18.5216C184.879 18.8224 185.33 18.8525 185.631 18.6018C185.932 18.3512 185.962 17.9 185.711 17.5993C185.461 17.2985 185.01 17.2684 184.709 17.5191Z" fill="#222222"/>
<path d="M183.145 16.8576C183.556 17.2887 184.188 17.7399 185.14 17.9704" stroke="#222222" stroke-width="0.44" stroke-linecap="round" stroke-linejoin="round"/>
<path d="M183.646 16.1657C183.897 16.7071 184.348 17.3386 185.17 17.87" stroke="#222222" stroke-width="0.44" stroke-linecap="round" stroke-linejoin="round"/>
<path d="M197.612 25.6398C197.612 25.6398 201.361 26.2112 202.233 22.3615C203.106 18.4817 199.206 18.5117 199.206 18.5117C199.206 18.5117 199.296 21.4191 197.622 25.6398H197.612Z" fill="#F47365"/>
<path d="M199.928 20.0657C199.928 20.0657 201.442 20.176 201.572 21.8903" stroke="#222222" stroke-width="0.44" stroke-linecap="round" stroke-linejoin="round"/>
<path d="M200.75 20.5469C200.75 20.5469 200.8 22.2111 199.386 23.2939" stroke="#222222" stroke-width="0.44" stroke-linecap="round" stroke-linejoin="round"/>
<path d="M172.769 199.269L175.305 200.623" stroke="#222222" stroke-width="0.44" stroke-linecap="round" stroke-linejoin="round"/>
<path d="M170.533 200.623L173.069 201.976" stroke="#222222" stroke-width="0.44" stroke-linecap="round" stroke-linejoin="round"/>
<path d="M159.605 207.179V206.377C159.735 205.876 160.247 205.415 160.939 205.014H187.716C187.546 206.287 187.255 207.179 187.255 207.179H159.595H159.605Z" fill="#222222"/>
<path d="M206.143 199.971L209.02 200.011" stroke="#222222" stroke-width="0.44" stroke-linecap="round" stroke-linejoin="round"/>
<path d="M204.78 202.207L207.657 202.237" stroke="#222222" stroke-width="0.44" stroke-linecap="round" stroke-linejoin="round"/>
<path d="M199.486 207.18C199.486 207.18 198.193 207.871 198.193 208.874H207.927L223.387 199.269C223.387 199.269 223.427 198.417 222.043 198.207L206.775 207.18H199.476H199.486Z" fill="#222222"/>
<path d="M183.365 58.3325C183.365 58.3325 187.756 62.3427 192.599 60.1972" stroke="#222222" stroke-width="0.44" stroke-linecap="round" stroke-linejoin="round"/>
<path d="M185.391 39.6953C185.28 39.976 184.97 40.1163 184.689 40.0061C184.408 39.8958 184.268 39.585 184.378 39.3043C184.488 39.0236 184.799 38.8832 185.08 38.9935C185.361 39.1038 185.501 39.4146 185.391 39.6953Z" fill="#222222"/>
<path d="M184.338 42.7129C184.227 42.9936 183.917 43.134 183.636 43.0237C183.355 42.9134 183.215 42.6026 183.325 42.3219C183.435 42.0412 183.746 41.9009 184.027 42.0111C184.308 42.1214 184.448 42.4322 184.338 42.7129Z" fill="#222222"/>
<path d="M180.648 20.8577C180.709 21.2787 180.428 21.6697 180.007 21.7299C179.586 21.79 179.195 21.5093 179.135 21.0882C179.074 20.6672 179.355 20.2762 179.776 20.216C180.197 20.1559 180.588 20.4366 180.648 20.8577Z" fill="#F36A21"/>
<path d="M199.105 25.3189C199.165 25.7399 198.885 26.131 198.464 26.1911C198.043 26.2513 197.652 25.9705 197.591 25.5495C197.531 25.1284 197.812 24.7374 198.233 24.6773C198.654 24.6171 199.045 24.8978 199.105 25.3189Z" fill="#F36A21"/>
<path opacity="0.3" d="M200.368 86.0627C200.368 86.0627 203.456 107.808 206.153 129.573C208.85 151.338 215.025 193.725 215.025 193.725" stroke="white" stroke-width="0.44" stroke-miterlimit="10"/>
<path opacity="0.3" d="M186.102 98.2537C186.102 98.2537 183.997 102.043 183.786 123.417C183.596 142.045 183.786 197.946 183.786 197.946" stroke="white" stroke-width="0.44" stroke-miterlimit="10"/>
<path d="M232.931 38.1814L228.881 38.9232C228.881 38.9232 228.53 37.7904 227.918 37.0986C226.976 36.0359 226.916 33.7902 226.885 32.3466C226.855 30.9029 225.863 30.4417 225.602 30.4618C225.512 30.4618 225.452 30.4919 225.432 31.2839C225.392 32.4067 224.439 37.8104 224.419 38.2315C224.399 38.6525 224.941 42.3319 224.981 43.0738C224.981 43.2342 224.981 43.3946 224.971 43.565C224.921 44.1264 224.73 44.6778 224.469 45.1791L215.827 61.7009L207.516 40.6476L201.972 59.2547C201.972 59.2547 209.892 71.9368 211.627 74.0722C213.361 76.2077 218.133 77.942 220.65 73.9419C222.905 70.3628 229.001 50.0915 230.254 45.9109C230.364 45.53 230.475 45.149 230.555 44.758C230.675 44.1966 230.906 43.3244 231.297 42.6226C231.928 41.4797 232.8 39.1037 232.931 38.1713V38.1814Z" fill="#F47365"/>
<path d="M231.277 42.6327C231.908 41.4898 232.8 39.1138 232.931 38.1814" stroke="#222222" stroke-width="0.44" stroke-linecap="round" stroke-linejoin="round"/>
<path d="M228.469 42.5825C230.134 41.4596 228.78 38.1112 227.898 37.1086C227.016 36.1061 226.895 33.8003 226.865 32.3566C226.835 30.913 225.843 30.4518 225.582 30.4718" stroke="#222222" stroke-width="0.44" stroke-linecap="round" stroke-linejoin="round"/>
<path d="M215.015 59.6357L207.526 40.6677C205.2 43.6352 203.697 47.1641 203.165 50.9036L201.982 59.2748C201.982 59.2748 206.233 66.072 209.18 70.5534L215.015 59.6457V59.6357Z" fill="#F36A21"/>
<path d="M218.354 23.013L233.292 45.2293C233.723 45.8709 234.595 46.0613 235.257 45.6503L251.318 35.665C251.999 35.244 252.21 34.3316 251.769 33.6599L237.302 11.193C236.871 10.5314 235.999 10.3309 235.327 10.7419L218.785 20.9778C218.093 21.4089 217.893 22.3313 218.344 23.013H218.354Z" fill="#C1C1C1"/>
<path d="M243.197 38.3218C243.337 38.8632 243.016 39.4246 242.475 39.575C241.934 39.7154 241.372 39.3945 241.222 38.8532C241.082 38.3118 241.402 37.7504 241.944 37.6C242.485 37.4596 243.046 37.7805 243.197 38.3218Z" fill="#222222"/>
<path d="M221.572 23.3939L233.472 40.8982C233.833 41.4396 234.565 41.59 235.116 41.2391L247.748 33.309C248.32 32.9481 248.49 32.1962 248.119 31.6248L236.6 13.9199C236.239 13.3685 235.507 13.2081 234.946 13.559L221.943 21.6996C221.362 22.0605 221.201 22.8325 221.582 23.404L221.572 23.3939Z" fill="white"/>
<path d="M228.881 38.9232C228.881 38.9232 228.53 37.7904 227.918 37.0986C226.976 36.0359 226.916 33.7902 226.886 32.3466C226.856 30.9029 225.863 30.4417 225.602 30.4618C225.512 30.4618 225.452 30.4919 225.432 31.2839C225.392 32.4067 224.44 37.8104 224.419 38.2315C224.399 38.6525 224.941 42.3319 224.981 43.0738C224.981 43.2342 224.981 43.3946 224.971 43.565C224.921 44.1264 224.73 44.6778 224.47 45.1791" fill="#F47365"/>
<path d="M228.47 42.5825C230.134 41.4596 228.781 38.1112 227.898 37.1086C227.016 36.1061 226.896 33.8003 226.866 32.3566C226.836 30.913 225.843 30.4518 225.583 30.4718" stroke="#222222" stroke-width="0.44" stroke-linecap="round" stroke-linejoin="round"/>
<path d="M133.409 19.5745L135.404 15.8049L123.785 21.7901L141.951 25.0984L133.409 19.5745Z" stroke="#222222" stroke-width="0.44" stroke-linecap="round" stroke-linejoin="round"/>
<path d="M111.795 40.1767C112.055 41.3296 111.343 42.4825 110.18 42.7532C109.028 43.0139 107.875 42.3021 107.604 41.1391C107.343 39.9862 108.055 38.8333 109.218 38.5626C110.371 38.302 111.524 39.0138 111.795 40.1767Z" stroke="#222222" stroke-width="0.44" stroke-linecap="round" stroke-linejoin="round"/>
<path d="M222.224 82.7243C222.485 83.8773 221.773 85.0302 220.61 85.3009C219.457 85.5615 218.304 84.8497 218.033 83.6868C217.773 82.5338 218.485 81.3809 219.648 81.1103C220.811 80.8396 221.953 81.5614 222.224 82.7243Z" stroke="#222222" stroke-width="0.44" stroke-linecap="round" stroke-linejoin="round"/>
<path d="M14.9091 95.1758C15.8314 96.3287 13.3351 97.4816 9.32494 97.7523C5.32481 98.013 1.3347 97.3012 0.412366 96.1382C-0.50997 94.9853 1.98635 93.8324 5.99651 93.5617C9.99664 93.291 13.9867 94.0129 14.9091 95.1758Z" stroke="#222222" stroke-width="0.44" stroke-linecap="round" stroke-linejoin="round"/>
</svg>
