<svg width="23" height="23" viewBox="0 0 23 23" fill="none" xmlns="http://www.w3.org/2000/svg">
<path d="M11.5 13.7318C10.8861 13.7318 10.3885 13.2131 10.3885 12.5733V9.09775C10.3885 8.45792 10.8861 7.93923 11.5 7.93923C12.1139 7.93923 12.6115 8.45792 12.6115 9.09775V12.5733C12.6115 13.2131 12.1139 13.7318 11.5 13.7318Z" fill="#ADADAD"/>
<path d="M9.83275 16.6281C9.83275 15.6684 10.5792 14.8904 11.5 14.8904C12.4208 14.8904 13.1673 15.6684 13.1673 16.6281C13.1673 17.5879 12.4208 18.3659 11.5 18.3659C10.5792 18.3659 9.83275 17.5879 9.83275 16.6281Z" fill="#ADADAD"/>
<path d="M9.53282 1.23789C10.3663 -0.412624 12.6337 -0.412634 13.4672 1.23789L22.7411 19.6038C23.5203 21.1467 22.4468 23 20.774 23H2.22603C0.553201 23 -0.520261 21.1467 0.258856 19.6038L9.53282 1.23789ZM20.774 20.683L11.5 2.31704L2.22603 20.683L20.774 20.683Z" fill="#ADADAD"/>
</svg>
