<svg width="22" height="22" viewBox="0 0 22 22" fill="none" xmlns="http://www.w3.org/2000/svg">
<path fill-rule="evenodd" clip-rule="evenodd" d="M4.84502 16.9968C5.27298 17.7081 5.79702 18.362 6.40571 18.939C7.70165 20.1673 9.32577 20.9937 11.0816 21.3183C12.8374 21.6429 14.6496 21.4518 16.2991 20.768C17.9485 20.0842 19.3645 18.9371 20.3756 17.4655C21.3868 15.9938 21.9498 14.2607 21.9966 12.4757C22.0434 10.6908 21.5719 8.93052 20.6392 7.40791C19.7066 5.8853 18.3527 4.66559 16.7413 3.89633C15.5444 3.32493 14.2435 3.02026 12.928 2.99649L13.4844 5.07311C14.3052 5.15602 15.1098 5.37986 15.8617 5.73883C17.117 6.33808 18.1717 7.28825 18.8982 8.47437C19.6248 9.66049 19.992 11.0317 19.9556 12.4222C19.9192 13.8127 19.4805 15.1628 18.6928 16.3093C17.9052 17.4557 16.8021 18.3493 15.5172 18.882C14.2323 19.4146 12.8205 19.5635 11.4527 19.3107C10.085 19.0578 8.81977 18.414 7.81022 17.4571C7.48131 17.1454 7.18413 16.8048 6.92165 16.4404L4.84502 16.9968Z" fill="#B7B7B7"/>
<path d="M5.61387 2.91945C6.56651 2.18846 7.62402 1.6092 8.74875 1.20022C9.18176 1.04277 9.39827 0.964047 9.59742 1.06776C9.79658 1.17147 9.85982 1.4075 9.98631 1.87956L12.4963 11.2471C12.6209 11.712 12.6832 11.9444 12.5775 12.1275C12.4717 12.3106 12.2393 12.3729 11.7745 12.4974L2.40693 15.0074C1.93487 15.1339 1.69884 15.1972 1.50945 15.0765C1.32005 14.9559 1.27998 14.7291 1.19983 14.2753C0.991645 13.0968 0.964547 11.8913 1.12128 10.7008C1.32251 9.17236 1.82283 7.69847 2.59367 6.36333C3.36451 5.0282 4.39078 3.85796 5.61387 2.91945Z" stroke="#B7B7B7" stroke-width="2"/>
</svg>
