<svg width="6" height="7" viewBox="0 0 6 7" fill="none" xmlns="http://www.w3.org/2000/svg">
<path d="M2.8725 0.102513C3.00918 0.239197 3.00918 0.460806 2.8725 0.59749L2.41999 1.05H2.97501C4.60332 1.05 5.95003 2.39671 5.95003 4.02502C5.95003 5.65332 4.60332 7.00003 2.97501 7.00003C1.34671 7.00003 0 5.65332 0 4.02502C0 3.83172 0.156701 3.67502 0.350002 3.67502C0.543302 3.67502 0.700003 3.83172 0.700003 4.02502C0.700003 5.26672 1.73331 6.30003 2.97501 6.30003C4.21672 6.30003 5.25002 5.26672 5.25002 4.02502C5.25002 2.78331 4.21672 1.75001 2.97501 1.75001H2.41999L2.8725 2.20252C3.00918 2.33921 3.00918 2.56081 2.8725 2.6975C2.73582 2.83418 2.51421 2.83418 2.37752 2.6975L1.32752 1.64749C1.19083 1.51081 1.19083 1.2892 1.32752 1.15252L2.37752 0.102513C2.51421 -0.034171 2.73582 -0.034171 2.8725 0.102513Z" fill="#F36A21"/>
</svg>
