<svg width="25" height="17" viewBox="0 0 25 17" fill="none" xmlns="http://www.w3.org/2000/svg">
<path d="M1.00962 3.02961C1.00962 2.07773 1.00962 1.60179 1.30533 1.30607C1.60105 1.01036 2.07699 1.01036 3.02887 1.01036H18.0448C18.5479 1.01036 18.7995 1.01036 19.015 1.11986C19.2306 1.22937 19.3789 1.43253 19.6756 1.83887L23.3615 6.88698C23.7808 7.46123 23.9905 7.74836 23.9905 8.07772C23.9905 8.40709 23.7808 8.69421 23.3615 9.26846L19.6756 14.3166C19.3789 14.7229 19.2306 14.9261 19.015 15.0356C18.7995 15.1451 18.5479 15.1451 18.0448 15.1451H3.02887C2.07699 15.1451 1.60105 15.1451 1.30533 14.8494C1.00962 14.5537 1.00962 14.0777 1.00962 13.1258V3.02961Z" stroke="#F36A21" stroke-width="2"/>
<ellipse cx="16.4896" cy="8.07764" rx="1.29007" ry="1.17789" fill="#F36A21" stroke="#F36A21" stroke-width="2"/>
</svg>
