<svg width="30" height="25" viewBox="0 0 30 25" fill="none" xmlns="http://www.w3.org/2000/svg">
<path fill-rule="evenodd" clip-rule="evenodd" d="M0.87868 0.87868C0 1.75736 0 3.17157 0 6V19C0 21.8284 0 23.2426 0.87868 24.1213C1.75736 25 3.17157 25 6 25H24C26.8284 25 28.2426 25 29.1213 24.1213C30 23.2426 30 21.8284 30 19V6C30 3.17157 30 1.75736 29.1213 0.87868C28.2426 0 26.8284 0 24 0H6C3.17157 0 1.75736 0 0.87868 0.87868ZM5.58128 6.32912C5.13186 6.00811 4.50731 6.1122 4.1863 6.56161C3.8653 7.01103 3.96939 7.63558 4.4188 7.95659L13.8376 14.6843C14.533 15.181 15.4671 15.181 16.1625 14.6843L25.5813 7.95659C26.0307 7.63558 26.1348 7.01103 25.8138 6.56161C25.4928 6.1122 24.8682 6.00811 24.4188 6.32912L15 13.0568L5.58128 6.32912Z" fill="black"/>
</svg>
