<svg width="168" height="40" viewBox="0 0 168 40" fill="none" xmlns="http://www.w3.org/2000/svg">
<rect x="16" width="40" height="40" rx="20" fill="#C2C2C2"/>
<path d="M39.4297 20C39.4297 19.0547 39.0938 18.2461 38.4258 17.5742C37.7539 16.9062 36.9453 16.5703 36 16.5703C35.0547 16.5703 34.2461 16.9062 33.5742 17.5742C32.9062 18.2461 32.5703 19.0547 32.5703 20C32.5703 20.9453 32.9062 21.7539 33.5742 22.4258C34.2461 23.0938 35.0547 23.4297 36 23.4297C36.9453 23.4297 37.7539 23.0938 38.4258 22.4258C39.0938 21.7539 39.4297 20.9453 39.4297 20ZM41.2773 20C41.2773 21.4648 40.7617 22.7109 39.7383 23.7383C38.7109 24.7617 37.4648 25.2773 36 25.2773C34.5352 25.2773 33.2891 24.7617 32.2617 23.7383C31.2383 22.7109 30.7227 21.4648 30.7227 20C30.7227 18.5352 31.2383 17.2891 32.2617 16.2617C33.2891 15.2383 34.5352 14.7227 36 14.7227C37.4648 14.7227 38.7109 15.2383 39.7383 16.2617C40.7617 17.2891 41.2773 18.5352 41.2773 20ZM42.7227 14.5078C42.7227 14.8477 42.6016 15.1367 42.3633 15.3789C42.1211 15.6211 41.832 15.7422 41.4922 15.7422C41.1523 15.7422 40.8633 15.6211 40.6211 15.3789C40.3789 15.1367 40.2578 14.8477 40.2578 14.5078C40.2578 14.168 40.3789 13.8789 40.6211 13.6367C40.8633 13.3984 41.1523 13.2773 41.4922 13.2773C41.832 13.2773 42.1211 13.3984 42.3633 13.6367C42.6016 13.8789 42.7227 14.168 42.7227 14.5078ZM36 11.5625C35.9375 11.5625 35.5977 11.5586 34.9766 11.5547C34.3555 11.5508 33.8828 11.5508 33.5625 11.5547C33.2422 11.5586 32.8086 11.5742 32.2695 11.5977C31.7305 11.6172 31.2695 11.6641 30.8906 11.7305C30.5117 11.7969 30.1914 11.8789 29.9336 11.9766C29.4883 12.1562 29.0937 12.4141 28.7539 12.7539C28.4141 13.0937 28.1562 13.4883 27.9766 13.9336C27.8789 14.1914 27.7969 14.5117 27.7305 14.8906C27.6641 15.2695 27.6172 15.7305 27.5977 16.2695C27.5742 16.8086 27.5586 17.2422 27.5547 17.5625C27.5508 17.8828 27.5508 18.3555 27.5547 18.9766C27.5586 19.5977 27.5625 19.9375 27.5625 20C27.5625 20.0625 27.5586 20.4023 27.5547 21.0234C27.5508 21.6445 27.5508 22.1172 27.5547 22.4375C27.5586 22.7578 27.5742 23.1914 27.5977 23.7305C27.6172 24.2695 27.6641 24.7305 27.7305 25.1094C27.7969 25.4883 27.8789 25.8086 27.9766 26.0664C28.1562 26.5117 28.4141 26.9062 28.7539 27.2461C29.0937 27.5859 29.4883 27.8438 29.9336 28.0234C30.1914 28.1211 30.5117 28.2031 30.8906 28.2695C31.2695 28.3359 31.7305 28.3828 32.2695 28.4023C32.8086 28.4258 33.2422 28.4414 33.5625 28.4453C33.8828 28.4492 34.3555 28.4492 34.9766 28.4453C35.5977 28.4414 35.9375 28.4375 36 28.4375C36.0625 28.4375 36.4023 28.4414 37.0234 28.4453C37.6445 28.4492 38.1172 28.4492 38.4375 28.4453C38.7578 28.4414 39.1914 28.4258 39.7305 28.4023C40.2695 28.3828 40.7305 28.3359 41.1094 28.2695C41.4883 28.2031 41.8086 28.1211 42.0664 28.0234C42.5117 27.8438 42.9062 27.5859 43.2461 27.2461C43.5859 26.9062 43.8438 26.5117 44.0234 26.0664C44.1211 25.8086 44.2031 25.4883 44.2695 25.1094C44.3359 24.7305 44.3828 24.2695 44.4023 23.7305C44.4258 23.1914 44.4414 22.7578 44.4453 22.4375C44.4492 22.1172 44.4492 21.6445 44.4453 21.0234C44.4414 20.4023 44.4375 20.0625 44.4375 20C44.4375 19.9375 44.4414 19.5977 44.4453 18.9766C44.4492 18.3555 44.4492 17.8828 44.4453 17.5625C44.4414 17.2422 44.4258 16.8086 44.4023 16.2695C44.3828 15.7305 44.3359 15.2695 44.2695 14.8906C44.2031 14.5117 44.1211 14.1914 44.0234 13.9336C43.8438 13.4883 43.5859 13.0937 43.2461 12.7539C42.9062 12.4141 42.5117 12.1562 42.0664 11.9766C41.8086 11.8789 41.4883 11.7969 41.1094 11.7305C40.7305 11.6641 40.2695 11.6172 39.7305 11.5977C39.1914 11.5742 38.7578 11.5586 38.4375 11.5547C38.1172 11.5508 37.6445 11.5508 37.0234 11.5547C36.4023 11.5586 36.0625 11.5625 36 11.5625ZM46.2852 20C46.2852 22.043 46.2617 23.4609 46.2188 24.2461C46.1289 26.1016 45.5742 27.5391 44.5586 28.5586C43.5391 29.5742 42.1016 30.1289 40.2461 30.2188C39.4609 30.2617 38.043 30.2852 36 30.2852C33.957 30.2852 32.5391 30.2617 31.7539 30.2188C29.8984 30.1289 28.4609 29.5742 27.4414 28.5586C26.4258 27.5391 25.8711 26.1016 25.7812 24.2461C25.7383 23.4609 25.7148 22.043 25.7148 20C25.7148 17.957 25.7383 16.5391 25.7812 15.7539C25.8711 13.8984 26.4258 12.4609 27.4414 11.4414C28.4609 10.4258 29.8984 9.87109 31.7539 9.78125C32.5391 9.73828 33.957 9.71484 36 9.71484C38.043 9.71484 39.4609 9.73828 40.2461 9.78125C42.1016 9.87109 43.5391 10.4258 44.5586 11.4414C45.5742 12.4609 46.1289 13.8984 46.2188 15.7539C46.2617 16.5391 46.2852 17.957 46.2852 20Z" fill="#161718"/>
<rect x="72" width="40" height="40" rx="20" fill="#C2C2C2"/>
<path d="M98 10H95C93.6739 10 92.4021 10.5268 91.4645 11.4645C90.5268 12.4021 90 13.6739 90 15V18H87V22H90V30H94V22H97L98 18H94V15C94 14.7348 94.1054 14.4804 94.2929 14.2929C94.4804 14.1054 94.7348 14 95 14H98V10Z" fill="#161718"/>
<rect x="128" width="40" height="40" rx="20" fill="#C2C2C2"/>
<path d="M158.555 13.4648C157.957 14.3398 157.23 15.0859 156.383 15.6992C156.395 15.8242 156.398 16.0117 156.398 16.2617C156.398 17.4258 156.227 18.582 155.887 19.7383C155.551 20.8945 155.035 22.0039 154.34 23.0664C153.648 24.1289 152.824 25.0703 151.871 25.8867C150.914 26.7031 149.762 27.3555 148.414 27.8398C147.066 28.3281 145.625 28.5703 144.09 28.5703C141.668 28.5703 139.457 27.9258 137.445 26.6289C137.758 26.6641 138.105 26.6836 138.492 26.6836C140.5 26.6836 142.289 26.0664 143.863 24.8359C142.926 24.8164 142.086 24.5273 141.344 23.9727C140.602 23.4141 140.094 22.6992 139.816 21.8359C140.113 21.8789 140.383 21.9023 140.633 21.9023C141.02 21.9023 141.398 21.8516 141.773 21.7539C140.773 21.5508 139.945 21.0508 139.289 20.2617C138.633 19.4727 138.305 18.5547 138.305 17.5078V17.457C138.91 17.793 139.563 17.9766 140.258 18.0039C139.668 17.6133 139.199 17.0977 138.852 16.4648C138.504 15.832 138.332 15.1445 138.332 14.4023C138.332 13.6172 138.527 12.8867 138.918 12.2187C140 13.5508 141.316 14.6133 142.863 15.4141C144.414 16.2109 146.07 16.6562 147.84 16.7461C147.77 16.4062 147.73 16.0742 147.73 15.7539C147.73 14.5586 148.152 13.5391 148.996 12.6953C149.84 11.8516 150.863 11.4297 152.059 11.4297C153.309 11.4297 154.363 11.8828 155.219 12.793C156.191 12.6055 157.105 12.2578 157.965 11.75C157.633 12.7773 157 13.5703 156.062 14.1328C156.895 14.043 157.723 13.8203 158.555 13.4648Z" fill="#161718"/>
</svg>
