<svg width="26" height="25" viewBox="0 0 26 25" fill="none" xmlns="http://www.w3.org/2000/svg">
<rect x="1.15424" y="4.61537" width="23.077" height="19.2308" rx="1.53333" stroke="#ADADAD" stroke-width="2.3"/>
<path d="M1.15424 7.69229C1.15424 6.24182 1.15424 5.51658 1.60485 5.06597C2.05545 4.61537 2.78069 4.61537 4.23117 4.61537H21.1543C22.6048 4.61537 23.33 4.61537 23.7806 5.06597C24.2312 5.51658 24.2312 6.24182 24.2312 7.69229V9.74358H1.15424V7.69229Z" fill="#ADADAD"/>
<path d="M6.28267 0.769228L6.28267 4.61539" stroke="#ADADAD" stroke-width="1.53333" stroke-linecap="round"/>
<path d="M19.1028 0.769228L19.1028 4.61539" stroke="#ADADAD" stroke-width="1.53333" stroke-linecap="round"/>
<rect x="6.28267" y="12.3077" width="5.12821" height="2.56411" rx="0.383333" fill="#ADADAD"/>
<rect x="6.28267" y="17.4354" width="5.12821" height="2.56411" rx="0.383333" fill="#ADADAD"/>
<rect x="13.9763" y="12.3077" width="5.12821" height="2.56411" rx="0.383333" fill="#ADADAD"/>
<rect x="13.9763" y="17.4354" width="5.12821" height="2.56411" rx="0.383333" fill="#ADADAD"/>
</svg>
