<svg width="58" height="58" viewBox="0 0 58 58" fill="none" xmlns="http://www.w3.org/2000/svg">
<rect width="57.9999" height="57.9999" rx="28.8305" fill="#F36A21"/>
<path d="M33.9737 29.0001C33.9737 27.6294 33.4866 26.4569 32.518 25.4827C31.5438 24.5142 30.3713 24.027 29.0006 24.027C27.6299 24.027 26.4575 24.5142 25.4833 25.4827C24.5147 26.4569 24.0276 27.6294 24.0276 29.0001C24.0276 30.3708 24.5147 31.5432 25.4833 32.5175C26.4575 33.486 27.6299 33.9731 29.0006 33.9731C30.3713 33.9731 31.5438 33.486 32.518 32.5175C33.4866 31.5432 33.9737 30.3708 33.9737 29.0001ZM36.6528 29.0001C36.6528 31.1241 35.9051 32.9309 34.4211 34.4206C32.9315 35.9046 31.1247 36.6522 29.0006 36.6522C26.8766 36.6522 25.0698 35.9046 23.5801 34.4206C22.0962 32.9309 21.3485 31.1241 21.3485 29.0001C21.3485 26.8761 22.0962 25.0692 23.5801 23.5796C25.0698 22.0956 26.8766 21.3479 29.0006 21.3479C31.1247 21.3479 32.9315 22.0956 34.4211 23.5796C35.9051 25.0692 36.6528 26.8761 36.6528 29.0001ZM38.7485 21.0364C38.7485 21.5292 38.5729 21.9483 38.2274 22.2995C37.8762 22.6507 37.4571 22.8263 36.9643 22.8263C36.4715 22.8263 36.0524 22.6507 35.7012 22.2995C35.35 21.9483 35.1745 21.5292 35.1745 21.0364C35.1745 20.5437 35.35 20.1245 35.7012 19.7733C36.0524 19.4278 36.4715 19.2523 36.9643 19.2523C37.4571 19.2523 37.8762 19.4278 38.2274 19.7733C38.5729 20.1245 38.7485 20.5437 38.7485 21.0364ZM29.0006 16.7657C28.91 16.7657 28.4172 16.7601 27.5167 16.7544C26.6161 16.7487 25.9307 16.7487 25.4663 16.7544C25.0018 16.7601 24.3731 16.7827 23.5915 16.8167C22.8098 16.845 22.1415 16.913 21.5921 17.0093C21.0426 17.1056 20.5782 17.2245 20.2044 17.3661C19.5587 17.6267 18.9866 18.0005 18.4938 18.4933C18.001 18.986 17.6272 19.5581 17.3667 20.2038C17.2251 20.5776 17.1061 21.0421 17.0098 21.5915C16.9135 22.1409 16.8456 22.8093 16.8173 23.5909C16.7833 24.3726 16.7606 25.0013 16.755 25.4657C16.7493 25.9302 16.7493 26.6155 16.755 27.5161C16.7606 28.4167 16.7663 28.9095 16.7663 29.0001C16.7663 29.0907 16.7606 29.5835 16.755 30.4841C16.7493 31.3847 16.7493 32.07 16.755 32.5345C16.7606 32.9989 16.7833 33.6276 16.8173 34.4093C16.8456 35.1909 16.9135 35.8593 17.0098 36.4087C17.1061 36.9581 17.2251 37.4225 17.3667 37.7964C17.6272 38.4421 18.001 39.0141 18.4938 39.5069C18.9866 39.9997 19.5587 40.3735 20.2044 40.6341C20.5782 40.7757 21.0426 40.8946 21.5921 40.9909C22.1415 41.0872 22.8098 41.1551 23.5915 41.1835C24.3731 41.2174 25.0018 41.2401 25.4663 41.2458C25.9307 41.2514 26.6161 41.2514 27.5167 41.2458C28.4172 41.2401 28.91 41.2344 29.0006 41.2344C29.0913 41.2344 29.584 41.2401 30.4846 41.2458C31.3852 41.2514 32.0706 41.2514 32.535 41.2458C32.9995 41.2401 33.6282 41.2174 34.4098 41.1835C35.1914 41.1551 35.8598 41.0872 36.4092 40.9909C36.9586 40.8946 37.4231 40.7757 37.7969 40.6341C38.4426 40.3735 39.0147 39.9997 39.5075 39.5069C40.0002 39.0141 40.3741 38.4421 40.6346 37.7964C40.7762 37.4225 40.8952 36.9581 40.9914 36.4087C41.0877 35.8593 41.1557 35.1909 41.184 34.4093C41.218 33.6276 41.2407 32.9989 41.2463 32.5345C41.252 32.07 41.252 31.3847 41.2463 30.4841C41.2407 29.5835 41.235 29.0907 41.235 29.0001C41.235 28.9095 41.2407 28.4167 41.2463 27.5161C41.252 26.6155 41.252 25.9302 41.2463 25.4657C41.2407 25.0013 41.218 24.3726 41.184 23.5909C41.1557 22.8093 41.0877 22.1409 40.9914 21.5915C40.8952 21.0421 40.7762 20.5776 40.6346 20.2038C40.3741 19.5581 40.0002 18.986 39.5075 18.4933C39.0147 18.0005 38.4426 17.6267 37.7969 17.3661C37.4231 17.2245 36.9586 17.1056 36.4092 17.0093C35.8598 16.913 35.1914 16.845 34.4098 16.8167C33.6282 16.7827 32.9995 16.7601 32.535 16.7544C32.0706 16.7487 31.3852 16.7487 30.4846 16.7544C29.584 16.7601 29.0913 16.7657 29.0006 16.7657ZM43.9141 29.0001C43.9141 31.9624 43.8801 34.0184 43.8178 35.1569C43.6875 37.8473 42.8832 39.9317 41.4106 41.41C39.9323 42.8827 37.8479 43.687 35.1575 43.8173C34.019 43.8796 31.9629 43.9135 29.0006 43.9135C26.0383 43.9135 23.9823 43.8796 22.8438 43.8173C20.1534 43.687 18.069 42.8827 16.5907 41.41C15.118 39.9317 14.3137 37.8473 14.1835 35.1569C14.1212 34.0184 14.0872 31.9624 14.0872 29.0001C14.0872 26.0378 14.1212 23.9817 14.1835 22.8433C14.3137 20.1528 15.118 18.0685 16.5907 16.5901C18.069 15.1175 20.1534 14.3132 22.8438 14.1829C23.9823 14.1206 26.0383 14.0866 29.0006 14.0866C31.9629 14.0866 34.019 14.1206 35.1575 14.1829C37.8479 14.3132 39.9323 15.1175 41.4106 16.5901C42.8832 18.0685 43.6875 20.1528 43.8178 22.8433C43.8801 23.9817 43.9141 26.0378 43.9141 29.0001Z" fill="white"/>
</svg>
