<svg width="29" height="30" viewBox="0 0 29 30" fill="none" xmlns="http://www.w3.org/2000/svg">
<path d="M13.5168 0.268747L1.32871 5.69624C0.443301 6.09051 0.000598778 6.28765 0.000598778 6.61376C0.000598778 6.93986 0.443301 7.137 1.32871 7.53128L13.5168 12.9588C13.9193 13.138 14.1205 13.2276 14.334 13.2276C14.5475 13.2276 14.7487 13.138 15.1512 12.9588L27.3393 7.53128C28.2247 7.137 28.6674 6.93986 28.6674 6.61376C28.6674 6.28765 28.2247 6.09051 27.3393 5.69624L15.1512 0.268747C14.7487 0.0895438 14.5475 -5.78902e-05 14.334 -5.78902e-05C14.1205 -5.78902e-05 13.9193 0.0895436 13.5168 0.268747Z" fill="white"/>
<path fill-rule="evenodd" clip-rule="evenodd" d="M4.91521 12.4851L12.6991 15.9514C13.5039 16.3098 13.9064 16.489 14.3334 16.489C14.7605 16.489 15.1629 16.3098 15.9677 15.9514L23.7516 12.4851L27.3387 14.0825C28.2241 14.4768 28.6668 14.6739 28.6668 15C28.6668 15.3261 28.2241 15.5233 27.3387 15.9175L15.1506 21.345C14.7481 21.5242 14.5469 21.6138 14.3334 21.6138C14.1199 21.6138 13.9187 21.5242 13.5163 21.345L1.32811 15.9175L1.3281 15.9175C0.442702 15.5233 0 15.3261 0 15C0 14.6739 0.442702 14.4768 1.32811 14.0825L4.91521 12.4851Z" fill="white"/>
<path fill-rule="evenodd" clip-rule="evenodd" d="M4.91521 20.8713L12.6991 24.3375C13.5039 24.696 13.9064 24.8752 14.3334 24.8752C14.7605 24.8752 15.1629 24.696 15.9677 24.3375L23.7516 20.8713L27.3387 22.4687C28.2241 22.863 28.6668 23.0601 28.6668 23.3862C28.6668 23.7123 28.2241 23.9094 27.3387 24.3037L15.1506 29.7312C14.7481 29.9104 14.5469 30 14.3334 30C14.1199 30 13.9187 29.9104 13.5163 29.7312L1.32811 24.3037L1.3281 24.3037C0.442702 23.9094 0 23.7123 0 23.3862C0 23.0601 0.442702 22.863 1.32811 22.4687L4.91521 20.8713Z" fill="white"/>
</svg>
