<svg width="27" height="27" viewBox="0 0 27 27" fill="none" xmlns="http://www.w3.org/2000/svg">
<path d="M6.75 2.7C6.75 1.20883 7.95883 0 9.45 0H17.55C19.0412 0 20.25 1.20883 20.25 2.7V5.4H22.9361C22.9444 5.39992 22.9528 5.39992 22.9611 5.4H25.65C26.3956 5.4 27 6.00442 27 6.75C27 7.49558 26.3956 8.1 25.65 8.1H24.207L23.0361 24.4924C22.9352 25.9053 21.7595 27 20.343 27H6.65701C5.24049 27 4.0648 25.9053 3.96387 24.4924L2.79299 8.1H1.35C0.604416 8.1 0 7.49558 0 6.75C0 6.00442 0.604416 5.4 1.35 5.4H4.03886C4.04723 5.39992 4.05559 5.39992 4.06393 5.4H6.75V2.7ZM9.45 5.4H17.55V2.7H9.45V5.4ZM5.49987 8.1L6.65701 24.3H20.343L21.5001 8.1H5.49987ZM10.8 10.8C11.5456 10.8 12.15 11.4044 12.15 12.15V20.25C12.15 20.9956 11.5456 21.6 10.8 21.6C10.0544 21.6 9.45 20.9956 9.45 20.25V12.15C9.45 11.4044 10.0544 10.8 10.8 10.8ZM16.2 10.8C16.9456 10.8 17.55 11.4044 17.55 12.15V20.25C17.55 20.9956 16.9456 21.6 16.2 21.6C15.4544 21.6 14.85 20.9956 14.85 20.25V12.15C14.85 11.4044 15.4544 10.8 16.2 10.8Z" fill="white"/>
</svg>
