<svg width="221" height="221" viewBox="0 0 221 221" fill="none" xmlns="http://www.w3.org/2000/svg">
<path d="M110.5 22.1C61.678 22.1 22.1 61.678 22.1 110.5C22.1 159.322 61.678 198.9 110.5 198.9C159.322 198.9 198.9 159.322 198.9 110.5C198.9 61.678 159.322 22.1 110.5 22.1ZM0 110.5C0 49.4725 49.4725 0 110.5 0C171.527 0 221 49.4725 221 110.5C221 171.527 171.527 221 110.5 221C49.4725 221 0 171.527 0 110.5Z" fill="#F36A21" fill-opacity="0.15"/>
<path d="M110.5 88.4C116.603 88.4 121.55 93.3473 121.55 99.45V165.75C121.55 171.853 116.603 176.8 110.5 176.8C104.397 176.8 99.45 171.853 99.45 165.75V99.45C99.45 93.3473 104.397 88.4 110.5 88.4Z" fill="#F36A21" fill-opacity="0.15"/>
<path d="M127.075 60.775C127.075 69.9291 119.654 77.35 110.5 77.35C101.346 77.35 93.925 69.9291 93.925 60.775C93.925 51.6209 101.346 44.2 110.5 44.2C119.654 44.2 127.075 51.6209 127.075 60.775Z" fill="#F36A21" fill-opacity="0.15"/>
</svg>
