<svg width="45" height="33" viewBox="0 0 45 33" fill="none" xmlns="http://www.w3.org/2000/svg">
<path d="M44.6386 23.3927L32.5106 16.7976L24.4094 12.2635C24.4094 12.2635 24.0289 8.83909 23.046 7.55495C22.063 6.27081 18.5911 3.90862 17.9253 1.03912C17.2594 -1.83038 14.3265 1.78425 16.4192 5.3196C16.4192 5.3196 8.08018 1.87937 5.22654 0.658642C4.71922 0.436691 3.26074 -0.197459 2.80099 1.02327C2.34123 2.24399 3.54609 2.94156 4.06926 3.16351C6.16193 4.06717 12.2655 6.96836 12.2655 6.96836C12.2655 6.96836 4.63994 3.55985 2.03995 2.59278C1.54849 2.41839 0.59732 2.13303 0.105859 3.32205C-0.385602 4.51106 0.993656 5.14521 0.993656 5.14521L10.7912 9.9647C10.7912 9.9647 4.6241 7.39641 2.45216 6.69886C2.03997 6.57203 1.08881 6.33423 0.629054 7.41227C0.153447 8.49032 1.26314 8.98177 1.65948 9.14031C3.4985 9.91714 9.90337 12.8501 9.90337 12.8501L2.97535 10.4244C2.97535 10.4244 1.59608 9.83787 1.27901 10.8842C0.977791 11.8354 2.34117 12.3903 2.34117 12.3903L9.53876 15.5293C9.53876 15.5293 16.4509 19.2708 18.9399 20.0317C19.1619 20.0951 19.6216 20.1427 19.8752 19.9049C25.5667 25.5963 35.7764 33 35.7764 33L44.6386 23.361V23.3927Z" fill="#BA5D56"/>
<path d="M9.36423 13.3573C9.36423 13.3573 9.3325 9.98052 12.5191 5.05006" stroke="#222222" stroke-width="0.692178" stroke-linecap="round" stroke-linejoin="round"/>
<path d="M16.0068 5.03419C16.0068 5.03419 16.7995 6.65124 17.2275 7.36466C17.2275 7.36466 16.1336 9.07685 16.8153 11.1537C17.497 13.2463 20.3349 14.9585 20.3349 14.9585" stroke="#222222" stroke-width="0.692178" stroke-linecap="round" stroke-linejoin="round"/>
<path d="M5.32156 3.92443L11.4094 6.60369" stroke="#222222" stroke-width="0.692178" stroke-linecap="round" stroke-linejoin="round"/>
<path d="M9.98251 9.72681L3.38745 6.71463" stroke="#222222" stroke-width="0.692178" stroke-linecap="round" stroke-linejoin="round"/>
<path d="M9.26897 12.6439L5.36905 11.2805" stroke="#222222" stroke-width="0.692178" stroke-linecap="round" stroke-linejoin="round"/>
</svg>
