<svg width="26" height="30" viewBox="0 0 26 30" fill="none" xmlns="http://www.w3.org/2000/svg">
<path fill-rule="evenodd" clip-rule="evenodd" d="M16.7315 1.16848C15.5173 0.42835 14.0939 0.00318134 12.5788 1.72067e-05L12.5414 0L12.504 1.72067e-05C8.37377 0.00864352 4.92569 3.15298 4.53731 7.26488L4.53386 7.30213L3.99154 13.1748C3.88007 14.382 3.82433 14.9856 3.68 15.5703C3.63474 15.7536 3.58302 15.9353 3.52494 16.115C3.3397 16.688 3.0692 17.2305 2.5282 18.3154L0.787411 21.8063C0.139322 23.106 -0.184723 23.7558 0.109154 24.2307C0.403031 24.7057 1.12917 24.7057 2.58145 24.7057H22.5013C23.9536 24.7057 24.6797 24.7057 24.9736 24.2307C25.2674 23.7558 24.9434 23.106 24.2953 21.8063L22.5545 18.3154L22.5545 18.3154C22.0135 17.2305 21.743 16.688 21.5578 16.115C21.4997 15.9353 21.448 15.7536 21.4027 15.5703C21.2584 14.9856 21.2027 14.382 21.0912 13.1748L20.966 11.8189C17.4208 11.5976 15.401 8.25622 15.401 5.29401C15.401 3.87808 15.8625 2.37551 16.7315 1.16848ZM18.9765 3.20565C18.6192 3.79043 18.4081 4.51256 18.4081 5.29401C18.4081 6.97004 19.379 8.3732 20.6811 8.7336L20.5489 7.30213L20.5454 7.26488C20.4016 5.7425 19.8384 4.35274 18.9765 3.20565Z" fill="#949494"/>
<path d="M8.14249 24.7061C8.14249 25.4013 8.2563 26.0897 8.47742 26.732C8.69853 27.3744 9.02263 27.958 9.4312 28.4496C9.83977 28.9412 10.3248 29.3311 10.8586 29.5972C11.3925 29.8632 11.9646 30.0002 12.5424 30.0002C13.1202 30.0002 13.6924 29.8632 14.2262 29.5972C14.76 29.3311 15.2451 28.9412 15.6536 28.4496C16.0622 27.958 16.3863 27.3744 16.6074 26.732C16.8285 26.0897 16.9423 25.4013 16.9423 24.7061L12.5424 24.7061H8.14249Z" fill="#949494"/>
<path d="M21.342 9.32436C23.3216 9.32436 24.7764 7.42902 24.7764 5.2938C24.7764 3.15857 23.3216 1.26324 21.342 1.26324C19.3624 1.26324 17.9075 3.15857 17.9075 5.2938C17.9075 7.42902 19.3624 9.32436 21.342 9.32436Z" fill="#949494" stroke="white"/>
</svg>
