<svg width="34" height="27" viewBox="0 0 34 27" fill="none" xmlns="http://www.w3.org/2000/svg">
<path d="M10.6193 0.494257C10.9357 0.17779 11.3649 0 11.8125 0H21.9375C22.3851 0 22.8143 0.17779 23.1307 0.494257L26.0115 3.375H30.375C32.239 3.375 33.75 4.88604 33.75 6.75V23.625C33.75 25.489 32.239 27 30.375 27H3.375C1.51104 27 0 25.489 0 23.625V6.75C0 4.88604 1.51104 3.375 3.375 3.375H7.73851L10.6193 0.494257ZM12.5115 3.375L9.63074 6.25574C9.31427 6.57221 8.88505 6.75 8.4375 6.75L3.375 6.75V23.625H30.375V6.75H25.3125C24.8649 6.75 24.4357 6.57221 24.1193 6.25574L21.2385 3.375H12.5115ZM16.875 10.9688C15.011 10.9688 13.5 12.4798 13.5 14.3438C13.5 16.2077 15.011 17.7188 16.875 17.7188C18.739 17.7188 20.25 16.2077 20.25 14.3438C20.25 12.4798 18.739 10.9688 16.875 10.9688ZM10.125 14.3438C10.125 10.6158 13.1471 7.59375 16.875 7.59375C20.6029 7.59375 23.625 10.6158 23.625 14.3438C23.625 18.0717 20.6029 21.0938 16.875 21.0938C13.1471 21.0938 10.125 18.0717 10.125 14.3438Z" fill="#0D0D0D" fill-opacity="0.29"/>
</svg>
