<svg width="22" height="16" viewBox="0 0 22 16" fill="none" xmlns="http://www.w3.org/2000/svg">
<g clip-path="url(#clip0_148_9708)">
<path fill-rule="evenodd" clip-rule="evenodd" d="M0 15.1712H21.7573V0.680054H0V15.1712ZM19.9005 7.92581L10.878 13.679L1.85643 7.92581L10.878 2.17194L19.9005 7.92581Z" fill="#47B71D"/>
<path fill-rule="evenodd" clip-rule="evenodd" d="M19.9005 7.92587L10.8776 13.679L1.85645 7.92587L10.8776 2.172L19.9005 7.92587ZM7.23071 6.9896C6.61945 9.37348 8.4246 11.6873 10.8787 11.6873C12.5662 11.6873 13.9946 10.5778 14.4726 9.04931C14.5319 8.86108 14.5765 8.66553 14.6051 8.46545C14.6303 8.28908 14.6435 8.10887 14.6435 7.92587C14.6435 5.84768 12.958 4.16373 10.8787 4.16373C9.33833 4.16373 8.01396 5.0878 7.43097 6.41167C7.34933 6.59711 7.28164 6.79022 7.23071 6.9896Z" fill="#FFF200"/>
<path fill-rule="evenodd" clip-rule="evenodd" d="M7.00571 7.03796C7.00495 7.03834 7.00571 7.03834 7.00571 7.03796V7.03796Z" fill="white"/>
<path fill-rule="evenodd" clip-rule="evenodd" d="M7.23066 6.98958C6.61941 9.37346 8.42455 11.6873 10.8786 11.6873C12.5662 11.6873 13.9945 10.5778 14.4725 9.04929C14.0664 8.67318 12.8568 7.67139 11.0095 7.15759C9.29119 6.69504 7.77946 6.88397 7.23066 6.98958ZM11.1462 6.64763C13.017 7.17781 14.0821 8.01473 14.6051 8.46543C14.6302 8.28906 14.6435 8.10919 14.6435 7.92585C14.6435 5.84766 12.958 4.16406 10.8786 4.16406C9.33828 4.16406 8.01391 5.08778 7.43092 6.41165C7.91727 6.33392 9.4276 6.16068 11.1462 6.64763Z" fill="#0437A0"/>
<path fill-rule="evenodd" clip-rule="evenodd" d="M11.1463 6.64756C9.42766 6.1606 7.91732 6.33384 7.43097 6.41158C7.34933 6.59702 7.28165 6.79012 7.23071 6.98986C7.77951 6.88389 9.29124 6.69496 11.0095 7.15752C12.8569 7.67131 14.0665 8.67311 14.4729 9.04922C14.5319 8.86029 14.5765 8.66544 14.6051 8.46536C14.0822 8.01466 13.017 7.17774 11.1463 6.64756Z" fill="white"/>
<path fill-rule="evenodd" clip-rule="evenodd" d="M7.83057 6.72216C7.81138 6.79117 7.75033 6.83126 7.6802 6.83928C7.58042 6.85148 7.50262 6.80372 7.48622 6.69183C7.43842 6.36173 7.92547 6.40984 7.83057 6.72216ZM14.4312 8.41796C14.3087 8.19034 13.9867 8.41865 14.1008 8.63024C14.2232 8.8589 14.5428 8.62605 14.4312 8.41796ZM14.3778 8.5424C14.3726 8.55913 14.3631 8.57621 14.3506 8.59294C14.1747 8.81812 14.0436 8.44724 14.262 8.39739C14.3352 8.37927 14.4088 8.44898 14.3778 8.5424ZM14.0362 8.10668C13.9124 7.94251 13.6999 8.06799 13.859 8.24367C14.0554 8.45142 13.7121 8.36393 13.7885 8.22938C13.7348 8.19139 13.7257 8.17082 13.7107 8.24576C13.6563 8.48314 14.1863 8.51904 13.9113 8.19731C13.7725 8.05684 14.0512 8.09483 13.9849 8.22311C14.0069 8.23879 14.0181 8.24681 14.0394 8.26284C14.0708 8.21509 14.0722 8.15723 14.0362 8.10668ZM13.6552 7.84804C13.5303 7.69223 13.3151 7.82051 13.4839 7.98887C13.6901 8.18581 13.3468 8.11749 13.4117 7.97667C13.3566 7.94146 13.3472 7.92264 13.335 7.99619C13.2889 8.24437 13.8367 8.22136 13.5338 7.94146C13.4044 7.80621 13.6671 7.83933 13.6095 7.96377C13.6319 7.97841 13.643 7.98573 13.6654 8.00072C13.6954 7.95087 13.6926 7.89301 13.6552 7.84804ZM13.2826 7.70269C13.2959 7.68038 13.3025 7.66888 13.3154 7.64552C13.0206 7.47472 13.1047 7.45137 12.8905 7.83131C12.9878 7.88604 13.0367 7.91497 13.1326 7.97248C13.1459 7.95052 13.1525 7.93902 13.1654 7.91706C13.0928 7.87314 13.0555 7.85153 12.9815 7.8097C13.0007 7.77624 13.0102 7.75985 13.0293 7.72674C13.0963 7.76439 13.1298 7.78391 13.1968 7.82329C13.2101 7.80133 13.216 7.79018 13.2293 7.76892C13.1623 7.72918 13.1281 7.71001 13.0604 7.67167C13.0768 7.64273 13.0852 7.62844 13.1019 7.59881C13.1748 7.63925 13.2111 7.66016 13.2826 7.70269ZM12.879 7.43289C12.8587 7.38026 12.7003 7.31612 12.6487 7.29137C12.5828 7.42279 12.5503 7.48623 12.4844 7.61624C12.5088 7.62844 12.5207 7.63402 12.5451 7.64622C12.5723 7.59359 12.5852 7.56814 12.6121 7.51585C12.7101 7.56605 12.7272 7.54583 12.6979 7.7243C12.7237 7.73755 12.737 7.74452 12.7628 7.75846C12.7666 7.73267 12.7952 7.5528 12.7726 7.57755C12.7726 7.57685 12.813 7.57511 12.8305 7.56605C12.8734 7.54339 12.8985 7.48657 12.879 7.43289ZM12.8088 7.49006C12.805 7.49808 12.8001 7.50435 12.7949 7.50853C12.7624 7.53189 12.677 7.47821 12.641 7.46043C12.6588 7.42662 12.6672 7.40989 12.6846 7.37573C12.7453 7.40466 12.8389 7.43359 12.8088 7.49006ZM12.4163 7.18332C12.3776 7.15055 12.3295 7.13382 12.2897 7.13312C12.0266 7.12859 12.0521 7.57407 12.3162 7.50261C12.3148 7.51341 12.3141 7.51899 12.3131 7.53015C12.3319 7.53816 12.3406 7.54269 12.3602 7.55106C12.461 7.34157 12.4781 7.38758 12.2995 7.31055C12.2667 7.382 12.2618 7.36004 12.3567 7.40361C12.3406 7.43673 12.3389 7.45067 12.2897 7.44893C12.0814 7.44544 12.177 7.13487 12.3378 7.20528C12.3832 7.22549 12.4101 7.25931 12.3933 7.30636C12.4551 7.3339 12.4718 7.35237 12.4669 7.27987C12.4641 7.24118 12.4457 7.20946 12.4163 7.18332ZM11.9806 7.01531C11.93 6.96964 11.8491 6.94803 11.7768 6.98184C11.4492 7.14044 11.8763 7.55141 12.0158 7.21364C12.0263 7.18785 12.0319 7.16275 12.0322 7.13835C12.0329 7.0899 12.0162 7.04877 11.9806 7.01531ZM11.9502 7.18889C11.8777 7.37747 11.6408 7.22759 11.7758 7.06864C11.8498 6.97592 12.0081 7.04424 11.9502 7.18889ZM11.5591 6.87901C11.5284 6.83091 11.3652 6.79396 11.309 6.77793C11.2682 6.91701 11.2479 6.98568 11.2075 7.12511C11.2336 7.13277 11.2458 7.13626 11.2716 7.14358C11.2887 7.08781 11.2971 7.06027 11.3135 7.0045C11.4192 7.03657 11.4311 7.01775 11.4335 7.19308C11.4611 7.20179 11.4747 7.20597 11.5026 7.21504C11.5019 7.18541 11.496 7.00938 11.4806 7.03727C11.4806 7.03657 11.5197 7.02785 11.5347 7.01635C11.5731 6.98637 11.5874 6.92433 11.5591 6.87901ZM11.5009 6.94629C11.4789 7.0038 11.3924 6.96337 11.3317 6.94524C11.3425 6.90899 11.3484 6.89052 11.3592 6.85427C11.4234 6.87309 11.5183 6.88703 11.5009 6.94629ZM11.114 6.73471C11.0665 6.69113 10.9266 6.66813 10.8621 6.65419C10.8268 6.79501 10.809 6.86507 10.7738 7.00589C10.8024 7.01217 10.816 7.01531 10.8443 7.02158C10.8812 6.87867 10.8683 6.88668 10.957 6.90725C11.131 6.94803 11.1837 6.80442 11.114 6.73471ZM11.0616 6.81383C11.0452 6.87867 10.9604 6.84416 10.8938 6.82917C10.9238 6.71623 10.8983 6.71588 11.0281 6.75701C11.0553 6.76887 11.07 6.78525 11.0616 6.81383ZM10.345 6.91736C10.2438 6.89958 10.1925 6.89052 10.0903 6.87518C10.1514 6.49559 10.0858 6.54473 10.3987 6.59981C10.3945 6.62142 10.3925 6.63257 10.3886 6.65419C10.3119 6.64059 10.2738 6.63397 10.1971 6.62177C10.1918 6.6507 10.1897 6.66499 10.1845 6.69357C10.256 6.70473 10.2916 6.711 10.3624 6.7232C10.3583 6.74516 10.3562 6.75562 10.3523 6.77758C10.2822 6.76503 10.2463 6.75911 10.1758 6.7476C10.1702 6.78037 10.1674 6.7971 10.1622 6.83056C10.2396 6.84276 10.2784 6.84904 10.3558 6.86333C10.3516 6.88459 10.3495 6.89575 10.345 6.91736ZM9.672 6.81836C9.64653 6.81592 9.63327 6.81418 9.6078 6.81139C9.63467 6.52243 9.65176 6.53358 9.5314 6.80337C9.50907 6.80198 9.49791 6.80024 9.47558 6.79815C9.39882 6.49384 9.41975 6.51615 9.39952 6.79187C9.3737 6.79013 9.36149 6.78873 9.33498 6.78699C9.3444 6.64896 9.34788 6.5775 9.35695 6.42761C9.39254 6.4304 9.41103 6.4318 9.44662 6.43493C9.52861 6.76364 9.4836 6.76224 9.61827 6.45167C9.65386 6.45585 9.6713 6.45759 9.70724 6.46177C9.69328 6.60678 9.6863 6.67754 9.672 6.81836ZM9.17798 6.78629C9.06808 6.78037 9.0133 6.77863 8.9034 6.77619C8.91526 6.34919 8.84304 6.40565 9.186 6.42587C9.1846 6.45167 9.18426 6.46456 9.18321 6.49036C9.10157 6.48617 9.0604 6.48408 8.97806 6.48199C8.97702 6.51615 8.97667 6.53288 8.97597 6.56635C9.05238 6.56774 9.09075 6.56948 9.16681 6.57297C9.16576 6.59807 9.16507 6.60992 9.16437 6.63467C9.08831 6.63083 9.05063 6.63013 8.97457 6.62769C8.97388 6.66499 8.97353 6.68312 8.97178 6.71902C9.05552 6.72146 9.09738 6.72285 9.18077 6.72739C9.17972 6.75109 9.17902 6.76329 9.17798 6.78629ZM8.74047 6.59772C8.74012 6.7849 8.61627 6.77235 8.43624 6.77758C8.4345 6.64687 8.43136 6.57541 8.42787 6.41297C8.61138 6.40844 8.74082 6.40217 8.74047 6.59772ZM8.67034 6.59807C8.67034 6.47955 8.60685 6.47641 8.49834 6.47955C8.50044 6.58203 8.50113 6.62909 8.50253 6.71797C8.61383 6.71623 8.67034 6.71344 8.67034 6.59807ZM8.28866 6.78351C8.2597 6.78455 8.24505 6.78595 8.21644 6.78699C8.15434 6.65105 8.17109 6.65175 8.03781 6.66395C8.04165 6.72007 8.04339 6.74725 8.04619 6.79815C8.01932 6.80024 8.00571 6.80198 7.97885 6.80337C7.97152 6.67719 7.96385 6.60678 7.95443 6.43877C8.09503 6.42727 8.2625 6.39032 8.2625 6.53532C8.26354 6.55868 8.25866 6.57855 8.24889 6.59528C8.23877 6.61201 8.20528 6.63432 8.20528 6.63432C8.20528 6.63432 8.22202 6.63397 8.28866 6.78351ZM8.18888 6.56356C8.22168 6.47537 8.11771 6.49349 8.02735 6.50012C8.02979 6.54229 8.03153 6.56216 8.03397 6.6012C8.072 6.6012 8.17911 6.59946 8.18888 6.56356ZM7.67427 6.78769C7.71893 6.78211 7.75417 6.75388 7.76463 6.70787C7.82046 6.44818 7.45726 6.49803 7.5696 6.73296C7.58356 6.7598 7.60275 6.77758 7.63206 6.78525C7.64496 6.78873 7.65927 6.78943 7.67427 6.78769Z" fill="#119E07"/>
<path fill-rule="evenodd" clip-rule="evenodd" d="M8.13708 8.66927L8.17336 8.78186H8.29198L8.19604 8.85157L8.23267 8.96451L8.13708 8.89444L8.04113 8.96451L8.07742 8.85157L7.98147 8.78186H8.10044L8.13708 8.66927ZM10.8786 10.8144L10.8912 10.8527H10.9317L10.8989 10.8764L10.9114 10.9144L10.8786 10.8911L10.8462 10.9144L10.8587 10.8764L10.8263 10.8527H10.8661L10.8786 10.8144ZM11.7076 9.9304L11.731 10.0015H11.806L11.7449 10.0461L11.7683 10.1172L11.7076 10.073L11.6469 10.1172L11.6703 10.0461L11.6096 10.0015H11.6846L11.7076 9.9304ZM12.3262 10.0266L12.3488 10.0984H12.4242L12.3631 10.142L12.3869 10.2131L12.3262 10.1692L12.2655 10.2131L12.2885 10.142L12.2281 10.0984H12.3028L12.3262 10.0266ZM12.7462 9.89589L12.7696 9.9663H12.8439L12.7832 10.0106L12.8069 10.082L12.7462 10.0381L12.6855 10.082L12.7082 10.0106L12.6478 9.9663H12.7229L12.7462 9.89589ZM14.0378 9.17749L14.0605 9.24859H14.1358L14.0748 9.29251L14.0982 9.36362L14.0378 9.3197L13.9768 9.36362L14.0001 9.29251L13.9391 9.24859H14.0144L14.0378 9.17749ZM12.7553 10.6464L12.7787 10.7178H12.8533L12.7933 10.7617L12.816 10.8329L12.7553 10.7886L12.6949 10.8329L12.718 10.7617L12.6576 10.7178H12.7326L12.7553 10.6464ZM13.137 9.97083L13.1604 10.0416H13.2354L13.175 10.0855L13.1984 10.1573L13.137 10.113L13.0766 10.1573L13.1 10.0855L13.0393 10.0416H13.114L13.137 9.97083ZM11.9016 7.63854L11.9246 7.71H11.9993L11.9393 7.75392L11.9616 7.82503L11.9016 7.78111L11.8405 7.82503L11.8639 7.75392L11.8032 7.71H11.8778L11.9016 7.63854ZM10.4987 8.76547L10.5217 8.83658H10.5967L10.5357 8.88085L10.5594 8.95161L10.4987 8.90804L10.4376 8.95161L10.4607 8.88085L10.4003 8.83658H10.4757L10.4987 8.76547ZM7.67934 9.06176L7.70306 9.13322H7.77772L7.71736 9.17679L7.74004 9.24824L7.67934 9.20398L7.61898 9.24824L7.64201 9.17679L7.5813 9.13322H7.65631L7.67934 9.06176ZM13.669 9.44832L13.6987 9.54035H13.7943L13.7172 9.59647L13.7465 9.68814L13.669 9.63132L13.5912 9.68814L13.6205 9.59647L13.5427 9.54035H13.639L13.669 9.44832ZM13.437 9.75263L13.467 9.84395H13.5626L13.4845 9.90077L13.5152 9.99175L13.437 9.93528L13.3592 9.99175L13.3885 9.90077L13.3114 9.84395H13.407L13.437 9.75263ZM12.0041 10.326L12.0338 10.4174H12.1297L12.0519 10.4745L12.0816 10.5651L12.0041 10.509L11.926 10.5651L11.956 10.4745L11.8778 10.4174H11.9745L12.0041 10.326ZM12.7647 10.2375L12.7947 10.3288H12.8907L12.8129 10.3853L12.8422 10.4763L12.7647 10.4205L12.6869 10.4763L12.7169 10.3853L12.6391 10.3288H12.7351L12.7647 10.2375ZM8.80659 9.44937L8.83625 9.5407H8.93254L8.85509 9.59716L8.88404 9.68884L8.80659 9.63237L8.72879 9.68884L8.75844 9.59716L8.68064 9.5407H8.77659L8.80659 9.44937ZM11.312 8.73619L11.3416 8.82787H11.4379L11.3597 8.88434L11.3898 8.97601L11.312 8.91919L11.2338 8.97601L11.2638 8.88434L11.186 8.82787H11.2823L11.312 8.73619ZM10.879 8.40052L10.909 8.4915H11.0049L10.9271 8.54831L10.9568 8.63964L10.879 8.58317L10.8012 8.63964L10.8308 8.54831L10.753 8.4915H10.849L10.879 8.40052ZM9.44471 7.94319L9.47436 8.03452H9.57031L9.4925 8.09134L9.52286 8.18266L9.44471 8.12619L9.36725 8.18266L9.39656 8.09134L9.31876 8.03452H9.4147L9.44471 7.94319ZM8.92103 9.07779L8.95033 9.16912H9.04663L8.96847 9.22524L8.99883 9.31656L8.92103 9.2601L8.84322 9.31656L8.87323 9.22524L8.79473 9.16912H8.89102L8.92103 9.07779ZM10.6888 9.05688L10.7049 9.10673H10.7572L10.715 9.1374L10.7318 9.18724L10.6888 9.15657L10.6463 9.18724L10.6627 9.1374L10.6205 9.10673H10.6728L10.6888 9.05688ZM8.51039 8.53019L8.52643 8.57968H8.57877L8.53655 8.61071L8.55295 8.66055L8.51039 8.62953L8.46782 8.66055L8.48422 8.61071L8.44165 8.57968H8.49434L8.51039 8.53019ZM12.0516 6.59631L12.0875 6.7089H12.2065L12.1102 6.77897L12.1468 6.89155L12.0516 6.82184L11.9553 6.89155L11.9919 6.77897L11.8963 6.7089H12.0146L12.0516 6.59631ZM13.5155 9.08267L13.5522 9.19526H13.6708L13.5745 9.26463L13.6115 9.37722L13.5155 9.3082L13.4196 9.37722L13.4559 9.26463L13.3606 9.19526H13.4789L13.5155 9.08267ZM7.80424 7.08989L7.84122 7.20248H7.95949L7.8639 7.27184L7.90018 7.38443L7.80424 7.31542L7.70864 7.38443L7.74528 7.27184L7.64933 7.20248H7.7676L7.80424 7.08989ZM10.8779 9.45146L10.9146 9.5637H11.0339L10.9372 9.63342L10.9742 9.74635L10.8779 9.67664L10.7823 9.74635L10.8186 9.63342L10.723 9.5637H10.8417L10.8779 9.45146ZM9.36586 9.75855L9.40249 9.87149H9.52146L9.42552 9.9412L9.46145 10.0538L9.36586 9.98408L9.27026 10.0538L9.3069 9.9412L9.2106 9.87149H9.32888L9.36586 9.75855Z" fill="white"/>
</g>
<defs>
<clipPath id="clip0_148_9708">
<rect width="21.98" height="14.64" fill="white" transform="translate(0 0.680054)"/>
</clipPath>
</defs>
</svg>
