<svg width="25" height="25" viewBox="0 0 25 25" fill="none" xmlns="http://www.w3.org/2000/svg">
<path d="M6.75 7.38889L6.75 6.75C6.75 3.57436 9.32436 0.999998 12.5 0.999997V0.999997C15.6756 0.999997 18.25 3.57436 18.25 6.75L18.25 7.38889" stroke="#ADADAD" stroke-width="2" stroke-linecap="round"/>
<path d="M16.8125 15.0556V12.5" stroke="#ADADAD" stroke-width="2" stroke-linecap="round"/>
<path d="M8.1875 15.0556V12.5" stroke="#ADADAD" stroke-width="2" stroke-linecap="round"/>
<path d="M1 11.3889C1 9.50327 1 8.56046 1.58579 7.97467C2.17157 7.38889 3.11438 7.38889 5 7.38889H20C21.8856 7.38889 22.8284 7.38889 23.4142 7.97467C24 8.56046 24 9.50327 24 11.3889V16C24 19.7712 24 21.6569 22.8284 22.8284C21.6569 24 19.7712 24 16 24H9C5.22876 24 3.34315 24 2.17157 22.8284C1 21.6569 1 19.7712 1 16V11.3889Z" stroke="#ADADAD" stroke-width="2"/>
</svg>
