<svg width="16" height="16" viewBox="0 0 16 16" fill="none" xmlns="http://www.w3.org/2000/svg">
<path d="M7.70711 0.331739C8.09763 0.774056 8.09763 1.4912 7.70711 1.93351L3.41421 6.79575H15C15.5523 6.79575 16 7.30285 16 7.92838C16 8.55391 15.5523 9.06101 15 9.06101H3.41421L7.70711 13.9233C8.09763 14.3656 8.09763 15.0827 7.70711 15.525C7.31658 15.9673 6.68342 15.9673 6.29289 15.525L0.292893 8.72927C0.105357 8.51686 0 8.22877 0 7.92838C0 7.62799 0.105357 7.3399 0.292893 7.12749L6.29289 0.331738C6.68342 -0.110579 7.31658 -0.110579 7.70711 0.331739Z" fill="#0D0D0D"/>
</svg>
