<svg width="30" height="31" viewBox="0 0 30 31" fill="none" xmlns="http://www.w3.org/2000/svg">
<path d="M21.6671 8.89467V7.66661C21.6671 6.11667 21.6671 5.34169 21.4968 4.70587C21.0344 2.98042 19.6867 1.63269 17.9613 1.17036C17.3254 0.999992 16.5505 0.999992 15.0005 0.999992V0.999992C13.4506 0.999992 12.6756 0.999992 12.0398 1.17036C10.3143 1.63269 8.96662 2.98042 8.50429 4.70587C8.33392 5.34169 8.33392 6.11667 8.33392 7.66661V8.89467" stroke="#425466" stroke-width="2" stroke-linecap="round"/>
<path fill-rule="evenodd" clip-rule="evenodd" d="M0.878673 8.19453C0 9.07321 0 10.4874 0 13.3158V22.9999C0 26.7712 0 28.6568 1.17156 29.8283C2.34313 30.9999 4.22873 30.9999 7.99994 30.9999H21.9998C25.771 30.9999 27.6566 30.9999 28.8282 29.8283C29.9998 28.6568 29.9998 26.7712 29.9998 22.9999V13.3158C29.9998 10.4874 29.9998 9.07321 29.1211 8.19453C28.2424 7.31586 26.8282 7.31586 23.9998 7.31586H5.99995C3.17155 7.31586 1.75735 7.31586 0.878673 8.19453ZM14.9999 21.1052C16.76 21.1052 17.9999 19.7794 17.9999 18.3684C17.9999 16.9574 16.76 15.6316 14.9999 15.6316C13.2398 15.6316 11.9999 16.9574 11.9999 18.3684C11.9999 19.7794 13.2398 21.1052 14.9999 21.1052ZM19.9998 18.3684C19.9998 20.66 18.2821 22.5716 15.9999 23.0105V26.2631H13.9999V23.0105C11.7177 22.5716 9.99992 20.66 9.99992 18.3684C9.99992 15.7523 12.2385 13.6316 14.9999 13.6316C17.7613 13.6316 19.9998 15.7523 19.9998 18.3684Z" fill="black"/>
</svg>
