<svg width="39" height="42" viewBox="0 0 39 42" fill="none" xmlns="http://www.w3.org/2000/svg">
<path d="M26.3504 6.82559C26.3504 6.82559 28.7123 6.11707 29.9719 7.47115C31.2315 8.82522 30.3182 10.5099 30.3182 10.5099C30.3182 10.5099 34.3962 8.51032 34.0498 12.6828C33.6562 17.3748 40.8831 15.9105 38.0647 28.3648C35.4196 40.0791 26.7913 42 26.7913 42L3.50445 39.2289C-1.77014 30.5219 3.14224 22.2243 3.14224 22.2243C3.14224 22.2243 0.512883 19.2327 0.0562768 16.8552C-0.40033 14.4777 2.07159 12.4151 2.07159 12.4151C2.07159 12.4151 0.0562845 10.1793 1.83547 7.69158C3.75637 5.01492 6.66912 5.92813 6.66912 5.92813C6.66912 5.92813 4.55934 2.18081 7.61388 0.559066C10.6842 -1.06267 13.4868 2.76338 13.4868 2.76338C13.4868 2.76338 14.6204 -0.574576 18.0529 0.0867162C21.9419 0.826733 20.7925 4.62129 20.7925 4.62129C20.7925 4.62129 22.3355 2.81061 24.4453 3.62935C26.5552 4.44809 26.3348 6.84134 26.3348 6.84134L26.3504 6.82559Z" fill="#222222"/>
</svg>
