<svg width="30" height="30" viewBox="0 0 30 30" fill="none" xmlns="http://www.w3.org/2000/svg">
<path fill-rule="evenodd" clip-rule="evenodd" d="M0.87868 0.87868C0 1.75736 0 3.17157 0 6V24C0 26.8284 0 28.2426 0.87868 29.1213C1.75736 30 3.17157 30 6 30H24C26.8284 30 28.2426 30 29.1213 29.1213C30 28.2426 30 26.8284 30 24V6C30 3.17157 30 1.75736 29.1213 0.87868C28.2426 0 26.8284 0 24 0H6C3.17157 0 1.75736 0 0.87868 0.87868ZM23.3321 11.0547C23.6384 10.5952 23.5142 9.9743 23.0547 9.66795C22.5952 9.3616 21.9743 9.48577 21.6679 9.9453L16.6238 17.5115L15.1651 14.594C14.4783 13.2205 12.5639 13.1013 11.7121 14.3791L6.66795 21.9453C6.3616 22.4048 6.48577 23.0257 6.9453 23.3321C7.40483 23.6384 8.0257 23.5142 8.33205 23.0547L13.3762 15.4885L14.8349 18.406C15.5217 19.7795 17.4361 19.8987 18.2879 18.6209L23.3321 11.0547Z" fill="#ADADAD"/>
</svg>
