<svg width="17" height="20" viewBox="0 0 17 20" fill="none" xmlns="http://www.w3.org/2000/svg">
<path d="M8.20711 0.292893C8.59763 0.683417 8.59763 1.31658 8.20711 1.70711L6.91421 3H8.5C13.1523 3 17 6.84772 17 11.5C17 16.1523 13.1523 20 8.5 20C3.84772 20 0 16.1523 0 11.5C0 10.9477 0.447715 10.5 1 10.5C1.55228 10.5 2 10.9477 2 11.5C2 15.0477 4.95228 18 8.5 18C12.0477 18 15 15.0477 15 11.5C15 7.95228 12.0477 5 8.5 5H6.91421L8.20711 6.29289C8.59763 6.68342 8.59763 7.31658 8.20711 7.70711C7.81658 8.09763 7.18342 8.09763 6.79289 7.70711L3.79289 4.70711C3.40237 4.31658 3.40237 3.68342 3.79289 3.29289L6.79289 0.292893C7.18342 -0.0976311 7.81658 -0.0976311 8.20711 0.292893Z" fill="#F36A21"/>
</svg>
