<svg width="39" height="39" viewBox="0 0 39 39" fill="none" xmlns="http://www.w3.org/2000/svg">
<path d="M27.0833 15.1667C28.8783 15.1667 30.3333 13.7116 30.3333 11.9167C30.3333 10.1217 28.8783 8.66667 27.0833 8.66667C25.2884 8.66667 23.8333 10.1217 23.8333 11.9167C23.8333 13.7116 25.2884 15.1667 27.0833 15.1667Z" fill="#0D0D0D" fill-opacity="0.29"/>
<path d="M0 4.33333C0 1.9401 1.9401 0 4.33333 0H34.6667C37.0599 0 39 1.9401 39 4.33333V34.6667C39 37.0599 37.0599 39 34.6667 39H4.33333C1.9401 39 0 37.0599 0 34.6667V4.33333ZM34.6667 4.33333H4.33333V21.492L11.6466 15.6415C12.4379 15.0084 13.5623 15.0084 14.3536 15.6415L23.6726 23.0967L26.6347 20.1346C27.4808 19.2885 28.8527 19.2885 29.6988 20.1346L34.6667 25.1025V4.33333ZM4.33333 34.6667H34.6667V31.2307L28.1667 24.7308L25.3655 27.5321C24.5848 28.3127 23.342 28.3816 22.4799 27.6919L13.0001 20.108L4.33333 27.0414V34.6667Z" fill="#0D0D0D" fill-opacity="0.29"/>
</svg>
