<svg width="47" height="27" viewBox="0 0 47 27" fill="none" xmlns="http://www.w3.org/2000/svg">
<path d="M45.9083 20.566C45.9083 20.566 39.4856 20.9615 21.3564 22.2587C5.48946 23.3977 1.01257 20.7242 1.01257 20.7242C1.01257 20.7242 -0.44287 22.5909 0.569578 24.8057C0.569578 24.8057 7.21374 26.9888 23.9824 26.8622C40.7511 26.7356 43.5986 26.7198 43.5986 26.7198C43.5986 26.7198 45.8766 27.321 46.5093 24.6158C47.1421 21.9107 45.9083 20.566 45.9083 20.566Z" fill="#C1C1C1"/>
<path d="M34.1387 10.5998C33.237 10.2834 32.3985 9.96698 31.6075 9.65059C30.7533 13.0676 25.4063 13.3207 21.7837 13.9535C20.2492 14.2224 19.3158 14.5546 18.5406 14.9027C21.9576 17.7502 24.1249 22.0689 24.1249 22.0689C28.4278 21.7683 31.9872 21.5152 34.898 21.3096C34.898 21.3096 34.5658 20.2655 35.0246 17.7818C35.4833 15.2981 40.6088 15.2349 40.6088 15.2349C41.2574 13.732 39.4065 12.4032 34.1544 10.6156L34.1387 10.5998Z" fill="#222222"/>
<path d="M14.9971 16.3897C15.1553 16.6744 15.2503 16.9908 15.2345 17.3072C15.0763 19.2213 10.1881 19.7434 5.56878 18.8417C3.78118 18.4936 2.94272 18.0507 2.57887 17.6394C2.34158 17.766 2.1359 17.9083 1.96189 18.0507C0.174287 19.6959 1.01276 20.7084 1.01276 20.7084C1.01276 20.7084 5.48965 23.3977 21.3566 22.2429C22.3216 22.1796 23.2391 22.1005 24.125 22.0372C24.125 22.0372 21.4674 16.7852 17.4334 14.0326C17.8131 14.2857 18.1768 14.5704 18.5407 14.871C17.4491 15.3614 16.674 15.9151 14.9971 16.358V16.3897Z" fill="#7F8284"/>
<path d="M14.9811 16.3896C14.6964 15.8834 14.1585 15.4404 13.6048 15.0766C13.2568 15.2822 12.9721 15.4404 12.7823 15.5353C12.545 15.6303 12.2602 15.7252 11.9121 15.8043C9.47594 16.3896 4.66686 16.5636 2.56287 17.6551C2.9109 18.0665 3.74935 18.5094 5.55278 18.8574C10.1721 19.7592 15.0603 19.2371 15.2185 17.323C15.2501 16.9907 15.1551 16.6902 14.9811 16.4054V16.3896Z" fill="white"/>
<path d="M31.6073 9.63471C27.8423 8.0844 25.5643 6.51826 25.5643 6.51826C25.5643 6.51826 20.1066 10.6471 16.2308 13.3365C17.0535 13.7478 17.8127 14.2856 18.5404 14.8868C19.3156 14.5387 20.249 14.2065 21.7835 13.9376C25.4062 13.3048 30.7531 13.0517 31.6073 9.63471Z" fill="#C1C1C1"/>
<path d="M16.9111 13.7319C16.9111 13.7319 16.832 13.6845 16.7845 13.6528C16.6105 13.5421 16.4207 13.4472 16.2308 13.3523C15.2026 14.0641 14.285 14.6653 13.6206 15.0766C14.1743 15.4404 14.6963 15.8834 14.9969 16.3896C16.6737 15.9309 17.4489 15.393 18.5404 14.9026C18.1924 14.602 17.8128 14.3331 17.4331 14.0641C17.4173 14.0641 17.4015 14.0483 17.3856 14.0325C17.2274 13.9218 17.0693 13.8268 16.9111 13.7319Z" fill="#C1C1C1"/>
<path d="M27.3046 3.18042C26.2288 4.84147 25.5644 6.53415 25.5644 6.53415C25.5644 6.53415 25.5644 6.53416 25.596 6.54998C25.596 6.54998 25.6277 6.56578 25.6435 6.5816C25.6435 6.5816 25.6751 6.59743 25.6751 6.61325C25.7067 6.62907 25.7384 6.66072 25.77 6.67654C25.77 6.67654 25.7859 6.67653 25.8017 6.69235C25.8492 6.72399 25.8966 6.75562 25.9598 6.78726C26.6401 7.21439 28.1271 8.08447 30.2311 9.04946C30.4368 9.14438 30.6425 9.23929 30.8481 9.31839C30.8639 9.31839 30.8955 9.33419 30.9114 9.35001C31.117 9.44493 31.3385 9.53984 31.56 9.61894C31.56 9.55566 31.5916 9.49239 31.6074 9.42912C32.082 6.99291 29.1712 4.50925 27.2571 3.14878L27.3046 3.18042Z" fill="#C1C1C1"/>
<path d="M42.7918 6.83462C42.7918 6.83462 38.0776 6.40749 33.8063 1.39271C31.2752 -1.58135 28.8548 0.775757 27.3045 3.18032C29.2187 4.52498 32.1295 7.02446 31.6549 9.46066C31.6549 9.52394 31.6232 9.58721 31.6074 9.65049C32.3825 9.96688 33.2369 10.2991 34.1386 10.5997C39.3906 12.4031 41.2573 13.7161 40.5928 15.219C40.5928 15.219 35.4674 15.2822 35.0086 17.7659C34.5498 20.2496 34.882 21.2936 34.882 21.2936C42.8076 20.74 45.8924 20.5501 45.8924 20.5501C45.8924 20.5501 46.9839 14.5071 42.7759 6.81881L42.7918 6.83462Z" fill="#7F8284"/>
<path d="M0.348132 22.1163C0.348132 22.1163 4.42959 25.1853 31.3227 24.157C37.5872 23.9197 42.6178 23.366 46.6518 22.67" stroke="#222222" stroke-width="0.692178" stroke-linecap="round" stroke-linejoin="round"/>
</svg>
