<svg width="107" height="98" viewBox="0 0 107 98" fill="none" xmlns="http://www.w3.org/2000/svg">
<path fill-rule="evenodd" clip-rule="evenodd" d="M30.8008 4.57384C12.6075 12.3758 0 29.3351 0 49C0 50.2226 0.048729 51.4347 0.1445 52.6348L41.8238 42.3733L30.8008 4.57384ZM48.6613 0.185075L60.3585 40.2964L60.4386 40.57C60.7831 41.7465 61.2645 43.3902 61.4891 44.8964C61.771 46.787 61.8874 49.8196 60.1064 52.9099C58.3254 56.0001 55.6431 57.4198 53.866 58.1238C52.4502 58.6846 50.7867 59.0921 49.596 59.3838L49.319 59.4517L5.28473 70.293C13.9081 86.6895 32.1808 98 53.3286 98C82.7812 98 106.657 76.062 106.657 49C106.657 21.9381 82.7812 0 53.3286 0C51.756 0 50.1993 0.062545 48.6613 0.185075Z" fill="#F1F1F1"/>
</svg>
