<svg width="13" height="13" viewBox="0 0 13 13" fill="none" xmlns="http://www.w3.org/2000/svg">
<path d="M6.50014 0C6.74635 0 6.97142 0.139104 7.08153 0.359318L8.75785 3.71196L12.4438 4.2481C12.6886 4.28371 12.892 4.4552 12.9684 4.69048C13.0449 4.92577 12.9812 5.18405 12.804 5.35675L10.1213 7.97237L10.7248 11.6603C10.7647 11.904 10.663 12.1493 10.4624 12.2933C10.2617 12.4373 9.99682 12.4552 9.77866 12.3394L6.50014 10.5998L3.22162 12.3394C3.00346 12.4552 2.73854 12.4373 2.53791 12.2933C2.33727 12.1493 2.23558 11.904 2.27547 11.6603L2.87894 7.97237L0.196258 5.35675C0.0191256 5.18405 -0.0446149 4.92577 0.0318308 4.69048C0.108276 4.4552 0.311654 4.28371 0.556468 4.2481L4.24243 3.71196L5.91875 0.359318C6.02886 0.139104 6.25393 0 6.50014 0ZM6.50014 2.10348L5.25337 4.59703C5.15824 4.78728 4.97604 4.91896 4.76554 4.94957L2.04651 5.34507L4.02886 7.27786C4.18076 7.42596 4.25083 7.63887 4.21657 7.84824L3.77009 10.5767L6.19547 9.28975C6.386 9.18865 6.61428 9.18865 6.80481 9.28975L9.23019 10.5767L8.78371 7.84824C8.74945 7.63887 8.81952 7.42596 8.97142 7.27786L10.9538 5.34507L8.23474 4.94957C8.02424 4.91896 7.84204 4.78728 7.74691 4.59703L6.50014 2.10348Z" fill="#4D4D4D"/>
</svg>
