<svg width="386" height="292" viewBox="0 0 386 292" fill="none" xmlns="http://www.w3.org/2000/svg">
<path d="M385.349 106.432C377.294 61.1202 351.665 23.5697 285.317 44.9833C218.968 66.3828 257.943 167.602 178.961 167.448C106.024 167.294 231.797 27.1293 84.7497 38.3386C-17.1531 46.114 -15.7013 124.16 29.1778 146.118C30.9786 146.998 32.8072 147.724 34.6499 148.352C29.8758 173.618 30.6017 209.828 65.7093 235.765C123.933 278.759 197.345 258.798 212.114 202.402C226.883 146.007 243.914 160.789 285.163 173.157C326.413 185.525 393.39 151.758 385.335 106.46L385.349 106.432Z" fill="#F36A21" fill-opacity="0.19"/>
<path d="M151.377 33.5231H133.118V72.7068H151.377V33.5231Z" fill="#C1C1C1"/>
<path opacity="0.63" d="M178.177 9.06667H159.918V72.6931H178.177V9.06667Z" fill="#A6A6A6"/>
<path d="M204.993 33.5231H186.734V72.7068H204.993V33.5231Z" fill="#C1C1C1"/>
<path d="M231.796 40.8796H213.537V72.6928H231.796V40.8796Z" fill="#D6D7D8"/>
<path d="M258.612 54.4342H240.353V72.6929H258.612V54.4342Z" fill="#D6D7D8"/>
<path d="M118.489 72.6925H273.241" stroke="#222222" stroke-width="0.614125" stroke-linecap="round" stroke-linejoin="round"/>
<path opacity="0.63" d="M184.126 83.8601H155.51V89.4996H184.126V83.8601Z" fill="#A6A6A6"/>
<path opacity="0.63" d="M212.729 95.139H155.51V100.779H212.729V95.139Z" fill="#A6A6A6"/>
<path d="M169.818 106.433H155.51V112.072H169.818V106.433Z" fill="#D6D7D8"/>
<path d="M161.149 117.725H155.51V123.365H161.149V117.725Z" fill="#D6D7D8"/>
<path d="M236.222 83.8601H155.51V89.4996H236.222V83.8601Z" fill="#D6D7D8"/>
<path d="M236.222 95.139H155.51V100.779H236.222V95.139Z" stroke="#222222" stroke-width="0.614125" stroke-linecap="round" stroke-linejoin="round"/>
<path d="M236.222 106.433H155.51V112.072H236.222V106.433Z" stroke="#222222" stroke-width="0.614125" stroke-linecap="round" stroke-linejoin="round"/>
<path d="M236.222 117.725H155.51V123.365H236.222V117.725Z" stroke="#222222" stroke-width="0.614125" stroke-linecap="round" stroke-linejoin="round"/>
<path d="M53.0053 275.997V283.507L68.4024 282.223L68.7653 273.01L53.0053 275.997Z" fill="#FB7869"/>
<path d="M99.2245 275.997V283.507L114.608 282.223L114.985 273.01L99.2245 275.997Z" fill="#FB7869"/>
<path d="M68.0124 276.29L63.4616 274.699C62.3588 277.03 63.4616 278.426 63.4616 278.426C63.4616 278.426 63.7687 275.006 68.0124 276.276V276.29Z" fill="#333435"/>
<path d="M87.5551 284.666C83.1579 284.178 75.0755 279.403 69.4499 276.835C69.2265 276.737 69.0032 276.64 68.7938 276.556C68.7798 276.556 68.7658 276.556 68.7379 276.542L67.9981 276.277C63.7545 275.006 63.4474 278.426 63.4474 278.426C63.4474 278.426 59.5388 283.563 51.8193 278.175C51.8193 278.175 49.1252 283.675 50.9678 287.235C50.9678 287.235 85.2099 288.924 90.7657 286.327C90.1794 285.546 89.2022 284.848 87.5411 284.666H87.5551Z" fill="#7F8284"/>
<path d="M51.0925 291.156H84.874C84.874 291.156 91.1138 290.905 91.6024 289.202C91.6024 289.202 91.742 287.638 90.7788 286.326C85.223 288.937 50.9808 287.234 50.9808 287.234C50.9808 287.234 49.7245 288.951 51.0925 291.142V291.156Z" fill="#333435"/>
<path d="M50.5342 288.31C50.5342 288.31 89.4388 290.823 91.2535 287.194" stroke="white" stroke-width="0.614125" stroke-miterlimit="10"/>
<path d="M70.9008 277.519L69.8259 279.167" stroke="#222222" stroke-width="0.614125" stroke-linecap="round" stroke-linejoin="round"/>
<path d="M73.4815 278.831L72.3927 280.478" stroke="#222222" stroke-width="0.614125" stroke-linecap="round" stroke-linejoin="round"/>
<path d="M76.05 280.116L74.9751 281.764" stroke="#222222" stroke-width="0.614125" stroke-linecap="round" stroke-linejoin="round"/>
<path d="M78.6756 281.4L77.5868 283.047" stroke="#222222" stroke-width="0.614125" stroke-linecap="round" stroke-linejoin="round"/>
<path d="M78.6756 281.4L77.5868 283.047" stroke="#222222" stroke-width="0.614125" stroke-linecap="round" stroke-linejoin="round"/>
<path d="M81.287 282.683L80.2121 284.33" stroke="#222222" stroke-width="0.614125" stroke-linecap="round" stroke-linejoin="round"/>
<path d="M114.984 276.29L110.433 274.699C109.33 277.03 110.433 278.426 110.433 278.426C110.433 278.426 110.74 275.006 114.984 276.276V276.29Z" fill="#333435"/>
<path d="M134.526 284.666C130.129 284.178 122.047 279.403 116.421 276.835C116.198 276.737 115.974 276.64 115.765 276.556C115.751 276.556 115.737 276.556 115.709 276.542L114.969 276.277C110.726 275.006 110.419 278.426 110.419 278.426C110.419 278.426 106.51 283.563 98.7905 278.175C98.7905 278.175 96.0964 283.675 97.939 287.235C97.939 287.235 132.181 288.924 137.737 286.327C137.151 285.546 136.173 284.848 134.512 284.666H134.526Z" fill="#7F8284"/>
<path d="M98.0638 291.156H131.845C131.845 291.156 138.085 290.905 138.574 289.202C138.574 289.202 138.713 287.638 137.75 286.326C132.194 288.937 97.9521 287.234 97.9521 287.234C97.9521 287.234 96.6958 288.951 98.0638 291.142V291.156Z" fill="#333435"/>
<path d="M97.5055 288.31C97.5055 288.31 136.424 290.823 138.225 287.194" stroke="white" stroke-width="0.614125" stroke-miterlimit="10"/>
<path d="M117.872 277.519L116.797 279.167" stroke="#222222" stroke-width="0.614125" stroke-linecap="round" stroke-linejoin="round"/>
<path d="M120.455 278.831L119.366 280.478" stroke="#222222" stroke-width="0.614125" stroke-linecap="round" stroke-linejoin="round"/>
<path d="M123.025 280.116L121.95 281.764" stroke="#222222" stroke-width="0.614125" stroke-linecap="round" stroke-linejoin="round"/>
<path d="M125.649 281.4L124.56 283.047" stroke="#222222" stroke-width="0.614125" stroke-linecap="round" stroke-linejoin="round"/>
<path d="M125.649 281.4L124.56 283.047" stroke="#222222" stroke-width="0.614125" stroke-linecap="round" stroke-linejoin="round"/>
<path d="M128.258 282.683L127.183 284.33" stroke="#222222" stroke-width="0.614125" stroke-linecap="round" stroke-linejoin="round"/>
<path d="M56.2875 132.958L50.3409 279.809L70.9029 277.52L78.399 153.157L83.3685 146.959L84.8901 132.958H56.2875Z" fill="#222222"/>
<path d="M79.3898 132.958C80.3529 132.958 97.3553 279.921 97.3553 279.921L117.876 277.52L100.399 132.958H79.3898Z" fill="#222222"/>
<path opacity="0.3" d="M60.8937 134.479L55.324 279.265" stroke="white" stroke-width="0.614125" stroke-miterlimit="10"/>
<path opacity="0.3" d="M83.3688 146.96L103.833 279.168" stroke="white" stroke-width="0.614125" stroke-miterlimit="10"/>
<path d="M140.851 95.5041C147.467 91.3443 145.708 89.9204 145.708 89.9204C145.708 89.9204 138.603 94.2757 138.31 94.4432C136.272 95.6996 135.099 95.895 139.818 92.8658C145.192 89.4179 144.145 87.31 144.145 87.31L135.253 92.3633C142.498 86.9192 140.837 85.1324 140.837 85.1324L130.618 91.791C130.953 84.6857 128.064 83.7783 128.315 85.9839C128.399 86.7517 128.301 87.8126 128.134 88.8735C127.813 90.8278 127.003 92.6425 125.886 94.2757C124.518 96.2719 124.267 98.4775 124.267 98.4775L106.05 106.002C106.05 106.002 102.365 82.0753 99.6428 71.3127C99.6428 71.3127 95.6783 61.262 85.8789 62.9371C85.8789 62.9371 90.7367 100.027 92.9004 110.064C93.5146 112.911 94.0172 121.608 102.142 120.408C109.889 119.263 128.231 103.573 128.231 103.573C129.195 103.377 135.141 102.051 140.613 99.0917C146.588 95.8531 145.639 94.4293 145.639 94.4293C145.639 94.4293 134.304 99.6361 140.879 95.5181L140.851 95.5041Z" fill="#F97869"/>
<path d="M86.8704 62.198C86.8704 62.198 86.7863 62.198 86.7443 62.212C86.8143 62.212 86.8704 62.198 86.8704 62.198Z" fill="#F97869"/>
<path d="M103.161 112.158C103.607 107.077 106.036 106.002 106.036 106.002L101.053 107.984" stroke="#222222" stroke-width="0.614125" stroke-linecap="round" stroke-linejoin="round"/>
<path d="M128.707 98.5754C128.707 98.5754 132.769 95.9231 135.352 98.4358" stroke="#222222" stroke-width="0.614125" stroke-linecap="round" stroke-linejoin="round"/>
<path d="M133.606 91.8612C133.885 91.8612 136.691 95.0439 138.296 97.9614" stroke="#222222" stroke-width="0.614125" stroke-linecap="round" stroke-linejoin="round"/>
<path d="M132.03 93.8282V97.3879" stroke="#222222" stroke-width="0.614125" stroke-linecap="round" stroke-linejoin="round"/>
<path d="M73.065 62.197C57.5283 62.197 55.3786 67.2363 55.3786 67.2363C55.3786 67.2363 57.0537 82.4938 57.0537 92.8376C57.0537 103.181 55.0994 133.417 55.3786 133.417C55.6578 133.417 79.0256 139.294 100.998 133.417V91.1625C100.998 77.5941 99.462 62.197 89.1042 62.197C88.6156 62.197 72.5764 62.197 73.065 62.197Z" fill="#F36A21"/>
<path d="M55.2257 125.755C52.6991 125.866 50.1864 125.42 47.953 124.261C38.7817 119.557 18.2476 108.571 18.7641 104.914C19.2666 101.41 37.0089 81.5178 46.0266 71.5788C49.3349 67.9355 53.774 65.5065 58.6318 64.669C60.7536 69.7083 60.6559 75.4595 60.3069 78.9773C60.1255 80.764 59.7485 82.509 59.1762 84.212C55.1978 83.8072 31.7043 103.252 31.7043 103.252C31.7043 103.252 39.8845 110.065 43.8908 112.842C47.9111 115.62 50.8285 118.761 52.8945 117.044C54.9605 115.327 58.548 112.856 58.548 112.856C62.9452 111.6 68.9198 113.359 68.9198 113.359C67.8449 115.02 63.6432 114.42 62.2472 114.615C60.8513 114.811 60.3069 116.863 60.3069 116.863C67.2028 117.658 70.9159 120.716 70.9159 120.716C70.9159 120.716 70.7764 121.665 68.7523 121.567L71.5023 122.446C71.5023 122.446 71.0555 124.568 67.9566 123.745L70.3017 124.373C70.3017 124.373 70.1342 126.243 67.2586 125.545L68.4591 125.964C68.4591 125.964 68.501 128.24 65.3322 127.374C62.7637 126.662 57.1382 125.769 55.5468 125.727C55.4351 125.727 55.3235 125.727 55.1978 125.727L55.2257 125.755Z" fill="#FB7869"/>
<path d="M68.7526 121.596C68.7526 121.596 64.4532 119.656 59.9164 119.195" stroke="#222222" stroke-width="0.614125" stroke-linecap="round" stroke-linejoin="round"/>
<path d="M67.9576 123.772C67.9576 123.772 64.9564 122.544 59.596 121.455" stroke="#222222" stroke-width="0.614125" stroke-linecap="round" stroke-linejoin="round"/>
<path d="M67.2738 125.573C67.2738 125.573 61.9553 123.898 59.303 123.591" stroke="#222222" stroke-width="0.614125" stroke-linecap="round" stroke-linejoin="round"/>
<path d="M31.7024 103.265C31.7024 103.265 27.5426 102.441 23.8294 103.851" stroke="#222222" stroke-width="0.614125" stroke-linecap="round" stroke-linejoin="round"/>
<path d="M59.8863 33.5393C59.8863 33.5393 57.7644 15.7413 72.8405 14.2197C78.9965 13.5915 78.159 7.50528 83.7985 7.79842C86.9952 7.96594 89.3543 11.5116 90.1919 15.7692C91.3086 21.4227 87.5675 25.9734 89.0054 28.5419C90.4432 31.1104 98.9025 49.4809 80.197 57.2841C80.197 57.2841 65.2048 57.2143 57.3178 48.9364C47.1275 38.2297 59.8863 33.5533 59.8863 33.5533V33.5393Z" fill="#222222"/>
<path d="M69.8399 64.7516L69.2536 54.6032C74.5163 58.8468 80.9934 57.3671 80.9934 57.3671C80.9934 57.3671 81.2586 57.2973 81.7053 57.1158L83.9109 68.2693C83.9109 68.2693 74.265 71.4381 69.8399 64.7516Z" fill="#A6645D"/>
<g style="mix-blend-mode:multiply">
<path d="M80.9934 57.3671C80.9934 57.3671 74.5163 58.8468 69.2536 54.6032V54.7567C69.6165 55.3151 69.9795 55.7897 70.3424 56.1806C70.7891 56.6552 71.2637 57.074 71.7384 57.4509C75.6749 60.6196 80.2815 60.5917 82.3614 60.3823L81.7193 57.1019C81.2726 57.2833 81.0073 57.3531 81.0073 57.3531L80.9934 57.3671Z" fill="#A6645D"/>
</g>
<path d="M63.0281 38.1752C63.084 44.5127 65.3314 50.906 67.7464 53.4885C68.1931 53.9631 68.6677 54.3819 69.1423 54.7588C74.405 59.0024 80.8821 57.5227 80.8821 57.5227C80.8821 57.5227 81.1473 57.4529 81.594 57.2715C83.9811 56.3222 91.4213 52.4276 89.6345 40.981C88.5876 34.2666 85.4747 29.5623 82.5991 26.5331C80.5889 24.4113 77.127 25.0814 76.0103 27.7755C74.6423 31.0699 71.4456 35.0902 64.1309 37.896L63.0421 38.1752H63.0281Z" fill="#A6645D"/>
<path opacity="0.1" d="M81.5784 57.2724C81.1317 57.4539 80.8665 57.5237 80.8665 57.5237C80.8665 57.5237 74.3893 59.0034 69.1267 54.7597C68.6521 54.3828 68.1775 53.9641 67.7308 53.4895C65.3158 50.907 63.0684 44.5136 63.0125 38.1761C66.2371 46.2306 69.5873 50.5022 76.4553 45.756C80.8944 42.685 82.5416 46.0073 84.5657 46.0631C86.0733 46.105 87.9717 44.3042 89.7585 42.0428C90.9311 52.6798 83.8817 56.3651 81.5644 57.2724H81.5784Z" fill="#222222"/>
<path d="M74.6008 40.1434C74.6567 40.7576 75.2011 41.2043 75.8153 41.1485C76.4295 41.0927 76.8762 40.5482 76.8204 39.934C76.7645 39.3198 76.2201 38.8731 75.6059 38.929C74.9917 38.9848 74.545 39.5292 74.6008 40.1434Z" fill="#222222"/>
<path d="M74.4055 34.8524C73.6098 35.355 72.7304 36.2065 72.0743 37.6164" stroke="#222222" stroke-width="0.614125" stroke-linecap="round" stroke-linejoin="round"/>
<path d="M82.0268 33.5407C82.9761 33.6105 84.1486 33.9455 85.3771 34.8808" stroke="#222222" stroke-width="0.614125" stroke-linecap="round" stroke-linejoin="round"/>
<path d="M79.4601 36.9465C79.4601 36.9465 79.6834 39.166 81.9169 40.7434C84.625 42.6558 83.941 43.6888 81.9727 44.8614" stroke="#222222" stroke-width="0.614125" stroke-linecap="round" stroke-linejoin="round"/>
<g style="mix-blend-mode:multiply" opacity="0.5">
<path d="M72.8129 43.4238C73.4271 42.4327 74.4182 43.4936 74.4182 43.4936C74.4182 43.4936 74.9207 41.9581 75.87 42.6142C76.6936 43.1865 75.8002 45.4758 75.1022 45.6852C74.4042 45.8807 72.2824 44.2753 72.8129 43.4238Z" fill="#F43D4F"/>
</g>
<g style="mix-blend-mode:multiply" opacity="0.5">
<path d="M87.9609 42.2924C87.3606 41.2874 86.3555 42.3343 86.3555 42.3343C86.3555 42.3343 85.8809 40.7988 84.9177 41.4409C84.0802 41.9993 84.9317 44.3165 85.6297 44.5259C86.3276 44.7353 88.4774 43.1579 87.9609 42.3064V42.2924Z" fill="#F43D4F"/>
</g>
<path d="M82.3479 48.0305C82.3479 48.0305 79.235 49.2729 77.1551 46.3833" stroke="#222222" stroke-width="0.614125" stroke-linecap="round" stroke-linejoin="round"/>
<path d="M85.0005 37.7286C85.1959 38.3149 84.8888 38.943 84.3025 39.1524C83.7162 39.3478 83.0881 39.0407 82.8787 38.4545C82.6832 37.8682 82.9903 37.24 83.5766 37.0306C84.1629 36.8352 84.7911 37.1423 85.0005 37.7286Z" fill="#222222"/>
<path d="M62.9039 48.3959C62.9039 48.3959 57.9483 48.9124 57.055 43.8033C56.1476 38.6663 61.2706 38.9455 61.2706 38.9455C61.2706 38.9455 60.9636 42.7564 62.9039 48.3959Z" fill="#A6645D"/>
<path d="M60.2247 40.9275C60.2247 40.9275 58.2425 40.9833 57.9493 43.2168" stroke="#222222" stroke-width="0.614125" stroke-linecap="round" stroke-linejoin="round"/>
<path d="M59.108 41.5145C59.108 41.5145 58.9404 43.6921 60.7272 45.2137" stroke="#222222" stroke-width="0.614125" stroke-linecap="round" stroke-linejoin="round"/>
<path d="M91.2131 42.6862C91.2131 42.6862 95.3869 41.4159 94.3819 37.0048C93.3628 32.5518 89.3286 34.52 89.3286 34.52C89.3286 34.52 90.8641 37.4934 91.2131 42.7002V42.6862Z" fill="#A6645D"/>
<path d="M90.8503 35.7489C90.8503 35.7489 92.4696 35.1208 93.4607 36.8238" stroke="#222222" stroke-width="0.614125" stroke-linecap="round" stroke-linejoin="round"/>
<path d="M91.9395 35.8457C91.9395 35.8457 92.8189 37.5488 91.8836 39.3774" stroke="#222222" stroke-width="0.614125" stroke-linecap="round" stroke-linejoin="round"/>
<path d="M61.102 63.6493C61.102 63.6493 46.71 64.0262 29.4982 88.5108C29.4982 88.5108 35.7938 95.5742 43.7646 97.4727C43.7646 97.4727 56.9421 87.5197 60.8367 85.1606C60.8367 85.1606 66.3088 69.3587 61.102 63.6633V63.6493Z" fill="#F36A21"/>
<path d="M85.8242 62.5883C85.8242 62.5883 99.3926 59.1962 102.115 78.8509L104.823 98.5056L89.9003 101.94L85.8242 62.5883Z" fill="#F36A21"/>
<path d="M100.997 133.417V91.1625C100.997 77.5941 99.4618 62.197 89.104 62.197" stroke="#222222" stroke-width="0.614125" stroke-linecap="round" stroke-linejoin="round"/>
<path d="M131.915 80.888L129.45 103.578C129.332 104.666 130.119 105.644 131.207 105.763L143.933 107.145C145.021 107.263 145.999 106.477 146.118 105.389L148.582 82.6986C148.701 81.6103 147.914 80.6322 146.826 80.514L134.1 79.1315C133.012 79.0133 132.034 79.7997 131.915 80.888Z" fill="#7C7C7C"/>
<path d="M131.824 81.5926L129.516 102.839L146.183 104.65L148.491 83.4032L131.824 81.5926Z" fill="white"/>
<path d="M137.64 81.2797L142.903 81.852" stroke="white" stroke-width="0.614125" stroke-miterlimit="10"/>
<path d="M138.882 105.037C138.854 105.512 138.449 105.889 137.975 105.861C137.5 105.833 137.123 105.428 137.151 104.954C137.179 104.479 137.584 104.102 138.058 104.13C138.533 104.158 138.91 104.563 138.882 105.037Z" fill="white"/>
<path d="M273.341 83.4704L262.662 77.6633L255.529 73.671C255.529 73.671 255.194 70.6558 254.328 69.5251C253.463 68.3944 250.406 66.3144 249.819 63.7878C249.233 61.2612 246.651 64.4439 248.493 67.5568C248.493 67.5568 241.151 64.5277 238.638 63.4528C238.191 63.2574 236.907 62.699 236.502 63.7738C236.097 64.8487 237.158 65.4629 237.619 65.6584C239.462 66.454 244.836 69.0086 244.836 69.0086C244.836 69.0086 238.121 66.0073 235.832 65.1558C235.399 65.0023 234.562 64.751 234.129 65.7979C233.696 66.8449 234.911 67.4033 234.911 67.4033L243.538 71.6469C243.538 71.6469 238.107 69.3855 236.195 68.7713C235.832 68.6596 234.995 68.4502 234.59 69.3994C234.171 70.3487 235.148 70.7814 235.497 70.921C237.116 71.605 242.756 74.1875 242.756 74.1875L236.656 72.0517C236.656 72.0517 235.441 71.5352 235.162 72.4565C234.897 73.2941 236.097 73.7827 236.097 73.7827L242.435 76.5466C242.435 76.5466 248.521 79.841 250.713 80.511C250.908 80.5669 251.313 80.6087 251.536 80.3994C256.548 85.4107 265.537 91.9297 265.537 91.9297L273.341 83.4425V83.4704Z" fill="#BA5D56"/>
<path d="M242.281 74.6344C242.281 74.6344 242.253 71.6611 245.059 67.3197" stroke="#222222" stroke-width="0.614125" stroke-linecap="round" stroke-linejoin="round"/>
<path d="M248.13 67.3061C248.13 67.3061 248.828 68.7299 249.204 69.3581C249.204 69.3581 248.241 70.8657 248.842 72.6944C249.442 74.537 251.941 76.0446 251.941 76.0446" stroke="#222222" stroke-width="0.614125" stroke-linecap="round" stroke-linejoin="round"/>
<path d="M238.722 66.3294L244.082 68.6885" stroke="#222222" stroke-width="0.614125" stroke-linecap="round" stroke-linejoin="round"/>
<path d="M242.826 71.439L237.019 68.7867" stroke="#222222" stroke-width="0.614125" stroke-linecap="round" stroke-linejoin="round"/>
<path d="M242.197 74.0063L238.763 72.8058" stroke="#222222" stroke-width="0.614125" stroke-linecap="round" stroke-linejoin="round"/>
<path d="M297.882 54.1132L283.881 87.9365L257.777 72.7767C257.777 72.7767 253.687 77.1181 250.532 83.7348C250.532 83.7348 274.919 103.557 284.453 105.078C284.453 105.078 294.937 105.846 299.501 83.1624L297.882 54.0992V54.1132Z" fill="#F36A21"/>
<path d="M317.744 285.486C317.744 285.486 312.077 285.835 296.079 286.98C282.078 287.985 278.128 285.626 278.128 285.626C278.128 285.626 276.843 287.273 277.737 289.227C277.737 289.227 283.6 291.154 298.397 291.042C313.193 290.93 315.706 290.916 315.706 290.916C315.706 290.916 317.716 291.447 318.275 289.06C318.833 286.673 317.744 285.486 317.744 285.486Z" fill="#C1C1C1"/>
<path d="M307.359 276.694C306.563 276.414 305.823 276.135 305.125 275.856C304.371 278.871 299.653 279.095 296.457 279.653C295.102 279.89 294.279 280.183 293.595 280.491C296.61 283.003 298.522 286.814 298.522 286.814C302.319 286.549 305.46 286.326 308.029 286.144C308.029 286.144 307.736 285.223 308.14 283.031C308.545 280.84 313.068 280.784 313.068 280.784C313.64 279.458 312.007 278.285 307.373 276.708L307.359 276.694Z" fill="#222222"/>
<path d="M290.467 281.802C290.607 282.053 290.691 282.332 290.677 282.611C290.537 284.3 286.224 284.761 282.148 283.965C280.57 283.658 279.83 283.267 279.509 282.905C279.3 283.016 279.118 283.142 278.965 283.267C277.387 284.719 278.127 285.613 278.127 285.613C278.127 285.613 282.078 287.986 296.079 286.967C296.93 286.911 297.74 286.841 298.522 286.785C298.522 286.785 296.177 282.151 292.617 279.722C292.952 279.945 293.273 280.196 293.594 280.462C292.631 280.894 291.947 281.383 290.467 281.774V281.802Z" fill="#7F8284"/>
<path d="M290.453 281.8C290.202 281.354 289.727 280.963 289.239 280.642C288.932 280.823 288.68 280.963 288.513 281.047C288.304 281.13 288.052 281.214 287.745 281.284C285.595 281.8 281.352 281.954 279.495 282.917C279.802 283.28 280.542 283.671 282.134 283.978C286.21 284.774 290.523 284.313 290.663 282.624C290.691 282.331 290.607 282.066 290.453 281.814V281.8Z" fill="white"/>
<path d="M305.124 275.841C301.802 274.473 299.791 273.091 299.791 273.091C299.791 273.091 294.975 276.734 291.555 279.107C292.281 279.47 292.951 279.945 293.593 280.475C294.277 280.168 295.101 279.875 296.455 279.638C299.652 279.08 304.37 278.856 305.124 275.841Z" fill="#C1C1C1"/>
<path d="M292.156 279.455C292.156 279.455 292.086 279.413 292.044 279.385C291.891 279.288 291.723 279.204 291.556 279.12C290.648 279.748 289.839 280.279 289.252 280.642C289.741 280.963 290.202 281.354 290.467 281.8C291.947 281.396 292.631 280.921 293.594 280.488C293.287 280.223 292.952 279.986 292.617 279.748C292.603 279.748 292.589 279.734 292.575 279.72C292.435 279.623 292.296 279.539 292.156 279.455Z" fill="#C1C1C1"/>
<path d="M301.327 270.145C300.377 271.611 299.791 273.104 299.791 273.104C299.791 273.104 299.791 273.104 299.819 273.118C299.819 273.118 299.847 273.132 299.861 273.146C299.861 273.146 299.889 273.16 299.889 273.174C299.917 273.188 299.945 273.216 299.972 273.23C299.972 273.23 299.986 273.23 300 273.244C300.042 273.272 300.084 273.3 300.14 273.328C300.74 273.705 302.052 274.472 303.909 275.324C304.09 275.408 304.272 275.491 304.453 275.561C304.467 275.561 304.495 275.575 304.509 275.589C304.691 275.673 304.886 275.757 305.082 275.826C305.082 275.77 305.109 275.715 305.123 275.659C305.542 273.509 302.974 271.317 301.285 270.117L301.327 270.145Z" fill="#C1C1C1"/>
<path d="M314.994 273.37C314.994 273.37 310.835 272.993 307.066 268.568C304.832 265.944 302.696 268.024 301.328 270.146C303.017 271.332 305.586 273.538 305.167 275.687C305.167 275.743 305.139 275.799 305.125 275.855C305.809 276.134 306.563 276.427 307.359 276.693C311.993 278.284 313.64 279.442 313.054 280.769C313.054 280.769 308.531 280.824 308.126 283.016C307.722 285.208 308.015 286.129 308.015 286.129C315.008 285.64 317.73 285.473 317.73 285.473C317.73 285.473 318.694 280.14 314.98 273.356L314.994 273.37Z" fill="#7F8284"/>
<path d="M277.542 286.854C277.542 286.854 281.143 289.562 304.874 288.654C310.402 288.445 314.841 287.956 318.401 287.342" stroke="#222222" stroke-width="0.614125" stroke-linecap="round" stroke-linejoin="round"/>
<path d="M367.819 274.124C367.819 274.124 362.598 276.358 347.927 282.849C335.098 288.53 330.575 287.637 330.575 287.637C330.575 287.637 329.919 289.619 331.413 291.155C331.413 291.155 337.583 291.001 351.472 285.892C365.362 280.783 367.721 279.931 367.721 279.931C367.721 279.931 369.787 279.75 369.522 277.321C369.243 274.892 367.819 274.138 367.819 274.138V274.124Z" fill="#C1C1C1"/>
<path d="M355.075 269.35C354.237 269.35 353.441 269.35 352.688 269.308C352.995 272.393 348.625 274.208 345.806 275.813C344.605 276.497 343.935 277.042 343.391 277.572C347.076 278.926 350.161 281.858 350.161 281.858C353.637 280.322 356.526 279.052 358.871 278.019C358.871 278.019 358.285 277.251 357.922 275.046C357.559 272.84 361.789 271.263 361.789 271.263C361.887 269.825 359.946 269.28 355.047 269.35H355.075Z" fill="#222222"/>
<path d="M340.892 279.876C341.115 280.071 341.282 280.295 341.352 280.574C341.799 282.207 337.89 284.106 333.786 284.72C332.195 284.957 331.371 284.845 330.953 284.608C330.785 284.79 330.659 284.957 330.562 285.139C329.571 287.037 330.562 287.637 330.562 287.637C330.562 287.637 335.085 288.531 347.913 282.849C348.695 282.5 349.435 282.179 350.161 281.858C350.161 281.858 346.392 278.285 342.218 277.21C342.609 277.307 342.999 277.433 343.376 277.573C342.623 278.313 342.134 278.997 340.878 279.876H340.892Z" fill="#7F8284"/>
<path d="M340.893 279.876C340.502 279.541 339.93 279.332 339.357 279.192C339.134 279.472 338.938 279.681 338.799 279.821C338.631 279.974 338.422 280.142 338.157 280.309C336.314 281.524 332.378 283.101 330.94 284.623C331.359 284.86 332.182 284.972 333.774 284.734C337.878 284.12 341.786 282.208 341.339 280.588C341.27 280.309 341.102 280.086 340.879 279.89L340.893 279.876Z" fill="white"/>
<path d="M352.687 269.308C349.1 269.14 346.741 268.526 346.741 268.526C346.741 268.526 343.432 273.579 341.017 276.971C341.827 277.069 342.623 277.292 343.39 277.572C343.935 277.041 344.605 276.483 345.805 275.813C348.625 274.207 352.994 272.393 352.687 269.308Z" fill="#C1C1C1"/>
<path d="M341.7 277.083C341.7 277.083 341.616 277.069 341.574 277.055C341.393 277.027 341.211 276.985 341.03 276.971C340.388 277.865 339.815 278.647 339.369 279.191C339.941 279.331 340.513 279.54 340.904 279.875C342.16 278.996 342.649 278.312 343.403 277.572C343.026 277.432 342.635 277.306 342.244 277.209C342.23 277.209 342.202 277.209 342.188 277.209C342.035 277.167 341.867 277.139 341.7 277.097V277.083Z" fill="#C1C1C1"/>
<path d="M347.187 265.232C346.797 266.935 346.741 268.527 346.741 268.527C346.741 268.527 346.755 268.527 346.769 268.527C346.769 268.527 346.797 268.527 346.824 268.527C346.824 268.527 346.852 268.527 346.866 268.527C346.894 268.527 346.936 268.541 346.964 268.555H346.992C347.034 268.555 347.09 268.583 347.159 268.597C347.857 268.75 349.351 269.029 351.375 269.197C351.571 269.211 351.766 269.225 351.975 269.239C352.003 269.239 352.017 269.239 352.045 269.239C352.241 269.239 352.45 269.267 352.659 269.267C352.659 269.267 352.66 269.155 352.646 269.099C352.311 266.935 349.156 265.735 347.159 265.191L347.187 265.232Z" fill="#C1C1C1"/>
<path d="M361.147 263.655C361.147 263.655 357.113 264.702 352.06 261.812C349.073 260.095 347.76 262.775 347.188 265.232C349.184 265.777 352.339 266.977 352.674 269.141C352.674 269.197 352.674 269.252 352.688 269.308C353.428 269.35 354.224 269.364 355.075 269.35C359.975 269.28 361.915 269.825 361.817 271.263C361.817 271.263 357.588 272.84 357.951 275.045C358.314 277.251 358.9 278.019 358.9 278.019C365.321 275.199 367.834 274.124 367.834 274.124C367.834 274.124 366.94 268.778 361.161 263.655H361.147Z" fill="#7F8284"/>
<path d="M330.451 288.977C330.451 288.977 334.751 290.318 356.793 281.439C361.93 279.373 365.936 277.419 369.091 275.632" stroke="#222222" stroke-width="0.614125" stroke-linecap="round" stroke-linejoin="round"/>
<path d="M297.016 130.722L294.866 215.525L298.51 273.623C298.51 273.623 308.798 275.912 315.666 273.623L314.87 215.469L319.281 147.724L323.232 149.623L333.045 214.617L346.32 268.416C346.32 268.416 357.753 270.413 364.607 266.699L353.914 212.3L344.757 130.722H297.03H297.016Z" fill="#222222"/>
<path opacity="0.3" d="M339.353 132.956C339.353 132.956 344.518 196.582 346.347 210.541C348.175 224.501 361.813 267.356 361.813 267.356" stroke="white" stroke-width="0.614125" stroke-miterlimit="10"/>
<path opacity="0.3" d="M319.282 147.724C319.282 147.724 310.878 197.238 308.798 213.068C306.718 228.898 311.283 274.712 311.283 274.712" stroke="white" stroke-width="0.614125" stroke-miterlimit="10"/>
<path d="M297.881 54.1144C297.881 54.1144 313.892 47.8327 323.607 47.8327C333.323 47.8327 351.331 58.9862 351.331 58.9862C351.331 58.9862 345.049 89.571 344.756 101.004C344.477 112.436 347.324 132.733 347.324 132.733C347.324 132.733 332.178 146.734 295.591 132.733C295.591 132.733 296.443 78.7106 297.881 54.1283V54.1144Z" fill="#F36A21"/>
<path d="M309.077 28.7072C309.077 28.7072 304.429 27.7859 305.057 22.9002C305.685 17.9865 310.25 19.6756 310.25 19.6756C310.25 19.6756 308.91 23.0537 309.077 28.7072Z" fill="#BA5D56"/>
<path d="M308.728 21.1828C308.728 21.1828 306.913 20.6663 306.034 22.6206" stroke="#222222" stroke-width="0.614125" stroke-linecap="round" stroke-linejoin="round"/>
<path d="M307.555 21.4072C307.555 21.4072 306.788 23.3336 307.988 25.2181" stroke="#222222" stroke-width="0.614125" stroke-linecap="round" stroke-linejoin="round"/>
<path d="M330.755 6.05145C330.755 6.05145 332.849 5.42329 333.966 6.62379C335.083 7.82429 334.273 9.31793 334.273 9.31793C334.273 9.31793 337.889 7.5451 337.581 11.2443C337.233 15.4042 343.64 14.106 341.141 25.1478C338.796 35.5335 331.146 37.2365 331.146 37.2365L310.501 34.7797C305.824 27.0602 310.179 19.7036 310.179 19.7036C310.179 19.7036 307.848 17.0514 307.443 14.9435C307.039 12.8357 309.23 11.007 309.23 11.007C309.23 11.007 307.443 9.02478 309.021 6.81922C310.724 4.44614 313.306 5.25577 313.306 5.25577C313.306 5.25577 311.436 1.93346 314.144 0.495659C316.866 -0.942148 319.351 2.44996 319.351 2.44996C319.351 2.44996 320.356 -0.509409 323.399 0.0768811C326.847 0.732967 325.828 4.09716 325.828 4.09716C325.828 4.09716 327.196 2.49184 329.066 3.21772C330.937 3.9436 330.742 6.06542 330.742 6.06542L330.755 6.05145Z" fill="#222222"/>
<path d="M317.021 3.60791C317.021 3.60791 314.592 5.61806 316.029 7.67007C317.09 9.19163 318.891 8.21448 318.891 8.21448C318.891 8.21448 317.244 9.54061 318.891 11.2297" stroke="white" stroke-width="0.614125" stroke-linecap="round" stroke-linejoin="round"/>
<path d="M336.533 23.4578C336.477 29.8511 334.215 36.2724 331.773 38.8828C331.326 39.3713 330.851 39.7762 330.377 40.167C325.072 44.4386 318.553 42.9449 318.553 42.9449C318.553 42.9449 318.288 42.8751 317.841 42.6936C315.44 41.7444 307.944 37.8219 309.731 26.2775C310.792 19.5212 313.919 14.789 316.822 11.718C318.846 9.58222 322.322 10.2523 323.453 12.9743C324.835 16.2827 328.045 20.3448 335.416 23.1646L336.519 23.4438L336.533 23.4578Z" fill="#BA5D56"/>
<path opacity="0.2" d="M317.841 42.6932C318.287 42.8747 318.553 42.9445 318.553 42.9445C318.553 42.9445 325.072 44.4242 330.376 40.1666C330.851 39.7757 331.325 39.3709 331.772 38.8823C334.215 36.2719 336.476 29.8507 336.532 23.4573C336.532 23.4573 333.712 30.2694 330.376 31.7352C327.054 33.1869 323.327 28.371 318.525 30.8138C316.626 31.777 316.389 33.7453 314.7 33.6615C313.011 33.5778 309.13 28.7479 310.275 23.6527C310.065 24.4903 309.884 25.3697 309.73 26.291C307.93 37.8214 315.44 41.7579 317.841 42.7072V42.6932Z" fill="#020B31"/>
<path d="M331.214 52.1011L330.391 40.152C325.086 44.4235 318.567 42.9299 318.567 42.9299C318.567 42.9299 318.302 42.8601 317.855 42.6786L316.836 48.6811L315.203 55.0046C315.203 55.0046 326.761 58.8295 331.214 52.0872V52.1011Z" fill="#BA5D56"/>
<g style="mix-blend-mode:multiply">
<path d="M318.567 42.9445C318.567 42.9445 325.086 44.4242 330.391 40.1666V40.3062C330.042 40.8227 329.693 41.2834 329.344 41.6603C328.897 42.1488 328.423 42.5537 327.948 42.9445C324.025 46.0993 319.433 46.1133 317.311 45.9039L317.855 42.7072C318.302 42.8887 318.567 42.9585 318.567 42.9585V42.9445Z" fill="#A6645D"/>
</g>
<path d="M319.991 22.2325C319.991 22.2325 319.767 24.48 317.52 26.0434C314.784 27.9698 315.482 29.0028 317.45 30.1893" stroke="#222222" stroke-width="0.614125" stroke-linecap="round" stroke-linejoin="round"/>
<g style="mix-blend-mode:multiply" opacity="0.5">
<path d="M326.676 29.1016C326.061 28.0965 325.056 29.1714 325.056 29.1714C325.056 29.1714 324.554 27.6358 323.591 28.2919C322.767 28.8642 323.66 31.1815 324.372 31.3769C325.07 31.5723 327.206 29.9531 326.676 29.0876V29.1016Z" fill="#F43D4F"/>
</g>
<g style="mix-blend-mode:multiply" opacity="0.5">
<path d="M310.93 29.2537C311.53 28.2347 312.549 29.2956 312.549 29.2956C312.549 29.2956 313.024 27.7461 314.001 28.3882C314.838 28.9466 313.987 31.2778 313.275 31.4872C312.577 31.6966 310.413 30.1192 310.93 29.2537Z" fill="#F43D4F"/>
</g>
<path d="M317.084 33.3862C317.084 33.3862 320.211 34.6286 322.319 31.725" stroke="#222222" stroke-width="0.614125" stroke-linecap="round" stroke-linejoin="round"/>
<path d="M317.281 18.0728C316.346 17.9332 315.103 17.9751 313.68 18.6172" stroke="#222222" stroke-width="0.614125" stroke-linecap="round" stroke-linejoin="round"/>
<path d="M325.125 25.1089C325.223 25.7231 324.79 26.2954 324.176 26.3932C323.562 26.4909 322.99 26.0581 322.892 25.4439C322.794 24.8297 323.227 24.2574 323.841 24.1597C324.455 24.0619 325.028 24.4947 325.125 25.1089Z" fill="#222222"/>
<path d="M324.611 19.5808C325.532 19.8181 326.635 20.3625 327.696 21.5072" stroke="#222222" stroke-width="0.614125" stroke-linecap="round" stroke-linejoin="round"/>
<path d="M314.853 22.3166C314.378 22.7214 314.336 23.4333 314.741 23.9079C315.146 24.3826 315.858 24.4244 316.333 24.0196C316.807 23.6148 316.849 22.9029 316.444 22.4283C316.039 21.9536 315.328 21.9118 314.853 22.3166Z" fill="#222222"/>
<path d="M335.106 32.8C335.106 32.8 339.964 34.0284 341.611 29.1147C343.259 24.1732 338.121 23.6986 338.121 23.6986C338.121 23.6986 337.87 27.5094 335.12 32.786L335.106 32.8Z" fill="#BA5D56"/>
<path d="M338.863 25.8199C338.863 25.8199 340.831 26.155 340.789 28.4024" stroke="#222222" stroke-width="0.614125" stroke-linecap="round" stroke-linejoin="round"/>
<path d="M339.88 26.5603C339.88 26.5603 339.726 28.7379 337.73 29.9663" stroke="#222222" stroke-width="0.614125" stroke-linecap="round" stroke-linejoin="round"/>
<path d="M295.591 132.718C295.591 132.718 296.443 78.6952 297.881 54.1129" stroke="#222222" stroke-width="0.614125" stroke-linecap="round" stroke-linejoin="round"/>
<path d="M304.903 100.765L315.875 132.522C316.545 134.477 318.653 135.551 320.635 134.951L342.342 128.321C344.394 127.692 345.538 125.501 344.882 123.463L334.566 91.5378C333.924 89.5416 331.802 88.4249 329.792 89.0391L307.43 95.8373C305.336 96.4654 304.205 98.7129 304.917 100.779L304.903 100.765Z" fill="#7C7C7C"/>
<path d="M345.875 109.994L333.996 112.604L325.983 114.265C325.983 114.265 323.75 112.199 322.368 111.92C320.972 111.641 317.301 112.073 315.207 110.538C313.113 109.016 313.238 113.106 316.672 114.265C316.672 114.265 309.134 116.778 306.524 117.615C306.063 117.755 304.723 118.174 305.114 119.263C305.505 120.337 306.719 120.1 307.194 119.947C309.106 119.332 314.844 117.755 314.844 117.755C314.844 117.755 307.808 119.877 305.519 120.728C305.086 120.882 304.29 121.259 304.653 122.334C305.002 123.408 306.301 123.032 306.301 123.032L315.611 120.603C315.611 120.603 310.014 122.445 308.185 123.227C307.836 123.367 307.068 123.771 307.389 124.762C307.696 125.754 308.716 125.433 309.078 125.321C310.754 124.776 316.7 123.032 316.7 123.032L310.684 125.419C310.684 125.419 309.427 125.823 309.818 126.717C310.167 127.512 311.396 127.094 311.396 127.094L317.998 125.042C317.998 125.042 324.755 123.548 326.863 122.627C327.058 122.543 327.379 122.306 327.407 121.999C334.47 122.515 345.54 121.552 345.54 121.552L345.875 110.021V109.994Z" fill="#BA5D56"/>
<path d="M308.478 119.694L314.075 117.963" stroke="#222222" stroke-width="0.614125" stroke-linecap="round" stroke-linejoin="round"/>
<path d="M314.926 120.866L308.798 122.653" stroke="#222222" stroke-width="0.614125" stroke-linecap="round" stroke-linejoin="round"/>
<path d="M316.142 123.225L312.763 124.565" stroke="#222222" stroke-width="0.614125" stroke-linecap="round" stroke-linejoin="round"/>
<path d="M351.277 58.972C346.489 58.274 343.334 65.0722 344.521 77.6356C345.721 90.1989 348.89 107.02 348.89 107.02L327.658 111.124C327.658 111.124 327.854 117.936 329.529 123.897C329.529 123.897 356.233 124.888 362.389 118.341C368.545 111.794 362.207 91.9159 361.007 85.0479C357.824 66.7194 351.263 58.972 351.263 58.972H351.277Z" fill="#F36A21"/>
<path d="M351.277 58.972C346.489 58.274 343.334 65.0722 344.521 77.6356C345.721 90.1989 348.89 107.02 348.89 107.02L327.658 111.124C327.658 111.124 327.854 117.936 329.529 123.897" stroke="#222222" stroke-width="0.614125" stroke-linecap="round" stroke-linejoin="round"/>
<path d="M354.179 110.788C351.121 106.712 348.483 107.089 348.483 107.089L353.76 106.14" stroke="#222222" stroke-width="0.614125" stroke-linecap="round" stroke-linejoin="round"/>
<path d="M283.881 87.9368C283.881 87.9368 286.058 89.9609 286.058 93.3809" stroke="#222222" stroke-width="0.614125" stroke-linecap="round" stroke-linejoin="round"/>
<path d="M324.88 103.795C324.88 105.08 323.833 106.126 322.549 106.126C321.265 106.126 320.218 105.08 320.218 103.795C320.218 102.511 321.265 101.464 322.549 101.464C323.833 101.464 324.88 102.511 324.88 103.795Z" fill="white"/>
<path d="M257.094 12.4443L261.464 4.22226L236.058 17.2881L275.772 24.533L257.094 12.4443Z" stroke="#222222" stroke-width="0.614125" stroke-linecap="round" stroke-linejoin="round"/>
<path d="M133.33 18.2924L134.642 14.0488L123.935 22.4244L143.143 22.2708L133.33 18.2924Z" stroke="#222222" stroke-width="0.614125" stroke-linecap="round" stroke-linejoin="round"/>
<path d="M369.771 40.7406L375.047 38.0186L356.998 35.6455L375.173 53.8344L369.771 40.7406Z" stroke="#222222" stroke-width="0.614125" stroke-linecap="round" stroke-linejoin="round"/>
<path d="M115.378 59.5698C115.741 61.1751 114.75 62.7804 113.13 63.1573C111.525 63.5203 109.92 62.5291 109.543 60.9099C109.18 59.3045 110.171 57.6992 111.79 57.3223C113.396 56.9454 115.001 57.9505 115.378 59.5698Z" stroke="#222222" stroke-width="0.614125" stroke-linecap="round" stroke-linejoin="round"/>
<path d="M136.039 128.614C136.402 130.22 135.411 131.825 133.791 132.202C132.186 132.579 130.581 131.574 130.204 129.954C129.841 128.349 130.832 126.744 132.451 126.367C134.071 125.99 135.662 126.995 136.039 128.614Z" stroke="#222222" stroke-width="0.614125" stroke-linecap="round" stroke-linejoin="round"/>
<path d="M277.292 124.999C278.576 126.604 275.1 128.209 269.516 128.586C263.947 128.949 258.391 127.958 257.107 126.339C255.822 124.733 259.298 123.128 264.882 122.751C270.452 122.374 276.007 123.379 277.292 124.999Z" stroke="#222222" stroke-width="0.614125" stroke-linecap="round" stroke-linejoin="round"/>
</svg>
