<svg width="16" height="15" viewBox="0 0 16 15" fill="none" xmlns="http://www.w3.org/2000/svg">
<path d="M8.29289 0.313814C8.68342 -0.104605 9.31658 -0.104605 9.70711 0.313814L15.7071 6.74239C15.8946 6.94332 16 7.21584 16 7.5C16 7.78416 15.8946 8.05668 15.7071 8.25762L9.70711 14.6862C9.31658 15.1046 8.68342 15.1046 8.29289 14.6862C7.90237 14.2678 7.90237 13.5894 8.29289 13.171L12.5858 8.57143L1 8.57143C0.447715 8.57143 0 8.09173 0 7.5C0 6.90827 0.447715 6.42857 1 6.42857L12.5858 6.42857L8.29289 1.82904C7.90237 1.41062 7.90237 0.732233 8.29289 0.313814Z" fill="#0D0D0D"/>
</svg>
