<svg width="147" height="320" viewBox="0 0 147 320" fill="none" xmlns="http://www.w3.org/2000/svg">
<path d="M38.6792 302.881V311.361L56.0666 309.911L56.4765 299.507L38.6792 302.881Z" fill="#FB7869"/>
<path d="M90.873 302.881V311.361L108.245 309.911L108.67 299.507L90.873 302.881Z" fill="#FB7869"/>
<path d="M55.6251 303.212L50.4861 301.415C49.2407 304.047 50.4861 305.623 50.4861 305.623C50.4861 305.623 50.8329 301.761 55.6251 303.196V303.212Z" fill="#333435"/>
<path d="M77.6944 312.67C72.7288 312.118 63.6016 306.727 57.2488 303.826C56.9966 303.716 56.7443 303.606 56.5079 303.511C56.4921 303.511 56.4763 303.511 56.4448 303.495L55.6093 303.196C50.8172 301.761 50.4704 305.623 50.4704 305.623C50.4704 305.623 46.0565 311.424 37.3391 305.34C37.3391 305.34 34.2968 311.551 36.3776 315.57C36.3776 315.57 75.046 317.478 81.32 314.546C80.6579 313.663 79.5545 312.875 77.6786 312.67H77.6944Z" fill="#7F8284"/>
<path d="M36.5194 320H74.6677C74.6677 320 81.7141 319.716 82.2658 317.793C82.2658 317.793 82.4235 316.028 81.3358 314.546C75.0618 317.494 36.3933 315.57 36.3933 315.57C36.3933 315.57 34.9746 317.509 36.5194 319.984V320Z" fill="#333435"/>
<path d="M35.889 316.784C35.889 316.784 79.8226 319.622 81.8719 315.523" stroke="white" stroke-width="0.692178" stroke-miterlimit="10"/>
<path d="M58.8882 304.599L57.6743 306.459" stroke="#222222" stroke-width="0.692178" stroke-linecap="round" stroke-linejoin="round"/>
<path d="M61.8044 306.081L60.5748 307.941" stroke="#222222" stroke-width="0.692178" stroke-linecap="round" stroke-linejoin="round"/>
<path d="M64.7048 307.531L63.491 309.391" stroke="#222222" stroke-width="0.692178" stroke-linecap="round" stroke-linejoin="round"/>
<path d="M67.6688 308.981L66.4392 310.841" stroke="#222222" stroke-width="0.692178" stroke-linecap="round" stroke-linejoin="round"/>
<path d="M67.6688 308.981L66.4392 310.841" stroke="#222222" stroke-width="0.692178" stroke-linecap="round" stroke-linejoin="round"/>
<path d="M70.6164 310.431L69.4026 312.291" stroke="#222222" stroke-width="0.692178" stroke-linecap="round" stroke-linejoin="round"/>
<path d="M108.67 303.212L103.531 301.415C102.286 304.047 103.531 305.623 103.531 305.623C103.531 305.623 103.878 301.761 108.67 303.196V303.212Z" fill="#333435"/>
<path d="M130.74 312.67C125.774 312.118 116.647 306.727 110.294 303.826C110.042 303.716 109.79 303.606 109.553 303.511C109.537 303.511 109.522 303.511 109.49 303.495L108.655 303.196C103.862 301.761 103.516 305.623 103.516 305.623C103.516 305.623 99.1017 311.424 90.3843 305.34C90.3843 305.34 87.342 311.551 89.4228 315.57C89.4228 315.57 128.091 317.478 134.365 314.546C133.703 313.663 132.6 312.875 130.724 312.67H130.74Z" fill="#7F8284"/>
<path d="M89.5646 320H127.713C127.713 320 134.759 319.716 135.311 317.793C135.311 317.793 135.469 316.028 134.381 314.546C128.107 317.494 89.4385 315.57 89.4385 315.57C89.4385 315.57 88.0197 317.509 89.5646 319.984V320Z" fill="#333435"/>
<path d="M88.9342 316.784C88.9342 316.784 132.884 319.622 134.917 315.523" stroke="white" stroke-width="0.692178" stroke-miterlimit="10"/>
<path d="M111.933 304.599L110.72 306.459" stroke="#222222" stroke-width="0.692178" stroke-linecap="round" stroke-linejoin="round"/>
<path d="M114.85 306.081L113.62 307.941" stroke="#222222" stroke-width="0.692178" stroke-linecap="round" stroke-linejoin="round"/>
<path d="M117.75 307.531L116.536 309.391" stroke="#222222" stroke-width="0.692178" stroke-linecap="round" stroke-linejoin="round"/>
<path d="M120.714 308.981L119.484 310.841" stroke="#222222" stroke-width="0.692178" stroke-linecap="round" stroke-linejoin="round"/>
<path d="M120.714 308.981L119.484 310.841" stroke="#222222" stroke-width="0.692178" stroke-linecap="round" stroke-linejoin="round"/>
<path d="M123.662 310.431L122.448 312.291" stroke="#222222" stroke-width="0.692178" stroke-linecap="round" stroke-linejoin="round"/>
<path d="M42.3837 141.349L35.6684 307.184L58.8884 304.599L67.3535 164.159L72.9654 157.16L74.6837 141.349H42.3837Z" fill="#222222"/>
<path d="M68.4727 141.349C69.5604 141.349 88.7606 307.31 88.7606 307.31L111.933 304.599L92.1972 141.349H68.4727Z" fill="#222222"/>
<path opacity="0.3" d="M47.5859 143.068L41.2962 306.569" stroke="white" stroke-width="0.692178" stroke-miterlimit="10"/>
<path opacity="0.3" d="M72.9653 157.16L96.075 306.459" stroke="white" stroke-width="0.692178" stroke-miterlimit="10"/>
<path d="M137.88 99.0553C145.352 94.3577 143.366 92.7498 143.366 92.7498C143.366 92.7498 135.342 97.6681 135.011 97.8573C132.71 99.276 131.386 99.4967 136.714 96.076C142.783 92.1823 141.601 89.802 141.601 89.802L131.559 95.5085C139.74 89.3606 137.865 87.3429 137.865 87.3429L126.326 94.8622C126.704 86.8384 123.441 85.8138 123.725 88.3045C123.819 89.1715 123.709 90.3695 123.52 91.5676C123.157 93.7745 122.243 95.8238 120.982 97.6681C119.437 99.9223 119.153 102.413 119.153 102.413L98.5813 110.91C98.5813 110.91 94.4197 83.8906 91.3458 71.7367C91.3458 71.7367 86.8689 60.3868 75.8027 62.2785C75.8027 62.2785 81.2885 104.163 83.7319 115.497C84.4255 118.713 84.993 128.534 94.1675 127.178C102.916 125.885 123.63 108.167 123.63 108.167C124.718 107.946 131.433 106.449 137.612 103.107C144.359 99.4494 143.287 97.8415 143.287 97.8415C143.287 97.8415 130.487 103.721 137.912 99.0711L137.88 99.0553Z" fill="#F97869"/>
<path d="M76.922 61.443C76.922 61.443 76.8273 61.443 76.7801 61.4587C76.8589 61.4587 76.922 61.443 76.922 61.443Z" fill="#F97869"/>
<path d="M95.3182 117.861C95.8226 112.123 98.5655 110.91 98.5655 110.91L92.9378 113.148" stroke="#222222" stroke-width="0.692178" stroke-linecap="round" stroke-linejoin="round"/>
<path d="M124.166 102.523C124.166 102.523 128.753 99.5282 131.669 102.366" stroke="#222222" stroke-width="0.692178" stroke-linecap="round" stroke-linejoin="round"/>
<path d="M129.699 94.941C130.014 94.941 133.183 98.5351 134.996 101.83" stroke="#222222" stroke-width="0.692178" stroke-linecap="round" stroke-linejoin="round"/>
<path d="M127.918 97.1637V101.183" stroke="#222222" stroke-width="0.692178" stroke-linecap="round" stroke-linejoin="round"/>
<path d="M61.3317 61.443C43.7866 61.443 41.359 67.1337 41.359 67.1337C41.359 67.1337 43.2507 84.3635 43.2507 96.0444C43.2507 107.725 41.0438 141.87 41.359 141.87C41.6743 141.87 68.0628 148.506 92.875 141.87V94.1527C92.875 78.8304 91.1409 61.443 79.4442 61.443C78.8925 61.443 60.7799 61.443 61.3317 61.443Z" fill="#F36A21"/>
<path d="M41.1857 133.215C38.3325 133.341 35.495 132.837 32.9728 131.529C22.616 126.216 -0.572457 113.81 0.0108016 109.68C0.578297 105.723 20.614 83.26 30.7974 72.0362C34.5334 67.9218 39.5463 65.1789 45.0321 64.2331C47.4282 69.9238 47.3178 76.4185 46.9238 80.391C46.7188 82.4087 46.2932 84.3792 45.6468 86.3024C41.1542 85.8452 14.6238 107.804 14.6238 107.804C14.6238 107.804 23.8614 115.497 28.3856 118.634C32.9255 121.771 36.2201 125.318 38.5532 123.379C40.8862 121.44 44.9375 118.65 44.9375 118.65C49.9031 117.231 56.65 119.217 56.65 119.217C55.4362 121.093 50.6913 120.415 49.1149 120.636C47.5385 120.857 46.9238 123.174 46.9238 123.174C54.711 124.072 58.9042 127.525 58.9042 127.525C58.9042 127.525 58.7465 128.597 56.4608 128.486L59.5663 129.479C59.5663 129.479 59.0618 131.875 55.5623 130.945L58.2106 131.655C58.2106 131.655 58.0214 133.767 54.7741 132.979L56.1298 133.452C56.1298 133.452 56.177 136.021 52.5987 135.044C49.6981 134.24 43.3454 133.231 41.5483 133.184C41.4222 133.184 41.2961 133.184 41.1542 133.184L41.1857 133.215Z" fill="#FB7869"/>
<path d="M56.461 128.518C56.461 128.518 51.6058 126.327 46.4826 125.806" stroke="#222222" stroke-width="0.692178" stroke-linecap="round" stroke-linejoin="round"/>
<path d="M55.5623 130.977C55.5623 130.977 52.1731 129.59 46.1198 128.36" stroke="#222222" stroke-width="0.692178" stroke-linecap="round" stroke-linejoin="round"/>
<path d="M54.7899 133.01C54.7899 133.01 48.7839 131.119 45.7888 130.772" stroke="#222222" stroke-width="0.692178" stroke-linecap="round" stroke-linejoin="round"/>
<path d="M14.6237 107.82C14.6237 107.82 9.92615 106.89 5.73299 108.482" stroke="#222222" stroke-width="0.692178" stroke-linecap="round" stroke-linejoin="round"/>
<path d="M46.4508 29.0799C46.4508 29.0799 44.0547 8.98116 61.0796 7.26291C68.0314 6.55354 67.0856 -0.319462 73.4542 0.0115764C77.0641 0.200741 79.7281 4.20474 80.6739 9.01268C81.935 15.397 77.7104 20.536 79.3341 23.4365C80.9577 26.337 90.5106 47.0822 69.3871 55.8941C69.3871 55.8941 52.4568 55.8153 43.5503 46.4674C32.0428 34.3766 46.4508 29.0957 46.4508 29.0957V29.0799Z" fill="#222222"/>
<path d="M57.6906 64.3277L57.0285 52.8674C62.9714 57.6596 70.2858 55.9887 70.2858 55.9887C70.2858 55.9887 70.5853 55.9099 71.0898 55.7049L73.5804 68.3002C73.5804 68.3002 62.6877 71.8785 57.6906 64.3277Z" fill="#A6645D"/>
<g style="mix-blend-mode:multiply">
<path d="M70.2858 55.9887C70.2858 55.9887 62.9714 57.6596 57.0285 52.8674V53.0409C57.4383 53.6714 57.8482 54.2074 58.258 54.6488C58.7625 55.1847 59.2985 55.6576 59.8344 56.0833C64.2798 59.6616 69.4819 59.6301 71.8307 59.3936L71.1055 55.6892C70.6011 55.8941 70.3016 55.9729 70.3016 55.9729L70.2858 55.9887Z" fill="#A6645D"/>
</g>
<path d="M49.9977 34.3135C50.0607 41.4702 52.5987 48.69 55.3258 51.6063C55.8302 52.1423 56.3662 52.6152 56.9022 53.0408C62.8451 57.833 70.1595 56.1621 70.1595 56.1621C70.1595 56.1621 70.459 56.0832 70.9635 55.8783C73.6591 54.8064 82.0611 50.4083 80.0434 37.482C78.8611 29.8997 75.3458 24.5873 72.0985 21.1665C69.8285 18.7704 65.9191 19.5271 64.658 22.5695C63.1131 26.2897 59.5032 30.8297 51.243 33.9982L50.0134 34.3135H49.9977Z" fill="#A6645D"/>
<path opacity="0.1" d="M70.9478 55.8783C70.4434 56.0833 70.1439 56.1621 70.1439 56.1621C70.1439 56.1621 62.8295 57.833 56.8865 53.0409C56.3506 52.6152 55.8146 52.1423 55.3102 51.6064C52.583 48.6901 50.0451 41.4703 49.982 34.3135C53.6234 43.4092 57.4067 48.2329 65.1625 42.8732C70.1754 39.4052 72.0355 43.157 74.3212 43.22C76.0237 43.2673 78.1676 41.2338 80.1854 38.6801C81.5095 50.6921 73.5488 54.8537 70.932 55.8783H70.9478Z" fill="#222222"/>
<path d="M63.0657 36.5363C63.1288 37.2299 63.7436 37.7343 64.4372 37.6713C65.1308 37.6082 65.6352 36.9934 65.5722 36.2998C65.5091 35.6062 64.8943 35.1018 64.2007 35.1648C63.5071 35.2279 63.0027 35.8427 63.0657 36.5363Z" fill="#222222"/>
<path d="M62.845 30.5618C61.9465 31.1293 60.9534 32.0909 60.2125 33.683" stroke="#222222" stroke-width="0.692178" stroke-linecap="round" stroke-linejoin="round"/>
<path d="M71.4522 29.08C72.5241 29.1588 73.8483 29.5371 75.2355 30.5933" stroke="#222222" stroke-width="0.692178" stroke-linecap="round" stroke-linejoin="round"/>
<path d="M68.5517 32.9264C68.5517 32.9264 68.8039 35.4328 71.3261 37.2141C74.3843 39.3738 73.6118 40.5403 71.3892 41.8644" stroke="#222222" stroke-width="0.692178" stroke-linecap="round" stroke-linejoin="round"/>
<g style="mix-blend-mode:multiply" opacity="0.5">
<path d="M61.0479 40.2408C61.7415 39.1215 62.8607 40.3196 62.8607 40.3196C62.8607 40.3196 63.4282 38.5856 64.5002 39.3265C65.4302 39.9728 64.4213 42.558 63.6331 42.7945C62.8449 43.0152 60.4489 41.2023 61.0479 40.2408Z" fill="#F43D4F"/>
</g>
<g style="mix-blend-mode:multiply" opacity="0.5">
<path d="M78.1519 38.9639C77.474 37.8289 76.339 39.0112 76.339 39.0112C76.339 39.0112 75.803 37.2771 74.7153 38.0023C73.7695 38.6328 74.7311 41.2496 75.5193 41.4861C76.3075 41.7225 78.7351 39.9412 78.1519 38.9796V38.9639Z" fill="#F43D4F"/>
</g>
<path d="M71.8148 45.4427C71.8148 45.4427 68.2994 46.8457 65.9506 43.5826" stroke="#222222" stroke-width="0.692178" stroke-linecap="round" stroke-linejoin="round"/>
<path d="M74.8098 33.8092C75.0305 34.4713 74.6837 35.1806 74.0216 35.4171C73.3595 35.6378 72.6502 35.291 72.4137 34.6289C72.193 33.9668 72.5398 33.2575 73.2019 33.021C73.864 32.8003 74.5733 33.1471 74.8098 33.8092Z" fill="#222222"/>
<path d="M49.8557 45.8526C49.8557 45.8526 44.2596 46.4358 43.2507 40.6663C42.226 34.8652 48.0113 35.1805 48.0113 35.1805C48.0113 35.1805 47.6645 39.484 49.8557 45.8526Z" fill="#A6645D"/>
<path d="M46.829 37.419C46.829 37.419 44.5906 37.4821 44.2595 40.0043" stroke="#222222" stroke-width="0.692178" stroke-linecap="round" stroke-linejoin="round"/>
<path d="M45.568 38.081C45.568 38.081 45.3788 40.5402 47.3966 42.2584" stroke="#222222" stroke-width="0.692178" stroke-linecap="round" stroke-linejoin="round"/>
<path d="M81.8246 39.4052C81.8246 39.4052 86.5379 37.9707 85.4029 32.9893C84.2522 27.9607 79.6965 30.1834 79.6965 30.1834C79.6965 30.1834 81.4305 33.5411 81.8246 39.4209V39.4052Z" fill="#A6645D"/>
<path d="M81.4146 31.5706C81.4146 31.5706 83.2432 30.8612 84.3625 32.7844" stroke="#222222" stroke-width="0.692178" stroke-linecap="round" stroke-linejoin="round"/>
<path d="M82.6443 31.6809C82.6443 31.6809 83.6375 33.6041 82.5813 35.6691" stroke="#222222" stroke-width="0.692178" stroke-linecap="round" stroke-linejoin="round"/>
<path d="M47.8222 63.0823C47.8222 63.0823 31.5698 63.5079 12.1331 91.1576C12.1331 91.1576 19.2426 99.134 28.2437 101.278C28.2437 101.278 43.1246 90.0383 47.5227 87.3743C47.5227 87.3743 53.7021 69.5297 47.8222 63.0981V63.0823Z" fill="#F36A21"/>
<path d="M75.7398 61.8843C75.7398 61.8843 91.0622 58.0537 94.1361 80.2491L97.1943 102.444L80.3428 106.322L75.7398 61.8843Z" fill="#F36A21"/>
<path d="M92.8752 141.87V94.1527C92.8752 78.8304 91.1412 61.443 79.4445 61.443" stroke="#222222" stroke-width="0.692178" stroke-linecap="round" stroke-linejoin="round"/>
<path d="M127.79 82.5492L125.006 108.172C124.873 109.401 125.761 110.506 126.99 110.639L141.361 112.2C142.59 112.334 143.694 111.446 143.828 110.217L146.611 84.5939C146.745 83.3648 145.857 82.2603 144.628 82.1268L130.257 80.5656C129.028 80.4321 127.923 81.3202 127.79 82.5492Z" fill="#7C7C7C"/>
<path d="M127.686 83.3449L125.079 107.338L143.901 109.383L146.507 85.3896L127.686 83.3449Z" fill="white"/>
<path d="M134.255 82.9919L140.198 83.6383" stroke="white" stroke-width="0.692178" stroke-miterlimit="10"/>
<path d="M135.658 109.822C135.626 110.358 135.169 110.783 134.633 110.752C134.097 110.72 133.672 110.263 133.703 109.727C133.735 109.191 134.192 108.766 134.728 108.797C135.264 108.829 135.689 109.286 135.658 109.822Z" fill="white"/>
</svg>
