<svg width="20" height="20" viewBox="0 0 20 20" fill="none" xmlns="http://www.w3.org/2000/svg">
<path fill-rule="evenodd" clip-rule="evenodd" d="M9.99994 0C10.5356 0 11.0727 0.0415532 11.532 0.125247C11.7616 0.167075 11.9835 0.221519 12.1825 0.292265C12.3634 0.356549 12.6052 0.461531 12.8097 0.642731C13.223 1.00904 13.2611 1.64105 12.8948 2.05438C12.5455 2.44855 11.9545 2.50148 11.542 2.18785C11.5347 2.18488 11.5251 2.18115 11.5128 2.17679C11.4437 2.15223 11.332 2.12174 11.1735 2.09285C10.8566 2.03511 10.4427 2 9.99994 2C9.55722 2 9.14329 2.03511 8.82641 2.09285C8.66786 2.12174 8.55622 2.15223 8.48711 2.17679C8.47483 2.18115 8.46517 2.18488 8.45786 2.18785C8.04536 2.50148 7.45438 2.44855 7.10505 2.05438C6.73874 1.64105 6.77686 1.00904 7.19019 0.642732C7.39465 0.461532 7.63648 0.35655 7.81736 0.292265C8.01642 0.221519 8.23832 0.167076 8.46788 0.125247C8.92719 0.0415533 9.4643 0 9.99994 0ZM0 4.16623H20V7.33246C19.7936 7.33246 19.6905 7.33246 19.6035 7.34007C18.6366 7.42466 17.87 8.19125 17.7854 9.15815C17.7778 9.24514 17.7778 9.34832 17.7778 9.55468V13.9974C17.7778 16.8258 17.7778 18.24 16.8991 19.1187C16.0204 19.9974 14.6062 19.9974 11.7778 19.9974H8.22223C5.3938 19.9974 3.97958 19.9974 3.1009 19.1187C2.22222 18.24 2.22222 16.8258 2.22222 13.9974V9.55468C2.22222 9.34832 2.22222 9.24514 2.21461 9.15815C2.13002 8.19125 1.36343 7.42466 0.396533 7.34007C0.309544 7.33246 0.206363 7.33246 0 7.33246V4.16623ZM7.22217 8.44327C7.77445 8.44327 8.22217 8.89099 8.22217 9.44327V14.7203C8.22217 15.2726 7.77445 15.7203 7.22217 15.7203C6.66988 15.7203 6.22217 15.2726 6.22217 14.7203V9.44327C6.22217 8.89099 6.66988 8.44327 7.22217 8.44327ZM12.7777 8.44327C13.33 8.44327 13.7777 8.89099 13.7777 9.44327V14.7203C13.7777 15.2726 13.33 15.7203 12.7777 15.7203C12.2254 15.7203 11.7777 15.2726 11.7777 14.7203V9.44327C11.7777 8.89099 12.2254 8.44327 12.7777 8.44327Z" fill="#E6010F"/>
</svg>
